%TF.GenerationSoftware,KiCad,Pcbnew,8.0.8*%
%TF.CreationDate,2025-03-14T01:28:21-06:00*%
%TF.ProjectId,WeatherBalloon,57656174-6865-4724-9261-6c6c6f6f6e2e,rev?*%
%TF.SameCoordinates,Original*%
%TF.FileFunction,AssemblyDrawing,Top*%
%FSLAX46Y46*%
G04 Gerber Fmt 4.6, Leading zero omitted, Abs format (unit mm)*
G04 Created by KiCad (PCBNEW 8.0.8) date 2025-03-14 01:28:21*
%MOMM*%
%LPD*%
G01*
G04 APERTURE LIST*
%ADD10C,0.254000*%
%ADD11C,0.150000*%
%ADD12C,0.120000*%
%ADD13C,0.200000*%
%ADD14C,0.100000*%
%ADD15C,0.127000*%
%ADD16C,0.300000*%
G04 APERTURE END LIST*
D10*
X138404818Y-81603332D02*
X139311961Y-81603332D01*
X139311961Y-81603332D02*
X139493389Y-81663809D01*
X139493389Y-81663809D02*
X139614342Y-81784761D01*
X139614342Y-81784761D02*
X139674818Y-81966190D01*
X139674818Y-81966190D02*
X139674818Y-82087142D01*
X138949103Y-80817142D02*
X138888627Y-80938094D01*
X138888627Y-80938094D02*
X138828151Y-80998571D01*
X138828151Y-80998571D02*
X138707199Y-81059047D01*
X138707199Y-81059047D02*
X138646722Y-81059047D01*
X138646722Y-81059047D02*
X138525770Y-80998571D01*
X138525770Y-80998571D02*
X138465294Y-80938094D01*
X138465294Y-80938094D02*
X138404818Y-80817142D01*
X138404818Y-80817142D02*
X138404818Y-80575237D01*
X138404818Y-80575237D02*
X138465294Y-80454285D01*
X138465294Y-80454285D02*
X138525770Y-80393809D01*
X138525770Y-80393809D02*
X138646722Y-80333332D01*
X138646722Y-80333332D02*
X138707199Y-80333332D01*
X138707199Y-80333332D02*
X138828151Y-80393809D01*
X138828151Y-80393809D02*
X138888627Y-80454285D01*
X138888627Y-80454285D02*
X138949103Y-80575237D01*
X138949103Y-80575237D02*
X138949103Y-80817142D01*
X138949103Y-80817142D02*
X139009580Y-80938094D01*
X139009580Y-80938094D02*
X139070056Y-80998571D01*
X139070056Y-80998571D02*
X139191008Y-81059047D01*
X139191008Y-81059047D02*
X139432913Y-81059047D01*
X139432913Y-81059047D02*
X139553865Y-80998571D01*
X139553865Y-80998571D02*
X139614342Y-80938094D01*
X139614342Y-80938094D02*
X139674818Y-80817142D01*
X139674818Y-80817142D02*
X139674818Y-80575237D01*
X139674818Y-80575237D02*
X139614342Y-80454285D01*
X139614342Y-80454285D02*
X139553865Y-80393809D01*
X139553865Y-80393809D02*
X139432913Y-80333332D01*
X139432913Y-80333332D02*
X139191008Y-80333332D01*
X139191008Y-80333332D02*
X139070056Y-80393809D01*
X139070056Y-80393809D02*
X139009580Y-80454285D01*
X139009580Y-80454285D02*
X138949103Y-80575237D01*
D11*
X134853809Y-101724819D02*
X134853809Y-100724819D01*
X134853809Y-100724819D02*
X135234761Y-100724819D01*
X135234761Y-100724819D02*
X135329999Y-100772438D01*
X135329999Y-100772438D02*
X135377618Y-100820057D01*
X135377618Y-100820057D02*
X135425237Y-100915295D01*
X135425237Y-100915295D02*
X135425237Y-101058152D01*
X135425237Y-101058152D02*
X135377618Y-101153390D01*
X135377618Y-101153390D02*
X135329999Y-101201009D01*
X135329999Y-101201009D02*
X135234761Y-101248628D01*
X135234761Y-101248628D02*
X134853809Y-101248628D01*
X135996666Y-101724819D02*
X135901428Y-101677200D01*
X135901428Y-101677200D02*
X135853809Y-101629580D01*
X135853809Y-101629580D02*
X135806190Y-101534342D01*
X135806190Y-101534342D02*
X135806190Y-101248628D01*
X135806190Y-101248628D02*
X135853809Y-101153390D01*
X135853809Y-101153390D02*
X135901428Y-101105771D01*
X135901428Y-101105771D02*
X135996666Y-101058152D01*
X135996666Y-101058152D02*
X136139523Y-101058152D01*
X136139523Y-101058152D02*
X136234761Y-101105771D01*
X136234761Y-101105771D02*
X136282380Y-101153390D01*
X136282380Y-101153390D02*
X136329999Y-101248628D01*
X136329999Y-101248628D02*
X136329999Y-101534342D01*
X136329999Y-101534342D02*
X136282380Y-101629580D01*
X136282380Y-101629580D02*
X136234761Y-101677200D01*
X136234761Y-101677200D02*
X136139523Y-101724819D01*
X136139523Y-101724819D02*
X135996666Y-101724819D01*
X136663333Y-101058152D02*
X136853809Y-101724819D01*
X136853809Y-101724819D02*
X137044285Y-101248628D01*
X137044285Y-101248628D02*
X137234761Y-101724819D01*
X137234761Y-101724819D02*
X137425237Y-101058152D01*
X138187142Y-101677200D02*
X138091904Y-101724819D01*
X138091904Y-101724819D02*
X137901428Y-101724819D01*
X137901428Y-101724819D02*
X137806190Y-101677200D01*
X137806190Y-101677200D02*
X137758571Y-101581961D01*
X137758571Y-101581961D02*
X137758571Y-101201009D01*
X137758571Y-101201009D02*
X137806190Y-101105771D01*
X137806190Y-101105771D02*
X137901428Y-101058152D01*
X137901428Y-101058152D02*
X138091904Y-101058152D01*
X138091904Y-101058152D02*
X138187142Y-101105771D01*
X138187142Y-101105771D02*
X138234761Y-101201009D01*
X138234761Y-101201009D02*
X138234761Y-101296247D01*
X138234761Y-101296247D02*
X137758571Y-101391485D01*
X138663333Y-101724819D02*
X138663333Y-101058152D01*
X138663333Y-101248628D02*
X138710952Y-101153390D01*
X138710952Y-101153390D02*
X138758571Y-101105771D01*
X138758571Y-101105771D02*
X138853809Y-101058152D01*
X138853809Y-101058152D02*
X138949047Y-101058152D01*
X127606666Y-100724819D02*
X127606666Y-101439104D01*
X127606666Y-101439104D02*
X127559047Y-101581961D01*
X127559047Y-101581961D02*
X127463809Y-101677200D01*
X127463809Y-101677200D02*
X127320952Y-101724819D01*
X127320952Y-101724819D02*
X127225714Y-101724819D01*
X128606666Y-101724819D02*
X128035238Y-101724819D01*
X128320952Y-101724819D02*
X128320952Y-100724819D01*
X128320952Y-100724819D02*
X128225714Y-100867676D01*
X128225714Y-100867676D02*
X128130476Y-100962914D01*
X128130476Y-100962914D02*
X128035238Y-101010533D01*
X154840476Y-101439104D02*
X155316666Y-101439104D01*
X154745238Y-101724819D02*
X155078571Y-100724819D01*
X155078571Y-100724819D02*
X155411904Y-101724819D01*
X155745238Y-101058152D02*
X155745238Y-101724819D01*
X155745238Y-101153390D02*
X155792857Y-101105771D01*
X155792857Y-101105771D02*
X155888095Y-101058152D01*
X155888095Y-101058152D02*
X156030952Y-101058152D01*
X156030952Y-101058152D02*
X156126190Y-101105771D01*
X156126190Y-101105771D02*
X156173809Y-101201009D01*
X156173809Y-101201009D02*
X156173809Y-101724819D01*
X157078571Y-101724819D02*
X157078571Y-101201009D01*
X157078571Y-101201009D02*
X157030952Y-101105771D01*
X157030952Y-101105771D02*
X156935714Y-101058152D01*
X156935714Y-101058152D02*
X156745238Y-101058152D01*
X156745238Y-101058152D02*
X156650000Y-101105771D01*
X157078571Y-101677200D02*
X156983333Y-101724819D01*
X156983333Y-101724819D02*
X156745238Y-101724819D01*
X156745238Y-101724819D02*
X156650000Y-101677200D01*
X156650000Y-101677200D02*
X156602381Y-101581961D01*
X156602381Y-101581961D02*
X156602381Y-101486723D01*
X156602381Y-101486723D02*
X156650000Y-101391485D01*
X156650000Y-101391485D02*
X156745238Y-101343866D01*
X156745238Y-101343866D02*
X156983333Y-101343866D01*
X156983333Y-101343866D02*
X157078571Y-101296247D01*
X157697619Y-101724819D02*
X157602381Y-101677200D01*
X157602381Y-101677200D02*
X157554762Y-101581961D01*
X157554762Y-101581961D02*
X157554762Y-100724819D01*
X158221429Y-101724819D02*
X158126191Y-101677200D01*
X158126191Y-101677200D02*
X158078572Y-101629580D01*
X158078572Y-101629580D02*
X158030953Y-101534342D01*
X158030953Y-101534342D02*
X158030953Y-101248628D01*
X158030953Y-101248628D02*
X158078572Y-101153390D01*
X158078572Y-101153390D02*
X158126191Y-101105771D01*
X158126191Y-101105771D02*
X158221429Y-101058152D01*
X158221429Y-101058152D02*
X158364286Y-101058152D01*
X158364286Y-101058152D02*
X158459524Y-101105771D01*
X158459524Y-101105771D02*
X158507143Y-101153390D01*
X158507143Y-101153390D02*
X158554762Y-101248628D01*
X158554762Y-101248628D02*
X158554762Y-101534342D01*
X158554762Y-101534342D02*
X158507143Y-101629580D01*
X158507143Y-101629580D02*
X158459524Y-101677200D01*
X158459524Y-101677200D02*
X158364286Y-101724819D01*
X158364286Y-101724819D02*
X158221429Y-101724819D01*
X159411905Y-101058152D02*
X159411905Y-101867676D01*
X159411905Y-101867676D02*
X159364286Y-101962914D01*
X159364286Y-101962914D02*
X159316667Y-102010533D01*
X159316667Y-102010533D02*
X159221429Y-102058152D01*
X159221429Y-102058152D02*
X159078572Y-102058152D01*
X159078572Y-102058152D02*
X158983334Y-102010533D01*
X159411905Y-101677200D02*
X159316667Y-101724819D01*
X159316667Y-101724819D02*
X159126191Y-101724819D01*
X159126191Y-101724819D02*
X159030953Y-101677200D01*
X159030953Y-101677200D02*
X158983334Y-101629580D01*
X158983334Y-101629580D02*
X158935715Y-101534342D01*
X158935715Y-101534342D02*
X158935715Y-101248628D01*
X158935715Y-101248628D02*
X158983334Y-101153390D01*
X158983334Y-101153390D02*
X159030953Y-101105771D01*
X159030953Y-101105771D02*
X159126191Y-101058152D01*
X159126191Y-101058152D02*
X159316667Y-101058152D01*
X159316667Y-101058152D02*
X159411905Y-101105771D01*
X150466666Y-100724819D02*
X150466666Y-101439104D01*
X150466666Y-101439104D02*
X150419047Y-101581961D01*
X150419047Y-101581961D02*
X150323809Y-101677200D01*
X150323809Y-101677200D02*
X150180952Y-101724819D01*
X150180952Y-101724819D02*
X150085714Y-101724819D01*
X150847619Y-100724819D02*
X151466666Y-100724819D01*
X151466666Y-100724819D02*
X151133333Y-101105771D01*
X151133333Y-101105771D02*
X151276190Y-101105771D01*
X151276190Y-101105771D02*
X151371428Y-101153390D01*
X151371428Y-101153390D02*
X151419047Y-101201009D01*
X151419047Y-101201009D02*
X151466666Y-101296247D01*
X151466666Y-101296247D02*
X151466666Y-101534342D01*
X151466666Y-101534342D02*
X151419047Y-101629580D01*
X151419047Y-101629580D02*
X151371428Y-101677200D01*
X151371428Y-101677200D02*
X151276190Y-101724819D01*
X151276190Y-101724819D02*
X150990476Y-101724819D01*
X150990476Y-101724819D02*
X150895238Y-101677200D01*
X150895238Y-101677200D02*
X150847619Y-101629580D01*
X125868857Y-45844819D02*
X125868857Y-44844819D01*
X125868857Y-44844819D02*
X126106952Y-44844819D01*
X126106952Y-44844819D02*
X126249809Y-44892438D01*
X126249809Y-44892438D02*
X126345047Y-44987676D01*
X126345047Y-44987676D02*
X126392666Y-45082914D01*
X126392666Y-45082914D02*
X126440285Y-45273390D01*
X126440285Y-45273390D02*
X126440285Y-45416247D01*
X126440285Y-45416247D02*
X126392666Y-45606723D01*
X126392666Y-45606723D02*
X126345047Y-45701961D01*
X126345047Y-45701961D02*
X126249809Y-45797200D01*
X126249809Y-45797200D02*
X126106952Y-45844819D01*
X126106952Y-45844819D02*
X125868857Y-45844819D01*
X126868857Y-45844819D02*
X126868857Y-45178152D01*
X126868857Y-44844819D02*
X126821238Y-44892438D01*
X126821238Y-44892438D02*
X126868857Y-44940057D01*
X126868857Y-44940057D02*
X126916476Y-44892438D01*
X126916476Y-44892438D02*
X126868857Y-44844819D01*
X126868857Y-44844819D02*
X126868857Y-44940057D01*
X127773618Y-45178152D02*
X127773618Y-45987676D01*
X127773618Y-45987676D02*
X127725999Y-46082914D01*
X127725999Y-46082914D02*
X127678380Y-46130533D01*
X127678380Y-46130533D02*
X127583142Y-46178152D01*
X127583142Y-46178152D02*
X127440285Y-46178152D01*
X127440285Y-46178152D02*
X127345047Y-46130533D01*
X127773618Y-45797200D02*
X127678380Y-45844819D01*
X127678380Y-45844819D02*
X127487904Y-45844819D01*
X127487904Y-45844819D02*
X127392666Y-45797200D01*
X127392666Y-45797200D02*
X127345047Y-45749580D01*
X127345047Y-45749580D02*
X127297428Y-45654342D01*
X127297428Y-45654342D02*
X127297428Y-45368628D01*
X127297428Y-45368628D02*
X127345047Y-45273390D01*
X127345047Y-45273390D02*
X127392666Y-45225771D01*
X127392666Y-45225771D02*
X127487904Y-45178152D01*
X127487904Y-45178152D02*
X127678380Y-45178152D01*
X127678380Y-45178152D02*
X127773618Y-45225771D01*
X128249809Y-45844819D02*
X128249809Y-45178152D01*
X128249809Y-44844819D02*
X128202190Y-44892438D01*
X128202190Y-44892438D02*
X128249809Y-44940057D01*
X128249809Y-44940057D02*
X128297428Y-44892438D01*
X128297428Y-44892438D02*
X128249809Y-44844819D01*
X128249809Y-44844819D02*
X128249809Y-44940057D01*
X128583142Y-45178152D02*
X128964094Y-45178152D01*
X128725999Y-44844819D02*
X128725999Y-45701961D01*
X128725999Y-45701961D02*
X128773618Y-45797200D01*
X128773618Y-45797200D02*
X128868856Y-45844819D01*
X128868856Y-45844819D02*
X128964094Y-45844819D01*
X129725999Y-45844819D02*
X129725999Y-45321009D01*
X129725999Y-45321009D02*
X129678380Y-45225771D01*
X129678380Y-45225771D02*
X129583142Y-45178152D01*
X129583142Y-45178152D02*
X129392666Y-45178152D01*
X129392666Y-45178152D02*
X129297428Y-45225771D01*
X129725999Y-45797200D02*
X129630761Y-45844819D01*
X129630761Y-45844819D02*
X129392666Y-45844819D01*
X129392666Y-45844819D02*
X129297428Y-45797200D01*
X129297428Y-45797200D02*
X129249809Y-45701961D01*
X129249809Y-45701961D02*
X129249809Y-45606723D01*
X129249809Y-45606723D02*
X129297428Y-45511485D01*
X129297428Y-45511485D02*
X129392666Y-45463866D01*
X129392666Y-45463866D02*
X129630761Y-45463866D01*
X129630761Y-45463866D02*
X129725999Y-45416247D01*
X130345047Y-45844819D02*
X130249809Y-45797200D01*
X130249809Y-45797200D02*
X130202190Y-45701961D01*
X130202190Y-45701961D02*
X130202190Y-44844819D01*
X131440285Y-44797200D02*
X130583143Y-46082914D01*
X131773619Y-45844819D02*
X131773619Y-44844819D01*
X131773619Y-44844819D02*
X132154571Y-44844819D01*
X132154571Y-44844819D02*
X132249809Y-44892438D01*
X132249809Y-44892438D02*
X132297428Y-44940057D01*
X132297428Y-44940057D02*
X132345047Y-45035295D01*
X132345047Y-45035295D02*
X132345047Y-45178152D01*
X132345047Y-45178152D02*
X132297428Y-45273390D01*
X132297428Y-45273390D02*
X132249809Y-45321009D01*
X132249809Y-45321009D02*
X132154571Y-45368628D01*
X132154571Y-45368628D02*
X131773619Y-45368628D01*
X132678381Y-44844819D02*
X132916476Y-45844819D01*
X132916476Y-45844819D02*
X133106952Y-45130533D01*
X133106952Y-45130533D02*
X133297428Y-45844819D01*
X133297428Y-45844819D02*
X133535524Y-44844819D01*
X133916476Y-45844819D02*
X133916476Y-44844819D01*
X133916476Y-44844819D02*
X134249809Y-45559104D01*
X134249809Y-45559104D02*
X134583142Y-44844819D01*
X134583142Y-44844819D02*
X134583142Y-45844819D01*
X118462666Y-44844819D02*
X118462666Y-45559104D01*
X118462666Y-45559104D02*
X118415047Y-45701961D01*
X118415047Y-45701961D02*
X118319809Y-45797200D01*
X118319809Y-45797200D02*
X118176952Y-45844819D01*
X118176952Y-45844819D02*
X118081714Y-45844819D01*
X118891238Y-44940057D02*
X118938857Y-44892438D01*
X118938857Y-44892438D02*
X119034095Y-44844819D01*
X119034095Y-44844819D02*
X119272190Y-44844819D01*
X119272190Y-44844819D02*
X119367428Y-44892438D01*
X119367428Y-44892438D02*
X119415047Y-44940057D01*
X119415047Y-44940057D02*
X119462666Y-45035295D01*
X119462666Y-45035295D02*
X119462666Y-45130533D01*
X119462666Y-45130533D02*
X119415047Y-45273390D01*
X119415047Y-45273390D02*
X118843619Y-45844819D01*
X118843619Y-45844819D02*
X119462666Y-45844819D01*
X150252857Y-45844819D02*
X150252857Y-44844819D01*
X150252857Y-44844819D02*
X150490952Y-44844819D01*
X150490952Y-44844819D02*
X150633809Y-44892438D01*
X150633809Y-44892438D02*
X150729047Y-44987676D01*
X150729047Y-44987676D02*
X150776666Y-45082914D01*
X150776666Y-45082914D02*
X150824285Y-45273390D01*
X150824285Y-45273390D02*
X150824285Y-45416247D01*
X150824285Y-45416247D02*
X150776666Y-45606723D01*
X150776666Y-45606723D02*
X150729047Y-45701961D01*
X150729047Y-45701961D02*
X150633809Y-45797200D01*
X150633809Y-45797200D02*
X150490952Y-45844819D01*
X150490952Y-45844819D02*
X150252857Y-45844819D01*
X151252857Y-45844819D02*
X151252857Y-45178152D01*
X151252857Y-44844819D02*
X151205238Y-44892438D01*
X151205238Y-44892438D02*
X151252857Y-44940057D01*
X151252857Y-44940057D02*
X151300476Y-44892438D01*
X151300476Y-44892438D02*
X151252857Y-44844819D01*
X151252857Y-44844819D02*
X151252857Y-44940057D01*
X152157618Y-45178152D02*
X152157618Y-45987676D01*
X152157618Y-45987676D02*
X152109999Y-46082914D01*
X152109999Y-46082914D02*
X152062380Y-46130533D01*
X152062380Y-46130533D02*
X151967142Y-46178152D01*
X151967142Y-46178152D02*
X151824285Y-46178152D01*
X151824285Y-46178152D02*
X151729047Y-46130533D01*
X152157618Y-45797200D02*
X152062380Y-45844819D01*
X152062380Y-45844819D02*
X151871904Y-45844819D01*
X151871904Y-45844819D02*
X151776666Y-45797200D01*
X151776666Y-45797200D02*
X151729047Y-45749580D01*
X151729047Y-45749580D02*
X151681428Y-45654342D01*
X151681428Y-45654342D02*
X151681428Y-45368628D01*
X151681428Y-45368628D02*
X151729047Y-45273390D01*
X151729047Y-45273390D02*
X151776666Y-45225771D01*
X151776666Y-45225771D02*
X151871904Y-45178152D01*
X151871904Y-45178152D02*
X152062380Y-45178152D01*
X152062380Y-45178152D02*
X152157618Y-45225771D01*
X152633809Y-45844819D02*
X152633809Y-45178152D01*
X152633809Y-44844819D02*
X152586190Y-44892438D01*
X152586190Y-44892438D02*
X152633809Y-44940057D01*
X152633809Y-44940057D02*
X152681428Y-44892438D01*
X152681428Y-44892438D02*
X152633809Y-44844819D01*
X152633809Y-44844819D02*
X152633809Y-44940057D01*
X152967142Y-45178152D02*
X153348094Y-45178152D01*
X153109999Y-44844819D02*
X153109999Y-45701961D01*
X153109999Y-45701961D02*
X153157618Y-45797200D01*
X153157618Y-45797200D02*
X153252856Y-45844819D01*
X153252856Y-45844819D02*
X153348094Y-45844819D01*
X154109999Y-45844819D02*
X154109999Y-45321009D01*
X154109999Y-45321009D02*
X154062380Y-45225771D01*
X154062380Y-45225771D02*
X153967142Y-45178152D01*
X153967142Y-45178152D02*
X153776666Y-45178152D01*
X153776666Y-45178152D02*
X153681428Y-45225771D01*
X154109999Y-45797200D02*
X154014761Y-45844819D01*
X154014761Y-45844819D02*
X153776666Y-45844819D01*
X153776666Y-45844819D02*
X153681428Y-45797200D01*
X153681428Y-45797200D02*
X153633809Y-45701961D01*
X153633809Y-45701961D02*
X153633809Y-45606723D01*
X153633809Y-45606723D02*
X153681428Y-45511485D01*
X153681428Y-45511485D02*
X153776666Y-45463866D01*
X153776666Y-45463866D02*
X154014761Y-45463866D01*
X154014761Y-45463866D02*
X154109999Y-45416247D01*
X154729047Y-45844819D02*
X154633809Y-45797200D01*
X154633809Y-45797200D02*
X154586190Y-45701961D01*
X154586190Y-45701961D02*
X154586190Y-44844819D01*
X155824285Y-44797200D02*
X154967143Y-46082914D01*
X156157619Y-45844819D02*
X156157619Y-44844819D01*
X156157619Y-44844819D02*
X156538571Y-44844819D01*
X156538571Y-44844819D02*
X156633809Y-44892438D01*
X156633809Y-44892438D02*
X156681428Y-44940057D01*
X156681428Y-44940057D02*
X156729047Y-45035295D01*
X156729047Y-45035295D02*
X156729047Y-45178152D01*
X156729047Y-45178152D02*
X156681428Y-45273390D01*
X156681428Y-45273390D02*
X156633809Y-45321009D01*
X156633809Y-45321009D02*
X156538571Y-45368628D01*
X156538571Y-45368628D02*
X156157619Y-45368628D01*
X157062381Y-44844819D02*
X157300476Y-45844819D01*
X157300476Y-45844819D02*
X157490952Y-45130533D01*
X157490952Y-45130533D02*
X157681428Y-45844819D01*
X157681428Y-45844819D02*
X157919524Y-44844819D01*
X158300476Y-45844819D02*
X158300476Y-44844819D01*
X158300476Y-44844819D02*
X158633809Y-45559104D01*
X158633809Y-45559104D02*
X158967142Y-44844819D01*
X158967142Y-44844819D02*
X158967142Y-45844819D01*
X145386666Y-44844819D02*
X145386666Y-45559104D01*
X145386666Y-45559104D02*
X145339047Y-45701961D01*
X145339047Y-45701961D02*
X145243809Y-45797200D01*
X145243809Y-45797200D02*
X145100952Y-45844819D01*
X145100952Y-45844819D02*
X145005714Y-45844819D01*
X146291428Y-45178152D02*
X146291428Y-45844819D01*
X146053333Y-44797200D02*
X145815238Y-45511485D01*
X145815238Y-45511485D02*
X146434285Y-45511485D01*
X154824762Y-74089104D02*
X155300952Y-74089104D01*
X154729524Y-74374819D02*
X155062857Y-73374819D01*
X155062857Y-73374819D02*
X155396190Y-74374819D01*
X156300952Y-74279580D02*
X156253333Y-74327200D01*
X156253333Y-74327200D02*
X156110476Y-74374819D01*
X156110476Y-74374819D02*
X156015238Y-74374819D01*
X156015238Y-74374819D02*
X155872381Y-74327200D01*
X155872381Y-74327200D02*
X155777143Y-74231961D01*
X155777143Y-74231961D02*
X155729524Y-74136723D01*
X155729524Y-74136723D02*
X155681905Y-73946247D01*
X155681905Y-73946247D02*
X155681905Y-73803390D01*
X155681905Y-73803390D02*
X155729524Y-73612914D01*
X155729524Y-73612914D02*
X155777143Y-73517676D01*
X155777143Y-73517676D02*
X155872381Y-73422438D01*
X155872381Y-73422438D02*
X156015238Y-73374819D01*
X156015238Y-73374819D02*
X156110476Y-73374819D01*
X156110476Y-73374819D02*
X156253333Y-73422438D01*
X156253333Y-73422438D02*
X156300952Y-73470057D01*
X157300952Y-74279580D02*
X157253333Y-74327200D01*
X157253333Y-74327200D02*
X157110476Y-74374819D01*
X157110476Y-74374819D02*
X157015238Y-74374819D01*
X157015238Y-74374819D02*
X156872381Y-74327200D01*
X156872381Y-74327200D02*
X156777143Y-74231961D01*
X156777143Y-74231961D02*
X156729524Y-74136723D01*
X156729524Y-74136723D02*
X156681905Y-73946247D01*
X156681905Y-73946247D02*
X156681905Y-73803390D01*
X156681905Y-73803390D02*
X156729524Y-73612914D01*
X156729524Y-73612914D02*
X156777143Y-73517676D01*
X156777143Y-73517676D02*
X156872381Y-73422438D01*
X156872381Y-73422438D02*
X157015238Y-73374819D01*
X157015238Y-73374819D02*
X157110476Y-73374819D01*
X157110476Y-73374819D02*
X157253333Y-73422438D01*
X157253333Y-73422438D02*
X157300952Y-73470057D01*
X157729524Y-73851009D02*
X158062857Y-73851009D01*
X158205714Y-74374819D02*
X157729524Y-74374819D01*
X157729524Y-74374819D02*
X157729524Y-73374819D01*
X157729524Y-73374819D02*
X158205714Y-73374819D01*
X159110476Y-74374819D02*
X158634286Y-74374819D01*
X158634286Y-74374819D02*
X158634286Y-73374819D01*
X157356666Y-70814819D02*
X157356666Y-71529104D01*
X157356666Y-71529104D02*
X157309047Y-71671961D01*
X157309047Y-71671961D02*
X157213809Y-71767200D01*
X157213809Y-71767200D02*
X157070952Y-71814819D01*
X157070952Y-71814819D02*
X156975714Y-71814819D01*
X157880476Y-71814819D02*
X158070952Y-71814819D01*
X158070952Y-71814819D02*
X158166190Y-71767200D01*
X158166190Y-71767200D02*
X158213809Y-71719580D01*
X158213809Y-71719580D02*
X158309047Y-71576723D01*
X158309047Y-71576723D02*
X158356666Y-71386247D01*
X158356666Y-71386247D02*
X158356666Y-71005295D01*
X158356666Y-71005295D02*
X158309047Y-70910057D01*
X158309047Y-70910057D02*
X158261428Y-70862438D01*
X158261428Y-70862438D02*
X158166190Y-70814819D01*
X158166190Y-70814819D02*
X157975714Y-70814819D01*
X157975714Y-70814819D02*
X157880476Y-70862438D01*
X157880476Y-70862438D02*
X157832857Y-70910057D01*
X157832857Y-70910057D02*
X157785238Y-71005295D01*
X157785238Y-71005295D02*
X157785238Y-71243390D01*
X157785238Y-71243390D02*
X157832857Y-71338628D01*
X157832857Y-71338628D02*
X157880476Y-71386247D01*
X157880476Y-71386247D02*
X157975714Y-71433866D01*
X157975714Y-71433866D02*
X158166190Y-71433866D01*
X158166190Y-71433866D02*
X158261428Y-71386247D01*
X158261428Y-71386247D02*
X158309047Y-71338628D01*
X158309047Y-71338628D02*
X158356666Y-71243390D01*
X159870000Y-52294819D02*
X160060476Y-52294819D01*
X160060476Y-52294819D02*
X160155714Y-52342438D01*
X160155714Y-52342438D02*
X160250952Y-52437676D01*
X160250952Y-52437676D02*
X160298571Y-52628152D01*
X160298571Y-52628152D02*
X160298571Y-52961485D01*
X160298571Y-52961485D02*
X160250952Y-53151961D01*
X160250952Y-53151961D02*
X160155714Y-53247200D01*
X160155714Y-53247200D02*
X160060476Y-53294819D01*
X160060476Y-53294819D02*
X159870000Y-53294819D01*
X159870000Y-53294819D02*
X159774762Y-53247200D01*
X159774762Y-53247200D02*
X159679524Y-53151961D01*
X159679524Y-53151961D02*
X159631905Y-52961485D01*
X159631905Y-52961485D02*
X159631905Y-52628152D01*
X159631905Y-52628152D02*
X159679524Y-52437676D01*
X159679524Y-52437676D02*
X159774762Y-52342438D01*
X159774762Y-52342438D02*
X159870000Y-52294819D01*
X160727143Y-53294819D02*
X160727143Y-52294819D01*
X160727143Y-52294819D02*
X161108095Y-52294819D01*
X161108095Y-52294819D02*
X161203333Y-52342438D01*
X161203333Y-52342438D02*
X161250952Y-52390057D01*
X161250952Y-52390057D02*
X161298571Y-52485295D01*
X161298571Y-52485295D02*
X161298571Y-52628152D01*
X161298571Y-52628152D02*
X161250952Y-52723390D01*
X161250952Y-52723390D02*
X161203333Y-52771009D01*
X161203333Y-52771009D02*
X161108095Y-52818628D01*
X161108095Y-52818628D02*
X160727143Y-52818628D01*
X161727143Y-52771009D02*
X162060476Y-52771009D01*
X162203333Y-53294819D02*
X161727143Y-53294819D01*
X161727143Y-53294819D02*
X161727143Y-52294819D01*
X161727143Y-52294819D02*
X162203333Y-52294819D01*
X162631905Y-53294819D02*
X162631905Y-52294819D01*
X162631905Y-52294819D02*
X163203333Y-53294819D01*
X163203333Y-53294819D02*
X163203333Y-52294819D01*
X164155714Y-53294819D02*
X163679524Y-53294819D01*
X163679524Y-53294819D02*
X163679524Y-52294819D01*
X164679524Y-52294819D02*
X164870000Y-52294819D01*
X164870000Y-52294819D02*
X164965238Y-52342438D01*
X164965238Y-52342438D02*
X165060476Y-52437676D01*
X165060476Y-52437676D02*
X165108095Y-52628152D01*
X165108095Y-52628152D02*
X165108095Y-52961485D01*
X165108095Y-52961485D02*
X165060476Y-53151961D01*
X165060476Y-53151961D02*
X164965238Y-53247200D01*
X164965238Y-53247200D02*
X164870000Y-53294819D01*
X164870000Y-53294819D02*
X164679524Y-53294819D01*
X164679524Y-53294819D02*
X164584286Y-53247200D01*
X164584286Y-53247200D02*
X164489048Y-53151961D01*
X164489048Y-53151961D02*
X164441429Y-52961485D01*
X164441429Y-52961485D02*
X164441429Y-52628152D01*
X164441429Y-52628152D02*
X164489048Y-52437676D01*
X164489048Y-52437676D02*
X164584286Y-52342438D01*
X164584286Y-52342438D02*
X164679524Y-52294819D01*
X166060476Y-52342438D02*
X165965238Y-52294819D01*
X165965238Y-52294819D02*
X165822381Y-52294819D01*
X165822381Y-52294819D02*
X165679524Y-52342438D01*
X165679524Y-52342438D02*
X165584286Y-52437676D01*
X165584286Y-52437676D02*
X165536667Y-52532914D01*
X165536667Y-52532914D02*
X165489048Y-52723390D01*
X165489048Y-52723390D02*
X165489048Y-52866247D01*
X165489048Y-52866247D02*
X165536667Y-53056723D01*
X165536667Y-53056723D02*
X165584286Y-53151961D01*
X165584286Y-53151961D02*
X165679524Y-53247200D01*
X165679524Y-53247200D02*
X165822381Y-53294819D01*
X165822381Y-53294819D02*
X165917619Y-53294819D01*
X165917619Y-53294819D02*
X166060476Y-53247200D01*
X166060476Y-53247200D02*
X166108095Y-53199580D01*
X166108095Y-53199580D02*
X166108095Y-52866247D01*
X166108095Y-52866247D02*
X165917619Y-52866247D01*
X162324819Y-60709523D02*
X163039104Y-60709523D01*
X163039104Y-60709523D02*
X163181961Y-60757142D01*
X163181961Y-60757142D02*
X163277200Y-60852380D01*
X163277200Y-60852380D02*
X163324819Y-60995237D01*
X163324819Y-60995237D02*
X163324819Y-61090475D01*
X163324819Y-59709523D02*
X163324819Y-60280951D01*
X163324819Y-59995237D02*
X162324819Y-59995237D01*
X162324819Y-59995237D02*
X162467676Y-60090475D01*
X162467676Y-60090475D02*
X162562914Y-60185713D01*
X162562914Y-60185713D02*
X162610533Y-60280951D01*
X162324819Y-59090475D02*
X162324819Y-58995237D01*
X162324819Y-58995237D02*
X162372438Y-58899999D01*
X162372438Y-58899999D02*
X162420057Y-58852380D01*
X162420057Y-58852380D02*
X162515295Y-58804761D01*
X162515295Y-58804761D02*
X162705771Y-58757142D01*
X162705771Y-58757142D02*
X162943866Y-58757142D01*
X162943866Y-58757142D02*
X163134342Y-58804761D01*
X163134342Y-58804761D02*
X163229580Y-58852380D01*
X163229580Y-58852380D02*
X163277200Y-58899999D01*
X163277200Y-58899999D02*
X163324819Y-58995237D01*
X163324819Y-58995237D02*
X163324819Y-59090475D01*
X163324819Y-59090475D02*
X163277200Y-59185713D01*
X163277200Y-59185713D02*
X163229580Y-59233332D01*
X163229580Y-59233332D02*
X163134342Y-59280951D01*
X163134342Y-59280951D02*
X162943866Y-59328570D01*
X162943866Y-59328570D02*
X162705771Y-59328570D01*
X162705771Y-59328570D02*
X162515295Y-59280951D01*
X162515295Y-59280951D02*
X162420057Y-59233332D01*
X162420057Y-59233332D02*
X162372438Y-59185713D01*
X162372438Y-59185713D02*
X162324819Y-59090475D01*
X112521666Y-60729104D02*
X112997856Y-60729104D01*
X112426428Y-61014819D02*
X112759761Y-60014819D01*
X112759761Y-60014819D02*
X113093094Y-61014819D01*
X113997856Y-60919580D02*
X113950237Y-60967200D01*
X113950237Y-60967200D02*
X113807380Y-61014819D01*
X113807380Y-61014819D02*
X113712142Y-61014819D01*
X113712142Y-61014819D02*
X113569285Y-60967200D01*
X113569285Y-60967200D02*
X113474047Y-60871961D01*
X113474047Y-60871961D02*
X113426428Y-60776723D01*
X113426428Y-60776723D02*
X113378809Y-60586247D01*
X113378809Y-60586247D02*
X113378809Y-60443390D01*
X113378809Y-60443390D02*
X113426428Y-60252914D01*
X113426428Y-60252914D02*
X113474047Y-60157676D01*
X113474047Y-60157676D02*
X113569285Y-60062438D01*
X113569285Y-60062438D02*
X113712142Y-60014819D01*
X113712142Y-60014819D02*
X113807380Y-60014819D01*
X113807380Y-60014819D02*
X113950237Y-60062438D01*
X113950237Y-60062438D02*
X113997856Y-60110057D01*
X114997856Y-60919580D02*
X114950237Y-60967200D01*
X114950237Y-60967200D02*
X114807380Y-61014819D01*
X114807380Y-61014819D02*
X114712142Y-61014819D01*
X114712142Y-61014819D02*
X114569285Y-60967200D01*
X114569285Y-60967200D02*
X114474047Y-60871961D01*
X114474047Y-60871961D02*
X114426428Y-60776723D01*
X114426428Y-60776723D02*
X114378809Y-60586247D01*
X114378809Y-60586247D02*
X114378809Y-60443390D01*
X114378809Y-60443390D02*
X114426428Y-60252914D01*
X114426428Y-60252914D02*
X114474047Y-60157676D01*
X114474047Y-60157676D02*
X114569285Y-60062438D01*
X114569285Y-60062438D02*
X114712142Y-60014819D01*
X114712142Y-60014819D02*
X114807380Y-60014819D01*
X114807380Y-60014819D02*
X114950237Y-60062438D01*
X114950237Y-60062438D02*
X114997856Y-60110057D01*
X115426428Y-60491009D02*
X115759761Y-60491009D01*
X115902618Y-61014819D02*
X115426428Y-61014819D01*
X115426428Y-61014819D02*
X115426428Y-60014819D01*
X115426428Y-60014819D02*
X115902618Y-60014819D01*
X116807380Y-61014819D02*
X116331190Y-61014819D01*
X116331190Y-61014819D02*
X116331190Y-60014819D01*
X116902619Y-61110057D02*
X117664523Y-61110057D01*
X118378809Y-61014819D02*
X117902619Y-61014819D01*
X117902619Y-61014819D02*
X117902619Y-60014819D01*
X118712143Y-60491009D02*
X119045476Y-60491009D01*
X119188333Y-61014819D02*
X118712143Y-61014819D01*
X118712143Y-61014819D02*
X118712143Y-60014819D01*
X118712143Y-60014819D02*
X119188333Y-60014819D01*
X119616905Y-61014819D02*
X119616905Y-60014819D01*
X119616905Y-60014819D02*
X119855000Y-60014819D01*
X119855000Y-60014819D02*
X119997857Y-60062438D01*
X119997857Y-60062438D02*
X120093095Y-60157676D01*
X120093095Y-60157676D02*
X120140714Y-60252914D01*
X120140714Y-60252914D02*
X120188333Y-60443390D01*
X120188333Y-60443390D02*
X120188333Y-60586247D01*
X120188333Y-60586247D02*
X120140714Y-60776723D01*
X120140714Y-60776723D02*
X120093095Y-60871961D01*
X120093095Y-60871961D02*
X119997857Y-60967200D01*
X119997857Y-60967200D02*
X119855000Y-61014819D01*
X119855000Y-61014819D02*
X119616905Y-61014819D01*
D12*
X116034524Y-55653855D02*
X116034524Y-54853855D01*
X116034524Y-54853855D02*
X116225000Y-54853855D01*
X116225000Y-54853855D02*
X116339286Y-54891950D01*
X116339286Y-54891950D02*
X116415476Y-54968140D01*
X116415476Y-54968140D02*
X116453571Y-55044331D01*
X116453571Y-55044331D02*
X116491667Y-55196712D01*
X116491667Y-55196712D02*
X116491667Y-55310998D01*
X116491667Y-55310998D02*
X116453571Y-55463379D01*
X116453571Y-55463379D02*
X116415476Y-55539569D01*
X116415476Y-55539569D02*
X116339286Y-55615760D01*
X116339286Y-55615760D02*
X116225000Y-55653855D01*
X116225000Y-55653855D02*
X116034524Y-55653855D01*
X117177381Y-54853855D02*
X117025000Y-54853855D01*
X117025000Y-54853855D02*
X116948809Y-54891950D01*
X116948809Y-54891950D02*
X116910714Y-54930045D01*
X116910714Y-54930045D02*
X116834524Y-55044331D01*
X116834524Y-55044331D02*
X116796428Y-55196712D01*
X116796428Y-55196712D02*
X116796428Y-55501474D01*
X116796428Y-55501474D02*
X116834524Y-55577664D01*
X116834524Y-55577664D02*
X116872619Y-55615760D01*
X116872619Y-55615760D02*
X116948809Y-55653855D01*
X116948809Y-55653855D02*
X117101190Y-55653855D01*
X117101190Y-55653855D02*
X117177381Y-55615760D01*
X117177381Y-55615760D02*
X117215476Y-55577664D01*
X117215476Y-55577664D02*
X117253571Y-55501474D01*
X117253571Y-55501474D02*
X117253571Y-55310998D01*
X117253571Y-55310998D02*
X117215476Y-55234807D01*
X117215476Y-55234807D02*
X117177381Y-55196712D01*
X117177381Y-55196712D02*
X117101190Y-55158617D01*
X117101190Y-55158617D02*
X116948809Y-55158617D01*
X116948809Y-55158617D02*
X116872619Y-55196712D01*
X116872619Y-55196712D02*
X116834524Y-55234807D01*
X116834524Y-55234807D02*
X116796428Y-55310998D01*
D11*
X127594286Y-70594819D02*
X128213333Y-70594819D01*
X128213333Y-70594819D02*
X127880000Y-70975771D01*
X127880000Y-70975771D02*
X128022857Y-70975771D01*
X128022857Y-70975771D02*
X128118095Y-71023390D01*
X128118095Y-71023390D02*
X128165714Y-71071009D01*
X128165714Y-71071009D02*
X128213333Y-71166247D01*
X128213333Y-71166247D02*
X128213333Y-71404342D01*
X128213333Y-71404342D02*
X128165714Y-71499580D01*
X128165714Y-71499580D02*
X128118095Y-71547200D01*
X128118095Y-71547200D02*
X128022857Y-71594819D01*
X128022857Y-71594819D02*
X127737143Y-71594819D01*
X127737143Y-71594819D02*
X127641905Y-71547200D01*
X127641905Y-71547200D02*
X127594286Y-71499580D01*
X128546667Y-70594819D02*
X129165714Y-70594819D01*
X129165714Y-70594819D02*
X128832381Y-70975771D01*
X128832381Y-70975771D02*
X128975238Y-70975771D01*
X128975238Y-70975771D02*
X129070476Y-71023390D01*
X129070476Y-71023390D02*
X129118095Y-71071009D01*
X129118095Y-71071009D02*
X129165714Y-71166247D01*
X129165714Y-71166247D02*
X129165714Y-71404342D01*
X129165714Y-71404342D02*
X129118095Y-71499580D01*
X129118095Y-71499580D02*
X129070476Y-71547200D01*
X129070476Y-71547200D02*
X128975238Y-71594819D01*
X128975238Y-71594819D02*
X128689524Y-71594819D01*
X128689524Y-71594819D02*
X128594286Y-71547200D01*
X128594286Y-71547200D02*
X128546667Y-71499580D01*
X129784762Y-70594819D02*
X129880000Y-70594819D01*
X129880000Y-70594819D02*
X129975238Y-70642438D01*
X129975238Y-70642438D02*
X130022857Y-70690057D01*
X130022857Y-70690057D02*
X130070476Y-70785295D01*
X130070476Y-70785295D02*
X130118095Y-70975771D01*
X130118095Y-70975771D02*
X130118095Y-71213866D01*
X130118095Y-71213866D02*
X130070476Y-71404342D01*
X130070476Y-71404342D02*
X130022857Y-71499580D01*
X130022857Y-71499580D02*
X129975238Y-71547200D01*
X129975238Y-71547200D02*
X129880000Y-71594819D01*
X129880000Y-71594819D02*
X129784762Y-71594819D01*
X129784762Y-71594819D02*
X129689524Y-71547200D01*
X129689524Y-71547200D02*
X129641905Y-71499580D01*
X129641905Y-71499580D02*
X129594286Y-71404342D01*
X129594286Y-71404342D02*
X129546667Y-71213866D01*
X129546667Y-71213866D02*
X129546667Y-70975771D01*
X129546667Y-70975771D02*
X129594286Y-70785295D01*
X129594286Y-70785295D02*
X129641905Y-70690057D01*
X129641905Y-70690057D02*
X129689524Y-70642438D01*
X129689524Y-70642438D02*
X129784762Y-70594819D01*
X137063333Y-71594819D02*
X136730000Y-71118628D01*
X136491905Y-71594819D02*
X136491905Y-70594819D01*
X136491905Y-70594819D02*
X136872857Y-70594819D01*
X136872857Y-70594819D02*
X136968095Y-70642438D01*
X136968095Y-70642438D02*
X137015714Y-70690057D01*
X137015714Y-70690057D02*
X137063333Y-70785295D01*
X137063333Y-70785295D02*
X137063333Y-70928152D01*
X137063333Y-70928152D02*
X137015714Y-71023390D01*
X137015714Y-71023390D02*
X136968095Y-71071009D01*
X136968095Y-71071009D02*
X136872857Y-71118628D01*
X136872857Y-71118628D02*
X136491905Y-71118628D01*
X138015714Y-71594819D02*
X137444286Y-71594819D01*
X137730000Y-71594819D02*
X137730000Y-70594819D01*
X137730000Y-70594819D02*
X137634762Y-70737676D01*
X137634762Y-70737676D02*
X137539524Y-70832914D01*
X137539524Y-70832914D02*
X137444286Y-70880533D01*
X114537857Y-98204819D02*
X114728333Y-98204819D01*
X114728333Y-98204819D02*
X114823571Y-98252438D01*
X114823571Y-98252438D02*
X114918809Y-98347676D01*
X114918809Y-98347676D02*
X114966428Y-98538152D01*
X114966428Y-98538152D02*
X114966428Y-98871485D01*
X114966428Y-98871485D02*
X114918809Y-99061961D01*
X114918809Y-99061961D02*
X114823571Y-99157200D01*
X114823571Y-99157200D02*
X114728333Y-99204819D01*
X114728333Y-99204819D02*
X114537857Y-99204819D01*
X114537857Y-99204819D02*
X114442619Y-99157200D01*
X114442619Y-99157200D02*
X114347381Y-99061961D01*
X114347381Y-99061961D02*
X114299762Y-98871485D01*
X114299762Y-98871485D02*
X114299762Y-98538152D01*
X114299762Y-98538152D02*
X114347381Y-98347676D01*
X114347381Y-98347676D02*
X114442619Y-98252438D01*
X114442619Y-98252438D02*
X114537857Y-98204819D01*
X115395000Y-99204819D02*
X115395000Y-98204819D01*
X115395000Y-98204819D02*
X115966428Y-99204819D01*
X115966428Y-99204819D02*
X115966428Y-98204819D01*
X116204524Y-99300057D02*
X116966428Y-99300057D01*
X117680714Y-99204819D02*
X117204524Y-99204819D01*
X117204524Y-99204819D02*
X117204524Y-98204819D01*
X118014048Y-98681009D02*
X118347381Y-98681009D01*
X118490238Y-99204819D02*
X118014048Y-99204819D01*
X118014048Y-99204819D02*
X118014048Y-98204819D01*
X118014048Y-98204819D02*
X118490238Y-98204819D01*
X118918810Y-99204819D02*
X118918810Y-98204819D01*
X118918810Y-98204819D02*
X119156905Y-98204819D01*
X119156905Y-98204819D02*
X119299762Y-98252438D01*
X119299762Y-98252438D02*
X119395000Y-98347676D01*
X119395000Y-98347676D02*
X119442619Y-98442914D01*
X119442619Y-98442914D02*
X119490238Y-98633390D01*
X119490238Y-98633390D02*
X119490238Y-98776247D01*
X119490238Y-98776247D02*
X119442619Y-98966723D01*
X119442619Y-98966723D02*
X119395000Y-99061961D01*
X119395000Y-99061961D02*
X119299762Y-99157200D01*
X119299762Y-99157200D02*
X119156905Y-99204819D01*
X119156905Y-99204819D02*
X118918810Y-99204819D01*
D12*
X116304524Y-95153855D02*
X116304524Y-94353855D01*
X116304524Y-94353855D02*
X116495000Y-94353855D01*
X116495000Y-94353855D02*
X116609286Y-94391950D01*
X116609286Y-94391950D02*
X116685476Y-94468140D01*
X116685476Y-94468140D02*
X116723571Y-94544331D01*
X116723571Y-94544331D02*
X116761667Y-94696712D01*
X116761667Y-94696712D02*
X116761667Y-94810998D01*
X116761667Y-94810998D02*
X116723571Y-94963379D01*
X116723571Y-94963379D02*
X116685476Y-95039569D01*
X116685476Y-95039569D02*
X116609286Y-95115760D01*
X116609286Y-95115760D02*
X116495000Y-95153855D01*
X116495000Y-95153855D02*
X116304524Y-95153855D01*
X117523571Y-95153855D02*
X117066428Y-95153855D01*
X117295000Y-95153855D02*
X117295000Y-94353855D01*
X117295000Y-94353855D02*
X117218809Y-94468140D01*
X117218809Y-94468140D02*
X117142619Y-94544331D01*
X117142619Y-94544331D02*
X117066428Y-94582426D01*
D11*
X136324286Y-52794819D02*
X136943333Y-52794819D01*
X136943333Y-52794819D02*
X136610000Y-53175771D01*
X136610000Y-53175771D02*
X136752857Y-53175771D01*
X136752857Y-53175771D02*
X136848095Y-53223390D01*
X136848095Y-53223390D02*
X136895714Y-53271009D01*
X136895714Y-53271009D02*
X136943333Y-53366247D01*
X136943333Y-53366247D02*
X136943333Y-53604342D01*
X136943333Y-53604342D02*
X136895714Y-53699580D01*
X136895714Y-53699580D02*
X136848095Y-53747200D01*
X136848095Y-53747200D02*
X136752857Y-53794819D01*
X136752857Y-53794819D02*
X136467143Y-53794819D01*
X136467143Y-53794819D02*
X136371905Y-53747200D01*
X136371905Y-53747200D02*
X136324286Y-53699580D01*
X137276667Y-52794819D02*
X137895714Y-52794819D01*
X137895714Y-52794819D02*
X137562381Y-53175771D01*
X137562381Y-53175771D02*
X137705238Y-53175771D01*
X137705238Y-53175771D02*
X137800476Y-53223390D01*
X137800476Y-53223390D02*
X137848095Y-53271009D01*
X137848095Y-53271009D02*
X137895714Y-53366247D01*
X137895714Y-53366247D02*
X137895714Y-53604342D01*
X137895714Y-53604342D02*
X137848095Y-53699580D01*
X137848095Y-53699580D02*
X137800476Y-53747200D01*
X137800476Y-53747200D02*
X137705238Y-53794819D01*
X137705238Y-53794819D02*
X137419524Y-53794819D01*
X137419524Y-53794819D02*
X137324286Y-53747200D01*
X137324286Y-53747200D02*
X137276667Y-53699580D01*
X138514762Y-52794819D02*
X138610000Y-52794819D01*
X138610000Y-52794819D02*
X138705238Y-52842438D01*
X138705238Y-52842438D02*
X138752857Y-52890057D01*
X138752857Y-52890057D02*
X138800476Y-52985295D01*
X138800476Y-52985295D02*
X138848095Y-53175771D01*
X138848095Y-53175771D02*
X138848095Y-53413866D01*
X138848095Y-53413866D02*
X138800476Y-53604342D01*
X138800476Y-53604342D02*
X138752857Y-53699580D01*
X138752857Y-53699580D02*
X138705238Y-53747200D01*
X138705238Y-53747200D02*
X138610000Y-53794819D01*
X138610000Y-53794819D02*
X138514762Y-53794819D01*
X138514762Y-53794819D02*
X138419524Y-53747200D01*
X138419524Y-53747200D02*
X138371905Y-53699580D01*
X138371905Y-53699580D02*
X138324286Y-53604342D01*
X138324286Y-53604342D02*
X138276667Y-53413866D01*
X138276667Y-53413866D02*
X138276667Y-53175771D01*
X138276667Y-53175771D02*
X138324286Y-52985295D01*
X138324286Y-52985295D02*
X138371905Y-52890057D01*
X138371905Y-52890057D02*
X138419524Y-52842438D01*
X138419524Y-52842438D02*
X138514762Y-52794819D01*
X127813333Y-53684819D02*
X127480000Y-53208628D01*
X127241905Y-53684819D02*
X127241905Y-52684819D01*
X127241905Y-52684819D02*
X127622857Y-52684819D01*
X127622857Y-52684819D02*
X127718095Y-52732438D01*
X127718095Y-52732438D02*
X127765714Y-52780057D01*
X127765714Y-52780057D02*
X127813333Y-52875295D01*
X127813333Y-52875295D02*
X127813333Y-53018152D01*
X127813333Y-53018152D02*
X127765714Y-53113390D01*
X127765714Y-53113390D02*
X127718095Y-53161009D01*
X127718095Y-53161009D02*
X127622857Y-53208628D01*
X127622857Y-53208628D02*
X127241905Y-53208628D01*
X128670476Y-52684819D02*
X128480000Y-52684819D01*
X128480000Y-52684819D02*
X128384762Y-52732438D01*
X128384762Y-52732438D02*
X128337143Y-52780057D01*
X128337143Y-52780057D02*
X128241905Y-52922914D01*
X128241905Y-52922914D02*
X128194286Y-53113390D01*
X128194286Y-53113390D02*
X128194286Y-53494342D01*
X128194286Y-53494342D02*
X128241905Y-53589580D01*
X128241905Y-53589580D02*
X128289524Y-53637200D01*
X128289524Y-53637200D02*
X128384762Y-53684819D01*
X128384762Y-53684819D02*
X128575238Y-53684819D01*
X128575238Y-53684819D02*
X128670476Y-53637200D01*
X128670476Y-53637200D02*
X128718095Y-53589580D01*
X128718095Y-53589580D02*
X128765714Y-53494342D01*
X128765714Y-53494342D02*
X128765714Y-53256247D01*
X128765714Y-53256247D02*
X128718095Y-53161009D01*
X128718095Y-53161009D02*
X128670476Y-53113390D01*
X128670476Y-53113390D02*
X128575238Y-53065771D01*
X128575238Y-53065771D02*
X128384762Y-53065771D01*
X128384762Y-53065771D02*
X128289524Y-53113390D01*
X128289524Y-53113390D02*
X128241905Y-53161009D01*
X128241905Y-53161009D02*
X128194286Y-53256247D01*
X127289286Y-59754819D02*
X127908333Y-59754819D01*
X127908333Y-59754819D02*
X127575000Y-60135771D01*
X127575000Y-60135771D02*
X127717857Y-60135771D01*
X127717857Y-60135771D02*
X127813095Y-60183390D01*
X127813095Y-60183390D02*
X127860714Y-60231009D01*
X127860714Y-60231009D02*
X127908333Y-60326247D01*
X127908333Y-60326247D02*
X127908333Y-60564342D01*
X127908333Y-60564342D02*
X127860714Y-60659580D01*
X127860714Y-60659580D02*
X127813095Y-60707200D01*
X127813095Y-60707200D02*
X127717857Y-60754819D01*
X127717857Y-60754819D02*
X127432143Y-60754819D01*
X127432143Y-60754819D02*
X127336905Y-60707200D01*
X127336905Y-60707200D02*
X127289286Y-60659580D01*
X128241667Y-59754819D02*
X128860714Y-59754819D01*
X128860714Y-59754819D02*
X128527381Y-60135771D01*
X128527381Y-60135771D02*
X128670238Y-60135771D01*
X128670238Y-60135771D02*
X128765476Y-60183390D01*
X128765476Y-60183390D02*
X128813095Y-60231009D01*
X128813095Y-60231009D02*
X128860714Y-60326247D01*
X128860714Y-60326247D02*
X128860714Y-60564342D01*
X128860714Y-60564342D02*
X128813095Y-60659580D01*
X128813095Y-60659580D02*
X128765476Y-60707200D01*
X128765476Y-60707200D02*
X128670238Y-60754819D01*
X128670238Y-60754819D02*
X128384524Y-60754819D01*
X128384524Y-60754819D02*
X128289286Y-60707200D01*
X128289286Y-60707200D02*
X128241667Y-60659580D01*
X129479762Y-59754819D02*
X129575000Y-59754819D01*
X129575000Y-59754819D02*
X129670238Y-59802438D01*
X129670238Y-59802438D02*
X129717857Y-59850057D01*
X129717857Y-59850057D02*
X129765476Y-59945295D01*
X129765476Y-59945295D02*
X129813095Y-60135771D01*
X129813095Y-60135771D02*
X129813095Y-60373866D01*
X129813095Y-60373866D02*
X129765476Y-60564342D01*
X129765476Y-60564342D02*
X129717857Y-60659580D01*
X129717857Y-60659580D02*
X129670238Y-60707200D01*
X129670238Y-60707200D02*
X129575000Y-60754819D01*
X129575000Y-60754819D02*
X129479762Y-60754819D01*
X129479762Y-60754819D02*
X129384524Y-60707200D01*
X129384524Y-60707200D02*
X129336905Y-60659580D01*
X129336905Y-60659580D02*
X129289286Y-60564342D01*
X129289286Y-60564342D02*
X129241667Y-60373866D01*
X129241667Y-60373866D02*
X129241667Y-60135771D01*
X129241667Y-60135771D02*
X129289286Y-59945295D01*
X129289286Y-59945295D02*
X129336905Y-59850057D01*
X129336905Y-59850057D02*
X129384524Y-59802438D01*
X129384524Y-59802438D02*
X129479762Y-59754819D01*
X137143333Y-60754819D02*
X136810000Y-60278628D01*
X136571905Y-60754819D02*
X136571905Y-59754819D01*
X136571905Y-59754819D02*
X136952857Y-59754819D01*
X136952857Y-59754819D02*
X137048095Y-59802438D01*
X137048095Y-59802438D02*
X137095714Y-59850057D01*
X137095714Y-59850057D02*
X137143333Y-59945295D01*
X137143333Y-59945295D02*
X137143333Y-60088152D01*
X137143333Y-60088152D02*
X137095714Y-60183390D01*
X137095714Y-60183390D02*
X137048095Y-60231009D01*
X137048095Y-60231009D02*
X136952857Y-60278628D01*
X136952857Y-60278628D02*
X136571905Y-60278628D01*
X138000476Y-60088152D02*
X138000476Y-60754819D01*
X137762381Y-59707200D02*
X137524286Y-60421485D01*
X137524286Y-60421485D02*
X138143333Y-60421485D01*
X112870952Y-89724819D02*
X112870952Y-88724819D01*
X113347142Y-89724819D02*
X113347142Y-88724819D01*
X113347142Y-88724819D02*
X113918570Y-89724819D01*
X113918570Y-89724819D02*
X113918570Y-88724819D01*
X114251904Y-88724819D02*
X114823332Y-88724819D01*
X114537618Y-89724819D02*
X114537618Y-88724819D01*
X115156666Y-89201009D02*
X115489999Y-89201009D01*
X115632856Y-89724819D02*
X115156666Y-89724819D01*
X115156666Y-89724819D02*
X115156666Y-88724819D01*
X115156666Y-88724819D02*
X115632856Y-88724819D01*
X116632856Y-89724819D02*
X116299523Y-89248628D01*
X116061428Y-89724819D02*
X116061428Y-88724819D01*
X116061428Y-88724819D02*
X116442380Y-88724819D01*
X116442380Y-88724819D02*
X116537618Y-88772438D01*
X116537618Y-88772438D02*
X116585237Y-88820057D01*
X116585237Y-88820057D02*
X116632856Y-88915295D01*
X116632856Y-88915295D02*
X116632856Y-89058152D01*
X116632856Y-89058152D02*
X116585237Y-89153390D01*
X116585237Y-89153390D02*
X116537618Y-89201009D01*
X116537618Y-89201009D02*
X116442380Y-89248628D01*
X116442380Y-89248628D02*
X116061428Y-89248628D01*
X117061428Y-89724819D02*
X117061428Y-88724819D01*
X117061428Y-88724819D02*
X117632856Y-89724819D01*
X117632856Y-89724819D02*
X117632856Y-88724819D01*
X117870952Y-89820057D02*
X118632856Y-89820057D01*
X119347142Y-89724819D02*
X118870952Y-89724819D01*
X118870952Y-89724819D02*
X118870952Y-88724819D01*
X119680476Y-89201009D02*
X120013809Y-89201009D01*
X120156666Y-89724819D02*
X119680476Y-89724819D01*
X119680476Y-89724819D02*
X119680476Y-88724819D01*
X119680476Y-88724819D02*
X120156666Y-88724819D01*
X120585238Y-89724819D02*
X120585238Y-88724819D01*
X120585238Y-88724819D02*
X120823333Y-88724819D01*
X120823333Y-88724819D02*
X120966190Y-88772438D01*
X120966190Y-88772438D02*
X121061428Y-88867676D01*
X121061428Y-88867676D02*
X121109047Y-88962914D01*
X121109047Y-88962914D02*
X121156666Y-89153390D01*
X121156666Y-89153390D02*
X121156666Y-89296247D01*
X121156666Y-89296247D02*
X121109047Y-89486723D01*
X121109047Y-89486723D02*
X121061428Y-89581961D01*
X121061428Y-89581961D02*
X120966190Y-89677200D01*
X120966190Y-89677200D02*
X120823333Y-89724819D01*
X120823333Y-89724819D02*
X120585238Y-89724819D01*
D12*
X116224524Y-87543855D02*
X116224524Y-86743855D01*
X116224524Y-86743855D02*
X116415000Y-86743855D01*
X116415000Y-86743855D02*
X116529286Y-86781950D01*
X116529286Y-86781950D02*
X116605476Y-86858140D01*
X116605476Y-86858140D02*
X116643571Y-86934331D01*
X116643571Y-86934331D02*
X116681667Y-87086712D01*
X116681667Y-87086712D02*
X116681667Y-87200998D01*
X116681667Y-87200998D02*
X116643571Y-87353379D01*
X116643571Y-87353379D02*
X116605476Y-87429569D01*
X116605476Y-87429569D02*
X116529286Y-87505760D01*
X116529286Y-87505760D02*
X116415000Y-87543855D01*
X116415000Y-87543855D02*
X116224524Y-87543855D01*
X116986428Y-86820045D02*
X117024524Y-86781950D01*
X117024524Y-86781950D02*
X117100714Y-86743855D01*
X117100714Y-86743855D02*
X117291190Y-86743855D01*
X117291190Y-86743855D02*
X117367381Y-86781950D01*
X117367381Y-86781950D02*
X117405476Y-86820045D01*
X117405476Y-86820045D02*
X117443571Y-86896236D01*
X117443571Y-86896236D02*
X117443571Y-86972426D01*
X117443571Y-86972426D02*
X117405476Y-87086712D01*
X117405476Y-87086712D02*
X116948333Y-87543855D01*
X116948333Y-87543855D02*
X117443571Y-87543855D01*
D11*
X127594286Y-63474819D02*
X128213333Y-63474819D01*
X128213333Y-63474819D02*
X127880000Y-63855771D01*
X127880000Y-63855771D02*
X128022857Y-63855771D01*
X128022857Y-63855771D02*
X128118095Y-63903390D01*
X128118095Y-63903390D02*
X128165714Y-63951009D01*
X128165714Y-63951009D02*
X128213333Y-64046247D01*
X128213333Y-64046247D02*
X128213333Y-64284342D01*
X128213333Y-64284342D02*
X128165714Y-64379580D01*
X128165714Y-64379580D02*
X128118095Y-64427200D01*
X128118095Y-64427200D02*
X128022857Y-64474819D01*
X128022857Y-64474819D02*
X127737143Y-64474819D01*
X127737143Y-64474819D02*
X127641905Y-64427200D01*
X127641905Y-64427200D02*
X127594286Y-64379580D01*
X128546667Y-63474819D02*
X129165714Y-63474819D01*
X129165714Y-63474819D02*
X128832381Y-63855771D01*
X128832381Y-63855771D02*
X128975238Y-63855771D01*
X128975238Y-63855771D02*
X129070476Y-63903390D01*
X129070476Y-63903390D02*
X129118095Y-63951009D01*
X129118095Y-63951009D02*
X129165714Y-64046247D01*
X129165714Y-64046247D02*
X129165714Y-64284342D01*
X129165714Y-64284342D02*
X129118095Y-64379580D01*
X129118095Y-64379580D02*
X129070476Y-64427200D01*
X129070476Y-64427200D02*
X128975238Y-64474819D01*
X128975238Y-64474819D02*
X128689524Y-64474819D01*
X128689524Y-64474819D02*
X128594286Y-64427200D01*
X128594286Y-64427200D02*
X128546667Y-64379580D01*
X129784762Y-63474819D02*
X129880000Y-63474819D01*
X129880000Y-63474819D02*
X129975238Y-63522438D01*
X129975238Y-63522438D02*
X130022857Y-63570057D01*
X130022857Y-63570057D02*
X130070476Y-63665295D01*
X130070476Y-63665295D02*
X130118095Y-63855771D01*
X130118095Y-63855771D02*
X130118095Y-64093866D01*
X130118095Y-64093866D02*
X130070476Y-64284342D01*
X130070476Y-64284342D02*
X130022857Y-64379580D01*
X130022857Y-64379580D02*
X129975238Y-64427200D01*
X129975238Y-64427200D02*
X129880000Y-64474819D01*
X129880000Y-64474819D02*
X129784762Y-64474819D01*
X129784762Y-64474819D02*
X129689524Y-64427200D01*
X129689524Y-64427200D02*
X129641905Y-64379580D01*
X129641905Y-64379580D02*
X129594286Y-64284342D01*
X129594286Y-64284342D02*
X129546667Y-64093866D01*
X129546667Y-64093866D02*
X129546667Y-63855771D01*
X129546667Y-63855771D02*
X129594286Y-63665295D01*
X129594286Y-63665295D02*
X129641905Y-63570057D01*
X129641905Y-63570057D02*
X129689524Y-63522438D01*
X129689524Y-63522438D02*
X129784762Y-63474819D01*
X137063333Y-64474819D02*
X136730000Y-63998628D01*
X136491905Y-64474819D02*
X136491905Y-63474819D01*
X136491905Y-63474819D02*
X136872857Y-63474819D01*
X136872857Y-63474819D02*
X136968095Y-63522438D01*
X136968095Y-63522438D02*
X137015714Y-63570057D01*
X137015714Y-63570057D02*
X137063333Y-63665295D01*
X137063333Y-63665295D02*
X137063333Y-63808152D01*
X137063333Y-63808152D02*
X137015714Y-63903390D01*
X137015714Y-63903390D02*
X136968095Y-63951009D01*
X136968095Y-63951009D02*
X136872857Y-63998628D01*
X136872857Y-63998628D02*
X136491905Y-63998628D01*
X137396667Y-63474819D02*
X138015714Y-63474819D01*
X138015714Y-63474819D02*
X137682381Y-63855771D01*
X137682381Y-63855771D02*
X137825238Y-63855771D01*
X137825238Y-63855771D02*
X137920476Y-63903390D01*
X137920476Y-63903390D02*
X137968095Y-63951009D01*
X137968095Y-63951009D02*
X138015714Y-64046247D01*
X138015714Y-64046247D02*
X138015714Y-64284342D01*
X138015714Y-64284342D02*
X137968095Y-64379580D01*
X137968095Y-64379580D02*
X137920476Y-64427200D01*
X137920476Y-64427200D02*
X137825238Y-64474819D01*
X137825238Y-64474819D02*
X137539524Y-64474819D01*
X137539524Y-64474819D02*
X137444286Y-64427200D01*
X137444286Y-64427200D02*
X137396667Y-64379580D01*
X149986009Y-103074047D02*
X149986009Y-102740714D01*
X150509819Y-102597857D02*
X150509819Y-103074047D01*
X150509819Y-103074047D02*
X149509819Y-103074047D01*
X149509819Y-103074047D02*
X149509819Y-102597857D01*
X149509819Y-102312142D02*
X149509819Y-101740714D01*
X150509819Y-102026428D02*
X149509819Y-102026428D01*
X150509819Y-101407380D02*
X149509819Y-101407380D01*
X149509819Y-101407380D02*
X150224104Y-101074047D01*
X150224104Y-101074047D02*
X149509819Y-100740714D01*
X149509819Y-100740714D02*
X150509819Y-100740714D01*
X150509819Y-100264523D02*
X149509819Y-100264523D01*
X149509819Y-100264523D02*
X149509819Y-99883571D01*
X149509819Y-99883571D02*
X149557438Y-99788333D01*
X149557438Y-99788333D02*
X149605057Y-99740714D01*
X149605057Y-99740714D02*
X149700295Y-99693095D01*
X149700295Y-99693095D02*
X149843152Y-99693095D01*
X149843152Y-99693095D02*
X149938390Y-99740714D01*
X149938390Y-99740714D02*
X149986009Y-99788333D01*
X149986009Y-99788333D02*
X150033628Y-99883571D01*
X150033628Y-99883571D02*
X150033628Y-100264523D01*
X149509819Y-99359761D02*
X149509819Y-98740714D01*
X149509819Y-98740714D02*
X149890771Y-99074047D01*
X149890771Y-99074047D02*
X149890771Y-98931190D01*
X149890771Y-98931190D02*
X149938390Y-98835952D01*
X149938390Y-98835952D02*
X149986009Y-98788333D01*
X149986009Y-98788333D02*
X150081247Y-98740714D01*
X150081247Y-98740714D02*
X150319342Y-98740714D01*
X150319342Y-98740714D02*
X150414580Y-98788333D01*
X150414580Y-98788333D02*
X150462200Y-98835952D01*
X150462200Y-98835952D02*
X150509819Y-98931190D01*
X150509819Y-98931190D02*
X150509819Y-99216904D01*
X150509819Y-99216904D02*
X150462200Y-99312142D01*
X150462200Y-99312142D02*
X150414580Y-99359761D01*
X149509819Y-97883571D02*
X149509819Y-98074047D01*
X149509819Y-98074047D02*
X149557438Y-98169285D01*
X149557438Y-98169285D02*
X149605057Y-98216904D01*
X149605057Y-98216904D02*
X149747914Y-98312142D01*
X149747914Y-98312142D02*
X149938390Y-98359761D01*
X149938390Y-98359761D02*
X150319342Y-98359761D01*
X150319342Y-98359761D02*
X150414580Y-98312142D01*
X150414580Y-98312142D02*
X150462200Y-98264523D01*
X150462200Y-98264523D02*
X150509819Y-98169285D01*
X150509819Y-98169285D02*
X150509819Y-97978809D01*
X150509819Y-97978809D02*
X150462200Y-97883571D01*
X150462200Y-97883571D02*
X150414580Y-97835952D01*
X150414580Y-97835952D02*
X150319342Y-97788333D01*
X150319342Y-97788333D02*
X150081247Y-97788333D01*
X150081247Y-97788333D02*
X149986009Y-97835952D01*
X149986009Y-97835952D02*
X149938390Y-97883571D01*
X149938390Y-97883571D02*
X149890771Y-97978809D01*
X149890771Y-97978809D02*
X149890771Y-98169285D01*
X149890771Y-98169285D02*
X149938390Y-98264523D01*
X149938390Y-98264523D02*
X149986009Y-98312142D01*
X149986009Y-98312142D02*
X150081247Y-98359761D01*
X145664819Y-95094761D02*
X144664819Y-95094761D01*
X144664819Y-94761428D02*
X144664819Y-94190000D01*
X145664819Y-94475714D02*
X144664819Y-94475714D01*
X145664819Y-93856666D02*
X144664819Y-93856666D01*
X144664819Y-93856666D02*
X145379104Y-93523333D01*
X145379104Y-93523333D02*
X144664819Y-93190000D01*
X144664819Y-93190000D02*
X145664819Y-93190000D01*
X145664819Y-92713809D02*
X144664819Y-92713809D01*
X144664819Y-92713809D02*
X144664819Y-92332857D01*
X144664819Y-92332857D02*
X144712438Y-92237619D01*
X144712438Y-92237619D02*
X144760057Y-92190000D01*
X144760057Y-92190000D02*
X144855295Y-92142381D01*
X144855295Y-92142381D02*
X144998152Y-92142381D01*
X144998152Y-92142381D02*
X145093390Y-92190000D01*
X145093390Y-92190000D02*
X145141009Y-92237619D01*
X145141009Y-92237619D02*
X145188628Y-92332857D01*
X145188628Y-92332857D02*
X145188628Y-92713809D01*
X144664819Y-91809047D02*
X144664819Y-91190000D01*
X144664819Y-91190000D02*
X145045771Y-91523333D01*
X145045771Y-91523333D02*
X145045771Y-91380476D01*
X145045771Y-91380476D02*
X145093390Y-91285238D01*
X145093390Y-91285238D02*
X145141009Y-91237619D01*
X145141009Y-91237619D02*
X145236247Y-91190000D01*
X145236247Y-91190000D02*
X145474342Y-91190000D01*
X145474342Y-91190000D02*
X145569580Y-91237619D01*
X145569580Y-91237619D02*
X145617200Y-91285238D01*
X145617200Y-91285238D02*
X145664819Y-91380476D01*
X145664819Y-91380476D02*
X145664819Y-91666190D01*
X145664819Y-91666190D02*
X145617200Y-91761428D01*
X145617200Y-91761428D02*
X145569580Y-91809047D01*
X144664819Y-90332857D02*
X144664819Y-90523333D01*
X144664819Y-90523333D02*
X144712438Y-90618571D01*
X144712438Y-90618571D02*
X144760057Y-90666190D01*
X144760057Y-90666190D02*
X144902914Y-90761428D01*
X144902914Y-90761428D02*
X145093390Y-90809047D01*
X145093390Y-90809047D02*
X145474342Y-90809047D01*
X145474342Y-90809047D02*
X145569580Y-90761428D01*
X145569580Y-90761428D02*
X145617200Y-90713809D01*
X145617200Y-90713809D02*
X145664819Y-90618571D01*
X145664819Y-90618571D02*
X145664819Y-90428095D01*
X145664819Y-90428095D02*
X145617200Y-90332857D01*
X145617200Y-90332857D02*
X145569580Y-90285238D01*
X145569580Y-90285238D02*
X145474342Y-90237619D01*
X145474342Y-90237619D02*
X145236247Y-90237619D01*
X145236247Y-90237619D02*
X145141009Y-90285238D01*
X145141009Y-90285238D02*
X145093390Y-90332857D01*
X145093390Y-90332857D02*
X145045771Y-90428095D01*
X145045771Y-90428095D02*
X145045771Y-90618571D01*
X145045771Y-90618571D02*
X145093390Y-90713809D01*
X145093390Y-90713809D02*
X145141009Y-90761428D01*
X145141009Y-90761428D02*
X145236247Y-90809047D01*
X112767857Y-75294819D02*
X112767857Y-74294819D01*
X112767857Y-74771009D02*
X113339285Y-74771009D01*
X113339285Y-75294819D02*
X113339285Y-74294819D01*
X113815476Y-74294819D02*
X113815476Y-75104342D01*
X113815476Y-75104342D02*
X113863095Y-75199580D01*
X113863095Y-75199580D02*
X113910714Y-75247200D01*
X113910714Y-75247200D02*
X114005952Y-75294819D01*
X114005952Y-75294819D02*
X114196428Y-75294819D01*
X114196428Y-75294819D02*
X114291666Y-75247200D01*
X114291666Y-75247200D02*
X114339285Y-75199580D01*
X114339285Y-75199580D02*
X114386904Y-75104342D01*
X114386904Y-75104342D02*
X114386904Y-74294819D01*
X114863095Y-75294819D02*
X114863095Y-74294819D01*
X114863095Y-74294819D02*
X115196428Y-75009104D01*
X115196428Y-75009104D02*
X115529761Y-74294819D01*
X115529761Y-74294819D02*
X115529761Y-75294819D01*
X116005952Y-75294819D02*
X116005952Y-74294819D01*
X116482142Y-75294819D02*
X116482142Y-74294819D01*
X116482142Y-74294819D02*
X116720237Y-74294819D01*
X116720237Y-74294819D02*
X116863094Y-74342438D01*
X116863094Y-74342438D02*
X116958332Y-74437676D01*
X116958332Y-74437676D02*
X117005951Y-74532914D01*
X117005951Y-74532914D02*
X117053570Y-74723390D01*
X117053570Y-74723390D02*
X117053570Y-74866247D01*
X117053570Y-74866247D02*
X117005951Y-75056723D01*
X117005951Y-75056723D02*
X116958332Y-75151961D01*
X116958332Y-75151961D02*
X116863094Y-75247200D01*
X116863094Y-75247200D02*
X116720237Y-75294819D01*
X116720237Y-75294819D02*
X116482142Y-75294819D01*
X117244047Y-75390057D02*
X118005951Y-75390057D01*
X118720237Y-75294819D02*
X118244047Y-75294819D01*
X118244047Y-75294819D02*
X118244047Y-74294819D01*
X119053571Y-74771009D02*
X119386904Y-74771009D01*
X119529761Y-75294819D02*
X119053571Y-75294819D01*
X119053571Y-75294819D02*
X119053571Y-74294819D01*
X119053571Y-74294819D02*
X119529761Y-74294819D01*
X119958333Y-75294819D02*
X119958333Y-74294819D01*
X119958333Y-74294819D02*
X120196428Y-74294819D01*
X120196428Y-74294819D02*
X120339285Y-74342438D01*
X120339285Y-74342438D02*
X120434523Y-74437676D01*
X120434523Y-74437676D02*
X120482142Y-74532914D01*
X120482142Y-74532914D02*
X120529761Y-74723390D01*
X120529761Y-74723390D02*
X120529761Y-74866247D01*
X120529761Y-74866247D02*
X120482142Y-75056723D01*
X120482142Y-75056723D02*
X120434523Y-75151961D01*
X120434523Y-75151961D02*
X120339285Y-75247200D01*
X120339285Y-75247200D02*
X120196428Y-75294819D01*
X120196428Y-75294819D02*
X119958333Y-75294819D01*
D12*
X116034524Y-71243855D02*
X116034524Y-70443855D01*
X116034524Y-70443855D02*
X116225000Y-70443855D01*
X116225000Y-70443855D02*
X116339286Y-70481950D01*
X116339286Y-70481950D02*
X116415476Y-70558140D01*
X116415476Y-70558140D02*
X116453571Y-70634331D01*
X116453571Y-70634331D02*
X116491667Y-70786712D01*
X116491667Y-70786712D02*
X116491667Y-70900998D01*
X116491667Y-70900998D02*
X116453571Y-71053379D01*
X116453571Y-71053379D02*
X116415476Y-71129569D01*
X116415476Y-71129569D02*
X116339286Y-71205760D01*
X116339286Y-71205760D02*
X116225000Y-71243855D01*
X116225000Y-71243855D02*
X116034524Y-71243855D01*
X117177381Y-70710521D02*
X117177381Y-71243855D01*
X116986905Y-70405760D02*
X116796428Y-70977188D01*
X116796428Y-70977188D02*
X117291667Y-70977188D01*
D11*
X127674286Y-66954819D02*
X128293333Y-66954819D01*
X128293333Y-66954819D02*
X127960000Y-67335771D01*
X127960000Y-67335771D02*
X128102857Y-67335771D01*
X128102857Y-67335771D02*
X128198095Y-67383390D01*
X128198095Y-67383390D02*
X128245714Y-67431009D01*
X128245714Y-67431009D02*
X128293333Y-67526247D01*
X128293333Y-67526247D02*
X128293333Y-67764342D01*
X128293333Y-67764342D02*
X128245714Y-67859580D01*
X128245714Y-67859580D02*
X128198095Y-67907200D01*
X128198095Y-67907200D02*
X128102857Y-67954819D01*
X128102857Y-67954819D02*
X127817143Y-67954819D01*
X127817143Y-67954819D02*
X127721905Y-67907200D01*
X127721905Y-67907200D02*
X127674286Y-67859580D01*
X128626667Y-66954819D02*
X129245714Y-66954819D01*
X129245714Y-66954819D02*
X128912381Y-67335771D01*
X128912381Y-67335771D02*
X129055238Y-67335771D01*
X129055238Y-67335771D02*
X129150476Y-67383390D01*
X129150476Y-67383390D02*
X129198095Y-67431009D01*
X129198095Y-67431009D02*
X129245714Y-67526247D01*
X129245714Y-67526247D02*
X129245714Y-67764342D01*
X129245714Y-67764342D02*
X129198095Y-67859580D01*
X129198095Y-67859580D02*
X129150476Y-67907200D01*
X129150476Y-67907200D02*
X129055238Y-67954819D01*
X129055238Y-67954819D02*
X128769524Y-67954819D01*
X128769524Y-67954819D02*
X128674286Y-67907200D01*
X128674286Y-67907200D02*
X128626667Y-67859580D01*
X129864762Y-66954819D02*
X129960000Y-66954819D01*
X129960000Y-66954819D02*
X130055238Y-67002438D01*
X130055238Y-67002438D02*
X130102857Y-67050057D01*
X130102857Y-67050057D02*
X130150476Y-67145295D01*
X130150476Y-67145295D02*
X130198095Y-67335771D01*
X130198095Y-67335771D02*
X130198095Y-67573866D01*
X130198095Y-67573866D02*
X130150476Y-67764342D01*
X130150476Y-67764342D02*
X130102857Y-67859580D01*
X130102857Y-67859580D02*
X130055238Y-67907200D01*
X130055238Y-67907200D02*
X129960000Y-67954819D01*
X129960000Y-67954819D02*
X129864762Y-67954819D01*
X129864762Y-67954819D02*
X129769524Y-67907200D01*
X129769524Y-67907200D02*
X129721905Y-67859580D01*
X129721905Y-67859580D02*
X129674286Y-67764342D01*
X129674286Y-67764342D02*
X129626667Y-67573866D01*
X129626667Y-67573866D02*
X129626667Y-67335771D01*
X129626667Y-67335771D02*
X129674286Y-67145295D01*
X129674286Y-67145295D02*
X129721905Y-67050057D01*
X129721905Y-67050057D02*
X129769524Y-67002438D01*
X129769524Y-67002438D02*
X129864762Y-66954819D01*
X137143333Y-67954819D02*
X136810000Y-67478628D01*
X136571905Y-67954819D02*
X136571905Y-66954819D01*
X136571905Y-66954819D02*
X136952857Y-66954819D01*
X136952857Y-66954819D02*
X137048095Y-67002438D01*
X137048095Y-67002438D02*
X137095714Y-67050057D01*
X137095714Y-67050057D02*
X137143333Y-67145295D01*
X137143333Y-67145295D02*
X137143333Y-67288152D01*
X137143333Y-67288152D02*
X137095714Y-67383390D01*
X137095714Y-67383390D02*
X137048095Y-67431009D01*
X137048095Y-67431009D02*
X136952857Y-67478628D01*
X136952857Y-67478628D02*
X136571905Y-67478628D01*
X137524286Y-67050057D02*
X137571905Y-67002438D01*
X137571905Y-67002438D02*
X137667143Y-66954819D01*
X137667143Y-66954819D02*
X137905238Y-66954819D01*
X137905238Y-66954819D02*
X138000476Y-67002438D01*
X138000476Y-67002438D02*
X138048095Y-67050057D01*
X138048095Y-67050057D02*
X138095714Y-67145295D01*
X138095714Y-67145295D02*
X138095714Y-67240533D01*
X138095714Y-67240533D02*
X138048095Y-67383390D01*
X138048095Y-67383390D02*
X137476667Y-67954819D01*
X137476667Y-67954819D02*
X138095714Y-67954819D01*
X156055238Y-90884819D02*
X156055238Y-89884819D01*
X156055238Y-90361009D02*
X156626666Y-90361009D01*
X156626666Y-90884819D02*
X156626666Y-89884819D01*
X157531428Y-90218152D02*
X157531428Y-90884819D01*
X157102857Y-90218152D02*
X157102857Y-90741961D01*
X157102857Y-90741961D02*
X157150476Y-90837200D01*
X157150476Y-90837200D02*
X157245714Y-90884819D01*
X157245714Y-90884819D02*
X157388571Y-90884819D01*
X157388571Y-90884819D02*
X157483809Y-90837200D01*
X157483809Y-90837200D02*
X157531428Y-90789580D01*
X158007619Y-90884819D02*
X158007619Y-90218152D01*
X158007619Y-90313390D02*
X158055238Y-90265771D01*
X158055238Y-90265771D02*
X158150476Y-90218152D01*
X158150476Y-90218152D02*
X158293333Y-90218152D01*
X158293333Y-90218152D02*
X158388571Y-90265771D01*
X158388571Y-90265771D02*
X158436190Y-90361009D01*
X158436190Y-90361009D02*
X158436190Y-90884819D01*
X158436190Y-90361009D02*
X158483809Y-90265771D01*
X158483809Y-90265771D02*
X158579047Y-90218152D01*
X158579047Y-90218152D02*
X158721904Y-90218152D01*
X158721904Y-90218152D02*
X158817143Y-90265771D01*
X158817143Y-90265771D02*
X158864762Y-90361009D01*
X158864762Y-90361009D02*
X158864762Y-90884819D01*
X159340952Y-90884819D02*
X159340952Y-90218152D01*
X159340952Y-89884819D02*
X159293333Y-89932438D01*
X159293333Y-89932438D02*
X159340952Y-89980057D01*
X159340952Y-89980057D02*
X159388571Y-89932438D01*
X159388571Y-89932438D02*
X159340952Y-89884819D01*
X159340952Y-89884819D02*
X159340952Y-89980057D01*
X160245713Y-90884819D02*
X160245713Y-89884819D01*
X160245713Y-90837200D02*
X160150475Y-90884819D01*
X160150475Y-90884819D02*
X159959999Y-90884819D01*
X159959999Y-90884819D02*
X159864761Y-90837200D01*
X159864761Y-90837200D02*
X159817142Y-90789580D01*
X159817142Y-90789580D02*
X159769523Y-90694342D01*
X159769523Y-90694342D02*
X159769523Y-90408628D01*
X159769523Y-90408628D02*
X159817142Y-90313390D01*
X159817142Y-90313390D02*
X159864761Y-90265771D01*
X159864761Y-90265771D02*
X159959999Y-90218152D01*
X159959999Y-90218152D02*
X160150475Y-90218152D01*
X160150475Y-90218152D02*
X160245713Y-90265771D01*
X160721904Y-90884819D02*
X160721904Y-90218152D01*
X160721904Y-89884819D02*
X160674285Y-89932438D01*
X160674285Y-89932438D02*
X160721904Y-89980057D01*
X160721904Y-89980057D02*
X160769523Y-89932438D01*
X160769523Y-89932438D02*
X160721904Y-89884819D01*
X160721904Y-89884819D02*
X160721904Y-89980057D01*
X161055237Y-90218152D02*
X161436189Y-90218152D01*
X161198094Y-89884819D02*
X161198094Y-90741961D01*
X161198094Y-90741961D02*
X161245713Y-90837200D01*
X161245713Y-90837200D02*
X161340951Y-90884819D01*
X161340951Y-90884819D02*
X161436189Y-90884819D01*
X161674285Y-90218152D02*
X161912380Y-90884819D01*
X162150475Y-90218152D02*
X161912380Y-90884819D01*
X161912380Y-90884819D02*
X161817142Y-91122914D01*
X161817142Y-91122914D02*
X161769523Y-91170533D01*
X161769523Y-91170533D02*
X161674285Y-91218152D01*
X163245714Y-90837200D02*
X163388571Y-90884819D01*
X163388571Y-90884819D02*
X163626666Y-90884819D01*
X163626666Y-90884819D02*
X163721904Y-90837200D01*
X163721904Y-90837200D02*
X163769523Y-90789580D01*
X163769523Y-90789580D02*
X163817142Y-90694342D01*
X163817142Y-90694342D02*
X163817142Y-90599104D01*
X163817142Y-90599104D02*
X163769523Y-90503866D01*
X163769523Y-90503866D02*
X163721904Y-90456247D01*
X163721904Y-90456247D02*
X163626666Y-90408628D01*
X163626666Y-90408628D02*
X163436190Y-90361009D01*
X163436190Y-90361009D02*
X163340952Y-90313390D01*
X163340952Y-90313390D02*
X163293333Y-90265771D01*
X163293333Y-90265771D02*
X163245714Y-90170533D01*
X163245714Y-90170533D02*
X163245714Y-90075295D01*
X163245714Y-90075295D02*
X163293333Y-89980057D01*
X163293333Y-89980057D02*
X163340952Y-89932438D01*
X163340952Y-89932438D02*
X163436190Y-89884819D01*
X163436190Y-89884819D02*
X163674285Y-89884819D01*
X163674285Y-89884819D02*
X163817142Y-89932438D01*
X164626666Y-90837200D02*
X164531428Y-90884819D01*
X164531428Y-90884819D02*
X164340952Y-90884819D01*
X164340952Y-90884819D02*
X164245714Y-90837200D01*
X164245714Y-90837200D02*
X164198095Y-90741961D01*
X164198095Y-90741961D02*
X164198095Y-90361009D01*
X164198095Y-90361009D02*
X164245714Y-90265771D01*
X164245714Y-90265771D02*
X164340952Y-90218152D01*
X164340952Y-90218152D02*
X164531428Y-90218152D01*
X164531428Y-90218152D02*
X164626666Y-90265771D01*
X164626666Y-90265771D02*
X164674285Y-90361009D01*
X164674285Y-90361009D02*
X164674285Y-90456247D01*
X164674285Y-90456247D02*
X164198095Y-90551485D01*
X165102857Y-90218152D02*
X165102857Y-90884819D01*
X165102857Y-90313390D02*
X165150476Y-90265771D01*
X165150476Y-90265771D02*
X165245714Y-90218152D01*
X165245714Y-90218152D02*
X165388571Y-90218152D01*
X165388571Y-90218152D02*
X165483809Y-90265771D01*
X165483809Y-90265771D02*
X165531428Y-90361009D01*
X165531428Y-90361009D02*
X165531428Y-90884819D01*
X165960000Y-90837200D02*
X166055238Y-90884819D01*
X166055238Y-90884819D02*
X166245714Y-90884819D01*
X166245714Y-90884819D02*
X166340952Y-90837200D01*
X166340952Y-90837200D02*
X166388571Y-90741961D01*
X166388571Y-90741961D02*
X166388571Y-90694342D01*
X166388571Y-90694342D02*
X166340952Y-90599104D01*
X166340952Y-90599104D02*
X166245714Y-90551485D01*
X166245714Y-90551485D02*
X166102857Y-90551485D01*
X166102857Y-90551485D02*
X166007619Y-90503866D01*
X166007619Y-90503866D02*
X165960000Y-90408628D01*
X165960000Y-90408628D02*
X165960000Y-90361009D01*
X165960000Y-90361009D02*
X166007619Y-90265771D01*
X166007619Y-90265771D02*
X166102857Y-90218152D01*
X166102857Y-90218152D02*
X166245714Y-90218152D01*
X166245714Y-90218152D02*
X166340952Y-90265771D01*
X166960000Y-90884819D02*
X166864762Y-90837200D01*
X166864762Y-90837200D02*
X166817143Y-90789580D01*
X166817143Y-90789580D02*
X166769524Y-90694342D01*
X166769524Y-90694342D02*
X166769524Y-90408628D01*
X166769524Y-90408628D02*
X166817143Y-90313390D01*
X166817143Y-90313390D02*
X166864762Y-90265771D01*
X166864762Y-90265771D02*
X166960000Y-90218152D01*
X166960000Y-90218152D02*
X167102857Y-90218152D01*
X167102857Y-90218152D02*
X167198095Y-90265771D01*
X167198095Y-90265771D02*
X167245714Y-90313390D01*
X167245714Y-90313390D02*
X167293333Y-90408628D01*
X167293333Y-90408628D02*
X167293333Y-90694342D01*
X167293333Y-90694342D02*
X167245714Y-90789580D01*
X167245714Y-90789580D02*
X167198095Y-90837200D01*
X167198095Y-90837200D02*
X167102857Y-90884819D01*
X167102857Y-90884819D02*
X166960000Y-90884819D01*
X167721905Y-90884819D02*
X167721905Y-90218152D01*
X167721905Y-90408628D02*
X167769524Y-90313390D01*
X167769524Y-90313390D02*
X167817143Y-90265771D01*
X167817143Y-90265771D02*
X167912381Y-90218152D01*
X167912381Y-90218152D02*
X168007619Y-90218152D01*
X161206666Y-92454819D02*
X161206666Y-93169104D01*
X161206666Y-93169104D02*
X161159047Y-93311961D01*
X161159047Y-93311961D02*
X161063809Y-93407200D01*
X161063809Y-93407200D02*
X160920952Y-93454819D01*
X160920952Y-93454819D02*
X160825714Y-93454819D01*
X161587619Y-92454819D02*
X162254285Y-92454819D01*
X162254285Y-92454819D02*
X161825714Y-93454819D01*
X137063333Y-57434819D02*
X136730000Y-56958628D01*
X136491905Y-57434819D02*
X136491905Y-56434819D01*
X136491905Y-56434819D02*
X136872857Y-56434819D01*
X136872857Y-56434819D02*
X136968095Y-56482438D01*
X136968095Y-56482438D02*
X137015714Y-56530057D01*
X137015714Y-56530057D02*
X137063333Y-56625295D01*
X137063333Y-56625295D02*
X137063333Y-56768152D01*
X137063333Y-56768152D02*
X137015714Y-56863390D01*
X137015714Y-56863390D02*
X136968095Y-56911009D01*
X136968095Y-56911009D02*
X136872857Y-56958628D01*
X136872857Y-56958628D02*
X136491905Y-56958628D01*
X137968095Y-56434819D02*
X137491905Y-56434819D01*
X137491905Y-56434819D02*
X137444286Y-56911009D01*
X137444286Y-56911009D02*
X137491905Y-56863390D01*
X137491905Y-56863390D02*
X137587143Y-56815771D01*
X137587143Y-56815771D02*
X137825238Y-56815771D01*
X137825238Y-56815771D02*
X137920476Y-56863390D01*
X137920476Y-56863390D02*
X137968095Y-56911009D01*
X137968095Y-56911009D02*
X138015714Y-57006247D01*
X138015714Y-57006247D02*
X138015714Y-57244342D01*
X138015714Y-57244342D02*
X137968095Y-57339580D01*
X137968095Y-57339580D02*
X137920476Y-57387200D01*
X137920476Y-57387200D02*
X137825238Y-57434819D01*
X137825238Y-57434819D02*
X137587143Y-57434819D01*
X137587143Y-57434819D02*
X137491905Y-57387200D01*
X137491905Y-57387200D02*
X137444286Y-57339580D01*
X112590238Y-66764819D02*
X112590238Y-65764819D01*
X112590238Y-65764819D02*
X112971190Y-65764819D01*
X112971190Y-65764819D02*
X113066428Y-65812438D01*
X113066428Y-65812438D02*
X113114047Y-65860057D01*
X113114047Y-65860057D02*
X113161666Y-65955295D01*
X113161666Y-65955295D02*
X113161666Y-66098152D01*
X113161666Y-66098152D02*
X113114047Y-66193390D01*
X113114047Y-66193390D02*
X113066428Y-66241009D01*
X113066428Y-66241009D02*
X112971190Y-66288628D01*
X112971190Y-66288628D02*
X112590238Y-66288628D01*
X114161666Y-66764819D02*
X113828333Y-66288628D01*
X113590238Y-66764819D02*
X113590238Y-65764819D01*
X113590238Y-65764819D02*
X113971190Y-65764819D01*
X113971190Y-65764819D02*
X114066428Y-65812438D01*
X114066428Y-65812438D02*
X114114047Y-65860057D01*
X114114047Y-65860057D02*
X114161666Y-65955295D01*
X114161666Y-65955295D02*
X114161666Y-66098152D01*
X114161666Y-66098152D02*
X114114047Y-66193390D01*
X114114047Y-66193390D02*
X114066428Y-66241009D01*
X114066428Y-66241009D02*
X113971190Y-66288628D01*
X113971190Y-66288628D02*
X113590238Y-66288628D01*
X114590238Y-66241009D02*
X114923571Y-66241009D01*
X115066428Y-66764819D02*
X114590238Y-66764819D01*
X114590238Y-66764819D02*
X114590238Y-65764819D01*
X114590238Y-65764819D02*
X115066428Y-65764819D01*
X115447381Y-66717200D02*
X115590238Y-66764819D01*
X115590238Y-66764819D02*
X115828333Y-66764819D01*
X115828333Y-66764819D02*
X115923571Y-66717200D01*
X115923571Y-66717200D02*
X115971190Y-66669580D01*
X115971190Y-66669580D02*
X116018809Y-66574342D01*
X116018809Y-66574342D02*
X116018809Y-66479104D01*
X116018809Y-66479104D02*
X115971190Y-66383866D01*
X115971190Y-66383866D02*
X115923571Y-66336247D01*
X115923571Y-66336247D02*
X115828333Y-66288628D01*
X115828333Y-66288628D02*
X115637857Y-66241009D01*
X115637857Y-66241009D02*
X115542619Y-66193390D01*
X115542619Y-66193390D02*
X115495000Y-66145771D01*
X115495000Y-66145771D02*
X115447381Y-66050533D01*
X115447381Y-66050533D02*
X115447381Y-65955295D01*
X115447381Y-65955295D02*
X115495000Y-65860057D01*
X115495000Y-65860057D02*
X115542619Y-65812438D01*
X115542619Y-65812438D02*
X115637857Y-65764819D01*
X115637857Y-65764819D02*
X115875952Y-65764819D01*
X115875952Y-65764819D02*
X116018809Y-65812438D01*
X116399762Y-66717200D02*
X116542619Y-66764819D01*
X116542619Y-66764819D02*
X116780714Y-66764819D01*
X116780714Y-66764819D02*
X116875952Y-66717200D01*
X116875952Y-66717200D02*
X116923571Y-66669580D01*
X116923571Y-66669580D02*
X116971190Y-66574342D01*
X116971190Y-66574342D02*
X116971190Y-66479104D01*
X116971190Y-66479104D02*
X116923571Y-66383866D01*
X116923571Y-66383866D02*
X116875952Y-66336247D01*
X116875952Y-66336247D02*
X116780714Y-66288628D01*
X116780714Y-66288628D02*
X116590238Y-66241009D01*
X116590238Y-66241009D02*
X116495000Y-66193390D01*
X116495000Y-66193390D02*
X116447381Y-66145771D01*
X116447381Y-66145771D02*
X116399762Y-66050533D01*
X116399762Y-66050533D02*
X116399762Y-65955295D01*
X116399762Y-65955295D02*
X116447381Y-65860057D01*
X116447381Y-65860057D02*
X116495000Y-65812438D01*
X116495000Y-65812438D02*
X116590238Y-65764819D01*
X116590238Y-65764819D02*
X116828333Y-65764819D01*
X116828333Y-65764819D02*
X116971190Y-65812438D01*
X117161667Y-66860057D02*
X117923571Y-66860057D01*
X118637857Y-66764819D02*
X118161667Y-66764819D01*
X118161667Y-66764819D02*
X118161667Y-65764819D01*
X118971191Y-66241009D02*
X119304524Y-66241009D01*
X119447381Y-66764819D02*
X118971191Y-66764819D01*
X118971191Y-66764819D02*
X118971191Y-65764819D01*
X118971191Y-65764819D02*
X119447381Y-65764819D01*
X119875953Y-66764819D02*
X119875953Y-65764819D01*
X119875953Y-65764819D02*
X120114048Y-65764819D01*
X120114048Y-65764819D02*
X120256905Y-65812438D01*
X120256905Y-65812438D02*
X120352143Y-65907676D01*
X120352143Y-65907676D02*
X120399762Y-66002914D01*
X120399762Y-66002914D02*
X120447381Y-66193390D01*
X120447381Y-66193390D02*
X120447381Y-66336247D01*
X120447381Y-66336247D02*
X120399762Y-66526723D01*
X120399762Y-66526723D02*
X120352143Y-66621961D01*
X120352143Y-66621961D02*
X120256905Y-66717200D01*
X120256905Y-66717200D02*
X120114048Y-66764819D01*
X120114048Y-66764819D02*
X119875953Y-66764819D01*
D12*
X115904524Y-62713855D02*
X115904524Y-61913855D01*
X115904524Y-61913855D02*
X116095000Y-61913855D01*
X116095000Y-61913855D02*
X116209286Y-61951950D01*
X116209286Y-61951950D02*
X116285476Y-62028140D01*
X116285476Y-62028140D02*
X116323571Y-62104331D01*
X116323571Y-62104331D02*
X116361667Y-62256712D01*
X116361667Y-62256712D02*
X116361667Y-62370998D01*
X116361667Y-62370998D02*
X116323571Y-62523379D01*
X116323571Y-62523379D02*
X116285476Y-62599569D01*
X116285476Y-62599569D02*
X116209286Y-62675760D01*
X116209286Y-62675760D02*
X116095000Y-62713855D01*
X116095000Y-62713855D02*
X115904524Y-62713855D01*
X117085476Y-61913855D02*
X116704524Y-61913855D01*
X116704524Y-61913855D02*
X116666428Y-62294807D01*
X116666428Y-62294807D02*
X116704524Y-62256712D01*
X116704524Y-62256712D02*
X116780714Y-62218617D01*
X116780714Y-62218617D02*
X116971190Y-62218617D01*
X116971190Y-62218617D02*
X117047381Y-62256712D01*
X117047381Y-62256712D02*
X117085476Y-62294807D01*
X117085476Y-62294807D02*
X117123571Y-62370998D01*
X117123571Y-62370998D02*
X117123571Y-62561474D01*
X117123571Y-62561474D02*
X117085476Y-62637664D01*
X117085476Y-62637664D02*
X117047381Y-62675760D01*
X117047381Y-62675760D02*
X116971190Y-62713855D01*
X116971190Y-62713855D02*
X116780714Y-62713855D01*
X116780714Y-62713855D02*
X116704524Y-62675760D01*
X116704524Y-62675760D02*
X116666428Y-62637664D01*
D11*
X112479285Y-82901009D02*
X112812618Y-82901009D01*
X112955475Y-83424819D02*
X112479285Y-83424819D01*
X112479285Y-83424819D02*
X112479285Y-82424819D01*
X112479285Y-82424819D02*
X112955475Y-82424819D01*
X113288809Y-82424819D02*
X113955475Y-83424819D01*
X113955475Y-82424819D02*
X113288809Y-83424819D01*
X114193571Y-82424819D02*
X114764999Y-82424819D01*
X114479285Y-83424819D02*
X114479285Y-82424819D01*
X115098333Y-82901009D02*
X115431666Y-82901009D01*
X115574523Y-83424819D02*
X115098333Y-83424819D01*
X115098333Y-83424819D02*
X115098333Y-82424819D01*
X115098333Y-82424819D02*
X115574523Y-82424819D01*
X116574523Y-83424819D02*
X116241190Y-82948628D01*
X116003095Y-83424819D02*
X116003095Y-82424819D01*
X116003095Y-82424819D02*
X116384047Y-82424819D01*
X116384047Y-82424819D02*
X116479285Y-82472438D01*
X116479285Y-82472438D02*
X116526904Y-82520057D01*
X116526904Y-82520057D02*
X116574523Y-82615295D01*
X116574523Y-82615295D02*
X116574523Y-82758152D01*
X116574523Y-82758152D02*
X116526904Y-82853390D01*
X116526904Y-82853390D02*
X116479285Y-82901009D01*
X116479285Y-82901009D02*
X116384047Y-82948628D01*
X116384047Y-82948628D02*
X116003095Y-82948628D01*
X117003095Y-83424819D02*
X117003095Y-82424819D01*
X117003095Y-82424819D02*
X117574523Y-83424819D01*
X117574523Y-83424819D02*
X117574523Y-82424819D01*
X117812619Y-83520057D02*
X118574523Y-83520057D01*
X119288809Y-83424819D02*
X118812619Y-83424819D01*
X118812619Y-83424819D02*
X118812619Y-82424819D01*
X119622143Y-82901009D02*
X119955476Y-82901009D01*
X120098333Y-83424819D02*
X119622143Y-83424819D01*
X119622143Y-83424819D02*
X119622143Y-82424819D01*
X119622143Y-82424819D02*
X120098333Y-82424819D01*
X120526905Y-83424819D02*
X120526905Y-82424819D01*
X120526905Y-82424819D02*
X120765000Y-82424819D01*
X120765000Y-82424819D02*
X120907857Y-82472438D01*
X120907857Y-82472438D02*
X121003095Y-82567676D01*
X121003095Y-82567676D02*
X121050714Y-82662914D01*
X121050714Y-82662914D02*
X121098333Y-82853390D01*
X121098333Y-82853390D02*
X121098333Y-82996247D01*
X121098333Y-82996247D02*
X121050714Y-83186723D01*
X121050714Y-83186723D02*
X121003095Y-83281961D01*
X121003095Y-83281961D02*
X120907857Y-83377200D01*
X120907857Y-83377200D02*
X120765000Y-83424819D01*
X120765000Y-83424819D02*
X120526905Y-83424819D01*
D12*
X116174524Y-79373855D02*
X116174524Y-78573855D01*
X116174524Y-78573855D02*
X116365000Y-78573855D01*
X116365000Y-78573855D02*
X116479286Y-78611950D01*
X116479286Y-78611950D02*
X116555476Y-78688140D01*
X116555476Y-78688140D02*
X116593571Y-78764331D01*
X116593571Y-78764331D02*
X116631667Y-78916712D01*
X116631667Y-78916712D02*
X116631667Y-79030998D01*
X116631667Y-79030998D02*
X116593571Y-79183379D01*
X116593571Y-79183379D02*
X116555476Y-79259569D01*
X116555476Y-79259569D02*
X116479286Y-79335760D01*
X116479286Y-79335760D02*
X116365000Y-79373855D01*
X116365000Y-79373855D02*
X116174524Y-79373855D01*
X116898333Y-78573855D02*
X117393571Y-78573855D01*
X117393571Y-78573855D02*
X117126905Y-78878617D01*
X117126905Y-78878617D02*
X117241190Y-78878617D01*
X117241190Y-78878617D02*
X117317381Y-78916712D01*
X117317381Y-78916712D02*
X117355476Y-78954807D01*
X117355476Y-78954807D02*
X117393571Y-79030998D01*
X117393571Y-79030998D02*
X117393571Y-79221474D01*
X117393571Y-79221474D02*
X117355476Y-79297664D01*
X117355476Y-79297664D02*
X117317381Y-79335760D01*
X117317381Y-79335760D02*
X117241190Y-79373855D01*
X117241190Y-79373855D02*
X117012619Y-79373855D01*
X117012619Y-79373855D02*
X116936428Y-79335760D01*
X116936428Y-79335760D02*
X116898333Y-79297664D01*
D13*
%TO.C,J8*%
X132230500Y-86180000D02*
X132230500Y-76180000D01*
X132230500Y-76180000D02*
X145530500Y-76180000D01*
X145530500Y-76180000D02*
X145530500Y-86180000D01*
X145530500Y-86180000D02*
X132230500Y-86180000D01*
D14*
%TO.C,J1*%
X126670000Y-96825000D02*
X127305000Y-96190000D01*
X126670000Y-98730000D02*
X126670000Y-96825000D01*
X127305000Y-96190000D02*
X146990000Y-96190000D01*
X146990000Y-96190000D02*
X146990000Y-98730000D01*
X146990000Y-98730000D02*
X126670000Y-98730000D01*
%TO.C,J3*%
X149530000Y-96825000D02*
X150165000Y-96190000D01*
X149530000Y-98730000D02*
X149530000Y-96825000D01*
X150165000Y-96190000D02*
X164770000Y-96190000D01*
X164770000Y-96190000D02*
X164770000Y-98730000D01*
X164770000Y-98730000D02*
X149530000Y-98730000D01*
%TO.C,J2*%
X117526000Y-48565000D02*
X118161000Y-47930000D01*
X117526000Y-50470000D02*
X117526000Y-48565000D01*
X118161000Y-47930000D02*
X142926000Y-47930000D01*
X142926000Y-47930000D02*
X142926000Y-50470000D01*
X142926000Y-50470000D02*
X117526000Y-50470000D01*
%TO.C,J4*%
X144450000Y-48565000D02*
X145085000Y-47930000D01*
X144450000Y-50470000D02*
X144450000Y-48565000D01*
X145085000Y-47930000D02*
X164770000Y-47930000D01*
X164770000Y-47930000D02*
X164770000Y-50470000D01*
X164770000Y-50470000D02*
X144450000Y-50470000D01*
%TO.C,J9*%
X150070000Y-70090000D02*
X164675000Y-70090000D01*
X150070000Y-72630000D02*
X150070000Y-70090000D01*
X164675000Y-70090000D02*
X165310000Y-70725000D01*
X165310000Y-70725000D02*
X165310000Y-72630000D01*
X165310000Y-72630000D02*
X150070000Y-72630000D01*
%TO.C,J10*%
X161870000Y-53900000D02*
X163870000Y-53900000D01*
X161870000Y-65900000D02*
X161870000Y-53900000D01*
X163370000Y-65900000D02*
X161870000Y-65900000D01*
X163870000Y-53900000D02*
X163870000Y-65400000D01*
X163870000Y-65400000D02*
X163370000Y-65900000D01*
%TO.C,D6*%
X114125000Y-53820306D02*
X114125000Y-56759694D01*
X114125000Y-53820306D02*
G75*
G02*
X114125046Y-56759772I2500000J-1469694D01*
G01*
X119125000Y-55290000D02*
G75*
G02*
X114125000Y-55290000I-2500000J0D01*
G01*
X114125000Y-55290000D02*
G75*
G02*
X119125000Y-55290000I2500000J0D01*
G01*
%TO.C,R1*%
X127070000Y-71140000D02*
X129000000Y-71140000D01*
X129000000Y-69890000D02*
X129000000Y-72390000D01*
X129000000Y-72390000D02*
X135300000Y-72390000D01*
X135300000Y-69890000D02*
X129000000Y-69890000D01*
X135300000Y-72390000D02*
X135300000Y-69890000D01*
X137230000Y-71140000D02*
X135300000Y-71140000D01*
%TO.C,D1*%
X114395000Y-93320306D02*
X114395000Y-96259694D01*
X114395000Y-93320306D02*
G75*
G02*
X114395046Y-96259772I2500000J-1469694D01*
G01*
X119395000Y-94790000D02*
G75*
G02*
X114395000Y-94790000I-2500000J0D01*
G01*
X114395000Y-94790000D02*
G75*
G02*
X119395000Y-94790000I2500000J0D01*
G01*
%TO.C,R6*%
X126940000Y-53230000D02*
X128870000Y-53230000D01*
X128870000Y-51980000D02*
X128870000Y-54480000D01*
X128870000Y-54480000D02*
X135170000Y-54480000D01*
X135170000Y-51980000D02*
X128870000Y-51980000D01*
X135170000Y-54480000D02*
X135170000Y-51980000D01*
X137100000Y-53230000D02*
X135170000Y-53230000D01*
%TO.C,R4*%
X137310000Y-60300000D02*
X135380000Y-60300000D01*
X135380000Y-61550000D02*
X135380000Y-59050000D01*
X135380000Y-59050000D02*
X129080000Y-59050000D01*
X129080000Y-61550000D02*
X135380000Y-61550000D01*
X129080000Y-59050000D02*
X129080000Y-61550000D01*
X127150000Y-60300000D02*
X129080000Y-60300000D01*
%TO.C,D2*%
X114315000Y-85710306D02*
X114315000Y-88649694D01*
X114315000Y-85710306D02*
G75*
G02*
X114315046Y-88649772I2500000J-1469694D01*
G01*
X119315000Y-87180000D02*
G75*
G02*
X114315000Y-87180000I-2500000J0D01*
G01*
X114315000Y-87180000D02*
G75*
G02*
X119315000Y-87180000I2500000J0D01*
G01*
%TO.C,R3*%
X127070000Y-64020000D02*
X129000000Y-64020000D01*
X129000000Y-62770000D02*
X129000000Y-65270000D01*
X129000000Y-65270000D02*
X135300000Y-65270000D01*
X135300000Y-62770000D02*
X129000000Y-62770000D01*
X135300000Y-65270000D02*
X135300000Y-62770000D01*
X137230000Y-64020000D02*
X135300000Y-64020000D01*
D15*
%TO.C,J6*%
X152457000Y-90056000D02*
X152457000Y-94344000D01*
X152457000Y-90056000D02*
G75*
G02*
X152457000Y-94344000I1557707J-2144000D01*
G01*
D16*
X151800000Y-90900000D02*
G75*
G02*
X151600000Y-90900000I-100000J0D01*
G01*
X151600000Y-90900000D02*
G75*
G02*
X151800000Y-90900000I100000J0D01*
G01*
D15*
%TO.C,J5*%
X146957000Y-89856000D02*
X146957000Y-94144000D01*
X146957000Y-89856000D02*
G75*
G02*
X146957000Y-94144000I1557707J-2144000D01*
G01*
D16*
X146300000Y-90700000D02*
G75*
G02*
X146100000Y-90700000I-100000J0D01*
G01*
X146100000Y-90700000D02*
G75*
G02*
X146300000Y-90700000I100000J0D01*
G01*
D14*
%TO.C,D4*%
X119125000Y-70880000D02*
G75*
G02*
X114125000Y-70880000I-2500000J0D01*
G01*
X114125000Y-70880000D02*
G75*
G02*
X119125000Y-70880000I2500000J0D01*
G01*
X114125000Y-69410306D02*
G75*
G02*
X114125046Y-72349772I2500000J-1469694D01*
G01*
X114125000Y-69410306D02*
X114125000Y-72349694D01*
%TO.C,R2*%
X137310000Y-67500000D02*
X135380000Y-67500000D01*
X135380000Y-68750000D02*
X135380000Y-66250000D01*
X135380000Y-66250000D02*
X129080000Y-66250000D01*
X129080000Y-68750000D02*
X135380000Y-68750000D01*
X129080000Y-66250000D02*
X129080000Y-68750000D01*
X127150000Y-67500000D02*
X129080000Y-67500000D01*
%TO.C,J7*%
X157730000Y-91730000D02*
X165350000Y-91730000D01*
X157730000Y-93635000D02*
X157730000Y-91730000D01*
X158365000Y-94270000D02*
X157730000Y-93635000D01*
X165350000Y-91730000D02*
X165350000Y-94270000D01*
X165350000Y-94270000D02*
X158365000Y-94270000D01*
%TO.C,R5*%
X127070000Y-56980000D02*
X129000000Y-56980000D01*
X129000000Y-55730000D02*
X129000000Y-58230000D01*
X129000000Y-58230000D02*
X135300000Y-58230000D01*
X135300000Y-55730000D02*
X129000000Y-55730000D01*
X135300000Y-58230000D02*
X135300000Y-55730000D01*
X137230000Y-56980000D02*
X135300000Y-56980000D01*
%TO.C,D5*%
X113995000Y-60880306D02*
X113995000Y-63819694D01*
X113995000Y-60880306D02*
G75*
G02*
X113995046Y-63819772I2500000J-1469694D01*
G01*
X118995000Y-62350000D02*
G75*
G02*
X113995000Y-62350000I-2500000J0D01*
G01*
X113995000Y-62350000D02*
G75*
G02*
X118995000Y-62350000I2500000J0D01*
G01*
%TO.C,D3*%
X119265000Y-79010000D02*
G75*
G02*
X114265000Y-79010000I-2500000J0D01*
G01*
X114265000Y-79010000D02*
G75*
G02*
X119265000Y-79010000I2500000J0D01*
G01*
X114265000Y-77540306D02*
G75*
G02*
X114265046Y-80479772I2500000J-1469694D01*
G01*
X114265000Y-77540306D02*
X114265000Y-80479694D01*
%TD*%
M02*
