%TF.GenerationSoftware,KiCad,Pcbnew,8.0.8*%
%TF.CreationDate,2025-03-14T01:28:21-06:00*%
%TF.ProjectId,WeatherBalloon,57656174-6865-4724-9261-6c6c6f6f6e2e,rev?*%
%TF.SameCoordinates,Original*%
%TF.FileFunction,Copper,L2,Bot*%
%TF.FilePolarity,Positive*%
%FSLAX46Y46*%
G04 Gerber Fmt 4.6, Leading zero omitted, Abs format (unit mm)*
G04 Created by KiCad (PCBNEW 8.0.8) date 2025-03-14 01:28:21*
%MOMM*%
%LPD*%
G01*
G04 APERTURE LIST*
%TA.AperFunction,ComponentPad*%
%ADD10C,1.321000*%
%TD*%
%TA.AperFunction,ComponentPad*%
%ADD11R,1.700000X1.700000*%
%TD*%
%TA.AperFunction,ComponentPad*%
%ADD12O,1.700000X1.700000*%
%TD*%
%TA.AperFunction,ComponentPad*%
%ADD13R,1.350000X1.350000*%
%TD*%
%TA.AperFunction,ComponentPad*%
%ADD14O,1.350000X1.350000*%
%TD*%
%TA.AperFunction,ComponentPad*%
%ADD15R,1.800000X1.800000*%
%TD*%
%TA.AperFunction,ComponentPad*%
%ADD16C,1.800000*%
%TD*%
%TA.AperFunction,ComponentPad*%
%ADD17C,1.600000*%
%TD*%
%TA.AperFunction,ComponentPad*%
%ADD18O,1.600000X1.600000*%
%TD*%
%TA.AperFunction,ComponentPad*%
%ADD19O,2.200000X1.000000*%
%TD*%
%TA.AperFunction,ViaPad*%
%ADD20C,0.600000*%
%TD*%
%TA.AperFunction,Conductor*%
%ADD21C,0.500000*%
%TD*%
G04 APERTURE END LIST*
D10*
%TO.P,J8,1,Pin_1*%
%TO.N,unconnected-(J8-Pin_1-Pad1)*%
X145420500Y-84990000D03*
%TO.P,J8,2,Pin_2*%
%TO.N,+5V*%
X145420500Y-82450000D03*
%TO.P,J8,3,Pin_3*%
%TO.N,/PRESSURE_OUTPUT*%
X145420500Y-79910000D03*
%TO.P,J8,4,Pin_4*%
%TO.N,GND*%
X145420500Y-77370000D03*
%TO.P,J8,5,Pin_5*%
%TO.N,unconnected-(J8-Pin_5-Pad5)*%
X132340500Y-77370000D03*
%TO.P,J8,6,Pin_6*%
%TO.N,unconnected-(J8-Pin_6-Pad6)*%
X132340500Y-79910000D03*
%TO.P,J8,7,Pin_7*%
%TO.N,unconnected-(J8-Pin_7-Pad7)*%
X132340500Y-82450000D03*
%TO.P,J8,8,Pin_8*%
%TO.N,unconnected-(J8-Pin_8-Pad8)*%
X132340500Y-84990000D03*
%TD*%
D11*
%TO.P,J1,1,Pin_1*%
%TO.N,unconnected-(J1-Pin_1-Pad1)*%
X127940000Y-97460000D03*
D12*
%TO.P,J1,2,Pin_2*%
%TO.N,/IOREF*%
X130480000Y-97460000D03*
%TO.P,J1,3,Pin_3*%
%TO.N,/~{RESET}*%
X133020000Y-97460000D03*
%TO.P,J1,4,Pin_4*%
%TO.N,+3V3*%
X135560000Y-97460000D03*
%TO.P,J1,5,Pin_5*%
%TO.N,+5V*%
X138100000Y-97460000D03*
%TO.P,J1,6,Pin_6*%
%TO.N,GND*%
X140640000Y-97460000D03*
%TO.P,J1,7,Pin_7*%
X143180000Y-97460000D03*
%TO.P,J1,8,Pin_8*%
%TO.N,VCC*%
X145720000Y-97460000D03*
%TD*%
D11*
%TO.P,J3,1,Pin_1*%
%TO.N,/INTERNAL_TEMP*%
X150800000Y-97460000D03*
D12*
%TO.P,J3,2,Pin_2*%
%TO.N,/EXTERNAL_TEMP*%
X153340000Y-97460000D03*
%TO.P,J3,3,Pin_3*%
%TO.N,/HUMIDITY_OUTPUT*%
X155880000Y-97460000D03*
%TO.P,J3,4,Pin_4*%
%TO.N,/PRESSURE_OUTPUT*%
X158420000Y-97460000D03*
%TO.P,J3,5,Pin_5*%
%TO.N,/ACCELX*%
X160960000Y-97460000D03*
%TO.P,J3,6,Pin_6*%
%TO.N,/ACCELZ*%
X163500000Y-97460000D03*
%TD*%
D11*
%TO.P,J2,1,Pin_1*%
%TO.N,/SCL{slash}A5*%
X118796000Y-49200000D03*
D12*
%TO.P,J2,2,Pin_2*%
%TO.N,/SDA{slash}A4*%
X121336000Y-49200000D03*
%TO.P,J2,3,Pin_3*%
%TO.N,/AREF*%
X123876000Y-49200000D03*
%TO.P,J2,4,Pin_4*%
%TO.N,GND*%
X126416000Y-49200000D03*
%TO.P,J2,5,Pin_5*%
%TO.N,/13*%
X128956000Y-49200000D03*
%TO.P,J2,6,Pin_6*%
%TO.N,/12*%
X131496000Y-49200000D03*
%TO.P,J2,7,Pin_7*%
%TO.N,/\u002A11*%
X134036000Y-49200000D03*
%TO.P,J2,8,Pin_8*%
%TO.N,/\u002A10*%
X136576000Y-49200000D03*
%TO.P,J2,9,Pin_9*%
%TO.N,/ACCELS_LED*%
X139116000Y-49200000D03*
%TO.P,J2,10,Pin_10*%
%TO.N,/8*%
X141656000Y-49200000D03*
%TD*%
D11*
%TO.P,J4,1,Pin_1*%
%TO.N,/PRESSURE_LED*%
X145720000Y-49200000D03*
D12*
%TO.P,J4,2,Pin_2*%
%TO.N,/HUMIDITY_LED*%
X148260000Y-49200000D03*
%TO.P,J4,3,Pin_3*%
%TO.N,/EXTERNAL_TEMP_LED*%
X150800000Y-49200000D03*
%TO.P,J4,4,Pin_4*%
%TO.N,/INTERNAL_TEMP_LED*%
X153340000Y-49200000D03*
%TO.P,J4,5,Pin_5*%
%TO.N,/ON_LED*%
X155880000Y-49200000D03*
%TO.P,J4,6,Pin_6*%
%TO.N,/2*%
X158420000Y-49200000D03*
%TO.P,J4,7,Pin_7*%
%TO.N,/TX{slash}1*%
X160960000Y-49200000D03*
%TO.P,J4,8,Pin_8*%
%TO.N,/RXI*%
X163500000Y-49200000D03*
%TD*%
D11*
%TO.P,J9,1,Pin_1*%
%TO.N,/SELF_TEST*%
X164040000Y-71360000D03*
D12*
%TO.P,J9,2,Pin_2*%
%TO.N,/ACCELZ*%
X161500000Y-71360000D03*
%TO.P,J9,3,Pin_3*%
%TO.N,/ACCELY*%
X158960000Y-71360000D03*
%TO.P,J9,4,Pin_4*%
%TO.N,/ACCELX*%
X156420000Y-71360000D03*
%TO.P,J9,5,Pin_5*%
%TO.N,GND*%
X153880000Y-71360000D03*
%TO.P,J9,6,Pin_6*%
%TO.N,+3V3*%
X151340000Y-71360000D03*
%TD*%
D13*
%TO.P,J10,1,Pin_1*%
%TO.N,unconnected-(J10-Pin_1-Pad1)*%
X162870000Y-64900000D03*
D14*
%TO.P,J10,2,Pin_2*%
%TO.N,/RXI*%
X162870000Y-62900000D03*
%TO.P,J10,3,Pin_3*%
%TO.N,/TXO*%
X162870000Y-60900000D03*
%TO.P,J10,4,Pin_4*%
%TO.N,+5V*%
X162870000Y-58900000D03*
%TO.P,J10,5,Pin_5*%
%TO.N,GND*%
X162870000Y-56900000D03*
%TO.P,J10,6,Pin_6*%
%TO.N,unconnected-(J10-Pin_6-Pad6)*%
X162870000Y-54900000D03*
%TD*%
D15*
%TO.P,D6,1,K*%
%TO.N,GND*%
X115355000Y-55290000D03*
D16*
%TO.P,D6,2,A*%
%TO.N,Net-(D6-A)*%
X117895000Y-55290000D03*
%TD*%
D17*
%TO.P,R1,1*%
%TO.N,/ON_LED*%
X137230000Y-71140000D03*
D18*
%TO.P,R1,2*%
%TO.N,Net-(D1-A)*%
X127070000Y-71140000D03*
%TD*%
D15*
%TO.P,D1,1,K*%
%TO.N,GND*%
X115625000Y-94790000D03*
D16*
%TO.P,D1,2,A*%
%TO.N,Net-(D1-A)*%
X118165000Y-94790000D03*
%TD*%
D17*
%TO.P,R6,1*%
%TO.N,/ACCELS_LED*%
X137100000Y-53230000D03*
D18*
%TO.P,R6,2*%
%TO.N,Net-(D6-A)*%
X126940000Y-53230000D03*
%TD*%
%TO.P,R4,2*%
%TO.N,Net-(D4-A)*%
X127150000Y-60300000D03*
D17*
%TO.P,R4,1*%
%TO.N,/HUMIDITY_LED*%
X137310000Y-60300000D03*
%TD*%
D15*
%TO.P,D2,1,K*%
%TO.N,GND*%
X115545000Y-87180000D03*
D16*
%TO.P,D2,2,A*%
%TO.N,Net-(D2-A)*%
X118085000Y-87180000D03*
%TD*%
D17*
%TO.P,R3,1*%
%TO.N,/EXTERNAL_TEMP_LED*%
X137230000Y-64020000D03*
D18*
%TO.P,R3,2*%
%TO.N,Net-(D3-A)*%
X127070000Y-64020000D03*
%TD*%
D19*
%TO.P,J6,1,Pin_1*%
%TO.N,+5V*%
X153720000Y-90930000D03*
%TO.P,J6,2,Pin_2*%
%TO.N,/EXTERNAL_TEMP*%
X153720000Y-92200000D03*
%TO.P,J6,3,Pin_3*%
%TO.N,GND*%
X153720000Y-93470000D03*
%TD*%
%TO.P,J5,1,Pin_1*%
%TO.N,+5V*%
X148220000Y-90730000D03*
%TO.P,J5,2,Pin_2*%
%TO.N,/INTERNAL_TEMP*%
X148220000Y-92000000D03*
%TO.P,J5,3,Pin_3*%
%TO.N,GND*%
X148220000Y-93270000D03*
%TD*%
D16*
%TO.P,D4,2,A*%
%TO.N,Net-(D4-A)*%
X117895000Y-70880000D03*
D15*
%TO.P,D4,1,K*%
%TO.N,GND*%
X115355000Y-70880000D03*
%TD*%
D18*
%TO.P,R2,2*%
%TO.N,Net-(D2-A)*%
X127150000Y-67500000D03*
D17*
%TO.P,R2,1*%
%TO.N,/INTERNAL_TEMP_LED*%
X137310000Y-67500000D03*
%TD*%
D11*
%TO.P,J7,1,Pin_1*%
%TO.N,+5V*%
X159000000Y-93000000D03*
D12*
%TO.P,J7,2,Pin_2*%
%TO.N,/HUMIDITY_OUTPUT*%
X161540000Y-93000000D03*
%TO.P,J7,3,Pin_3*%
%TO.N,GND*%
X164080000Y-93000000D03*
%TD*%
D17*
%TO.P,R5,1*%
%TO.N,/PRESSURE_LED*%
X137230000Y-56980000D03*
D18*
%TO.P,R5,2*%
%TO.N,Net-(D5-A)*%
X127070000Y-56980000D03*
%TD*%
D15*
%TO.P,D5,1,K*%
%TO.N,GND*%
X115225000Y-62350000D03*
D16*
%TO.P,D5,2,A*%
%TO.N,Net-(D5-A)*%
X117765000Y-62350000D03*
%TD*%
%TO.P,D3,2,A*%
%TO.N,Net-(D3-A)*%
X118035000Y-79010000D03*
D15*
%TO.P,D3,1,K*%
%TO.N,GND*%
X115495000Y-79010000D03*
%TD*%
D20*
%TO.N,+3V3*%
X144810000Y-71470000D03*
X143280000Y-71470000D03*
%TD*%
D21*
%TO.N,+3V3*%
X143280000Y-71470000D02*
X144810000Y-71470000D01*
%TD*%
%TA.AperFunction,Conductor*%
%TO.N,GND*%
G36*
X142714075Y-97267007D02*
G01*
X142680000Y-97394174D01*
X142680000Y-97525826D01*
X142714075Y-97652993D01*
X142746988Y-97710000D01*
X141073012Y-97710000D01*
X141105925Y-97652993D01*
X141140000Y-97525826D01*
X141140000Y-97394174D01*
X141105925Y-97267007D01*
X141073012Y-97210000D01*
X142746988Y-97210000D01*
X142714075Y-97267007D01*
G37*
%TD.AperFunction*%
%TA.AperFunction,Conductor*%
G36*
X163308363Y-47180185D02*
G01*
X163329005Y-47196819D01*
X163781313Y-47649127D01*
X163814798Y-47710450D01*
X163809814Y-47780142D01*
X163767942Y-47836075D01*
X163702478Y-47860492D01*
X163682825Y-47860336D01*
X163500002Y-47844341D01*
X163499999Y-47844341D01*
X163264596Y-47864936D01*
X163264586Y-47864938D01*
X163036344Y-47926094D01*
X163036335Y-47926098D01*
X162822171Y-48025964D01*
X162822169Y-48025965D01*
X162628597Y-48161505D01*
X162461505Y-48328597D01*
X162331575Y-48514158D01*
X162276998Y-48557783D01*
X162207500Y-48564977D01*
X162145145Y-48533454D01*
X162128425Y-48514158D01*
X161998494Y-48328597D01*
X161831402Y-48161506D01*
X161831395Y-48161501D01*
X161637834Y-48025967D01*
X161637830Y-48025965D01*
X161600955Y-48008770D01*
X161423663Y-47926097D01*
X161423659Y-47926096D01*
X161423655Y-47926094D01*
X161195413Y-47864938D01*
X161195403Y-47864936D01*
X160960001Y-47844341D01*
X160959999Y-47844341D01*
X160724596Y-47864936D01*
X160724586Y-47864938D01*
X160496344Y-47926094D01*
X160496335Y-47926098D01*
X160282171Y-48025964D01*
X160282169Y-48025965D01*
X160088597Y-48161505D01*
X159921505Y-48328597D01*
X159791575Y-48514158D01*
X159736998Y-48557783D01*
X159667500Y-48564977D01*
X159605145Y-48533454D01*
X159588425Y-48514158D01*
X159458494Y-48328597D01*
X159291402Y-48161506D01*
X159291395Y-48161501D01*
X159097834Y-48025967D01*
X159097830Y-48025965D01*
X159060955Y-48008770D01*
X158883663Y-47926097D01*
X158883659Y-47926096D01*
X158883655Y-47926094D01*
X158655413Y-47864938D01*
X158655403Y-47864936D01*
X158420001Y-47844341D01*
X158419999Y-47844341D01*
X158184596Y-47864936D01*
X158184586Y-47864938D01*
X157956344Y-47926094D01*
X157956335Y-47926098D01*
X157742171Y-48025964D01*
X157742169Y-48025965D01*
X157548597Y-48161505D01*
X157381505Y-48328597D01*
X157251575Y-48514158D01*
X157196998Y-48557783D01*
X157127500Y-48564977D01*
X157065145Y-48533454D01*
X157048425Y-48514158D01*
X156918494Y-48328597D01*
X156751402Y-48161506D01*
X156751395Y-48161501D01*
X156557834Y-48025967D01*
X156557830Y-48025965D01*
X156520955Y-48008770D01*
X156343663Y-47926097D01*
X156343659Y-47926096D01*
X156343655Y-47926094D01*
X156115413Y-47864938D01*
X156115403Y-47864936D01*
X155880001Y-47844341D01*
X155879999Y-47844341D01*
X155644596Y-47864936D01*
X155644586Y-47864938D01*
X155416344Y-47926094D01*
X155416335Y-47926098D01*
X155202171Y-48025964D01*
X155202169Y-48025965D01*
X155008597Y-48161505D01*
X154841505Y-48328597D01*
X154711575Y-48514158D01*
X154656998Y-48557783D01*
X154587500Y-48564977D01*
X154525145Y-48533454D01*
X154508425Y-48514158D01*
X154378494Y-48328597D01*
X154211402Y-48161506D01*
X154211395Y-48161501D01*
X154017834Y-48025967D01*
X154017830Y-48025965D01*
X153980955Y-48008770D01*
X153803663Y-47926097D01*
X153803659Y-47926096D01*
X153803655Y-47926094D01*
X153575413Y-47864938D01*
X153575403Y-47864936D01*
X153340001Y-47844341D01*
X153339999Y-47844341D01*
X153104596Y-47864936D01*
X153104586Y-47864938D01*
X152876344Y-47926094D01*
X152876335Y-47926098D01*
X152662171Y-48025964D01*
X152662169Y-48025965D01*
X152468597Y-48161505D01*
X152301505Y-48328597D01*
X152171575Y-48514158D01*
X152116998Y-48557783D01*
X152047500Y-48564977D01*
X151985145Y-48533454D01*
X151968425Y-48514158D01*
X151838494Y-48328597D01*
X151671402Y-48161506D01*
X151671395Y-48161501D01*
X151477834Y-48025967D01*
X151477830Y-48025965D01*
X151440955Y-48008770D01*
X151263663Y-47926097D01*
X151263659Y-47926096D01*
X151263655Y-47926094D01*
X151035413Y-47864938D01*
X151035403Y-47864936D01*
X150800001Y-47844341D01*
X150799999Y-47844341D01*
X150564596Y-47864936D01*
X150564586Y-47864938D01*
X150336344Y-47926094D01*
X150336335Y-47926098D01*
X150122171Y-48025964D01*
X150122169Y-48025965D01*
X149928597Y-48161505D01*
X149761505Y-48328597D01*
X149631575Y-48514158D01*
X149576998Y-48557783D01*
X149507500Y-48564977D01*
X149445145Y-48533454D01*
X149428425Y-48514158D01*
X149298494Y-48328597D01*
X149131402Y-48161506D01*
X149131395Y-48161501D01*
X148937834Y-48025967D01*
X148937830Y-48025965D01*
X148900955Y-48008770D01*
X148723663Y-47926097D01*
X148723659Y-47926096D01*
X148723655Y-47926094D01*
X148495413Y-47864938D01*
X148495403Y-47864936D01*
X148260001Y-47844341D01*
X148259999Y-47844341D01*
X148024596Y-47864936D01*
X148024586Y-47864938D01*
X147796344Y-47926094D01*
X147796335Y-47926098D01*
X147582171Y-48025964D01*
X147582169Y-48025965D01*
X147388600Y-48161503D01*
X147266673Y-48283430D01*
X147205350Y-48316914D01*
X147135658Y-48311930D01*
X147079725Y-48270058D01*
X147062810Y-48239081D01*
X147013797Y-48107671D01*
X147013793Y-48107664D01*
X146927547Y-47992455D01*
X146927544Y-47992452D01*
X146812335Y-47906206D01*
X146812328Y-47906202D01*
X146677482Y-47855908D01*
X146677483Y-47855908D01*
X146617883Y-47849501D01*
X146617881Y-47849500D01*
X146617873Y-47849500D01*
X146617864Y-47849500D01*
X144822129Y-47849500D01*
X144822123Y-47849501D01*
X144762516Y-47855908D01*
X144627671Y-47906202D01*
X144627664Y-47906206D01*
X144512455Y-47992452D01*
X144512452Y-47992455D01*
X144426206Y-48107664D01*
X144426202Y-48107671D01*
X144375908Y-48242517D01*
X144369501Y-48302116D01*
X144369500Y-48302135D01*
X144369500Y-50097870D01*
X144369501Y-50097876D01*
X144375908Y-50157483D01*
X144426202Y-50292328D01*
X144426206Y-50292335D01*
X144512452Y-50407544D01*
X144512455Y-50407547D01*
X144627664Y-50493793D01*
X144627671Y-50493797D01*
X144762517Y-50544091D01*
X144762516Y-50544091D01*
X144769444Y-50544835D01*
X144822127Y-50550500D01*
X146617872Y-50550499D01*
X146677483Y-50544091D01*
X146812331Y-50493796D01*
X146927546Y-50407546D01*
X147013796Y-50292331D01*
X147062810Y-50160916D01*
X147104681Y-50104984D01*
X147170145Y-50080566D01*
X147238418Y-50095417D01*
X147266673Y-50116569D01*
X147388599Y-50238495D01*
X147485384Y-50306265D01*
X147582165Y-50374032D01*
X147582167Y-50374033D01*
X147582170Y-50374035D01*
X147796337Y-50473903D01*
X148024592Y-50535063D01*
X148201034Y-50550500D01*
X148259999Y-50555659D01*
X148260000Y-50555659D01*
X148260001Y-50555659D01*
X148318966Y-50550500D01*
X148495408Y-50535063D01*
X148723663Y-50473903D01*
X148937830Y-50374035D01*
X149131401Y-50238495D01*
X149298495Y-50071401D01*
X149428425Y-49885842D01*
X149483002Y-49842217D01*
X149552500Y-49835023D01*
X149614855Y-49866546D01*
X149631575Y-49885842D01*
X149761500Y-50071395D01*
X149761505Y-50071401D01*
X149928599Y-50238495D01*
X150025384Y-50306265D01*
X150122165Y-50374032D01*
X150122167Y-50374033D01*
X150122170Y-50374035D01*
X150336337Y-50473903D01*
X150564592Y-50535063D01*
X150741034Y-50550500D01*
X150799999Y-50555659D01*
X150800000Y-50555659D01*
X150800001Y-50555659D01*
X150858966Y-50550500D01*
X151035408Y-50535063D01*
X151263663Y-50473903D01*
X151477830Y-50374035D01*
X151671401Y-50238495D01*
X151838495Y-50071401D01*
X151968425Y-49885842D01*
X152023002Y-49842217D01*
X152092500Y-49835023D01*
X152154855Y-49866546D01*
X152171575Y-49885842D01*
X152301500Y-50071395D01*
X152301505Y-50071401D01*
X152468599Y-50238495D01*
X152565384Y-50306265D01*
X152662165Y-50374032D01*
X152662167Y-50374033D01*
X152662170Y-50374035D01*
X152876337Y-50473903D01*
X153104592Y-50535063D01*
X153281034Y-50550500D01*
X153339999Y-50555659D01*
X153340000Y-50555659D01*
X153340001Y-50555659D01*
X153398966Y-50550500D01*
X153575408Y-50535063D01*
X153803663Y-50473903D01*
X154017830Y-50374035D01*
X154211401Y-50238495D01*
X154378495Y-50071401D01*
X154508425Y-49885842D01*
X154563002Y-49842217D01*
X154632500Y-49835023D01*
X154694855Y-49866546D01*
X154711575Y-49885842D01*
X154841500Y-50071395D01*
X154841505Y-50071401D01*
X155008599Y-50238495D01*
X155105384Y-50306265D01*
X155202165Y-50374032D01*
X155202167Y-50374033D01*
X155202170Y-50374035D01*
X155416337Y-50473903D01*
X155644592Y-50535063D01*
X155821034Y-50550500D01*
X155879999Y-50555659D01*
X155880000Y-50555659D01*
X155880001Y-50555659D01*
X155938966Y-50550500D01*
X156115408Y-50535063D01*
X156343663Y-50473903D01*
X156557830Y-50374035D01*
X156751401Y-50238495D01*
X156918495Y-50071401D01*
X157048425Y-49885842D01*
X157103002Y-49842217D01*
X157172500Y-49835023D01*
X157234855Y-49866546D01*
X157251575Y-49885842D01*
X157381500Y-50071395D01*
X157381505Y-50071401D01*
X157548599Y-50238495D01*
X157645384Y-50306265D01*
X157742165Y-50374032D01*
X157742167Y-50374033D01*
X157742170Y-50374035D01*
X157956337Y-50473903D01*
X158184592Y-50535063D01*
X158361034Y-50550500D01*
X158419999Y-50555659D01*
X158420000Y-50555659D01*
X158420001Y-50555659D01*
X158478966Y-50550500D01*
X158655408Y-50535063D01*
X158883663Y-50473903D01*
X159097830Y-50374035D01*
X159291401Y-50238495D01*
X159458495Y-50071401D01*
X159588425Y-49885842D01*
X159643002Y-49842217D01*
X159712500Y-49835023D01*
X159774855Y-49866546D01*
X159791575Y-49885842D01*
X159921500Y-50071395D01*
X159921505Y-50071401D01*
X160088599Y-50238495D01*
X160185384Y-50306265D01*
X160282165Y-50374032D01*
X160282167Y-50374033D01*
X160282170Y-50374035D01*
X160496337Y-50473903D01*
X160724592Y-50535063D01*
X160901034Y-50550500D01*
X160959999Y-50555659D01*
X160960000Y-50555659D01*
X160960001Y-50555659D01*
X161018966Y-50550500D01*
X161195408Y-50535063D01*
X161423663Y-50473903D01*
X161637830Y-50374035D01*
X161831401Y-50238495D01*
X161998495Y-50071401D01*
X162128425Y-49885842D01*
X162183002Y-49842217D01*
X162252500Y-49835023D01*
X162314855Y-49866546D01*
X162331575Y-49885842D01*
X162461500Y-50071395D01*
X162461505Y-50071401D01*
X162628599Y-50238495D01*
X162725384Y-50306265D01*
X162822165Y-50374032D01*
X162822167Y-50374033D01*
X162822170Y-50374035D01*
X163036337Y-50473903D01*
X163264592Y-50535063D01*
X163441034Y-50550500D01*
X163499999Y-50555659D01*
X163500000Y-50555659D01*
X163500001Y-50555659D01*
X163558966Y-50550500D01*
X163735408Y-50535063D01*
X163963663Y-50473903D01*
X164177830Y-50374035D01*
X164371401Y-50238495D01*
X164538495Y-50071401D01*
X164674035Y-49877830D01*
X164773903Y-49663663D01*
X164835063Y-49435408D01*
X164855659Y-49200000D01*
X164839663Y-49017173D01*
X164853429Y-48948675D01*
X164902044Y-48898492D01*
X164970073Y-48882558D01*
X165035917Y-48905933D01*
X165050872Y-48918686D01*
X165503181Y-49370995D01*
X165536666Y-49432318D01*
X165539500Y-49458676D01*
X165539500Y-59425891D01*
X165573608Y-59553187D01*
X165606554Y-59610250D01*
X165639500Y-59667314D01*
X165639502Y-59667316D01*
X168043181Y-62070995D01*
X168076666Y-62132318D01*
X168079500Y-62158676D01*
X168079500Y-95931324D01*
X168059815Y-95998363D01*
X168043181Y-96019005D01*
X165639502Y-98422683D01*
X165639500Y-98422686D01*
X165573608Y-98536812D01*
X165539500Y-98664108D01*
X165539500Y-99228242D01*
X165537973Y-99247641D01*
X165529773Y-99299411D01*
X165517785Y-99336307D01*
X165498474Y-99374207D01*
X165475670Y-99405593D01*
X165445593Y-99435670D01*
X165414207Y-99458474D01*
X165376307Y-99477785D01*
X165339411Y-99489773D01*
X165309068Y-99494579D01*
X165287639Y-99497973D01*
X165268243Y-99499500D01*
X100771757Y-99499500D01*
X100752360Y-99497973D01*
X100718098Y-99492546D01*
X100700588Y-99489773D01*
X100663695Y-99477786D01*
X100625790Y-99458472D01*
X100594406Y-99435670D01*
X100564329Y-99405593D01*
X100541528Y-99374211D01*
X100522212Y-99336301D01*
X100510227Y-99299417D01*
X100502025Y-99247630D01*
X100500500Y-99228242D01*
X100500500Y-96562135D01*
X126589500Y-96562135D01*
X126589500Y-98357870D01*
X126589501Y-98357876D01*
X126595908Y-98417483D01*
X126646202Y-98552328D01*
X126646206Y-98552335D01*
X126732452Y-98667544D01*
X126732455Y-98667547D01*
X126847664Y-98753793D01*
X126847671Y-98753797D01*
X126982517Y-98804091D01*
X126982516Y-98804091D01*
X126989444Y-98804835D01*
X127042127Y-98810500D01*
X128837872Y-98810499D01*
X128897483Y-98804091D01*
X129032331Y-98753796D01*
X129147546Y-98667546D01*
X129233796Y-98552331D01*
X129282810Y-98420916D01*
X129324681Y-98364984D01*
X129390145Y-98340566D01*
X129458418Y-98355417D01*
X129486673Y-98376569D01*
X129608599Y-98498495D01*
X129705384Y-98566265D01*
X129802165Y-98634032D01*
X129802167Y-98634033D01*
X129802170Y-98634035D01*
X130016337Y-98733903D01*
X130244592Y-98795063D01*
X130421034Y-98810500D01*
X130479999Y-98815659D01*
X130480000Y-98815659D01*
X130480001Y-98815659D01*
X130538966Y-98810500D01*
X130715408Y-98795063D01*
X130943663Y-98733903D01*
X131157830Y-98634035D01*
X131351401Y-98498495D01*
X131518495Y-98331401D01*
X131648425Y-98145842D01*
X131703002Y-98102217D01*
X131772500Y-98095023D01*
X131834855Y-98126546D01*
X131851575Y-98145842D01*
X131981500Y-98331395D01*
X131981505Y-98331401D01*
X132148599Y-98498495D01*
X132245384Y-98566265D01*
X132342165Y-98634032D01*
X132342167Y-98634033D01*
X132342170Y-98634035D01*
X132556337Y-98733903D01*
X132784592Y-98795063D01*
X132961034Y-98810500D01*
X133019999Y-98815659D01*
X133020000Y-98815659D01*
X133020001Y-98815659D01*
X133078966Y-98810500D01*
X133255408Y-98795063D01*
X133483663Y-98733903D01*
X133697830Y-98634035D01*
X133891401Y-98498495D01*
X134058495Y-98331401D01*
X134188425Y-98145842D01*
X134243002Y-98102217D01*
X134312500Y-98095023D01*
X134374855Y-98126546D01*
X134391575Y-98145842D01*
X134521500Y-98331395D01*
X134521505Y-98331401D01*
X134688599Y-98498495D01*
X134785384Y-98566265D01*
X134882165Y-98634032D01*
X134882167Y-98634033D01*
X134882170Y-98634035D01*
X135096337Y-98733903D01*
X135324592Y-98795063D01*
X135501034Y-98810500D01*
X135559999Y-98815659D01*
X135560000Y-98815659D01*
X135560001Y-98815659D01*
X135618966Y-98810500D01*
X135795408Y-98795063D01*
X136023663Y-98733903D01*
X136237830Y-98634035D01*
X136431401Y-98498495D01*
X136598495Y-98331401D01*
X136728425Y-98145842D01*
X136783002Y-98102217D01*
X136852500Y-98095023D01*
X136914855Y-98126546D01*
X136931575Y-98145842D01*
X137061500Y-98331395D01*
X137061505Y-98331401D01*
X137228599Y-98498495D01*
X137325384Y-98566265D01*
X137422165Y-98634032D01*
X137422167Y-98634033D01*
X137422170Y-98634035D01*
X137636337Y-98733903D01*
X137864592Y-98795063D01*
X138041034Y-98810500D01*
X138099999Y-98815659D01*
X138100000Y-98815659D01*
X138100001Y-98815659D01*
X138158966Y-98810500D01*
X138335408Y-98795063D01*
X138563663Y-98733903D01*
X138777830Y-98634035D01*
X138971401Y-98498495D01*
X139138495Y-98331401D01*
X139268730Y-98145405D01*
X139323307Y-98101781D01*
X139392805Y-98094587D01*
X139455160Y-98126110D01*
X139471879Y-98145405D01*
X139601890Y-98331078D01*
X139768917Y-98498105D01*
X139962421Y-98633600D01*
X140176507Y-98733429D01*
X140176516Y-98733433D01*
X140390000Y-98790634D01*
X140390000Y-97893012D01*
X140447007Y-97925925D01*
X140574174Y-97960000D01*
X140705826Y-97960000D01*
X140832993Y-97925925D01*
X140890000Y-97893012D01*
X140890000Y-98790633D01*
X141103483Y-98733433D01*
X141103492Y-98733429D01*
X141317578Y-98633600D01*
X141511082Y-98498105D01*
X141678105Y-98331082D01*
X141808425Y-98144968D01*
X141863002Y-98101344D01*
X141932501Y-98094151D01*
X141994855Y-98125673D01*
X142011575Y-98144968D01*
X142141894Y-98331082D01*
X142308917Y-98498105D01*
X142502421Y-98633600D01*
X142716507Y-98733429D01*
X142716516Y-98733433D01*
X142930000Y-98790634D01*
X142930000Y-97893012D01*
X142987007Y-97925925D01*
X143114174Y-97960000D01*
X143245826Y-97960000D01*
X143372993Y-97925925D01*
X143430000Y-97893012D01*
X143430000Y-98790633D01*
X143643483Y-98733433D01*
X143643492Y-98733429D01*
X143857578Y-98633600D01*
X144051082Y-98498105D01*
X144218105Y-98331082D01*
X144348119Y-98145405D01*
X144402696Y-98101781D01*
X144472195Y-98094588D01*
X144534549Y-98126110D01*
X144551269Y-98145405D01*
X144681505Y-98331401D01*
X144848599Y-98498495D01*
X144945384Y-98566265D01*
X145042165Y-98634032D01*
X145042167Y-98634033D01*
X145042170Y-98634035D01*
X145256337Y-98733903D01*
X145484592Y-98795063D01*
X145661034Y-98810500D01*
X145719999Y-98815659D01*
X145720000Y-98815659D01*
X145720001Y-98815659D01*
X145778966Y-98810500D01*
X145955408Y-98795063D01*
X146183663Y-98733903D01*
X146397830Y-98634035D01*
X146591401Y-98498495D01*
X146758495Y-98331401D01*
X146894035Y-98137830D01*
X146993903Y-97923663D01*
X147055063Y-97695408D01*
X147075659Y-97460000D01*
X147055063Y-97224592D01*
X146993903Y-96996337D01*
X146894035Y-96782171D01*
X146888731Y-96774595D01*
X146758494Y-96588597D01*
X146732032Y-96562135D01*
X149449500Y-96562135D01*
X149449500Y-98357870D01*
X149449501Y-98357876D01*
X149455908Y-98417483D01*
X149506202Y-98552328D01*
X149506206Y-98552335D01*
X149592452Y-98667544D01*
X149592455Y-98667547D01*
X149707664Y-98753793D01*
X149707671Y-98753797D01*
X149842517Y-98804091D01*
X149842516Y-98804091D01*
X149849444Y-98804835D01*
X149902127Y-98810500D01*
X151697872Y-98810499D01*
X151757483Y-98804091D01*
X151892331Y-98753796D01*
X152007546Y-98667546D01*
X152093796Y-98552331D01*
X152142810Y-98420916D01*
X152184681Y-98364984D01*
X152250145Y-98340566D01*
X152318418Y-98355417D01*
X152346673Y-98376569D01*
X152468599Y-98498495D01*
X152565384Y-98566265D01*
X152662165Y-98634032D01*
X152662167Y-98634033D01*
X152662170Y-98634035D01*
X152876337Y-98733903D01*
X153104592Y-98795063D01*
X153281034Y-98810500D01*
X153339999Y-98815659D01*
X153340000Y-98815659D01*
X153340001Y-98815659D01*
X153398966Y-98810500D01*
X153575408Y-98795063D01*
X153803663Y-98733903D01*
X154017830Y-98634035D01*
X154211401Y-98498495D01*
X154378495Y-98331401D01*
X154508425Y-98145842D01*
X154563002Y-98102217D01*
X154632500Y-98095023D01*
X154694855Y-98126546D01*
X154711575Y-98145842D01*
X154841500Y-98331395D01*
X154841505Y-98331401D01*
X155008599Y-98498495D01*
X155105384Y-98566265D01*
X155202165Y-98634032D01*
X155202167Y-98634033D01*
X155202170Y-98634035D01*
X155416337Y-98733903D01*
X155644592Y-98795063D01*
X155821034Y-98810500D01*
X155879999Y-98815659D01*
X155880000Y-98815659D01*
X155880001Y-98815659D01*
X155938966Y-98810500D01*
X156115408Y-98795063D01*
X156343663Y-98733903D01*
X156557830Y-98634035D01*
X156751401Y-98498495D01*
X156918495Y-98331401D01*
X157048425Y-98145842D01*
X157103002Y-98102217D01*
X157172500Y-98095023D01*
X157234855Y-98126546D01*
X157251575Y-98145842D01*
X157381500Y-98331395D01*
X157381505Y-98331401D01*
X157548599Y-98498495D01*
X157645384Y-98566265D01*
X157742165Y-98634032D01*
X157742167Y-98634033D01*
X157742170Y-98634035D01*
X157956337Y-98733903D01*
X158184592Y-98795063D01*
X158361034Y-98810500D01*
X158419999Y-98815659D01*
X158420000Y-98815659D01*
X158420001Y-98815659D01*
X158478966Y-98810500D01*
X158655408Y-98795063D01*
X158883663Y-98733903D01*
X159097830Y-98634035D01*
X159291401Y-98498495D01*
X159458495Y-98331401D01*
X159588425Y-98145842D01*
X159643002Y-98102217D01*
X159712500Y-98095023D01*
X159774855Y-98126546D01*
X159791575Y-98145842D01*
X159921500Y-98331395D01*
X159921505Y-98331401D01*
X160088599Y-98498495D01*
X160185384Y-98566265D01*
X160282165Y-98634032D01*
X160282167Y-98634033D01*
X160282170Y-98634035D01*
X160496337Y-98733903D01*
X160724592Y-98795063D01*
X160901034Y-98810500D01*
X160959999Y-98815659D01*
X160960000Y-98815659D01*
X160960001Y-98815659D01*
X161018966Y-98810500D01*
X161195408Y-98795063D01*
X161423663Y-98733903D01*
X161637830Y-98634035D01*
X161831401Y-98498495D01*
X161998495Y-98331401D01*
X162128425Y-98145842D01*
X162183002Y-98102217D01*
X162252500Y-98095023D01*
X162314855Y-98126546D01*
X162331575Y-98145842D01*
X162461500Y-98331395D01*
X162461505Y-98331401D01*
X162628599Y-98498495D01*
X162725384Y-98566265D01*
X162822165Y-98634032D01*
X162822167Y-98634033D01*
X162822170Y-98634035D01*
X163036337Y-98733903D01*
X163264592Y-98795063D01*
X163441034Y-98810500D01*
X163499999Y-98815659D01*
X163500000Y-98815659D01*
X163500001Y-98815659D01*
X163558966Y-98810500D01*
X163735408Y-98795063D01*
X163963663Y-98733903D01*
X164177830Y-98634035D01*
X164371401Y-98498495D01*
X164538495Y-98331401D01*
X164674035Y-98137830D01*
X164773903Y-97923663D01*
X164835063Y-97695408D01*
X164855659Y-97460000D01*
X164835063Y-97224592D01*
X164773903Y-96996337D01*
X164674035Y-96782171D01*
X164668731Y-96774595D01*
X164538494Y-96588597D01*
X164371402Y-96421506D01*
X164371395Y-96421501D01*
X164177834Y-96285967D01*
X164177830Y-96285965D01*
X164177828Y-96285964D01*
X163963663Y-96186097D01*
X163963659Y-96186096D01*
X163963655Y-96186094D01*
X163735413Y-96124938D01*
X163735403Y-96124936D01*
X163500001Y-96104341D01*
X163499999Y-96104341D01*
X163264596Y-96124936D01*
X163264586Y-96124938D01*
X163036344Y-96186094D01*
X163036335Y-96186098D01*
X162822171Y-96285964D01*
X162822169Y-96285965D01*
X162628597Y-96421505D01*
X162461505Y-96588597D01*
X162331575Y-96774158D01*
X162276998Y-96817783D01*
X162207500Y-96824977D01*
X162145145Y-96793454D01*
X162128425Y-96774158D01*
X161998494Y-96588597D01*
X161831402Y-96421506D01*
X161831395Y-96421501D01*
X161637834Y-96285967D01*
X161637830Y-96285965D01*
X161637828Y-96285964D01*
X161423663Y-96186097D01*
X161423659Y-96186096D01*
X161423655Y-96186094D01*
X161195413Y-96124938D01*
X161195403Y-96124936D01*
X160960001Y-96104341D01*
X160959999Y-96104341D01*
X160724596Y-96124936D01*
X160724586Y-96124938D01*
X160496344Y-96186094D01*
X160496335Y-96186098D01*
X160282171Y-96285964D01*
X160282169Y-96285965D01*
X160088597Y-96421505D01*
X159921505Y-96588597D01*
X159791575Y-96774158D01*
X159736998Y-96817783D01*
X159667500Y-96824977D01*
X159605145Y-96793454D01*
X159588425Y-96774158D01*
X159458494Y-96588597D01*
X159291402Y-96421506D01*
X159291395Y-96421501D01*
X159097834Y-96285967D01*
X159097830Y-96285965D01*
X159097828Y-96285964D01*
X158883663Y-96186097D01*
X158883659Y-96186096D01*
X158883655Y-96186094D01*
X158655413Y-96124938D01*
X158655403Y-96124936D01*
X158420001Y-96104341D01*
X158419999Y-96104341D01*
X158184596Y-96124936D01*
X158184586Y-96124938D01*
X157956344Y-96186094D01*
X157956335Y-96186098D01*
X157742171Y-96285964D01*
X157742169Y-96285965D01*
X157548597Y-96421505D01*
X157381505Y-96588597D01*
X157251575Y-96774158D01*
X157196998Y-96817783D01*
X157127500Y-96824977D01*
X157065145Y-96793454D01*
X157048425Y-96774158D01*
X156918494Y-96588597D01*
X156751402Y-96421506D01*
X156751395Y-96421501D01*
X156557834Y-96285967D01*
X156557830Y-96285965D01*
X156557828Y-96285964D01*
X156343663Y-96186097D01*
X156343659Y-96186096D01*
X156343655Y-96186094D01*
X156115413Y-96124938D01*
X156115403Y-96124936D01*
X155880001Y-96104341D01*
X155879999Y-96104341D01*
X155644596Y-96124936D01*
X155644586Y-96124938D01*
X155416344Y-96186094D01*
X155416335Y-96186098D01*
X155202171Y-96285964D01*
X155202169Y-96285965D01*
X155008597Y-96421505D01*
X154841505Y-96588597D01*
X154711575Y-96774158D01*
X154656998Y-96817783D01*
X154587500Y-96824977D01*
X154525145Y-96793454D01*
X154508425Y-96774158D01*
X154378494Y-96588597D01*
X154211402Y-96421506D01*
X154211395Y-96421501D01*
X154017834Y-96285967D01*
X154017830Y-96285965D01*
X154017828Y-96285964D01*
X153803663Y-96186097D01*
X153803659Y-96186096D01*
X153803655Y-96186094D01*
X153575413Y-96124938D01*
X153575403Y-96124936D01*
X153340001Y-96104341D01*
X153339999Y-96104341D01*
X153104596Y-96124936D01*
X153104586Y-96124938D01*
X152876344Y-96186094D01*
X152876335Y-96186098D01*
X152662171Y-96285964D01*
X152662169Y-96285965D01*
X152468600Y-96421503D01*
X152346673Y-96543430D01*
X152285350Y-96576914D01*
X152215658Y-96571930D01*
X152159725Y-96530058D01*
X152142810Y-96499081D01*
X152093797Y-96367671D01*
X152093793Y-96367664D01*
X152007547Y-96252455D01*
X152007544Y-96252452D01*
X151892335Y-96166206D01*
X151892328Y-96166202D01*
X151757482Y-96115908D01*
X151757483Y-96115908D01*
X151697883Y-96109501D01*
X151697881Y-96109500D01*
X151697873Y-96109500D01*
X151697864Y-96109500D01*
X149902129Y-96109500D01*
X149902123Y-96109501D01*
X149842516Y-96115908D01*
X149707671Y-96166202D01*
X149707664Y-96166206D01*
X149592455Y-96252452D01*
X149592452Y-96252455D01*
X149506206Y-96367664D01*
X149506202Y-96367671D01*
X149455908Y-96502517D01*
X149449501Y-96562116D01*
X149449500Y-96562135D01*
X146732032Y-96562135D01*
X146591402Y-96421506D01*
X146591395Y-96421501D01*
X146397834Y-96285967D01*
X146397830Y-96285965D01*
X146397828Y-96285964D01*
X146183663Y-96186097D01*
X146183659Y-96186096D01*
X146183655Y-96186094D01*
X145955413Y-96124938D01*
X145955403Y-96124936D01*
X145720001Y-96104341D01*
X145719999Y-96104341D01*
X145484596Y-96124936D01*
X145484586Y-96124938D01*
X145256344Y-96186094D01*
X145256335Y-96186098D01*
X145042171Y-96285964D01*
X145042169Y-96285965D01*
X144848597Y-96421505D01*
X144681508Y-96588594D01*
X144551269Y-96774595D01*
X144496692Y-96818219D01*
X144427193Y-96825412D01*
X144364839Y-96793890D01*
X144348119Y-96774594D01*
X144218113Y-96588926D01*
X144218108Y-96588920D01*
X144051082Y-96421894D01*
X143857578Y-96286399D01*
X143643492Y-96186570D01*
X143643486Y-96186567D01*
X143430000Y-96129364D01*
X143430000Y-97026988D01*
X143372993Y-96994075D01*
X143245826Y-96960000D01*
X143114174Y-96960000D01*
X142987007Y-96994075D01*
X142930000Y-97026988D01*
X142930000Y-96129364D01*
X142929999Y-96129364D01*
X142716513Y-96186567D01*
X142716507Y-96186570D01*
X142502422Y-96286399D01*
X142502420Y-96286400D01*
X142308926Y-96421886D01*
X142308920Y-96421891D01*
X142141891Y-96588920D01*
X142141890Y-96588922D01*
X142011575Y-96775031D01*
X141956998Y-96818655D01*
X141887499Y-96825848D01*
X141825145Y-96794326D01*
X141808425Y-96775031D01*
X141678109Y-96588922D01*
X141678108Y-96588920D01*
X141511082Y-96421894D01*
X141317578Y-96286399D01*
X141103492Y-96186570D01*
X141103486Y-96186567D01*
X140890000Y-96129364D01*
X140890000Y-97026988D01*
X140832993Y-96994075D01*
X140705826Y-96960000D01*
X140574174Y-96960000D01*
X140447007Y-96994075D01*
X140390000Y-97026988D01*
X140390000Y-96129364D01*
X140389999Y-96129364D01*
X140176513Y-96186567D01*
X140176507Y-96186570D01*
X139962422Y-96286399D01*
X139962420Y-96286400D01*
X139768926Y-96421886D01*
X139768920Y-96421891D01*
X139601891Y-96588920D01*
X139601890Y-96588922D01*
X139471880Y-96774595D01*
X139417303Y-96818219D01*
X139347804Y-96825412D01*
X139285450Y-96793890D01*
X139268730Y-96774594D01*
X139138494Y-96588597D01*
X138971402Y-96421506D01*
X138971395Y-96421501D01*
X138777834Y-96285967D01*
X138777830Y-96285965D01*
X138777828Y-96285964D01*
X138563663Y-96186097D01*
X138563659Y-96186096D01*
X138563655Y-96186094D01*
X138335413Y-96124938D01*
X138335403Y-96124936D01*
X138100001Y-96104341D01*
X138099999Y-96104341D01*
X137864596Y-96124936D01*
X137864586Y-96124938D01*
X137636344Y-96186094D01*
X137636335Y-96186098D01*
X137422171Y-96285964D01*
X137422169Y-96285965D01*
X137228597Y-96421505D01*
X137061505Y-96588597D01*
X136931575Y-96774158D01*
X136876998Y-96817783D01*
X136807500Y-96824977D01*
X136745145Y-96793454D01*
X136728425Y-96774158D01*
X136598494Y-96588597D01*
X136431402Y-96421506D01*
X136431395Y-96421501D01*
X136237834Y-96285967D01*
X136237830Y-96285965D01*
X136237828Y-96285964D01*
X136023663Y-96186097D01*
X136023659Y-96186096D01*
X136023655Y-96186094D01*
X135795413Y-96124938D01*
X135795403Y-96124936D01*
X135560001Y-96104341D01*
X135559999Y-96104341D01*
X135324596Y-96124936D01*
X135324586Y-96124938D01*
X135096344Y-96186094D01*
X135096335Y-96186098D01*
X134882171Y-96285964D01*
X134882169Y-96285965D01*
X134688597Y-96421505D01*
X134521505Y-96588597D01*
X134391575Y-96774158D01*
X134336998Y-96817783D01*
X134267500Y-96824977D01*
X134205145Y-96793454D01*
X134188425Y-96774158D01*
X134058494Y-96588597D01*
X133891402Y-96421506D01*
X133891395Y-96421501D01*
X133697834Y-96285967D01*
X133697830Y-96285965D01*
X133697828Y-96285964D01*
X133483663Y-96186097D01*
X133483659Y-96186096D01*
X133483655Y-96186094D01*
X133255413Y-96124938D01*
X133255403Y-96124936D01*
X133020001Y-96104341D01*
X133019999Y-96104341D01*
X132784596Y-96124936D01*
X132784586Y-96124938D01*
X132556344Y-96186094D01*
X132556335Y-96186098D01*
X132342171Y-96285964D01*
X132342169Y-96285965D01*
X132148597Y-96421505D01*
X131981505Y-96588597D01*
X131851575Y-96774158D01*
X131796998Y-96817783D01*
X131727500Y-96824977D01*
X131665145Y-96793454D01*
X131648425Y-96774158D01*
X131518494Y-96588597D01*
X131351402Y-96421506D01*
X131351395Y-96421501D01*
X131157834Y-96285967D01*
X131157830Y-96285965D01*
X131157828Y-96285964D01*
X130943663Y-96186097D01*
X130943659Y-96186096D01*
X130943655Y-96186094D01*
X130715413Y-96124938D01*
X130715403Y-96124936D01*
X130480001Y-96104341D01*
X130479999Y-96104341D01*
X130244596Y-96124936D01*
X130244586Y-96124938D01*
X130016344Y-96186094D01*
X130016335Y-96186098D01*
X129802171Y-96285964D01*
X129802169Y-96285965D01*
X129608600Y-96421503D01*
X129486673Y-96543430D01*
X129425350Y-96576914D01*
X129355658Y-96571930D01*
X129299725Y-96530058D01*
X129282810Y-96499081D01*
X129233797Y-96367671D01*
X129233793Y-96367664D01*
X129147547Y-96252455D01*
X129147544Y-96252452D01*
X129032335Y-96166206D01*
X129032328Y-96166202D01*
X128897482Y-96115908D01*
X128897483Y-96115908D01*
X128837883Y-96109501D01*
X128837881Y-96109500D01*
X128837873Y-96109500D01*
X128837864Y-96109500D01*
X127042129Y-96109500D01*
X127042123Y-96109501D01*
X126982516Y-96115908D01*
X126847671Y-96166202D01*
X126847664Y-96166206D01*
X126732455Y-96252452D01*
X126732452Y-96252455D01*
X126646206Y-96367664D01*
X126646202Y-96367671D01*
X126595908Y-96502517D01*
X126589501Y-96562116D01*
X126589500Y-96562135D01*
X100500500Y-96562135D01*
X100500500Y-93842155D01*
X114225000Y-93842155D01*
X114225000Y-94540000D01*
X115249722Y-94540000D01*
X115205667Y-94616306D01*
X115175000Y-94730756D01*
X115175000Y-94849244D01*
X115205667Y-94963694D01*
X115249722Y-95040000D01*
X114225000Y-95040000D01*
X114225000Y-95737844D01*
X114231401Y-95797372D01*
X114231403Y-95797379D01*
X114281645Y-95932086D01*
X114281649Y-95932093D01*
X114367809Y-96047187D01*
X114367812Y-96047190D01*
X114482906Y-96133350D01*
X114482913Y-96133354D01*
X114617620Y-96183596D01*
X114617627Y-96183598D01*
X114677155Y-96189999D01*
X114677172Y-96190000D01*
X115375000Y-96190000D01*
X115375000Y-95165277D01*
X115451306Y-95209333D01*
X115565756Y-95240000D01*
X115684244Y-95240000D01*
X115798694Y-95209333D01*
X115875000Y-95165277D01*
X115875000Y-96190000D01*
X116572828Y-96190000D01*
X116572844Y-96189999D01*
X116632372Y-96183598D01*
X116632379Y-96183596D01*
X116767086Y-96133354D01*
X116767093Y-96133350D01*
X116882187Y-96047190D01*
X116882190Y-96047187D01*
X116968350Y-95932093D01*
X116968355Y-95932084D01*
X116997075Y-95855081D01*
X117038945Y-95799147D01*
X117104409Y-95774729D01*
X117172682Y-95789580D01*
X117204484Y-95814428D01*
X117213216Y-95823913D01*
X117213219Y-95823915D01*
X117213222Y-95823918D01*
X117396365Y-95966464D01*
X117396371Y-95966468D01*
X117396374Y-95966470D01*
X117600497Y-96076936D01*
X117680325Y-96104341D01*
X117820015Y-96152297D01*
X117820017Y-96152297D01*
X117820019Y-96152298D01*
X118048951Y-96190500D01*
X118048952Y-96190500D01*
X118281048Y-96190500D01*
X118281049Y-96190500D01*
X118509981Y-96152298D01*
X118729503Y-96076936D01*
X118933626Y-95966470D01*
X119116784Y-95823913D01*
X119273979Y-95653153D01*
X119400924Y-95458849D01*
X119494157Y-95246300D01*
X119551134Y-95021305D01*
X119570300Y-94790000D01*
X119570300Y-94789993D01*
X119551135Y-94558702D01*
X119551133Y-94558691D01*
X119494157Y-94333699D01*
X119400924Y-94121151D01*
X119273983Y-93926852D01*
X119273980Y-93926849D01*
X119273979Y-93926847D01*
X119116784Y-93756087D01*
X119116779Y-93756083D01*
X119116777Y-93756081D01*
X118933634Y-93613535D01*
X118933628Y-93613531D01*
X118729504Y-93503064D01*
X118729495Y-93503061D01*
X118509984Y-93427702D01*
X118322404Y-93396401D01*
X118281049Y-93389500D01*
X118048951Y-93389500D01*
X118007596Y-93396401D01*
X117820015Y-93427702D01*
X117600504Y-93503061D01*
X117600495Y-93503064D01*
X117396371Y-93613531D01*
X117396365Y-93613535D01*
X117213222Y-93756081D01*
X117213215Y-93756087D01*
X117204484Y-93765572D01*
X117144595Y-93801561D01*
X117074757Y-93799458D01*
X117017143Y-93759932D01*
X116997075Y-93724918D01*
X116968355Y-93647915D01*
X116968350Y-93647906D01*
X116882190Y-93532812D01*
X116882187Y-93532809D01*
X116767093Y-93446649D01*
X116767086Y-93446645D01*
X116632379Y-93396403D01*
X116632372Y-93396401D01*
X116572844Y-93390000D01*
X115875000Y-93390000D01*
X115875000Y-94414722D01*
X115798694Y-94370667D01*
X115684244Y-94340000D01*
X115565756Y-94340000D01*
X115451306Y-94370667D01*
X115375000Y-94414722D01*
X115375000Y-93390000D01*
X114677155Y-93390000D01*
X114617627Y-93396401D01*
X114617620Y-93396403D01*
X114482913Y-93446645D01*
X114482906Y-93446649D01*
X114367812Y-93532809D01*
X114367809Y-93532812D01*
X114281649Y-93647906D01*
X114281645Y-93647913D01*
X114231403Y-93782620D01*
X114231401Y-93782627D01*
X114225000Y-93842155D01*
X100500500Y-93842155D01*
X100500500Y-90828543D01*
X146619499Y-90828543D01*
X146657947Y-91021829D01*
X146657950Y-91021839D01*
X146733365Y-91203907D01*
X146733368Y-91203914D01*
X146777352Y-91269740D01*
X146794971Y-91296110D01*
X146815848Y-91362787D01*
X146797363Y-91430167D01*
X146794971Y-91433890D01*
X146733366Y-91526089D01*
X146657950Y-91708160D01*
X146657947Y-91708170D01*
X146619500Y-91901456D01*
X146619500Y-91901459D01*
X146619500Y-92098541D01*
X146619500Y-92098543D01*
X146619499Y-92098543D01*
X146657947Y-92291829D01*
X146657950Y-92291839D01*
X146688425Y-92365412D01*
X146733368Y-92473914D01*
X146750798Y-92500000D01*
X146795271Y-92566559D01*
X146816148Y-92633236D01*
X146797663Y-92700616D01*
X146795271Y-92704339D01*
X146733809Y-92796325D01*
X146658430Y-92978307D01*
X146658430Y-92978309D01*
X146650138Y-93020000D01*
X147904314Y-93020000D01*
X147899920Y-93024394D01*
X147847259Y-93115606D01*
X147820000Y-93217339D01*
X147820000Y-93322661D01*
X147847259Y-93424394D01*
X147899920Y-93515606D01*
X147904314Y-93520000D01*
X146650138Y-93520000D01*
X146658430Y-93561690D01*
X146658430Y-93561692D01*
X146733807Y-93743671D01*
X146733814Y-93743684D01*
X146843248Y-93907462D01*
X146843251Y-93907466D01*
X146982533Y-94046748D01*
X146982537Y-94046751D01*
X147146315Y-94156185D01*
X147146328Y-94156192D01*
X147328306Y-94231569D01*
X147328318Y-94231572D01*
X147521504Y-94269999D01*
X147521508Y-94270000D01*
X147970000Y-94270000D01*
X147970000Y-93585686D01*
X147974394Y-93590080D01*
X148065606Y-93642741D01*
X148167339Y-93670000D01*
X148272661Y-93670000D01*
X148374394Y-93642741D01*
X148465606Y-93590080D01*
X148470000Y-93585686D01*
X148470000Y-94270000D01*
X148918492Y-94270000D01*
X148918495Y-94269999D01*
X149111681Y-94231572D01*
X149111693Y-94231569D01*
X149293671Y-94156192D01*
X149293684Y-94156185D01*
X149457462Y-94046751D01*
X149457466Y-94046748D01*
X149596748Y-93907466D01*
X149596751Y-93907462D01*
X149706185Y-93743684D01*
X149706192Y-93743671D01*
X149781569Y-93561692D01*
X149781569Y-93561690D01*
X149789862Y-93520000D01*
X148535686Y-93520000D01*
X148540080Y-93515606D01*
X148592741Y-93424394D01*
X148620000Y-93322661D01*
X148620000Y-93217339D01*
X148592741Y-93115606D01*
X148540080Y-93024394D01*
X148535686Y-93020000D01*
X149789862Y-93020000D01*
X149781569Y-92978309D01*
X149781569Y-92978307D01*
X149706192Y-92796328D01*
X149706188Y-92796321D01*
X149644728Y-92704341D01*
X149623850Y-92637663D01*
X149642334Y-92570283D01*
X149644704Y-92566595D01*
X149706632Y-92473914D01*
X149782051Y-92291835D01*
X149814521Y-92128599D01*
X149820500Y-92098543D01*
X149820500Y-91901456D01*
X149782052Y-91708170D01*
X149782051Y-91708169D01*
X149782051Y-91708165D01*
X149757752Y-91649501D01*
X149706635Y-91526092D01*
X149706633Y-91526088D01*
X149706632Y-91526086D01*
X149645029Y-91433891D01*
X149624151Y-91367214D01*
X149642635Y-91299834D01*
X149645029Y-91296109D01*
X149657872Y-91276887D01*
X149706632Y-91203914D01*
X149779272Y-91028543D01*
X152119499Y-91028543D01*
X152157947Y-91221829D01*
X152157950Y-91221839D01*
X152217249Y-91365000D01*
X152233368Y-91403914D01*
X152253398Y-91433891D01*
X152294971Y-91496110D01*
X152315848Y-91562787D01*
X152297363Y-91630167D01*
X152294971Y-91633890D01*
X152233366Y-91726089D01*
X152157950Y-91908160D01*
X152157947Y-91908170D01*
X152119500Y-92101456D01*
X152119500Y-92101459D01*
X152119500Y-92298541D01*
X152119500Y-92298543D01*
X152119499Y-92298543D01*
X152157947Y-92491829D01*
X152157950Y-92491839D01*
X152233365Y-92673907D01*
X152233368Y-92673914D01*
X152253699Y-92704341D01*
X152295271Y-92766559D01*
X152316148Y-92833236D01*
X152297663Y-92900616D01*
X152295271Y-92904339D01*
X152233809Y-92996325D01*
X152158430Y-93178307D01*
X152158430Y-93178309D01*
X152150138Y-93220000D01*
X153404314Y-93220000D01*
X153399920Y-93224394D01*
X153347259Y-93315606D01*
X153320000Y-93417339D01*
X153320000Y-93522661D01*
X153347259Y-93624394D01*
X153399920Y-93715606D01*
X153404314Y-93720000D01*
X152150138Y-93720000D01*
X152158430Y-93761690D01*
X152158430Y-93761692D01*
X152233807Y-93943671D01*
X152233814Y-93943684D01*
X152343248Y-94107462D01*
X152343251Y-94107466D01*
X152482533Y-94246748D01*
X152482537Y-94246751D01*
X152646315Y-94356185D01*
X152646328Y-94356192D01*
X152828306Y-94431569D01*
X152828318Y-94431572D01*
X153021504Y-94469999D01*
X153021508Y-94470000D01*
X153470000Y-94470000D01*
X153470000Y-93785686D01*
X153474394Y-93790080D01*
X153565606Y-93842741D01*
X153667339Y-93870000D01*
X153772661Y-93870000D01*
X153874394Y-93842741D01*
X153965606Y-93790080D01*
X153970000Y-93785686D01*
X153970000Y-94470000D01*
X154418492Y-94470000D01*
X154418495Y-94469999D01*
X154611681Y-94431572D01*
X154611693Y-94431569D01*
X154793671Y-94356192D01*
X154793684Y-94356185D01*
X154957462Y-94246751D01*
X154957466Y-94246748D01*
X155096748Y-94107466D01*
X155096751Y-94107462D01*
X155206185Y-93943684D01*
X155206192Y-93943671D01*
X155281569Y-93761692D01*
X155281569Y-93761690D01*
X155289862Y-93720000D01*
X154035686Y-93720000D01*
X154040080Y-93715606D01*
X154092741Y-93624394D01*
X154120000Y-93522661D01*
X154120000Y-93417339D01*
X154092741Y-93315606D01*
X154040080Y-93224394D01*
X154035686Y-93220000D01*
X155289862Y-93220000D01*
X155281569Y-93178309D01*
X155281569Y-93178307D01*
X155206192Y-92996328D01*
X155206188Y-92996321D01*
X155144728Y-92904341D01*
X155123850Y-92837663D01*
X155142334Y-92770283D01*
X155144704Y-92766595D01*
X155206632Y-92673914D01*
X155282051Y-92491835D01*
X155294632Y-92428582D01*
X155320500Y-92298543D01*
X155320500Y-92102135D01*
X157649500Y-92102135D01*
X157649500Y-93897870D01*
X157649501Y-93897876D01*
X157655908Y-93957483D01*
X157706202Y-94092328D01*
X157706206Y-94092335D01*
X157792452Y-94207544D01*
X157792455Y-94207547D01*
X157907664Y-94293793D01*
X157907671Y-94293797D01*
X158042517Y-94344091D01*
X158042516Y-94344091D01*
X158049444Y-94344835D01*
X158102127Y-94350500D01*
X159897872Y-94350499D01*
X159957483Y-94344091D01*
X160092331Y-94293796D01*
X160207546Y-94207546D01*
X160293796Y-94092331D01*
X160342810Y-93960916D01*
X160384681Y-93904984D01*
X160450145Y-93880566D01*
X160518418Y-93895417D01*
X160546673Y-93916569D01*
X160668599Y-94038495D01*
X160765384Y-94106265D01*
X160862165Y-94174032D01*
X160862167Y-94174033D01*
X160862170Y-94174035D01*
X161076337Y-94273903D01*
X161304592Y-94335063D01*
X161481034Y-94350500D01*
X161539999Y-94355659D01*
X161540000Y-94355659D01*
X161540001Y-94355659D01*
X161598966Y-94350500D01*
X161775408Y-94335063D01*
X162003663Y-94273903D01*
X162217830Y-94174035D01*
X162411401Y-94038495D01*
X162578495Y-93871401D01*
X162708730Y-93685405D01*
X162763307Y-93641781D01*
X162832805Y-93634587D01*
X162895160Y-93666110D01*
X162911879Y-93685405D01*
X163041890Y-93871078D01*
X163208917Y-94038105D01*
X163402421Y-94173600D01*
X163616507Y-94273429D01*
X163616516Y-94273433D01*
X163830000Y-94330634D01*
X163830000Y-93433012D01*
X163887007Y-93465925D01*
X164014174Y-93500000D01*
X164145826Y-93500000D01*
X164272993Y-93465925D01*
X164330000Y-93433012D01*
X164330000Y-94330633D01*
X164543483Y-94273433D01*
X164543492Y-94273429D01*
X164757578Y-94173600D01*
X164951082Y-94038105D01*
X165118105Y-93871082D01*
X165253600Y-93677578D01*
X165353429Y-93463492D01*
X165353432Y-93463486D01*
X165410636Y-93250000D01*
X164513012Y-93250000D01*
X164545925Y-93192993D01*
X164580000Y-93065826D01*
X164580000Y-92934174D01*
X164545925Y-92807007D01*
X164513012Y-92750000D01*
X165410636Y-92750000D01*
X165410635Y-92749999D01*
X165353432Y-92536513D01*
X165353429Y-92536507D01*
X165253600Y-92322422D01*
X165253599Y-92322420D01*
X165118113Y-92128926D01*
X165118108Y-92128920D01*
X164951082Y-91961894D01*
X164757578Y-91826399D01*
X164543492Y-91726570D01*
X164543486Y-91726567D01*
X164330000Y-91669364D01*
X164330000Y-92566988D01*
X164272993Y-92534075D01*
X164145826Y-92500000D01*
X164014174Y-92500000D01*
X163887007Y-92534075D01*
X163830000Y-92566988D01*
X163830000Y-91669364D01*
X163829999Y-91669364D01*
X163616513Y-91726567D01*
X163616507Y-91726570D01*
X163402422Y-91826399D01*
X163402420Y-91826400D01*
X163208926Y-91961886D01*
X163208920Y-91961891D01*
X163041891Y-92128920D01*
X163041890Y-92128922D01*
X162911880Y-92314595D01*
X162857303Y-92358219D01*
X162787804Y-92365412D01*
X162725450Y-92333890D01*
X162708730Y-92314594D01*
X162578494Y-92128597D01*
X162411402Y-91961506D01*
X162411395Y-91961501D01*
X162217834Y-91825967D01*
X162217830Y-91825965D01*
X162217828Y-91825964D01*
X162003663Y-91726097D01*
X162003659Y-91726096D01*
X162003655Y-91726094D01*
X161775413Y-91664938D01*
X161775403Y-91664936D01*
X161540001Y-91644341D01*
X161539999Y-91644341D01*
X161304596Y-91664936D01*
X161304586Y-91664938D01*
X161076344Y-91726094D01*
X161076335Y-91726098D01*
X160862171Y-91825964D01*
X160862169Y-91825965D01*
X160668600Y-91961503D01*
X160546673Y-92083430D01*
X160485350Y-92116914D01*
X160415658Y-92111930D01*
X160359725Y-92070058D01*
X160342810Y-92039081D01*
X160293797Y-91907671D01*
X160293793Y-91907664D01*
X160207547Y-91792455D01*
X160207544Y-91792452D01*
X160092335Y-91706206D01*
X160092328Y-91706202D01*
X159957482Y-91655908D01*
X159957483Y-91655908D01*
X159897883Y-91649501D01*
X159897881Y-91649500D01*
X159897873Y-91649500D01*
X159897864Y-91649500D01*
X158102129Y-91649500D01*
X158102123Y-91649501D01*
X158042516Y-91655908D01*
X157907671Y-91706202D01*
X157907664Y-91706206D01*
X157792455Y-91792452D01*
X157792452Y-91792455D01*
X157706206Y-91907664D01*
X157706202Y-91907671D01*
X157655908Y-92042517D01*
X157649501Y-92102116D01*
X157649500Y-92102135D01*
X155320500Y-92102135D01*
X155320500Y-92101456D01*
X155282052Y-91908170D01*
X155282051Y-91908169D01*
X155282051Y-91908165D01*
X155281846Y-91907669D01*
X155206635Y-91726092D01*
X155206633Y-91726088D01*
X155206632Y-91726086D01*
X155194661Y-91708170D01*
X155145029Y-91633891D01*
X155124151Y-91567214D01*
X155142635Y-91499834D01*
X155145029Y-91496109D01*
X155157872Y-91476887D01*
X155206632Y-91403914D01*
X155282051Y-91221835D01*
X155320500Y-91028541D01*
X155320500Y-90831459D01*
X155320500Y-90831456D01*
X155282052Y-90638170D01*
X155282051Y-90638169D01*
X155282051Y-90638165D01*
X155279272Y-90631456D01*
X155206635Y-90456092D01*
X155206628Y-90456079D01*
X155097139Y-90292218D01*
X155097136Y-90292214D01*
X154957785Y-90152863D01*
X154957781Y-90152860D01*
X154793920Y-90043371D01*
X154793907Y-90043364D01*
X154611839Y-89967950D01*
X154611829Y-89967947D01*
X154418543Y-89929500D01*
X154418541Y-89929500D01*
X153021459Y-89929500D01*
X153021457Y-89929500D01*
X152828170Y-89967947D01*
X152828160Y-89967950D01*
X152646092Y-90043364D01*
X152646079Y-90043371D01*
X152482218Y-90152860D01*
X152482214Y-90152863D01*
X152342863Y-90292214D01*
X152342860Y-90292218D01*
X152233371Y-90456079D01*
X152233364Y-90456092D01*
X152157950Y-90638160D01*
X152157947Y-90638170D01*
X152119500Y-90831456D01*
X152119500Y-90831459D01*
X152119500Y-91028541D01*
X152119500Y-91028543D01*
X152119499Y-91028543D01*
X149779272Y-91028543D01*
X149782051Y-91021835D01*
X149819920Y-90831459D01*
X149820500Y-90828543D01*
X149820500Y-90631456D01*
X149782052Y-90438170D01*
X149782051Y-90438169D01*
X149782051Y-90438165D01*
X149782049Y-90438160D01*
X149706635Y-90256092D01*
X149706628Y-90256079D01*
X149597139Y-90092218D01*
X149597136Y-90092214D01*
X149457785Y-89952863D01*
X149457781Y-89952860D01*
X149293920Y-89843371D01*
X149293907Y-89843364D01*
X149111839Y-89767950D01*
X149111829Y-89767947D01*
X148918543Y-89729500D01*
X148918541Y-89729500D01*
X147521459Y-89729500D01*
X147521457Y-89729500D01*
X147328170Y-89767947D01*
X147328160Y-89767950D01*
X147146092Y-89843364D01*
X147146079Y-89843371D01*
X146982218Y-89952860D01*
X146982214Y-89952863D01*
X146842863Y-90092214D01*
X146842860Y-90092218D01*
X146733371Y-90256079D01*
X146733364Y-90256092D01*
X146657950Y-90438160D01*
X146657947Y-90438170D01*
X146619500Y-90631456D01*
X146619500Y-90631459D01*
X146619500Y-90828541D01*
X146619500Y-90828543D01*
X146619499Y-90828543D01*
X100500500Y-90828543D01*
X100500500Y-86232155D01*
X114145000Y-86232155D01*
X114145000Y-86930000D01*
X115169722Y-86930000D01*
X115125667Y-87006306D01*
X115095000Y-87120756D01*
X115095000Y-87239244D01*
X115125667Y-87353694D01*
X115169722Y-87430000D01*
X114145000Y-87430000D01*
X114145000Y-88127844D01*
X114151401Y-88187372D01*
X114151403Y-88187379D01*
X114201645Y-88322086D01*
X114201649Y-88322093D01*
X114287809Y-88437187D01*
X114287812Y-88437190D01*
X114402906Y-88523350D01*
X114402913Y-88523354D01*
X114537620Y-88573596D01*
X114537627Y-88573598D01*
X114597155Y-88579999D01*
X114597172Y-88580000D01*
X115295000Y-88580000D01*
X115295000Y-87555277D01*
X115371306Y-87599333D01*
X115485756Y-87630000D01*
X115604244Y-87630000D01*
X115718694Y-87599333D01*
X115795000Y-87555277D01*
X115795000Y-88580000D01*
X116492828Y-88580000D01*
X116492844Y-88579999D01*
X116552372Y-88573598D01*
X116552379Y-88573596D01*
X116687086Y-88523354D01*
X116687093Y-88523350D01*
X116802187Y-88437190D01*
X116802190Y-88437187D01*
X116888350Y-88322093D01*
X116888355Y-88322084D01*
X116917075Y-88245081D01*
X116958945Y-88189147D01*
X117024409Y-88164729D01*
X117092682Y-88179580D01*
X117124484Y-88204428D01*
X117133216Y-88213913D01*
X117133219Y-88213915D01*
X117133222Y-88213918D01*
X117316365Y-88356464D01*
X117316371Y-88356468D01*
X117316374Y-88356470D01*
X117520497Y-88466936D01*
X117634487Y-88506068D01*
X117740015Y-88542297D01*
X117740017Y-88542297D01*
X117740019Y-88542298D01*
X117968951Y-88580500D01*
X117968952Y-88580500D01*
X118201048Y-88580500D01*
X118201049Y-88580500D01*
X118429981Y-88542298D01*
X118649503Y-88466936D01*
X118853626Y-88356470D01*
X119036784Y-88213913D01*
X119193979Y-88043153D01*
X119320924Y-87848849D01*
X119414157Y-87636300D01*
X119471134Y-87411305D01*
X119490300Y-87180000D01*
X119490300Y-87179993D01*
X119471135Y-86948702D01*
X119471133Y-86948691D01*
X119414157Y-86723699D01*
X119320924Y-86511151D01*
X119193983Y-86316852D01*
X119193980Y-86316849D01*
X119193979Y-86316847D01*
X119036784Y-86146087D01*
X119036779Y-86146083D01*
X119036777Y-86146081D01*
X118853634Y-86003535D01*
X118853628Y-86003531D01*
X118649504Y-85893064D01*
X118649495Y-85893061D01*
X118429984Y-85817702D01*
X118242404Y-85786401D01*
X118201049Y-85779500D01*
X117968951Y-85779500D01*
X117927596Y-85786401D01*
X117740015Y-85817702D01*
X117520504Y-85893061D01*
X117520495Y-85893064D01*
X117316371Y-86003531D01*
X117316365Y-86003535D01*
X117133222Y-86146081D01*
X117133215Y-86146087D01*
X117124484Y-86155572D01*
X117064595Y-86191561D01*
X116994757Y-86189458D01*
X116937143Y-86149932D01*
X116917075Y-86114918D01*
X116888355Y-86037915D01*
X116888350Y-86037906D01*
X116802190Y-85922812D01*
X116802187Y-85922809D01*
X116687093Y-85836649D01*
X116687086Y-85836645D01*
X116552379Y-85786403D01*
X116552372Y-85786401D01*
X116492844Y-85780000D01*
X115795000Y-85780000D01*
X115795000Y-86804722D01*
X115718694Y-86760667D01*
X115604244Y-86730000D01*
X115485756Y-86730000D01*
X115371306Y-86760667D01*
X115295000Y-86804722D01*
X115295000Y-85780000D01*
X114597155Y-85780000D01*
X114537627Y-85786401D01*
X114537620Y-85786403D01*
X114402913Y-85836645D01*
X114402906Y-85836649D01*
X114287812Y-85922809D01*
X114287809Y-85922812D01*
X114201649Y-86037906D01*
X114201645Y-86037913D01*
X114151403Y-86172620D01*
X114151401Y-86172627D01*
X114145000Y-86232155D01*
X100500500Y-86232155D01*
X100500500Y-78062155D01*
X114095000Y-78062155D01*
X114095000Y-78760000D01*
X115119722Y-78760000D01*
X115075667Y-78836306D01*
X115045000Y-78950756D01*
X115045000Y-79069244D01*
X115075667Y-79183694D01*
X115119722Y-79260000D01*
X114095000Y-79260000D01*
X114095000Y-79957844D01*
X114101401Y-80017372D01*
X114101403Y-80017379D01*
X114151645Y-80152086D01*
X114151649Y-80152093D01*
X114237809Y-80267187D01*
X114237812Y-80267190D01*
X114352906Y-80353350D01*
X114352913Y-80353354D01*
X114487620Y-80403596D01*
X114487627Y-80403598D01*
X114547155Y-80409999D01*
X114547172Y-80410000D01*
X115245000Y-80410000D01*
X115245000Y-79385277D01*
X115321306Y-79429333D01*
X115435756Y-79460000D01*
X115554244Y-79460000D01*
X115668694Y-79429333D01*
X115745000Y-79385277D01*
X115745000Y-80410000D01*
X116442828Y-80410000D01*
X116442844Y-80409999D01*
X116502372Y-80403598D01*
X116502379Y-80403596D01*
X116637086Y-80353354D01*
X116637093Y-80353350D01*
X116752187Y-80267190D01*
X116752190Y-80267187D01*
X116838350Y-80152093D01*
X116838355Y-80152084D01*
X116867075Y-80075081D01*
X116908945Y-80019147D01*
X116974409Y-79994729D01*
X117042682Y-80009580D01*
X117074484Y-80034428D01*
X117083216Y-80043913D01*
X117083219Y-80043915D01*
X117083222Y-80043918D01*
X117266365Y-80186464D01*
X117266371Y-80186468D01*
X117266374Y-80186470D01*
X117470497Y-80296936D01*
X117570290Y-80331195D01*
X117690015Y-80372297D01*
X117690017Y-80372297D01*
X117690019Y-80372298D01*
X117918951Y-80410500D01*
X117918952Y-80410500D01*
X118151048Y-80410500D01*
X118151049Y-80410500D01*
X118379981Y-80372298D01*
X118599503Y-80296936D01*
X118803626Y-80186470D01*
X118986784Y-80043913D01*
X119143979Y-79873153D01*
X119270924Y-79678849D01*
X119364157Y-79466300D01*
X119421134Y-79241305D01*
X119425908Y-79183694D01*
X119440300Y-79010006D01*
X119440300Y-79009993D01*
X119421135Y-78778702D01*
X119421133Y-78778691D01*
X119364157Y-78553699D01*
X119270924Y-78341151D01*
X119143983Y-78146852D01*
X119143980Y-78146849D01*
X119143979Y-78146847D01*
X118986784Y-77976087D01*
X118986779Y-77976083D01*
X118986777Y-77976081D01*
X118803634Y-77833535D01*
X118803628Y-77833531D01*
X118599504Y-77723064D01*
X118599495Y-77723061D01*
X118379984Y-77647702D01*
X118192404Y-77616401D01*
X118151049Y-77609500D01*
X117918951Y-77609500D01*
X117877596Y-77616401D01*
X117690015Y-77647702D01*
X117470504Y-77723061D01*
X117470495Y-77723064D01*
X117266371Y-77833531D01*
X117266365Y-77833535D01*
X117083222Y-77976081D01*
X117083215Y-77976087D01*
X117074484Y-77985572D01*
X117014595Y-78021561D01*
X116944757Y-78019458D01*
X116887143Y-77979932D01*
X116867075Y-77944918D01*
X116838355Y-77867915D01*
X116838350Y-77867906D01*
X116752190Y-77752812D01*
X116752187Y-77752809D01*
X116637093Y-77666649D01*
X116637086Y-77666645D01*
X116502379Y-77616403D01*
X116502372Y-77616401D01*
X116442844Y-77610000D01*
X115745000Y-77610000D01*
X115745000Y-78634722D01*
X115668694Y-78590667D01*
X115554244Y-78560000D01*
X115435756Y-78560000D01*
X115321306Y-78590667D01*
X115245000Y-78634722D01*
X115245000Y-77610000D01*
X114547155Y-77610000D01*
X114487627Y-77616401D01*
X114487620Y-77616403D01*
X114352913Y-77666645D01*
X114352906Y-77666649D01*
X114237812Y-77752809D01*
X114237809Y-77752812D01*
X114151649Y-77867906D01*
X114151645Y-77867913D01*
X114101403Y-78002620D01*
X114101401Y-78002627D01*
X114095000Y-78062155D01*
X100500500Y-78062155D01*
X100500500Y-77369999D01*
X131174526Y-77369999D01*
X131174526Y-77370000D01*
X131194378Y-77584246D01*
X131253261Y-77791195D01*
X131253266Y-77791208D01*
X131291461Y-77867913D01*
X131349169Y-77983806D01*
X131478835Y-78155512D01*
X131637844Y-78300467D01*
X131759802Y-78375980D01*
X131820055Y-78413288D01*
X131820781Y-78413737D01*
X132021416Y-78491464D01*
X132163969Y-78518111D01*
X132226249Y-78549779D01*
X132261522Y-78610092D01*
X132258588Y-78679900D01*
X132218379Y-78737040D01*
X132163969Y-78761888D01*
X132021416Y-78788536D01*
X132021409Y-78788538D01*
X132021408Y-78788539D01*
X131820781Y-78866262D01*
X131820779Y-78866263D01*
X131637848Y-78979530D01*
X131637846Y-78979531D01*
X131637844Y-78979533D01*
X131604417Y-79010006D01*
X131478834Y-79124489D01*
X131349169Y-79296193D01*
X131253266Y-79488791D01*
X131253261Y-79488804D01*
X131194378Y-79695753D01*
X131174526Y-79909999D01*
X131174526Y-79910000D01*
X131194378Y-80124246D01*
X131253261Y-80331195D01*
X131253266Y-80331208D01*
X131349169Y-80523806D01*
X131478835Y-80695512D01*
X131637844Y-80840467D01*
X131820781Y-80953737D01*
X132021416Y-81031464D01*
X132163969Y-81058111D01*
X132226249Y-81089779D01*
X132261522Y-81150092D01*
X132258588Y-81219900D01*
X132218379Y-81277040D01*
X132163969Y-81301888D01*
X132021416Y-81328536D01*
X132021409Y-81328538D01*
X132021408Y-81328539D01*
X131820781Y-81406262D01*
X131820779Y-81406263D01*
X131637848Y-81519530D01*
X131637846Y-81519531D01*
X131637844Y-81519533D01*
X131478835Y-81664488D01*
X131478834Y-81664489D01*
X131349169Y-81836193D01*
X131253266Y-82028791D01*
X131253261Y-82028804D01*
X131194378Y-82235753D01*
X131174526Y-82449999D01*
X131174526Y-82450000D01*
X131194378Y-82664246D01*
X131253261Y-82871195D01*
X131253266Y-82871208D01*
X131349169Y-83063806D01*
X131478835Y-83235512D01*
X131637844Y-83380467D01*
X131820781Y-83493737D01*
X132021416Y-83571464D01*
X132163969Y-83598111D01*
X132226249Y-83629779D01*
X132261522Y-83690092D01*
X132258588Y-83759900D01*
X132218379Y-83817040D01*
X132163969Y-83841888D01*
X132021416Y-83868536D01*
X132021409Y-83868538D01*
X132021408Y-83868539D01*
X131820781Y-83946262D01*
X131820779Y-83946263D01*
X131637848Y-84059530D01*
X131637846Y-84059531D01*
X131637844Y-84059533D01*
X131478835Y-84204488D01*
X131478834Y-84204489D01*
X131349169Y-84376193D01*
X131253266Y-84568791D01*
X131253261Y-84568804D01*
X131194378Y-84775753D01*
X131174526Y-84989999D01*
X131174526Y-84990000D01*
X131194378Y-85204246D01*
X131253261Y-85411195D01*
X131253266Y-85411208D01*
X131349169Y-85603806D01*
X131478835Y-85775512D01*
X131637844Y-85920467D01*
X131820781Y-86033737D01*
X132021416Y-86111464D01*
X132232917Y-86151000D01*
X132232919Y-86151000D01*
X132448081Y-86151000D01*
X132448083Y-86151000D01*
X132659584Y-86111464D01*
X132860219Y-86033737D01*
X133043156Y-85920467D01*
X133202165Y-85775512D01*
X133331831Y-85603806D01*
X133427738Y-85411198D01*
X133486621Y-85204247D01*
X133506474Y-84990000D01*
X133486621Y-84775753D01*
X133427738Y-84568802D01*
X133331831Y-84376194D01*
X133202165Y-84204488D01*
X133043156Y-84059533D01*
X133018623Y-84044343D01*
X132860220Y-83946263D01*
X132860218Y-83946262D01*
X132723774Y-83893403D01*
X132659584Y-83868536D01*
X132517029Y-83841888D01*
X132454750Y-83810221D01*
X132419477Y-83749909D01*
X132422411Y-83680101D01*
X132462620Y-83622960D01*
X132517029Y-83598111D01*
X132659584Y-83571464D01*
X132860219Y-83493737D01*
X133043156Y-83380467D01*
X133202165Y-83235512D01*
X133331831Y-83063806D01*
X133427738Y-82871198D01*
X133486621Y-82664247D01*
X133506474Y-82450000D01*
X133486621Y-82235753D01*
X133427738Y-82028802D01*
X133331831Y-81836194D01*
X133202165Y-81664488D01*
X133043156Y-81519533D01*
X133018623Y-81504343D01*
X132860220Y-81406263D01*
X132860218Y-81406262D01*
X132723774Y-81353403D01*
X132659584Y-81328536D01*
X132517029Y-81301888D01*
X132454750Y-81270221D01*
X132419477Y-81209909D01*
X132422411Y-81140101D01*
X132462620Y-81082960D01*
X132517029Y-81058111D01*
X132659584Y-81031464D01*
X132860219Y-80953737D01*
X133043156Y-80840467D01*
X133202165Y-80695512D01*
X133331831Y-80523806D01*
X133427738Y-80331198D01*
X133486621Y-80124247D01*
X133506474Y-79910000D01*
X133506474Y-79909999D01*
X144254526Y-79909999D01*
X144254526Y-79910000D01*
X144274378Y-80124246D01*
X144333261Y-80331195D01*
X144333266Y-80331208D01*
X144429169Y-80523806D01*
X144558835Y-80695512D01*
X144717844Y-80840467D01*
X144900781Y-80953737D01*
X145101416Y-81031464D01*
X145243969Y-81058111D01*
X145306249Y-81089779D01*
X145341522Y-81150092D01*
X145338588Y-81219900D01*
X145298379Y-81277040D01*
X145243969Y-81301888D01*
X145101416Y-81328536D01*
X145101409Y-81328538D01*
X145101408Y-81328539D01*
X144900781Y-81406262D01*
X144900779Y-81406263D01*
X144717848Y-81519530D01*
X144717846Y-81519531D01*
X144717844Y-81519533D01*
X144558835Y-81664488D01*
X144558834Y-81664489D01*
X144429169Y-81836193D01*
X144333266Y-82028791D01*
X144333261Y-82028804D01*
X144274378Y-82235753D01*
X144254526Y-82449999D01*
X144254526Y-82450000D01*
X144274378Y-82664246D01*
X144333261Y-82871195D01*
X144333266Y-82871208D01*
X144429169Y-83063806D01*
X144558835Y-83235512D01*
X144717844Y-83380467D01*
X144900781Y-83493737D01*
X145101416Y-83571464D01*
X145243969Y-83598111D01*
X145306249Y-83629779D01*
X145341522Y-83690092D01*
X145338588Y-83759900D01*
X145298379Y-83817040D01*
X145243969Y-83841888D01*
X145101416Y-83868536D01*
X145101409Y-83868538D01*
X145101408Y-83868539D01*
X144900781Y-83946262D01*
X144900779Y-83946263D01*
X144717848Y-84059530D01*
X144717846Y-84059531D01*
X144717844Y-84059533D01*
X144558835Y-84204488D01*
X144558834Y-84204489D01*
X144429169Y-84376193D01*
X144333266Y-84568791D01*
X144333261Y-84568804D01*
X144274378Y-84775753D01*
X144254526Y-84989999D01*
X144254526Y-84990000D01*
X144274378Y-85204246D01*
X144333261Y-85411195D01*
X144333266Y-85411208D01*
X144429169Y-85603806D01*
X144558835Y-85775512D01*
X144717844Y-85920467D01*
X144900781Y-86033737D01*
X145101416Y-86111464D01*
X145312917Y-86151000D01*
X145312919Y-86151000D01*
X145528081Y-86151000D01*
X145528083Y-86151000D01*
X145739584Y-86111464D01*
X145940219Y-86033737D01*
X146123156Y-85920467D01*
X146282165Y-85775512D01*
X146411831Y-85603806D01*
X146507738Y-85411198D01*
X146566621Y-85204247D01*
X146586474Y-84990000D01*
X146566621Y-84775753D01*
X146507738Y-84568802D01*
X146411831Y-84376194D01*
X146282165Y-84204488D01*
X146123156Y-84059533D01*
X146098623Y-84044343D01*
X145940220Y-83946263D01*
X145940218Y-83946262D01*
X145803774Y-83893403D01*
X145739584Y-83868536D01*
X145597029Y-83841888D01*
X145534750Y-83810221D01*
X145499477Y-83749909D01*
X145502411Y-83680101D01*
X145542620Y-83622960D01*
X145597029Y-83598111D01*
X145739584Y-83571464D01*
X145940219Y-83493737D01*
X146123156Y-83380467D01*
X146282165Y-83235512D01*
X146411831Y-83063806D01*
X146507738Y-82871198D01*
X146566621Y-82664247D01*
X146586474Y-82450000D01*
X146566621Y-82235753D01*
X146507738Y-82028802D01*
X146411831Y-81836194D01*
X146282165Y-81664488D01*
X146123156Y-81519533D01*
X146098623Y-81504343D01*
X145940220Y-81406263D01*
X145940218Y-81406262D01*
X145803774Y-81353403D01*
X145739584Y-81328536D01*
X145597029Y-81301888D01*
X145534750Y-81270221D01*
X145499477Y-81209909D01*
X145502411Y-81140101D01*
X145542620Y-81082960D01*
X145597029Y-81058111D01*
X145739584Y-81031464D01*
X145940219Y-80953737D01*
X146123156Y-80840467D01*
X146282165Y-80695512D01*
X146411831Y-80523806D01*
X146507738Y-80331198D01*
X146566621Y-80124247D01*
X146586474Y-79910000D01*
X146566621Y-79695753D01*
X146507738Y-79488802D01*
X146496533Y-79466300D01*
X146448627Y-79370090D01*
X146411831Y-79296194D01*
X146282165Y-79124488D01*
X146123156Y-78979533D01*
X146076680Y-78950756D01*
X145940220Y-78866263D01*
X145940218Y-78866262D01*
X145803774Y-78813403D01*
X145739584Y-78788536D01*
X145595670Y-78761634D01*
X145533389Y-78729966D01*
X145498116Y-78669653D01*
X145501050Y-78599845D01*
X145541259Y-78542705D01*
X145595671Y-78517856D01*
X145739449Y-78490980D01*
X145939995Y-78413288D01*
X145939996Y-78413287D01*
X146045135Y-78348187D01*
X145473448Y-77776500D01*
X145474017Y-77776500D01*
X145577403Y-77748798D01*
X145670097Y-77695281D01*
X145745781Y-77619597D01*
X145799298Y-77526903D01*
X145827000Y-77423517D01*
X145827000Y-77422947D01*
X146401159Y-77997107D01*
X146401160Y-77997106D01*
X146411402Y-77983544D01*
X146411407Y-77983536D01*
X146507265Y-77791027D01*
X146507270Y-77791014D01*
X146566128Y-77584154D01*
X146585972Y-77370000D01*
X146585972Y-77369999D01*
X146566128Y-77155845D01*
X146507270Y-76948985D01*
X146507265Y-76948972D01*
X146411403Y-76756457D01*
X146401160Y-76742892D01*
X145827000Y-77317052D01*
X145827000Y-77316483D01*
X145799298Y-77213097D01*
X145745781Y-77120403D01*
X145670097Y-77044719D01*
X145577403Y-76991202D01*
X145474017Y-76963500D01*
X145473447Y-76963500D01*
X146045135Y-76391811D01*
X146045134Y-76391810D01*
X145939999Y-76326713D01*
X145939993Y-76326710D01*
X145739450Y-76249020D01*
X145528033Y-76209500D01*
X145312967Y-76209500D01*
X145101550Y-76249020D01*
X144901005Y-76326711D01*
X144795863Y-76391811D01*
X145367554Y-76963500D01*
X145366983Y-76963500D01*
X145263597Y-76991202D01*
X145170903Y-77044719D01*
X145095219Y-77120403D01*
X145041702Y-77213097D01*
X145014000Y-77316483D01*
X145014000Y-77317053D01*
X144439839Y-76742892D01*
X144439838Y-76742892D01*
X144429596Y-76756457D01*
X144333734Y-76948972D01*
X144333729Y-76948985D01*
X144274871Y-77155845D01*
X144255028Y-77369999D01*
X144255028Y-77370000D01*
X144274871Y-77584154D01*
X144333729Y-77791014D01*
X144333734Y-77791027D01*
X144429597Y-77983544D01*
X144439839Y-77997107D01*
X145014000Y-77422946D01*
X145014000Y-77423517D01*
X145041702Y-77526903D01*
X145095219Y-77619597D01*
X145170903Y-77695281D01*
X145263597Y-77748798D01*
X145366983Y-77776500D01*
X145367553Y-77776500D01*
X144795863Y-78348187D01*
X144901005Y-78413288D01*
X144901006Y-78413289D01*
X145101550Y-78490980D01*
X145245328Y-78517856D01*
X145307609Y-78549524D01*
X145342883Y-78609836D01*
X145339950Y-78679644D01*
X145299741Y-78736784D01*
X145245329Y-78761634D01*
X145185956Y-78772732D01*
X145101416Y-78788536D01*
X145101409Y-78788538D01*
X145101408Y-78788539D01*
X144900781Y-78866262D01*
X144900779Y-78866263D01*
X144717848Y-78979530D01*
X144717846Y-78979531D01*
X144717844Y-78979533D01*
X144684417Y-79010006D01*
X144558834Y-79124489D01*
X144429169Y-79296193D01*
X144333266Y-79488791D01*
X144333261Y-79488804D01*
X144274378Y-79695753D01*
X144254526Y-79909999D01*
X133506474Y-79909999D01*
X133486621Y-79695753D01*
X133427738Y-79488802D01*
X133416533Y-79466300D01*
X133368627Y-79370090D01*
X133331831Y-79296194D01*
X133202165Y-79124488D01*
X133043156Y-78979533D01*
X132996680Y-78950756D01*
X132860220Y-78866263D01*
X132860218Y-78866262D01*
X132723774Y-78813403D01*
X132659584Y-78788536D01*
X132517029Y-78761888D01*
X132454750Y-78730221D01*
X132419477Y-78669909D01*
X132422411Y-78600101D01*
X132462620Y-78542960D01*
X132517029Y-78518111D01*
X132659584Y-78491464D01*
X132860219Y-78413737D01*
X133043156Y-78300467D01*
X133202165Y-78155512D01*
X133331831Y-77983806D01*
X133427738Y-77791198D01*
X133486621Y-77584247D01*
X133506474Y-77370000D01*
X133486621Y-77155753D01*
X133427738Y-76948802D01*
X133331831Y-76756194D01*
X133202165Y-76584488D01*
X133043156Y-76439533D01*
X133018623Y-76424343D01*
X132860220Y-76326263D01*
X132860218Y-76326262D01*
X132660833Y-76249020D01*
X132659584Y-76248536D01*
X132448083Y-76209000D01*
X132232917Y-76209000D01*
X132021416Y-76248536D01*
X132021409Y-76248538D01*
X132021408Y-76248539D01*
X131820781Y-76326262D01*
X131820779Y-76326263D01*
X131637848Y-76439530D01*
X131637846Y-76439531D01*
X131637844Y-76439533D01*
X131478835Y-76584488D01*
X131478834Y-76584489D01*
X131349169Y-76756193D01*
X131253266Y-76948791D01*
X131253261Y-76948804D01*
X131194378Y-77155753D01*
X131174526Y-77369999D01*
X100500500Y-77369999D01*
X100500500Y-69932155D01*
X113955000Y-69932155D01*
X113955000Y-70630000D01*
X114979722Y-70630000D01*
X114935667Y-70706306D01*
X114905000Y-70820756D01*
X114905000Y-70939244D01*
X114935667Y-71053694D01*
X114979722Y-71130000D01*
X113955000Y-71130000D01*
X113955000Y-71827844D01*
X113961401Y-71887372D01*
X113961403Y-71887379D01*
X114011645Y-72022086D01*
X114011649Y-72022093D01*
X114097809Y-72137187D01*
X114097812Y-72137190D01*
X114212906Y-72223350D01*
X114212913Y-72223354D01*
X114347620Y-72273596D01*
X114347627Y-72273598D01*
X114407155Y-72279999D01*
X114407172Y-72280000D01*
X115105000Y-72280000D01*
X115105000Y-71255277D01*
X115181306Y-71299333D01*
X115295756Y-71330000D01*
X115414244Y-71330000D01*
X115528694Y-71299333D01*
X115605000Y-71255277D01*
X115605000Y-72280000D01*
X116302828Y-72280000D01*
X116302844Y-72279999D01*
X116362372Y-72273598D01*
X116362379Y-72273596D01*
X116497086Y-72223354D01*
X116497093Y-72223350D01*
X116612187Y-72137190D01*
X116612190Y-72137187D01*
X116698350Y-72022093D01*
X116698355Y-72022084D01*
X116727075Y-71945081D01*
X116768945Y-71889147D01*
X116834409Y-71864729D01*
X116902682Y-71879580D01*
X116934484Y-71904428D01*
X116943216Y-71913913D01*
X116943219Y-71913915D01*
X116943222Y-71913918D01*
X117126365Y-72056464D01*
X117126371Y-72056468D01*
X117126374Y-72056470D01*
X117330497Y-72166936D01*
X117414540Y-72195788D01*
X117550015Y-72242297D01*
X117550017Y-72242297D01*
X117550019Y-72242298D01*
X117778951Y-72280500D01*
X117778952Y-72280500D01*
X118011048Y-72280500D01*
X118011049Y-72280500D01*
X118239981Y-72242298D01*
X118459503Y-72166936D01*
X118663626Y-72056470D01*
X118677843Y-72045405D01*
X118806739Y-71945081D01*
X118846784Y-71913913D01*
X119003979Y-71743153D01*
X119130924Y-71548849D01*
X119224157Y-71336300D01*
X119273868Y-71139998D01*
X125764532Y-71139998D01*
X125764532Y-71140001D01*
X125784364Y-71366686D01*
X125784366Y-71366697D01*
X125843258Y-71586488D01*
X125843261Y-71586497D01*
X125939431Y-71792732D01*
X125939432Y-71792734D01*
X126069954Y-71979141D01*
X126230858Y-72140045D01*
X126230861Y-72140047D01*
X126417266Y-72270568D01*
X126623504Y-72366739D01*
X126843308Y-72425635D01*
X127005230Y-72439801D01*
X127069998Y-72445468D01*
X127070000Y-72445468D01*
X127070002Y-72445468D01*
X127126673Y-72440509D01*
X127296692Y-72425635D01*
X127516496Y-72366739D01*
X127722734Y-72270568D01*
X127909139Y-72140047D01*
X128070047Y-71979139D01*
X128200568Y-71792734D01*
X128296739Y-71586496D01*
X128355635Y-71366692D01*
X128375468Y-71140000D01*
X128375468Y-71139998D01*
X135924532Y-71139998D01*
X135924532Y-71140001D01*
X135944364Y-71366686D01*
X135944366Y-71366697D01*
X136003258Y-71586488D01*
X136003261Y-71586497D01*
X136099431Y-71792732D01*
X136099432Y-71792734D01*
X136229954Y-71979141D01*
X136390858Y-72140045D01*
X136390861Y-72140047D01*
X136577266Y-72270568D01*
X136783504Y-72366739D01*
X137003308Y-72425635D01*
X137165230Y-72439801D01*
X137229998Y-72445468D01*
X137230000Y-72445468D01*
X137230002Y-72445468D01*
X137286673Y-72440509D01*
X137456692Y-72425635D01*
X137676496Y-72366739D01*
X137882734Y-72270568D01*
X138069139Y-72140047D01*
X138230047Y-71979139D01*
X138360568Y-71792734D01*
X138456739Y-71586496D01*
X138487955Y-71469996D01*
X142474435Y-71469996D01*
X142474435Y-71470003D01*
X142494630Y-71649249D01*
X142494631Y-71649254D01*
X142554211Y-71819523D01*
X142579645Y-71860000D01*
X142650184Y-71972262D01*
X142777738Y-72099816D01*
X142930478Y-72195789D01*
X143079883Y-72248068D01*
X143100745Y-72255368D01*
X143100750Y-72255369D01*
X143279996Y-72275565D01*
X143280000Y-72275565D01*
X143280004Y-72275565D01*
X143459249Y-72255369D01*
X143459252Y-72255368D01*
X143459255Y-72255368D01*
X143539017Y-72227457D01*
X143579972Y-72220500D01*
X144510028Y-72220500D01*
X144550982Y-72227457D01*
X144562251Y-72231401D01*
X144630745Y-72255368D01*
X144630750Y-72255369D01*
X144809996Y-72275565D01*
X144810000Y-72275565D01*
X144810004Y-72275565D01*
X144989249Y-72255369D01*
X144989252Y-72255368D01*
X144989255Y-72255368D01*
X145159522Y-72195789D01*
X145312262Y-72099816D01*
X145439816Y-71972262D01*
X145535789Y-71819522D01*
X145595368Y-71649255D01*
X145595369Y-71649249D01*
X145615565Y-71470003D01*
X145615565Y-71469996D01*
X145603171Y-71359999D01*
X149984341Y-71359999D01*
X149984341Y-71360000D01*
X150004936Y-71595403D01*
X150004938Y-71595413D01*
X150066094Y-71823655D01*
X150066096Y-71823659D01*
X150066097Y-71823663D01*
X150158623Y-72022086D01*
X150165965Y-72037830D01*
X150165967Y-72037834D01*
X150237537Y-72140045D01*
X150301505Y-72231401D01*
X150468599Y-72398495D01*
X150565384Y-72466265D01*
X150662165Y-72534032D01*
X150662167Y-72534033D01*
X150662170Y-72534035D01*
X150876337Y-72633903D01*
X151104592Y-72695063D01*
X151281034Y-72710500D01*
X151339999Y-72715659D01*
X151340000Y-72715659D01*
X151340001Y-72715659D01*
X151398966Y-72710500D01*
X151575408Y-72695063D01*
X151803663Y-72633903D01*
X152017830Y-72534035D01*
X152211401Y-72398495D01*
X152378495Y-72231401D01*
X152508730Y-72045405D01*
X152563307Y-72001781D01*
X152632805Y-71994587D01*
X152695160Y-72026110D01*
X152711879Y-72045405D01*
X152841890Y-72231078D01*
X153008917Y-72398105D01*
X153202421Y-72533600D01*
X153416507Y-72633429D01*
X153416516Y-72633433D01*
X153630000Y-72690634D01*
X153630000Y-71793012D01*
X153687007Y-71825925D01*
X153814174Y-71860000D01*
X153945826Y-71860000D01*
X154072993Y-71825925D01*
X154130000Y-71793012D01*
X154130000Y-72690633D01*
X154343483Y-72633433D01*
X154343492Y-72633429D01*
X154557578Y-72533600D01*
X154751082Y-72398105D01*
X154918105Y-72231082D01*
X155048119Y-72045405D01*
X155102696Y-72001781D01*
X155172195Y-71994588D01*
X155234549Y-72026110D01*
X155251269Y-72045405D01*
X155381505Y-72231401D01*
X155548599Y-72398495D01*
X155645384Y-72466265D01*
X155742165Y-72534032D01*
X155742167Y-72534033D01*
X155742170Y-72534035D01*
X155956337Y-72633903D01*
X156184592Y-72695063D01*
X156361034Y-72710500D01*
X156419999Y-72715659D01*
X156420000Y-72715659D01*
X156420001Y-72715659D01*
X156478966Y-72710500D01*
X156655408Y-72695063D01*
X156883663Y-72633903D01*
X157097830Y-72534035D01*
X157291401Y-72398495D01*
X157458495Y-72231401D01*
X157588425Y-72045842D01*
X157643002Y-72002217D01*
X157712500Y-71995023D01*
X157774855Y-72026546D01*
X157791575Y-72045842D01*
X157921500Y-72231395D01*
X157921505Y-72231401D01*
X158088599Y-72398495D01*
X158185384Y-72466265D01*
X158282165Y-72534032D01*
X158282167Y-72534033D01*
X158282170Y-72534035D01*
X158496337Y-72633903D01*
X158724592Y-72695063D01*
X158901034Y-72710500D01*
X158959999Y-72715659D01*
X158960000Y-72715659D01*
X158960001Y-72715659D01*
X159018966Y-72710500D01*
X159195408Y-72695063D01*
X159423663Y-72633903D01*
X159637830Y-72534035D01*
X159831401Y-72398495D01*
X159998495Y-72231401D01*
X160128425Y-72045842D01*
X160183002Y-72002217D01*
X160252500Y-71995023D01*
X160314855Y-72026546D01*
X160331575Y-72045842D01*
X160461500Y-72231395D01*
X160461505Y-72231401D01*
X160628599Y-72398495D01*
X160725384Y-72466265D01*
X160822165Y-72534032D01*
X160822167Y-72534033D01*
X160822170Y-72534035D01*
X161036337Y-72633903D01*
X161264592Y-72695063D01*
X161441034Y-72710500D01*
X161499999Y-72715659D01*
X161500000Y-72715659D01*
X161500001Y-72715659D01*
X161558966Y-72710500D01*
X161735408Y-72695063D01*
X161963663Y-72633903D01*
X162177830Y-72534035D01*
X162371401Y-72398495D01*
X162493329Y-72276566D01*
X162554648Y-72243084D01*
X162624340Y-72248068D01*
X162680274Y-72289939D01*
X162697189Y-72320917D01*
X162746202Y-72452328D01*
X162746206Y-72452335D01*
X162832452Y-72567544D01*
X162832455Y-72567547D01*
X162947664Y-72653793D01*
X162947671Y-72653797D01*
X163082517Y-72704091D01*
X163082516Y-72704091D01*
X163089444Y-72704835D01*
X163142127Y-72710500D01*
X164937872Y-72710499D01*
X164997483Y-72704091D01*
X165132331Y-72653796D01*
X165247546Y-72567546D01*
X165333796Y-72452331D01*
X165384091Y-72317483D01*
X165390500Y-72257873D01*
X165390499Y-70462128D01*
X165384091Y-70402517D01*
X165382810Y-70399083D01*
X165333797Y-70267671D01*
X165333793Y-70267664D01*
X165247547Y-70152455D01*
X165247544Y-70152452D01*
X165132335Y-70066206D01*
X165132328Y-70066202D01*
X164997482Y-70015908D01*
X164997483Y-70015908D01*
X164937883Y-70009501D01*
X164937881Y-70009500D01*
X164937873Y-70009500D01*
X164937864Y-70009500D01*
X163142129Y-70009500D01*
X163142123Y-70009501D01*
X163082516Y-70015908D01*
X162947671Y-70066202D01*
X162947664Y-70066206D01*
X162832455Y-70152452D01*
X162832452Y-70152455D01*
X162746206Y-70267664D01*
X162746203Y-70267669D01*
X162697189Y-70399083D01*
X162655317Y-70455016D01*
X162589853Y-70479433D01*
X162521580Y-70464581D01*
X162493326Y-70443430D01*
X162371402Y-70321506D01*
X162371395Y-70321501D01*
X162177834Y-70185967D01*
X162177830Y-70185965D01*
X162177828Y-70185964D01*
X161963663Y-70086097D01*
X161963659Y-70086096D01*
X161963655Y-70086094D01*
X161735413Y-70024938D01*
X161735403Y-70024936D01*
X161500001Y-70004341D01*
X161499999Y-70004341D01*
X161264596Y-70024936D01*
X161264586Y-70024938D01*
X161036344Y-70086094D01*
X161036335Y-70086098D01*
X160822171Y-70185964D01*
X160822169Y-70185965D01*
X160628597Y-70321505D01*
X160461505Y-70488597D01*
X160331575Y-70674158D01*
X160276998Y-70717783D01*
X160207500Y-70724977D01*
X160145145Y-70693454D01*
X160128425Y-70674158D01*
X159998494Y-70488597D01*
X159831402Y-70321506D01*
X159831395Y-70321501D01*
X159637834Y-70185967D01*
X159637830Y-70185965D01*
X159637828Y-70185964D01*
X159423663Y-70086097D01*
X159423659Y-70086096D01*
X159423655Y-70086094D01*
X159195413Y-70024938D01*
X159195403Y-70024936D01*
X158960001Y-70004341D01*
X158959999Y-70004341D01*
X158724596Y-70024936D01*
X158724586Y-70024938D01*
X158496344Y-70086094D01*
X158496335Y-70086098D01*
X158282171Y-70185964D01*
X158282169Y-70185965D01*
X158088597Y-70321505D01*
X157921505Y-70488597D01*
X157791575Y-70674158D01*
X157736998Y-70717783D01*
X157667500Y-70724977D01*
X157605145Y-70693454D01*
X157588425Y-70674158D01*
X157458494Y-70488597D01*
X157291402Y-70321506D01*
X157291395Y-70321501D01*
X157097834Y-70185967D01*
X157097830Y-70185965D01*
X157097828Y-70185964D01*
X156883663Y-70086097D01*
X156883659Y-70086096D01*
X156883655Y-70086094D01*
X156655413Y-70024938D01*
X156655403Y-70024936D01*
X156420001Y-70004341D01*
X156419999Y-70004341D01*
X156184596Y-70024936D01*
X156184586Y-70024938D01*
X155956344Y-70086094D01*
X155956335Y-70086098D01*
X155742171Y-70185964D01*
X155742169Y-70185965D01*
X155548597Y-70321505D01*
X155381508Y-70488594D01*
X155251269Y-70674595D01*
X155196692Y-70718219D01*
X155127193Y-70725412D01*
X155064839Y-70693890D01*
X155048119Y-70674594D01*
X154918113Y-70488926D01*
X154918108Y-70488920D01*
X154751082Y-70321894D01*
X154557578Y-70186399D01*
X154343492Y-70086570D01*
X154343486Y-70086567D01*
X154130000Y-70029364D01*
X154130000Y-70926988D01*
X154072993Y-70894075D01*
X153945826Y-70860000D01*
X153814174Y-70860000D01*
X153687007Y-70894075D01*
X153630000Y-70926988D01*
X153630000Y-70029364D01*
X153629999Y-70029364D01*
X153416513Y-70086567D01*
X153416507Y-70086570D01*
X153202422Y-70186399D01*
X153202420Y-70186400D01*
X153008926Y-70321886D01*
X153008920Y-70321891D01*
X152841891Y-70488920D01*
X152841890Y-70488922D01*
X152711880Y-70674595D01*
X152657303Y-70718219D01*
X152587804Y-70725412D01*
X152525450Y-70693890D01*
X152508730Y-70674594D01*
X152378494Y-70488597D01*
X152211402Y-70321506D01*
X152211395Y-70321501D01*
X152017834Y-70185967D01*
X152017830Y-70185965D01*
X152017828Y-70185964D01*
X151803663Y-70086097D01*
X151803659Y-70086096D01*
X151803655Y-70086094D01*
X151575413Y-70024938D01*
X151575403Y-70024936D01*
X151340001Y-70004341D01*
X151339999Y-70004341D01*
X151104596Y-70024936D01*
X151104586Y-70024938D01*
X150876344Y-70086094D01*
X150876335Y-70086098D01*
X150662171Y-70185964D01*
X150662169Y-70185965D01*
X150468597Y-70321505D01*
X150301505Y-70488597D01*
X150165965Y-70682169D01*
X150165964Y-70682171D01*
X150066098Y-70896335D01*
X150066094Y-70896344D01*
X150004938Y-71124586D01*
X150004936Y-71124596D01*
X149984341Y-71359999D01*
X145603171Y-71359999D01*
X145595369Y-71290750D01*
X145595368Y-71290745D01*
X145537230Y-71124596D01*
X145535789Y-71120478D01*
X145439816Y-70967738D01*
X145312262Y-70840184D01*
X145281343Y-70820756D01*
X145159523Y-70744211D01*
X144989254Y-70684631D01*
X144989249Y-70684630D01*
X144810004Y-70664435D01*
X144809996Y-70664435D01*
X144630750Y-70684630D01*
X144630745Y-70684631D01*
X144550983Y-70712542D01*
X144510028Y-70719500D01*
X143579972Y-70719500D01*
X143539017Y-70712542D01*
X143459254Y-70684631D01*
X143459249Y-70684630D01*
X143280004Y-70664435D01*
X143279996Y-70664435D01*
X143100750Y-70684630D01*
X143100745Y-70684631D01*
X142930476Y-70744211D01*
X142777737Y-70840184D01*
X142650184Y-70967737D01*
X142554211Y-71120476D01*
X142494631Y-71290745D01*
X142494630Y-71290750D01*
X142474435Y-71469996D01*
X138487955Y-71469996D01*
X138515635Y-71366692D01*
X138535468Y-71140000D01*
X138534119Y-71124586D01*
X138515635Y-70913313D01*
X138515635Y-70913308D01*
X138460169Y-70706306D01*
X138456741Y-70693511D01*
X138456738Y-70693502D01*
X138451453Y-70682169D01*
X138360568Y-70487266D01*
X138230047Y-70300861D01*
X138230045Y-70300858D01*
X138069141Y-70139954D01*
X137882734Y-70009432D01*
X137882732Y-70009431D01*
X137676497Y-69913261D01*
X137676488Y-69913258D01*
X137456697Y-69854366D01*
X137456693Y-69854365D01*
X137456692Y-69854365D01*
X137456691Y-69854364D01*
X137456686Y-69854364D01*
X137230002Y-69834532D01*
X137229998Y-69834532D01*
X137003313Y-69854364D01*
X137003302Y-69854366D01*
X136783511Y-69913258D01*
X136783502Y-69913261D01*
X136577267Y-70009431D01*
X136577265Y-70009432D01*
X136390858Y-70139954D01*
X136229954Y-70300858D01*
X136099432Y-70487265D01*
X136099431Y-70487267D01*
X136003261Y-70693502D01*
X136003258Y-70693511D01*
X135944366Y-70913302D01*
X135944364Y-70913313D01*
X135924532Y-71139998D01*
X128375468Y-71139998D01*
X128374119Y-71124586D01*
X128355635Y-70913313D01*
X128355635Y-70913308D01*
X128300169Y-70706306D01*
X128296741Y-70693511D01*
X128296738Y-70693502D01*
X128291453Y-70682169D01*
X128200568Y-70487266D01*
X128070047Y-70300861D01*
X128070045Y-70300858D01*
X127909141Y-70139954D01*
X127722734Y-70009432D01*
X127722732Y-70009431D01*
X127516497Y-69913261D01*
X127516488Y-69913258D01*
X127296697Y-69854366D01*
X127296693Y-69854365D01*
X127296692Y-69854365D01*
X127296691Y-69854364D01*
X127296686Y-69854364D01*
X127070002Y-69834532D01*
X127069998Y-69834532D01*
X126843313Y-69854364D01*
X126843302Y-69854366D01*
X126623511Y-69913258D01*
X126623502Y-69913261D01*
X126417267Y-70009431D01*
X126417265Y-70009432D01*
X126230858Y-70139954D01*
X126069954Y-70300858D01*
X125939432Y-70487265D01*
X125939431Y-70487267D01*
X125843261Y-70693502D01*
X125843258Y-70693511D01*
X125784366Y-70913302D01*
X125784364Y-70913313D01*
X125764532Y-71139998D01*
X119273868Y-71139998D01*
X119281134Y-71111305D01*
X119293030Y-70967738D01*
X119300300Y-70880006D01*
X119300300Y-70879993D01*
X119281135Y-70648702D01*
X119281133Y-70648691D01*
X119224157Y-70423699D01*
X119130924Y-70211151D01*
X119003983Y-70016852D01*
X119003980Y-70016849D01*
X119003979Y-70016847D01*
X118846784Y-69846087D01*
X118846779Y-69846083D01*
X118846777Y-69846081D01*
X118663634Y-69703535D01*
X118663628Y-69703531D01*
X118459504Y-69593064D01*
X118459495Y-69593061D01*
X118239984Y-69517702D01*
X118052404Y-69486401D01*
X118011049Y-69479500D01*
X117778951Y-69479500D01*
X117737596Y-69486401D01*
X117550015Y-69517702D01*
X117330504Y-69593061D01*
X117330495Y-69593064D01*
X117126371Y-69703531D01*
X117126365Y-69703535D01*
X116943222Y-69846081D01*
X116943215Y-69846087D01*
X116934484Y-69855572D01*
X116874595Y-69891561D01*
X116804757Y-69889458D01*
X116747143Y-69849932D01*
X116727075Y-69814918D01*
X116698355Y-69737915D01*
X116698350Y-69737906D01*
X116612190Y-69622812D01*
X116612187Y-69622809D01*
X116497093Y-69536649D01*
X116497086Y-69536645D01*
X116362379Y-69486403D01*
X116362372Y-69486401D01*
X116302844Y-69480000D01*
X115605000Y-69480000D01*
X115605000Y-70504722D01*
X115528694Y-70460667D01*
X115414244Y-70430000D01*
X115295756Y-70430000D01*
X115181306Y-70460667D01*
X115105000Y-70504722D01*
X115105000Y-69480000D01*
X114407155Y-69480000D01*
X114347627Y-69486401D01*
X114347620Y-69486403D01*
X114212913Y-69536645D01*
X114212906Y-69536649D01*
X114097812Y-69622809D01*
X114097809Y-69622812D01*
X114011649Y-69737906D01*
X114011645Y-69737913D01*
X113961403Y-69872620D01*
X113961401Y-69872627D01*
X113955000Y-69932155D01*
X100500500Y-69932155D01*
X100500500Y-67499998D01*
X125844532Y-67499998D01*
X125844532Y-67500001D01*
X125864364Y-67726686D01*
X125864366Y-67726697D01*
X125923258Y-67946488D01*
X125923261Y-67946497D01*
X126019431Y-68152732D01*
X126019432Y-68152734D01*
X126149954Y-68339141D01*
X126310858Y-68500045D01*
X126310861Y-68500047D01*
X126497266Y-68630568D01*
X126703504Y-68726739D01*
X126923308Y-68785635D01*
X127085230Y-68799801D01*
X127149998Y-68805468D01*
X127150000Y-68805468D01*
X127150002Y-68805468D01*
X127206673Y-68800509D01*
X127376692Y-68785635D01*
X127596496Y-68726739D01*
X127802734Y-68630568D01*
X127989139Y-68500047D01*
X128150047Y-68339139D01*
X128280568Y-68152734D01*
X128376739Y-67946496D01*
X128435635Y-67726692D01*
X128455468Y-67500000D01*
X128455468Y-67499998D01*
X136004532Y-67499998D01*
X136004532Y-67500001D01*
X136024364Y-67726686D01*
X136024366Y-67726697D01*
X136083258Y-67946488D01*
X136083261Y-67946497D01*
X136179431Y-68152732D01*
X136179432Y-68152734D01*
X136309954Y-68339141D01*
X136470858Y-68500045D01*
X136470861Y-68500047D01*
X136657266Y-68630568D01*
X136863504Y-68726739D01*
X137083308Y-68785635D01*
X137245230Y-68799801D01*
X137309998Y-68805468D01*
X137310000Y-68805468D01*
X137310002Y-68805468D01*
X137366673Y-68800509D01*
X137536692Y-68785635D01*
X137756496Y-68726739D01*
X137962734Y-68630568D01*
X138149139Y-68500047D01*
X138310047Y-68339139D01*
X138440568Y-68152734D01*
X138536739Y-67946496D01*
X138595635Y-67726692D01*
X138615468Y-67500000D01*
X138595635Y-67273308D01*
X138536739Y-67053504D01*
X138440568Y-66847266D01*
X138310047Y-66660861D01*
X138310045Y-66660858D01*
X138149141Y-66499954D01*
X137962734Y-66369432D01*
X137962732Y-66369431D01*
X137756497Y-66273261D01*
X137756488Y-66273258D01*
X137536697Y-66214366D01*
X137536693Y-66214365D01*
X137536692Y-66214365D01*
X137536691Y-66214364D01*
X137536686Y-66214364D01*
X137310002Y-66194532D01*
X137309998Y-66194532D01*
X137083313Y-66214364D01*
X137083302Y-66214366D01*
X136863511Y-66273258D01*
X136863502Y-66273261D01*
X136657267Y-66369431D01*
X136657265Y-66369432D01*
X136470858Y-66499954D01*
X136309954Y-66660858D01*
X136179432Y-66847265D01*
X136179431Y-66847267D01*
X136083261Y-67053502D01*
X136083258Y-67053511D01*
X136024366Y-67273302D01*
X136024364Y-67273313D01*
X136004532Y-67499998D01*
X128455468Y-67499998D01*
X128435635Y-67273308D01*
X128376739Y-67053504D01*
X128280568Y-66847266D01*
X128150047Y-66660861D01*
X128150045Y-66660858D01*
X127989141Y-66499954D01*
X127802734Y-66369432D01*
X127802732Y-66369431D01*
X127596497Y-66273261D01*
X127596488Y-66273258D01*
X127376697Y-66214366D01*
X127376693Y-66214365D01*
X127376692Y-66214365D01*
X127376691Y-66214364D01*
X127376686Y-66214364D01*
X127150002Y-66194532D01*
X127149998Y-66194532D01*
X126923313Y-66214364D01*
X126923302Y-66214366D01*
X126703511Y-66273258D01*
X126703502Y-66273261D01*
X126497267Y-66369431D01*
X126497265Y-66369432D01*
X126310858Y-66499954D01*
X126149954Y-66660858D01*
X126019432Y-66847265D01*
X126019431Y-66847267D01*
X125923261Y-67053502D01*
X125923258Y-67053511D01*
X125864366Y-67273302D01*
X125864364Y-67273313D01*
X125844532Y-67499998D01*
X100500500Y-67499998D01*
X100500500Y-64019998D01*
X125764532Y-64019998D01*
X125764532Y-64020001D01*
X125784364Y-64246686D01*
X125784366Y-64246697D01*
X125843258Y-64466488D01*
X125843261Y-64466497D01*
X125939431Y-64672732D01*
X125939432Y-64672734D01*
X126069954Y-64859141D01*
X126230858Y-65020045D01*
X126230861Y-65020047D01*
X126417266Y-65150568D01*
X126623504Y-65246739D01*
X126843308Y-65305635D01*
X127005230Y-65319801D01*
X127069998Y-65325468D01*
X127070000Y-65325468D01*
X127070002Y-65325468D01*
X127126673Y-65320509D01*
X127296692Y-65305635D01*
X127516496Y-65246739D01*
X127722734Y-65150568D01*
X127909139Y-65020047D01*
X128070047Y-64859139D01*
X128200568Y-64672734D01*
X128296739Y-64466496D01*
X128355635Y-64246692D01*
X128375468Y-64020000D01*
X128375468Y-64019998D01*
X135924532Y-64019998D01*
X135924532Y-64020001D01*
X135944364Y-64246686D01*
X135944366Y-64246697D01*
X136003258Y-64466488D01*
X136003261Y-64466497D01*
X136099431Y-64672732D01*
X136099432Y-64672734D01*
X136229954Y-64859141D01*
X136390858Y-65020045D01*
X136390861Y-65020047D01*
X136577266Y-65150568D01*
X136783504Y-65246739D01*
X137003308Y-65305635D01*
X137165230Y-65319801D01*
X137229998Y-65325468D01*
X137230000Y-65325468D01*
X137230002Y-65325468D01*
X137286673Y-65320509D01*
X137456692Y-65305635D01*
X137676496Y-65246739D01*
X137882734Y-65150568D01*
X138069139Y-65020047D01*
X138230047Y-64859139D01*
X138360568Y-64672734D01*
X138456739Y-64466496D01*
X138515635Y-64246692D01*
X138535468Y-64020000D01*
X138515635Y-63793308D01*
X138456739Y-63573504D01*
X138360568Y-63367266D01*
X138230047Y-63180861D01*
X138230045Y-63180858D01*
X138069141Y-63019954D01*
X137882734Y-62889432D01*
X137882732Y-62889431D01*
X137676497Y-62793261D01*
X137676488Y-62793258D01*
X137456697Y-62734366D01*
X137456693Y-62734365D01*
X137456692Y-62734365D01*
X137456691Y-62734364D01*
X137456686Y-62734364D01*
X137230002Y-62714532D01*
X137229998Y-62714532D01*
X137003313Y-62734364D01*
X137003302Y-62734366D01*
X136783511Y-62793258D01*
X136783502Y-62793261D01*
X136577267Y-62889431D01*
X136577265Y-62889432D01*
X136390858Y-63019954D01*
X136229954Y-63180858D01*
X136099432Y-63367265D01*
X136099431Y-63367267D01*
X136003261Y-63573502D01*
X136003258Y-63573511D01*
X135944366Y-63793302D01*
X135944364Y-63793313D01*
X135924532Y-64019998D01*
X128375468Y-64019998D01*
X128355635Y-63793308D01*
X128296739Y-63573504D01*
X128200568Y-63367266D01*
X128070047Y-63180861D01*
X128070045Y-63180858D01*
X127909141Y-63019954D01*
X127722734Y-62889432D01*
X127722732Y-62889431D01*
X127516497Y-62793261D01*
X127516488Y-62793258D01*
X127296697Y-62734366D01*
X127296693Y-62734365D01*
X127296692Y-62734365D01*
X127296691Y-62734364D01*
X127296686Y-62734364D01*
X127070002Y-62714532D01*
X127069998Y-62714532D01*
X126843313Y-62734364D01*
X126843302Y-62734366D01*
X126623511Y-62793258D01*
X126623502Y-62793261D01*
X126417267Y-62889431D01*
X126417265Y-62889432D01*
X126230858Y-63019954D01*
X126069954Y-63180858D01*
X125939432Y-63367265D01*
X125939431Y-63367267D01*
X125843261Y-63573502D01*
X125843258Y-63573511D01*
X125784366Y-63793302D01*
X125784364Y-63793313D01*
X125764532Y-64019998D01*
X100500500Y-64019998D01*
X100500500Y-61402155D01*
X113825000Y-61402155D01*
X113825000Y-62100000D01*
X114849722Y-62100000D01*
X114805667Y-62176306D01*
X114775000Y-62290756D01*
X114775000Y-62409244D01*
X114805667Y-62523694D01*
X114849722Y-62600000D01*
X113825000Y-62600000D01*
X113825000Y-63297844D01*
X113831401Y-63357372D01*
X113831403Y-63357379D01*
X113881645Y-63492086D01*
X113881649Y-63492093D01*
X113967809Y-63607187D01*
X113967812Y-63607190D01*
X114082906Y-63693350D01*
X114082913Y-63693354D01*
X114217620Y-63743596D01*
X114217627Y-63743598D01*
X114277155Y-63749999D01*
X114277172Y-63750000D01*
X114975000Y-63750000D01*
X114975000Y-62725277D01*
X115051306Y-62769333D01*
X115165756Y-62800000D01*
X115284244Y-62800000D01*
X115398694Y-62769333D01*
X115475000Y-62725277D01*
X115475000Y-63750000D01*
X116172828Y-63750000D01*
X116172844Y-63749999D01*
X116232372Y-63743598D01*
X116232379Y-63743596D01*
X116367086Y-63693354D01*
X116367093Y-63693350D01*
X116482187Y-63607190D01*
X116482190Y-63607187D01*
X116568350Y-63492093D01*
X116568355Y-63492084D01*
X116597075Y-63415081D01*
X116638945Y-63359147D01*
X116704409Y-63334729D01*
X116772682Y-63349580D01*
X116804484Y-63374428D01*
X116813216Y-63383913D01*
X116813219Y-63383915D01*
X116813222Y-63383918D01*
X116996365Y-63526464D01*
X116996371Y-63526468D01*
X116996374Y-63526470D01*
X117083285Y-63573504D01*
X117186464Y-63629342D01*
X117200497Y-63636936D01*
X117314487Y-63676068D01*
X117420015Y-63712297D01*
X117420017Y-63712297D01*
X117420019Y-63712298D01*
X117648951Y-63750500D01*
X117648952Y-63750500D01*
X117881048Y-63750500D01*
X117881049Y-63750500D01*
X118109981Y-63712298D01*
X118329503Y-63636936D01*
X118533626Y-63526470D01*
X118540048Y-63521472D01*
X118676739Y-63415081D01*
X118716784Y-63383913D01*
X118873979Y-63213153D01*
X119000924Y-63018849D01*
X119094157Y-62806300D01*
X119151134Y-62581305D01*
X119155908Y-62523694D01*
X119170300Y-62350006D01*
X119170300Y-62349993D01*
X119151135Y-62118702D01*
X119151133Y-62118691D01*
X119094157Y-61893699D01*
X119000924Y-61681151D01*
X118873983Y-61486852D01*
X118873980Y-61486849D01*
X118873979Y-61486847D01*
X118716784Y-61316087D01*
X118716779Y-61316083D01*
X118716777Y-61316081D01*
X118533634Y-61173535D01*
X118533628Y-61173531D01*
X118329504Y-61063064D01*
X118329495Y-61063061D01*
X118109984Y-60987702D01*
X117900417Y-60952732D01*
X117881049Y-60949500D01*
X117648951Y-60949500D01*
X117629583Y-60952732D01*
X117420015Y-60987702D01*
X117200504Y-61063061D01*
X117200495Y-61063064D01*
X116996371Y-61173531D01*
X116996365Y-61173535D01*
X116813222Y-61316081D01*
X116813215Y-61316087D01*
X116804484Y-61325572D01*
X116744595Y-61361561D01*
X116674757Y-61359458D01*
X116617143Y-61319932D01*
X116597075Y-61284918D01*
X116568355Y-61207915D01*
X116568350Y-61207906D01*
X116482190Y-61092812D01*
X116482187Y-61092809D01*
X116367093Y-61006649D01*
X116367086Y-61006645D01*
X116232379Y-60956403D01*
X116232372Y-60956401D01*
X116172844Y-60950000D01*
X115475000Y-60950000D01*
X115475000Y-61974722D01*
X115398694Y-61930667D01*
X115284244Y-61900000D01*
X115165756Y-61900000D01*
X115051306Y-61930667D01*
X114975000Y-61974722D01*
X114975000Y-60950000D01*
X114277155Y-60950000D01*
X114217627Y-60956401D01*
X114217620Y-60956403D01*
X114082913Y-61006645D01*
X114082906Y-61006649D01*
X113967812Y-61092809D01*
X113967809Y-61092812D01*
X113881649Y-61207906D01*
X113881645Y-61207913D01*
X113831403Y-61342620D01*
X113831401Y-61342627D01*
X113825000Y-61402155D01*
X100500500Y-61402155D01*
X100500500Y-60299998D01*
X125844532Y-60299998D01*
X125844532Y-60300001D01*
X125864364Y-60526686D01*
X125864366Y-60526697D01*
X125923258Y-60746488D01*
X125923261Y-60746497D01*
X126019431Y-60952732D01*
X126019432Y-60952734D01*
X126149954Y-61139141D01*
X126310858Y-61300045D01*
X126310861Y-61300047D01*
X126497266Y-61430568D01*
X126703504Y-61526739D01*
X126923308Y-61585635D01*
X127085230Y-61599801D01*
X127149998Y-61605468D01*
X127150000Y-61605468D01*
X127150002Y-61605468D01*
X127206673Y-61600509D01*
X127376692Y-61585635D01*
X127596496Y-61526739D01*
X127802734Y-61430568D01*
X127989139Y-61300047D01*
X128150047Y-61139139D01*
X128280568Y-60952734D01*
X128376739Y-60746496D01*
X128435635Y-60526692D01*
X128455468Y-60300000D01*
X128455468Y-60299998D01*
X136004532Y-60299998D01*
X136004532Y-60300001D01*
X136024364Y-60526686D01*
X136024366Y-60526697D01*
X136083258Y-60746488D01*
X136083261Y-60746497D01*
X136179431Y-60952732D01*
X136179432Y-60952734D01*
X136309954Y-61139141D01*
X136470858Y-61300045D01*
X136470861Y-61300047D01*
X136657266Y-61430568D01*
X136863504Y-61526739D01*
X137083308Y-61585635D01*
X137245230Y-61599801D01*
X137309998Y-61605468D01*
X137310000Y-61605468D01*
X137310002Y-61605468D01*
X137366673Y-61600509D01*
X137536692Y-61585635D01*
X137756496Y-61526739D01*
X137962734Y-61430568D01*
X138149139Y-61300047D01*
X138310047Y-61139139D01*
X138440568Y-60952734D01*
X138536739Y-60746496D01*
X138595635Y-60526692D01*
X138615468Y-60300000D01*
X138613589Y-60278528D01*
X138609801Y-60235230D01*
X138595635Y-60073308D01*
X138536739Y-59853504D01*
X138440568Y-59647266D01*
X138310047Y-59460861D01*
X138310045Y-59460858D01*
X138149141Y-59299954D01*
X137962734Y-59169432D01*
X137962732Y-59169431D01*
X137756497Y-59073261D01*
X137756488Y-59073258D01*
X137536697Y-59014366D01*
X137536693Y-59014365D01*
X137536692Y-59014365D01*
X137536691Y-59014364D01*
X137536686Y-59014364D01*
X137310002Y-58994532D01*
X137309998Y-58994532D01*
X137083313Y-59014364D01*
X137083302Y-59014366D01*
X136863511Y-59073258D01*
X136863502Y-59073261D01*
X136657267Y-59169431D01*
X136657265Y-59169432D01*
X136470858Y-59299954D01*
X136309954Y-59460858D01*
X136179432Y-59647265D01*
X136179431Y-59647267D01*
X136083261Y-59853502D01*
X136083258Y-59853511D01*
X136024366Y-60073302D01*
X136024364Y-60073313D01*
X136004532Y-60299998D01*
X128455468Y-60299998D01*
X128453589Y-60278528D01*
X128449801Y-60235230D01*
X128435635Y-60073308D01*
X128376739Y-59853504D01*
X128280568Y-59647266D01*
X128150047Y-59460861D01*
X128150045Y-59460858D01*
X127989141Y-59299954D01*
X127802734Y-59169432D01*
X127802732Y-59169431D01*
X127596497Y-59073261D01*
X127596488Y-59073258D01*
X127376697Y-59014366D01*
X127376693Y-59014365D01*
X127376692Y-59014365D01*
X127376691Y-59014364D01*
X127376686Y-59014364D01*
X127150002Y-58994532D01*
X127149998Y-58994532D01*
X126923313Y-59014364D01*
X126923302Y-59014366D01*
X126703511Y-59073258D01*
X126703502Y-59073261D01*
X126497267Y-59169431D01*
X126497265Y-59169432D01*
X126310858Y-59299954D01*
X126149954Y-59460858D01*
X126019432Y-59647265D01*
X126019431Y-59647267D01*
X125923261Y-59853502D01*
X125923258Y-59853511D01*
X125864366Y-60073302D01*
X125864364Y-60073313D01*
X125844532Y-60299998D01*
X100500500Y-60299998D01*
X100500500Y-56979998D01*
X125764532Y-56979998D01*
X125764532Y-56980001D01*
X125784364Y-57206686D01*
X125784366Y-57206697D01*
X125843258Y-57426488D01*
X125843261Y-57426497D01*
X125939431Y-57632732D01*
X125939432Y-57632734D01*
X126069954Y-57819141D01*
X126230858Y-57980045D01*
X126230861Y-57980047D01*
X126417266Y-58110568D01*
X126623504Y-58206739D01*
X126843308Y-58265635D01*
X126990676Y-58278528D01*
X127069998Y-58285468D01*
X127070000Y-58285468D01*
X127070002Y-58285468D01*
X127149324Y-58278528D01*
X127296692Y-58265635D01*
X127516496Y-58206739D01*
X127722734Y-58110568D01*
X127909139Y-57980047D01*
X128070047Y-57819139D01*
X128200568Y-57632734D01*
X128296739Y-57426496D01*
X128355635Y-57206692D01*
X128375468Y-56980000D01*
X128375468Y-56979998D01*
X135924532Y-56979998D01*
X135924532Y-56980001D01*
X135944364Y-57206686D01*
X135944366Y-57206697D01*
X136003258Y-57426488D01*
X136003261Y-57426497D01*
X136099431Y-57632732D01*
X136099432Y-57632734D01*
X136229954Y-57819141D01*
X136390858Y-57980045D01*
X136390861Y-57980047D01*
X136577266Y-58110568D01*
X136783504Y-58206739D01*
X137003308Y-58265635D01*
X137150676Y-58278528D01*
X137229998Y-58285468D01*
X137230000Y-58285468D01*
X137230002Y-58285468D01*
X137309324Y-58278528D01*
X137456692Y-58265635D01*
X137676496Y-58206739D01*
X137882734Y-58110568D01*
X138069139Y-57980047D01*
X138230047Y-57819139D01*
X138360568Y-57632734D01*
X138456739Y-57426496D01*
X138515635Y-57206692D01*
X138535468Y-56980000D01*
X138515635Y-56753308D01*
X138456739Y-56533504D01*
X138360568Y-56327266D01*
X138230047Y-56140861D01*
X138230045Y-56140858D01*
X138069141Y-55979954D01*
X137882734Y-55849432D01*
X137882732Y-55849431D01*
X137676497Y-55753261D01*
X137676488Y-55753258D01*
X137456697Y-55694366D01*
X137456693Y-55694365D01*
X137456692Y-55694365D01*
X137456691Y-55694364D01*
X137456686Y-55694364D01*
X137230002Y-55674532D01*
X137229998Y-55674532D01*
X137003313Y-55694364D01*
X137003302Y-55694366D01*
X136783511Y-55753258D01*
X136783502Y-55753261D01*
X136577267Y-55849431D01*
X136577265Y-55849432D01*
X136390858Y-55979954D01*
X136229954Y-56140858D01*
X136099432Y-56327265D01*
X136099431Y-56327267D01*
X136003261Y-56533502D01*
X136003258Y-56533511D01*
X135944366Y-56753302D01*
X135944364Y-56753313D01*
X135924532Y-56979998D01*
X128375468Y-56979998D01*
X128355635Y-56753308D01*
X128296739Y-56533504D01*
X128200568Y-56327266D01*
X128070047Y-56140861D01*
X128070045Y-56140858D01*
X127909141Y-55979954D01*
X127722734Y-55849432D01*
X127722732Y-55849431D01*
X127516497Y-55753261D01*
X127516488Y-55753258D01*
X127296697Y-55694366D01*
X127296693Y-55694365D01*
X127296692Y-55694365D01*
X127296691Y-55694364D01*
X127296686Y-55694364D01*
X127070002Y-55674532D01*
X127069998Y-55674532D01*
X126843313Y-55694364D01*
X126843302Y-55694366D01*
X126623511Y-55753258D01*
X126623502Y-55753261D01*
X126417267Y-55849431D01*
X126417265Y-55849432D01*
X126230858Y-55979954D01*
X126069954Y-56140858D01*
X125939432Y-56327265D01*
X125939431Y-56327267D01*
X125843261Y-56533502D01*
X125843258Y-56533511D01*
X125784366Y-56753302D01*
X125784364Y-56753313D01*
X125764532Y-56979998D01*
X100500500Y-56979998D01*
X100500500Y-54342155D01*
X113955000Y-54342155D01*
X113955000Y-55040000D01*
X114979722Y-55040000D01*
X114935667Y-55116306D01*
X114905000Y-55230756D01*
X114905000Y-55349244D01*
X114935667Y-55463694D01*
X114979722Y-55540000D01*
X113955000Y-55540000D01*
X113955000Y-56237844D01*
X113961401Y-56297372D01*
X113961403Y-56297379D01*
X114011645Y-56432086D01*
X114011649Y-56432093D01*
X114097809Y-56547187D01*
X114097812Y-56547190D01*
X114212906Y-56633350D01*
X114212913Y-56633354D01*
X114347620Y-56683596D01*
X114347627Y-56683598D01*
X114407155Y-56689999D01*
X114407172Y-56690000D01*
X115105000Y-56690000D01*
X115105000Y-55665277D01*
X115181306Y-55709333D01*
X115295756Y-55740000D01*
X115414244Y-55740000D01*
X115528694Y-55709333D01*
X115605000Y-55665277D01*
X115605000Y-56690000D01*
X116302828Y-56690000D01*
X116302844Y-56689999D01*
X116362372Y-56683598D01*
X116362379Y-56683596D01*
X116497086Y-56633354D01*
X116497093Y-56633350D01*
X116612187Y-56547190D01*
X116612190Y-56547187D01*
X116698350Y-56432093D01*
X116698355Y-56432084D01*
X116727075Y-56355081D01*
X116768945Y-56299147D01*
X116834409Y-56274729D01*
X116902682Y-56289580D01*
X116934484Y-56314428D01*
X116943216Y-56323913D01*
X116943219Y-56323915D01*
X116943222Y-56323918D01*
X117126365Y-56466464D01*
X117126371Y-56466468D01*
X117126374Y-56466470D01*
X117330497Y-56576936D01*
X117444487Y-56616068D01*
X117550015Y-56652297D01*
X117550017Y-56652297D01*
X117550019Y-56652298D01*
X117778951Y-56690500D01*
X117778952Y-56690500D01*
X118011048Y-56690500D01*
X118011049Y-56690500D01*
X118239981Y-56652298D01*
X118459503Y-56576936D01*
X118663626Y-56466470D01*
X118846784Y-56323913D01*
X119003979Y-56153153D01*
X119130924Y-55958849D01*
X119224157Y-55746300D01*
X119281134Y-55521305D01*
X119300300Y-55290000D01*
X119300300Y-55289993D01*
X119281135Y-55058702D01*
X119281133Y-55058691D01*
X119240947Y-54899999D01*
X161689464Y-54899999D01*
X161689464Y-54900000D01*
X161709564Y-55116918D01*
X161769184Y-55326462D01*
X161866288Y-55521472D01*
X161997574Y-55695324D01*
X162121944Y-55808701D01*
X162158226Y-55868412D01*
X162156465Y-55938259D01*
X162121944Y-55991975D01*
X161997945Y-56105013D01*
X161866715Y-56278791D01*
X161769651Y-56473719D01*
X161719494Y-56649999D01*
X161719495Y-56650000D01*
X162554314Y-56650000D01*
X162549920Y-56654394D01*
X162497259Y-56745606D01*
X162470000Y-56847339D01*
X162470000Y-56952661D01*
X162497259Y-57054394D01*
X162549920Y-57145606D01*
X162554314Y-57150000D01*
X161719495Y-57150000D01*
X161769651Y-57326280D01*
X161866715Y-57521208D01*
X161997943Y-57694982D01*
X162121944Y-57808023D01*
X162158225Y-57867734D01*
X162156465Y-57937582D01*
X162121944Y-57991298D01*
X161997574Y-58104675D01*
X161866288Y-58278527D01*
X161769184Y-58473537D01*
X161709564Y-58683081D01*
X161689464Y-58899999D01*
X161689464Y-58900000D01*
X161709564Y-59116918D01*
X161709564Y-59116920D01*
X161709565Y-59116923D01*
X161761642Y-59299954D01*
X161769184Y-59326462D01*
X161866288Y-59521472D01*
X161997574Y-59695324D01*
X162121572Y-59808363D01*
X162157854Y-59868074D01*
X162156093Y-59937922D01*
X162121572Y-59991637D01*
X161997574Y-60104675D01*
X161866288Y-60278527D01*
X161769184Y-60473537D01*
X161709564Y-60683081D01*
X161689464Y-60899999D01*
X161689464Y-60900000D01*
X161709564Y-61116918D01*
X161709564Y-61116920D01*
X161709565Y-61116923D01*
X161757364Y-61284918D01*
X161769184Y-61326462D01*
X161866288Y-61521472D01*
X161997574Y-61695324D01*
X162121572Y-61808363D01*
X162157854Y-61868074D01*
X162156093Y-61937922D01*
X162121572Y-61991637D01*
X161997574Y-62104675D01*
X161866288Y-62278527D01*
X161769184Y-62473537D01*
X161709564Y-62683081D01*
X161689464Y-62899999D01*
X161689464Y-62900000D01*
X161709564Y-63116918D01*
X161709564Y-63116920D01*
X161709565Y-63116923D01*
X161769183Y-63326459D01*
X161769184Y-63326462D01*
X161866288Y-63521472D01*
X161947747Y-63629341D01*
X161972439Y-63694702D01*
X161957874Y-63763037D01*
X161923105Y-63803334D01*
X161837452Y-63867455D01*
X161751206Y-63982664D01*
X161751202Y-63982671D01*
X161700908Y-64117517D01*
X161694501Y-64177116D01*
X161694501Y-64177123D01*
X161694500Y-64177135D01*
X161694500Y-65622870D01*
X161694501Y-65622876D01*
X161700908Y-65682483D01*
X161751202Y-65817328D01*
X161751206Y-65817335D01*
X161837452Y-65932544D01*
X161837455Y-65932547D01*
X161952664Y-66018793D01*
X161952671Y-66018797D01*
X162087517Y-66069091D01*
X162087516Y-66069091D01*
X162094444Y-66069835D01*
X162147127Y-66075500D01*
X163592872Y-66075499D01*
X163652483Y-66069091D01*
X163787331Y-66018796D01*
X163902546Y-65932546D01*
X163988796Y-65817331D01*
X164039091Y-65682483D01*
X164045500Y-65622873D01*
X164045499Y-64177128D01*
X164039091Y-64117517D01*
X163988796Y-63982669D01*
X163988795Y-63982668D01*
X163988793Y-63982664D01*
X163902547Y-63867455D01*
X163902544Y-63867452D01*
X163816895Y-63803335D01*
X163775024Y-63747402D01*
X163770040Y-63677710D01*
X163792251Y-63629344D01*
X163873712Y-63521472D01*
X163970817Y-63326459D01*
X164030435Y-63116923D01*
X164050536Y-62900000D01*
X164030435Y-62683077D01*
X163970817Y-62473541D01*
X163873712Y-62278528D01*
X163742427Y-62104678D01*
X163618423Y-61991634D01*
X163582145Y-61931927D01*
X163583905Y-61862079D01*
X163618423Y-61808365D01*
X163742427Y-61695322D01*
X163873712Y-61521472D01*
X163970817Y-61326459D01*
X164030435Y-61116923D01*
X164050536Y-60900000D01*
X164030435Y-60683077D01*
X163970817Y-60473541D01*
X163873712Y-60278528D01*
X163742427Y-60104678D01*
X163618423Y-59991634D01*
X163582145Y-59931927D01*
X163583905Y-59862079D01*
X163618423Y-59808365D01*
X163742427Y-59695322D01*
X163873712Y-59521472D01*
X163970817Y-59326459D01*
X164030435Y-59116923D01*
X164050536Y-58900000D01*
X164030435Y-58683077D01*
X163970817Y-58473541D01*
X163873712Y-58278528D01*
X163742427Y-58104678D01*
X163742425Y-58104675D01*
X163618055Y-57991298D01*
X163581773Y-57931587D01*
X163583534Y-57861740D01*
X163618056Y-57808023D01*
X163742054Y-57694985D01*
X163873284Y-57521208D01*
X163970348Y-57326280D01*
X164020505Y-57150000D01*
X163185686Y-57150000D01*
X163190080Y-57145606D01*
X163242741Y-57054394D01*
X163270000Y-56952661D01*
X163270000Y-56847339D01*
X163242741Y-56745606D01*
X163190080Y-56654394D01*
X163185686Y-56650000D01*
X164020505Y-56650000D01*
X164020505Y-56649999D01*
X163970348Y-56473719D01*
X163873284Y-56278791D01*
X163742056Y-56105017D01*
X163618055Y-55991976D01*
X163581774Y-55932265D01*
X163583534Y-55862417D01*
X163618052Y-55808704D01*
X163742427Y-55695322D01*
X163873712Y-55521472D01*
X163970817Y-55326459D01*
X164030435Y-55116923D01*
X164050536Y-54900000D01*
X164030435Y-54683077D01*
X163970817Y-54473541D01*
X163873712Y-54278528D01*
X163742427Y-54104678D01*
X163703442Y-54069139D01*
X163581433Y-53957913D01*
X163581423Y-53957906D01*
X163396213Y-53843229D01*
X163396207Y-53843226D01*
X163311113Y-53810260D01*
X163193069Y-53764530D01*
X162978926Y-53724500D01*
X162761074Y-53724500D01*
X162546931Y-53764530D01*
X162498130Y-53783435D01*
X162343792Y-53843226D01*
X162343786Y-53843229D01*
X162158576Y-53957906D01*
X162158566Y-53957913D01*
X161997574Y-54104676D01*
X161866288Y-54278527D01*
X161769184Y-54473537D01*
X161709564Y-54683081D01*
X161689464Y-54899999D01*
X119240947Y-54899999D01*
X119224157Y-54833699D01*
X119130924Y-54621151D01*
X119003983Y-54426852D01*
X119003980Y-54426849D01*
X119003979Y-54426847D01*
X118846784Y-54256087D01*
X118846779Y-54256083D01*
X118846777Y-54256081D01*
X118663634Y-54113535D01*
X118663628Y-54113531D01*
X118459504Y-54003064D01*
X118459495Y-54003061D01*
X118239984Y-53927702D01*
X118052404Y-53896401D01*
X118011049Y-53889500D01*
X117778951Y-53889500D01*
X117737596Y-53896401D01*
X117550015Y-53927702D01*
X117330504Y-54003061D01*
X117330495Y-54003064D01*
X117126371Y-54113531D01*
X117126365Y-54113535D01*
X116943222Y-54256081D01*
X116943215Y-54256087D01*
X116934484Y-54265572D01*
X116874595Y-54301561D01*
X116804757Y-54299458D01*
X116747143Y-54259932D01*
X116727075Y-54224918D01*
X116698355Y-54147915D01*
X116698350Y-54147906D01*
X116612190Y-54032812D01*
X116612187Y-54032809D01*
X116497093Y-53946649D01*
X116497086Y-53946645D01*
X116362379Y-53896403D01*
X116362372Y-53896401D01*
X116302844Y-53890000D01*
X115605000Y-53890000D01*
X115605000Y-54914722D01*
X115528694Y-54870667D01*
X115414244Y-54840000D01*
X115295756Y-54840000D01*
X115181306Y-54870667D01*
X115105000Y-54914722D01*
X115105000Y-53890000D01*
X114407155Y-53890000D01*
X114347627Y-53896401D01*
X114347620Y-53896403D01*
X114212913Y-53946645D01*
X114212906Y-53946649D01*
X114097812Y-54032809D01*
X114097809Y-54032812D01*
X114011649Y-54147906D01*
X114011645Y-54147913D01*
X113961403Y-54282620D01*
X113961401Y-54282627D01*
X113955000Y-54342155D01*
X100500500Y-54342155D01*
X100500500Y-53229998D01*
X125634532Y-53229998D01*
X125634532Y-53230001D01*
X125654364Y-53456686D01*
X125654366Y-53456697D01*
X125713258Y-53676488D01*
X125713261Y-53676497D01*
X125809431Y-53882732D01*
X125809432Y-53882734D01*
X125939954Y-54069141D01*
X126100858Y-54230045D01*
X126100861Y-54230047D01*
X126287266Y-54360568D01*
X126493504Y-54456739D01*
X126713308Y-54515635D01*
X126875230Y-54529801D01*
X126939998Y-54535468D01*
X126940000Y-54535468D01*
X126940002Y-54535468D01*
X126996673Y-54530509D01*
X127166692Y-54515635D01*
X127386496Y-54456739D01*
X127592734Y-54360568D01*
X127779139Y-54230047D01*
X127940047Y-54069139D01*
X128070568Y-53882734D01*
X128166739Y-53676496D01*
X128225635Y-53456692D01*
X128245468Y-53230000D01*
X128245468Y-53229998D01*
X135794532Y-53229998D01*
X135794532Y-53230001D01*
X135814364Y-53456686D01*
X135814366Y-53456697D01*
X135873258Y-53676488D01*
X135873261Y-53676497D01*
X135969431Y-53882732D01*
X135969432Y-53882734D01*
X136099954Y-54069141D01*
X136260858Y-54230045D01*
X136260861Y-54230047D01*
X136447266Y-54360568D01*
X136653504Y-54456739D01*
X136873308Y-54515635D01*
X137035230Y-54529801D01*
X137099998Y-54535468D01*
X137100000Y-54535468D01*
X137100002Y-54535468D01*
X137156673Y-54530509D01*
X137326692Y-54515635D01*
X137546496Y-54456739D01*
X137752734Y-54360568D01*
X137939139Y-54230047D01*
X138100047Y-54069139D01*
X138230568Y-53882734D01*
X138326739Y-53676496D01*
X138385635Y-53456692D01*
X138405468Y-53230000D01*
X138385635Y-53003308D01*
X138326739Y-52783504D01*
X138230568Y-52577266D01*
X138100047Y-52390861D01*
X138100045Y-52390858D01*
X137939141Y-52229954D01*
X137752734Y-52099432D01*
X137752732Y-52099431D01*
X137546497Y-52003261D01*
X137546488Y-52003258D01*
X137326697Y-51944366D01*
X137326693Y-51944365D01*
X137326692Y-51944365D01*
X137326691Y-51944364D01*
X137326686Y-51944364D01*
X137100002Y-51924532D01*
X137099998Y-51924532D01*
X136873313Y-51944364D01*
X136873302Y-51944366D01*
X136653511Y-52003258D01*
X136653502Y-52003261D01*
X136447267Y-52099431D01*
X136447265Y-52099432D01*
X136260858Y-52229954D01*
X136099954Y-52390858D01*
X135969432Y-52577265D01*
X135969431Y-52577267D01*
X135873261Y-52783502D01*
X135873258Y-52783511D01*
X135814366Y-53003302D01*
X135814364Y-53003313D01*
X135794532Y-53229998D01*
X128245468Y-53229998D01*
X128225635Y-53003308D01*
X128166739Y-52783504D01*
X128070568Y-52577266D01*
X127940047Y-52390861D01*
X127940045Y-52390858D01*
X127779141Y-52229954D01*
X127592734Y-52099432D01*
X127592732Y-52099431D01*
X127386497Y-52003261D01*
X127386488Y-52003258D01*
X127166697Y-51944366D01*
X127166693Y-51944365D01*
X127166692Y-51944365D01*
X127166691Y-51944364D01*
X127166686Y-51944364D01*
X126940002Y-51924532D01*
X126939998Y-51924532D01*
X126713313Y-51944364D01*
X126713302Y-51944366D01*
X126493511Y-52003258D01*
X126493502Y-52003261D01*
X126287267Y-52099431D01*
X126287265Y-52099432D01*
X126100858Y-52229954D01*
X125939954Y-52390858D01*
X125809432Y-52577265D01*
X125809431Y-52577267D01*
X125713261Y-52783502D01*
X125713258Y-52783511D01*
X125654366Y-53003302D01*
X125654364Y-53003313D01*
X125634532Y-53229998D01*
X100500500Y-53229998D01*
X100500500Y-48302135D01*
X117445500Y-48302135D01*
X117445500Y-50097870D01*
X117445501Y-50097876D01*
X117451908Y-50157483D01*
X117502202Y-50292328D01*
X117502206Y-50292335D01*
X117588452Y-50407544D01*
X117588455Y-50407547D01*
X117703664Y-50493793D01*
X117703671Y-50493797D01*
X117838517Y-50544091D01*
X117838516Y-50544091D01*
X117845444Y-50544835D01*
X117898127Y-50550500D01*
X119693872Y-50550499D01*
X119753483Y-50544091D01*
X119888331Y-50493796D01*
X120003546Y-50407546D01*
X120089796Y-50292331D01*
X120138810Y-50160916D01*
X120180681Y-50104984D01*
X120246145Y-50080566D01*
X120314418Y-50095417D01*
X120342673Y-50116569D01*
X120464599Y-50238495D01*
X120561384Y-50306265D01*
X120658165Y-50374032D01*
X120658167Y-50374033D01*
X120658170Y-50374035D01*
X120872337Y-50473903D01*
X121100592Y-50535063D01*
X121277034Y-50550500D01*
X121335999Y-50555659D01*
X121336000Y-50555659D01*
X121336001Y-50555659D01*
X121394966Y-50550500D01*
X121571408Y-50535063D01*
X121799663Y-50473903D01*
X122013830Y-50374035D01*
X122207401Y-50238495D01*
X122374495Y-50071401D01*
X122504425Y-49885842D01*
X122559002Y-49842217D01*
X122628500Y-49835023D01*
X122690855Y-49866546D01*
X122707575Y-49885842D01*
X122837500Y-50071395D01*
X122837505Y-50071401D01*
X123004599Y-50238495D01*
X123101384Y-50306265D01*
X123198165Y-50374032D01*
X123198167Y-50374033D01*
X123198170Y-50374035D01*
X123412337Y-50473903D01*
X123640592Y-50535063D01*
X123817034Y-50550500D01*
X123875999Y-50555659D01*
X123876000Y-50555659D01*
X123876001Y-50555659D01*
X123934966Y-50550500D01*
X124111408Y-50535063D01*
X124339663Y-50473903D01*
X124553830Y-50374035D01*
X124747401Y-50238495D01*
X124914495Y-50071401D01*
X125044730Y-49885405D01*
X125099307Y-49841781D01*
X125168805Y-49834587D01*
X125231160Y-49866110D01*
X125247879Y-49885405D01*
X125377890Y-50071078D01*
X125544917Y-50238105D01*
X125738421Y-50373600D01*
X125952507Y-50473429D01*
X125952516Y-50473433D01*
X126166000Y-50530634D01*
X126166000Y-49633012D01*
X126223007Y-49665925D01*
X126350174Y-49700000D01*
X126481826Y-49700000D01*
X126608993Y-49665925D01*
X126666000Y-49633012D01*
X126666000Y-50530633D01*
X126879483Y-50473433D01*
X126879492Y-50473429D01*
X127093578Y-50373600D01*
X127287082Y-50238105D01*
X127454105Y-50071082D01*
X127584119Y-49885405D01*
X127638696Y-49841781D01*
X127708195Y-49834588D01*
X127770549Y-49866110D01*
X127787269Y-49885405D01*
X127917505Y-50071401D01*
X128084599Y-50238495D01*
X128181384Y-50306265D01*
X128278165Y-50374032D01*
X128278167Y-50374033D01*
X128278170Y-50374035D01*
X128492337Y-50473903D01*
X128720592Y-50535063D01*
X128897034Y-50550500D01*
X128955999Y-50555659D01*
X128956000Y-50555659D01*
X128956001Y-50555659D01*
X129014966Y-50550500D01*
X129191408Y-50535063D01*
X129419663Y-50473903D01*
X129633830Y-50374035D01*
X129827401Y-50238495D01*
X129994495Y-50071401D01*
X130124425Y-49885842D01*
X130179002Y-49842217D01*
X130248500Y-49835023D01*
X130310855Y-49866546D01*
X130327575Y-49885842D01*
X130457500Y-50071395D01*
X130457505Y-50071401D01*
X130624599Y-50238495D01*
X130721384Y-50306265D01*
X130818165Y-50374032D01*
X130818167Y-50374033D01*
X130818170Y-50374035D01*
X131032337Y-50473903D01*
X131260592Y-50535063D01*
X131437034Y-50550500D01*
X131495999Y-50555659D01*
X131496000Y-50555659D01*
X131496001Y-50555659D01*
X131554966Y-50550500D01*
X131731408Y-50535063D01*
X131959663Y-50473903D01*
X132173830Y-50374035D01*
X132367401Y-50238495D01*
X132534495Y-50071401D01*
X132664425Y-49885842D01*
X132719002Y-49842217D01*
X132788500Y-49835023D01*
X132850855Y-49866546D01*
X132867575Y-49885842D01*
X132997500Y-50071395D01*
X132997505Y-50071401D01*
X133164599Y-50238495D01*
X133261384Y-50306265D01*
X133358165Y-50374032D01*
X133358167Y-50374033D01*
X133358170Y-50374035D01*
X133572337Y-50473903D01*
X133800592Y-50535063D01*
X133977034Y-50550500D01*
X134035999Y-50555659D01*
X134036000Y-50555659D01*
X134036001Y-50555659D01*
X134094966Y-50550500D01*
X134271408Y-50535063D01*
X134499663Y-50473903D01*
X134713830Y-50374035D01*
X134907401Y-50238495D01*
X135074495Y-50071401D01*
X135204425Y-49885842D01*
X135259002Y-49842217D01*
X135328500Y-49835023D01*
X135390855Y-49866546D01*
X135407575Y-49885842D01*
X135537500Y-50071395D01*
X135537505Y-50071401D01*
X135704599Y-50238495D01*
X135801384Y-50306265D01*
X135898165Y-50374032D01*
X135898167Y-50374033D01*
X135898170Y-50374035D01*
X136112337Y-50473903D01*
X136340592Y-50535063D01*
X136517034Y-50550500D01*
X136575999Y-50555659D01*
X136576000Y-50555659D01*
X136576001Y-50555659D01*
X136634966Y-50550500D01*
X136811408Y-50535063D01*
X137039663Y-50473903D01*
X137253830Y-50374035D01*
X137447401Y-50238495D01*
X137614495Y-50071401D01*
X137744425Y-49885842D01*
X137799002Y-49842217D01*
X137868500Y-49835023D01*
X137930855Y-49866546D01*
X137947575Y-49885842D01*
X138077500Y-50071395D01*
X138077505Y-50071401D01*
X138244599Y-50238495D01*
X138341384Y-50306265D01*
X138438165Y-50374032D01*
X138438167Y-50374033D01*
X138438170Y-50374035D01*
X138652337Y-50473903D01*
X138880592Y-50535063D01*
X139057034Y-50550500D01*
X139115999Y-50555659D01*
X139116000Y-50555659D01*
X139116001Y-50555659D01*
X139174966Y-50550500D01*
X139351408Y-50535063D01*
X139579663Y-50473903D01*
X139793830Y-50374035D01*
X139987401Y-50238495D01*
X140154495Y-50071401D01*
X140284425Y-49885842D01*
X140339002Y-49842217D01*
X140408500Y-49835023D01*
X140470855Y-49866546D01*
X140487575Y-49885842D01*
X140617500Y-50071395D01*
X140617505Y-50071401D01*
X140784599Y-50238495D01*
X140881384Y-50306265D01*
X140978165Y-50374032D01*
X140978167Y-50374033D01*
X140978170Y-50374035D01*
X141192337Y-50473903D01*
X141420592Y-50535063D01*
X141597034Y-50550500D01*
X141655999Y-50555659D01*
X141656000Y-50555659D01*
X141656001Y-50555659D01*
X141714966Y-50550500D01*
X141891408Y-50535063D01*
X142119663Y-50473903D01*
X142333830Y-50374035D01*
X142527401Y-50238495D01*
X142694495Y-50071401D01*
X142830035Y-49877830D01*
X142929903Y-49663663D01*
X142991063Y-49435408D01*
X143011659Y-49200000D01*
X142991063Y-48964592D01*
X142929903Y-48736337D01*
X142830035Y-48522171D01*
X142824731Y-48514595D01*
X142694494Y-48328597D01*
X142527402Y-48161506D01*
X142527395Y-48161501D01*
X142333834Y-48025967D01*
X142333830Y-48025965D01*
X142296955Y-48008770D01*
X142119663Y-47926097D01*
X142119659Y-47926096D01*
X142119655Y-47926094D01*
X141891413Y-47864938D01*
X141891403Y-47864936D01*
X141656001Y-47844341D01*
X141655999Y-47844341D01*
X141420596Y-47864936D01*
X141420586Y-47864938D01*
X141192344Y-47926094D01*
X141192335Y-47926098D01*
X140978171Y-48025964D01*
X140978169Y-48025965D01*
X140784597Y-48161505D01*
X140617505Y-48328597D01*
X140487575Y-48514158D01*
X140432998Y-48557783D01*
X140363500Y-48564977D01*
X140301145Y-48533454D01*
X140284425Y-48514158D01*
X140154494Y-48328597D01*
X139987402Y-48161506D01*
X139987395Y-48161501D01*
X139793834Y-48025967D01*
X139793830Y-48025965D01*
X139756955Y-48008770D01*
X139579663Y-47926097D01*
X139579659Y-47926096D01*
X139579655Y-47926094D01*
X139351413Y-47864938D01*
X139351403Y-47864936D01*
X139116001Y-47844341D01*
X139115999Y-47844341D01*
X138880596Y-47864936D01*
X138880586Y-47864938D01*
X138652344Y-47926094D01*
X138652335Y-47926098D01*
X138438171Y-48025964D01*
X138438169Y-48025965D01*
X138244597Y-48161505D01*
X138077505Y-48328597D01*
X137947575Y-48514158D01*
X137892998Y-48557783D01*
X137823500Y-48564977D01*
X137761145Y-48533454D01*
X137744425Y-48514158D01*
X137614494Y-48328597D01*
X137447402Y-48161506D01*
X137447395Y-48161501D01*
X137253834Y-48025967D01*
X137253830Y-48025965D01*
X137216955Y-48008770D01*
X137039663Y-47926097D01*
X137039659Y-47926096D01*
X137039655Y-47926094D01*
X136811413Y-47864938D01*
X136811403Y-47864936D01*
X136576001Y-47844341D01*
X136575999Y-47844341D01*
X136340596Y-47864936D01*
X136340586Y-47864938D01*
X136112344Y-47926094D01*
X136112335Y-47926098D01*
X135898171Y-48025964D01*
X135898169Y-48025965D01*
X135704597Y-48161505D01*
X135537505Y-48328597D01*
X135407575Y-48514158D01*
X135352998Y-48557783D01*
X135283500Y-48564977D01*
X135221145Y-48533454D01*
X135204425Y-48514158D01*
X135074494Y-48328597D01*
X134907402Y-48161506D01*
X134907395Y-48161501D01*
X134713834Y-48025967D01*
X134713830Y-48025965D01*
X134676955Y-48008770D01*
X134499663Y-47926097D01*
X134499659Y-47926096D01*
X134499655Y-47926094D01*
X134271413Y-47864938D01*
X134271403Y-47864936D01*
X134036001Y-47844341D01*
X134035999Y-47844341D01*
X133800596Y-47864936D01*
X133800586Y-47864938D01*
X133572344Y-47926094D01*
X133572335Y-47926098D01*
X133358171Y-48025964D01*
X133358169Y-48025965D01*
X133164597Y-48161505D01*
X132997505Y-48328597D01*
X132867575Y-48514158D01*
X132812998Y-48557783D01*
X132743500Y-48564977D01*
X132681145Y-48533454D01*
X132664425Y-48514158D01*
X132534494Y-48328597D01*
X132367402Y-48161506D01*
X132367395Y-48161501D01*
X132173834Y-48025967D01*
X132173830Y-48025965D01*
X132136955Y-48008770D01*
X131959663Y-47926097D01*
X131959659Y-47926096D01*
X131959655Y-47926094D01*
X131731413Y-47864938D01*
X131731403Y-47864936D01*
X131496001Y-47844341D01*
X131495999Y-47844341D01*
X131260596Y-47864936D01*
X131260586Y-47864938D01*
X131032344Y-47926094D01*
X131032335Y-47926098D01*
X130818171Y-48025964D01*
X130818169Y-48025965D01*
X130624597Y-48161505D01*
X130457505Y-48328597D01*
X130327575Y-48514158D01*
X130272998Y-48557783D01*
X130203500Y-48564977D01*
X130141145Y-48533454D01*
X130124425Y-48514158D01*
X129994494Y-48328597D01*
X129827402Y-48161506D01*
X129827395Y-48161501D01*
X129633834Y-48025967D01*
X129633830Y-48025965D01*
X129596955Y-48008770D01*
X129419663Y-47926097D01*
X129419659Y-47926096D01*
X129419655Y-47926094D01*
X129191413Y-47864938D01*
X129191403Y-47864936D01*
X128956001Y-47844341D01*
X128955999Y-47844341D01*
X128720596Y-47864936D01*
X128720586Y-47864938D01*
X128492344Y-47926094D01*
X128492335Y-47926098D01*
X128278171Y-48025964D01*
X128278169Y-48025965D01*
X128084597Y-48161505D01*
X127917508Y-48328594D01*
X127787269Y-48514595D01*
X127732692Y-48558219D01*
X127663193Y-48565412D01*
X127600839Y-48533890D01*
X127584119Y-48514594D01*
X127454113Y-48328926D01*
X127454108Y-48328920D01*
X127287082Y-48161894D01*
X127093578Y-48026399D01*
X126879492Y-47926570D01*
X126879486Y-47926567D01*
X126666000Y-47869364D01*
X126666000Y-48766988D01*
X126608993Y-48734075D01*
X126481826Y-48700000D01*
X126350174Y-48700000D01*
X126223007Y-48734075D01*
X126166000Y-48766988D01*
X126166000Y-47869364D01*
X126165999Y-47869364D01*
X125952513Y-47926567D01*
X125952507Y-47926570D01*
X125738422Y-48026399D01*
X125738420Y-48026400D01*
X125544926Y-48161886D01*
X125544920Y-48161891D01*
X125377891Y-48328920D01*
X125377890Y-48328922D01*
X125247880Y-48514595D01*
X125193303Y-48558219D01*
X125123804Y-48565412D01*
X125061450Y-48533890D01*
X125044730Y-48514594D01*
X124914494Y-48328597D01*
X124747402Y-48161506D01*
X124747395Y-48161501D01*
X124553834Y-48025967D01*
X124553830Y-48025965D01*
X124516955Y-48008770D01*
X124339663Y-47926097D01*
X124339659Y-47926096D01*
X124339655Y-47926094D01*
X124111413Y-47864938D01*
X124111403Y-47864936D01*
X123876001Y-47844341D01*
X123875999Y-47844341D01*
X123640596Y-47864936D01*
X123640586Y-47864938D01*
X123412344Y-47926094D01*
X123412335Y-47926098D01*
X123198171Y-48025964D01*
X123198169Y-48025965D01*
X123004597Y-48161505D01*
X122837505Y-48328597D01*
X122707575Y-48514158D01*
X122652998Y-48557783D01*
X122583500Y-48564977D01*
X122521145Y-48533454D01*
X122504425Y-48514158D01*
X122374494Y-48328597D01*
X122207402Y-48161506D01*
X122207395Y-48161501D01*
X122013834Y-48025967D01*
X122013830Y-48025965D01*
X121976955Y-48008770D01*
X121799663Y-47926097D01*
X121799659Y-47926096D01*
X121799655Y-47926094D01*
X121571413Y-47864938D01*
X121571403Y-47864936D01*
X121336001Y-47844341D01*
X121335999Y-47844341D01*
X121100596Y-47864936D01*
X121100586Y-47864938D01*
X120872344Y-47926094D01*
X120872335Y-47926098D01*
X120658171Y-48025964D01*
X120658169Y-48025965D01*
X120464600Y-48161503D01*
X120342673Y-48283430D01*
X120281350Y-48316914D01*
X120211658Y-48311930D01*
X120155725Y-48270058D01*
X120138810Y-48239081D01*
X120089797Y-48107671D01*
X120089793Y-48107664D01*
X120003547Y-47992455D01*
X120003544Y-47992452D01*
X119888335Y-47906206D01*
X119888328Y-47906202D01*
X119753482Y-47855908D01*
X119753483Y-47855908D01*
X119693883Y-47849501D01*
X119693881Y-47849500D01*
X119693873Y-47849500D01*
X119693864Y-47849500D01*
X117898129Y-47849500D01*
X117898123Y-47849501D01*
X117838516Y-47855908D01*
X117703671Y-47906202D01*
X117703664Y-47906206D01*
X117588455Y-47992452D01*
X117588452Y-47992455D01*
X117502206Y-48107664D01*
X117502202Y-48107671D01*
X117451908Y-48242517D01*
X117445501Y-48302116D01*
X117445500Y-48302135D01*
X100500500Y-48302135D01*
X100500500Y-47431757D01*
X100502025Y-47412370D01*
X100510228Y-47360580D01*
X100522211Y-47323700D01*
X100541529Y-47285785D01*
X100564326Y-47254409D01*
X100594409Y-47224326D01*
X100625785Y-47201529D01*
X100663700Y-47182211D01*
X100700580Y-47170228D01*
X100752370Y-47162025D01*
X100771757Y-47160500D01*
X100827892Y-47160500D01*
X163241324Y-47160500D01*
X163308363Y-47180185D01*
G37*
%TD.AperFunction*%
%TD*%
M02*
