%TF.GenerationSoftware,KiCad,Pcbnew,8.0.8*%
%TF.CreationDate,2025-03-14T01:28:21-06:00*%
%TF.ProjectId,WeatherBalloon,57656174-6865-4724-9261-6c6c6f6f6e2e,rev?*%
%TF.SameCoordinates,Original*%
%TF.FileFunction,Legend,Bot*%
%TF.FilePolarity,Positive*%
%FSLAX46Y46*%
G04 Gerber Fmt 4.6, Leading zero omitted, Abs format (unit mm)*
G04 Created by KiCad (PCBNEW 8.0.8) date 2025-03-14 01:28:21*
%MOMM*%
%LPD*%
G01*
G04 APERTURE LIST*
%ADD10C,0.100000*%
G04 APERTURE END LIST*
D10*
X101690000Y-48160000D02*
X101690000Y-66290177D01*
X111690000Y-48160000D02*
X101690000Y-48160000D01*
X111690000Y-66290177D02*
X101690000Y-66290177D01*
X111690000Y-48160000D02*
X111690000Y-66290177D01*
X109637412Y-64766115D02*
X110637412Y-64766115D01*
X109637412Y-64194687D02*
X110208841Y-64623258D01*
X110637412Y-64194687D02*
X110065984Y-64766115D01*
X109685032Y-63385163D02*
X109637412Y-63480401D01*
X109637412Y-63480401D02*
X109637412Y-63670877D01*
X109637412Y-63670877D02*
X109685032Y-63766115D01*
X109685032Y-63766115D02*
X109780270Y-63813734D01*
X109780270Y-63813734D02*
X110161222Y-63813734D01*
X110161222Y-63813734D02*
X110256460Y-63766115D01*
X110256460Y-63766115D02*
X110304079Y-63670877D01*
X110304079Y-63670877D02*
X110304079Y-63480401D01*
X110304079Y-63480401D02*
X110256460Y-63385163D01*
X110256460Y-63385163D02*
X110161222Y-63337544D01*
X110161222Y-63337544D02*
X110065984Y-63337544D01*
X110065984Y-63337544D02*
X109970746Y-63813734D01*
X110304079Y-63004210D02*
X109637412Y-62766115D01*
X109637412Y-62766115D02*
X110304079Y-62528020D01*
X109637412Y-62147067D02*
X110304079Y-62147067D01*
X110637412Y-62147067D02*
X110589793Y-62194686D01*
X110589793Y-62194686D02*
X110542174Y-62147067D01*
X110542174Y-62147067D02*
X110589793Y-62099448D01*
X110589793Y-62099448D02*
X110637412Y-62147067D01*
X110637412Y-62147067D02*
X110542174Y-62147067D01*
X110304079Y-61670877D02*
X109637412Y-61670877D01*
X110208841Y-61670877D02*
X110256460Y-61623258D01*
X110256460Y-61623258D02*
X110304079Y-61528020D01*
X110304079Y-61528020D02*
X110304079Y-61385163D01*
X110304079Y-61385163D02*
X110256460Y-61289925D01*
X110256460Y-61289925D02*
X110161222Y-61242306D01*
X110161222Y-61242306D02*
X109637412Y-61242306D01*
X110589793Y-59480401D02*
X110637412Y-59575639D01*
X110637412Y-59575639D02*
X110637412Y-59718496D01*
X110637412Y-59718496D02*
X110589793Y-59861353D01*
X110589793Y-59861353D02*
X110494555Y-59956591D01*
X110494555Y-59956591D02*
X110399317Y-60004210D01*
X110399317Y-60004210D02*
X110208841Y-60051829D01*
X110208841Y-60051829D02*
X110065984Y-60051829D01*
X110065984Y-60051829D02*
X109875508Y-60004210D01*
X109875508Y-60004210D02*
X109780270Y-59956591D01*
X109780270Y-59956591D02*
X109685032Y-59861353D01*
X109685032Y-59861353D02*
X109637412Y-59718496D01*
X109637412Y-59718496D02*
X109637412Y-59623258D01*
X109637412Y-59623258D02*
X109685032Y-59480401D01*
X109685032Y-59480401D02*
X109732651Y-59432782D01*
X109732651Y-59432782D02*
X110065984Y-59432782D01*
X110065984Y-59432782D02*
X110065984Y-59623258D01*
X109637412Y-59004210D02*
X110304079Y-59004210D01*
X110113603Y-59004210D02*
X110208841Y-58956591D01*
X110208841Y-58956591D02*
X110256460Y-58908972D01*
X110256460Y-58908972D02*
X110304079Y-58813734D01*
X110304079Y-58813734D02*
X110304079Y-58718496D01*
X109637412Y-57956591D02*
X110161222Y-57956591D01*
X110161222Y-57956591D02*
X110256460Y-58004210D01*
X110256460Y-58004210D02*
X110304079Y-58099448D01*
X110304079Y-58099448D02*
X110304079Y-58289924D01*
X110304079Y-58289924D02*
X110256460Y-58385162D01*
X109685032Y-57956591D02*
X109637412Y-58051829D01*
X109637412Y-58051829D02*
X109637412Y-58289924D01*
X109637412Y-58289924D02*
X109685032Y-58385162D01*
X109685032Y-58385162D02*
X109780270Y-58432781D01*
X109780270Y-58432781D02*
X109875508Y-58432781D01*
X109875508Y-58432781D02*
X109970746Y-58385162D01*
X109970746Y-58385162D02*
X110018365Y-58289924D01*
X110018365Y-58289924D02*
X110018365Y-58051829D01*
X110018365Y-58051829D02*
X110065984Y-57956591D01*
X110304079Y-57480400D02*
X109637412Y-57480400D01*
X110208841Y-57480400D02*
X110256460Y-57432781D01*
X110256460Y-57432781D02*
X110304079Y-57337543D01*
X110304079Y-57337543D02*
X110304079Y-57194686D01*
X110304079Y-57194686D02*
X110256460Y-57099448D01*
X110256460Y-57099448D02*
X110161222Y-57051829D01*
X110161222Y-57051829D02*
X109637412Y-57051829D01*
X109637412Y-56575638D02*
X110304079Y-56575638D01*
X110637412Y-56575638D02*
X110589793Y-56623257D01*
X110589793Y-56623257D02*
X110542174Y-56575638D01*
X110542174Y-56575638D02*
X110589793Y-56528019D01*
X110589793Y-56528019D02*
X110637412Y-56575638D01*
X110637412Y-56575638D02*
X110542174Y-56575638D01*
X109637412Y-55956591D02*
X109685032Y-56051829D01*
X109685032Y-56051829D02*
X109780270Y-56099448D01*
X109780270Y-56099448D02*
X110637412Y-56099448D01*
X109637412Y-55432781D02*
X109685032Y-55528019D01*
X109685032Y-55528019D02*
X109780270Y-55575638D01*
X109780270Y-55575638D02*
X110637412Y-55575638D01*
X109637412Y-54908971D02*
X109685032Y-55004209D01*
X109685032Y-55004209D02*
X109732651Y-55051828D01*
X109732651Y-55051828D02*
X109827889Y-55099447D01*
X109827889Y-55099447D02*
X110113603Y-55099447D01*
X110113603Y-55099447D02*
X110208841Y-55051828D01*
X110208841Y-55051828D02*
X110256460Y-55004209D01*
X110256460Y-55004209D02*
X110304079Y-54908971D01*
X110304079Y-54908971D02*
X110304079Y-54766114D01*
X110304079Y-54766114D02*
X110256460Y-54670876D01*
X110256460Y-54670876D02*
X110208841Y-54623257D01*
X110208841Y-54623257D02*
X110113603Y-54575638D01*
X110113603Y-54575638D02*
X109827889Y-54575638D01*
X109827889Y-54575638D02*
X109732651Y-54623257D01*
X109732651Y-54623257D02*
X109685032Y-54670876D01*
X109685032Y-54670876D02*
X109637412Y-54766114D01*
X109637412Y-54766114D02*
X109637412Y-54908971D01*
X109027468Y-64908972D02*
X108027468Y-64575639D01*
X108027468Y-64575639D02*
X109027468Y-64242306D01*
X108075088Y-63528020D02*
X108027468Y-63623258D01*
X108027468Y-63623258D02*
X108027468Y-63813734D01*
X108027468Y-63813734D02*
X108075088Y-63908972D01*
X108075088Y-63908972D02*
X108170326Y-63956591D01*
X108170326Y-63956591D02*
X108551278Y-63956591D01*
X108551278Y-63956591D02*
X108646516Y-63908972D01*
X108646516Y-63908972D02*
X108694135Y-63813734D01*
X108694135Y-63813734D02*
X108694135Y-63623258D01*
X108694135Y-63623258D02*
X108646516Y-63528020D01*
X108646516Y-63528020D02*
X108551278Y-63480401D01*
X108551278Y-63480401D02*
X108456040Y-63480401D01*
X108456040Y-63480401D02*
X108360802Y-63956591D01*
X108027468Y-63051829D02*
X108694135Y-63051829D01*
X108503659Y-63051829D02*
X108598897Y-63004210D01*
X108598897Y-63004210D02*
X108646516Y-62956591D01*
X108646516Y-62956591D02*
X108694135Y-62861353D01*
X108694135Y-62861353D02*
X108694135Y-62766115D01*
X108075088Y-62480400D02*
X108027468Y-62385162D01*
X108027468Y-62385162D02*
X108027468Y-62194686D01*
X108027468Y-62194686D02*
X108075088Y-62099448D01*
X108075088Y-62099448D02*
X108170326Y-62051829D01*
X108170326Y-62051829D02*
X108217945Y-62051829D01*
X108217945Y-62051829D02*
X108313183Y-62099448D01*
X108313183Y-62099448D02*
X108360802Y-62194686D01*
X108360802Y-62194686D02*
X108360802Y-62337543D01*
X108360802Y-62337543D02*
X108408421Y-62432781D01*
X108408421Y-62432781D02*
X108503659Y-62480400D01*
X108503659Y-62480400D02*
X108551278Y-62480400D01*
X108551278Y-62480400D02*
X108646516Y-62432781D01*
X108646516Y-62432781D02*
X108694135Y-62337543D01*
X108694135Y-62337543D02*
X108694135Y-62194686D01*
X108694135Y-62194686D02*
X108646516Y-62099448D01*
X108027468Y-61623257D02*
X108694135Y-61623257D01*
X109027468Y-61623257D02*
X108979849Y-61670876D01*
X108979849Y-61670876D02*
X108932230Y-61623257D01*
X108932230Y-61623257D02*
X108979849Y-61575638D01*
X108979849Y-61575638D02*
X109027468Y-61623257D01*
X109027468Y-61623257D02*
X108932230Y-61623257D01*
X108027468Y-61004210D02*
X108075088Y-61099448D01*
X108075088Y-61099448D02*
X108122707Y-61147067D01*
X108122707Y-61147067D02*
X108217945Y-61194686D01*
X108217945Y-61194686D02*
X108503659Y-61194686D01*
X108503659Y-61194686D02*
X108598897Y-61147067D01*
X108598897Y-61147067D02*
X108646516Y-61099448D01*
X108646516Y-61099448D02*
X108694135Y-61004210D01*
X108694135Y-61004210D02*
X108694135Y-60861353D01*
X108694135Y-60861353D02*
X108646516Y-60766115D01*
X108646516Y-60766115D02*
X108598897Y-60718496D01*
X108598897Y-60718496D02*
X108503659Y-60670877D01*
X108503659Y-60670877D02*
X108217945Y-60670877D01*
X108217945Y-60670877D02*
X108122707Y-60718496D01*
X108122707Y-60718496D02*
X108075088Y-60766115D01*
X108075088Y-60766115D02*
X108027468Y-60861353D01*
X108027468Y-60861353D02*
X108027468Y-61004210D01*
X108694135Y-60242305D02*
X108027468Y-60242305D01*
X108598897Y-60242305D02*
X108646516Y-60194686D01*
X108646516Y-60194686D02*
X108694135Y-60099448D01*
X108694135Y-60099448D02*
X108694135Y-59956591D01*
X108694135Y-59956591D02*
X108646516Y-59861353D01*
X108646516Y-59861353D02*
X108551278Y-59813734D01*
X108551278Y-59813734D02*
X108027468Y-59813734D01*
X108027468Y-58051829D02*
X108027468Y-58623257D01*
X108027468Y-58337543D02*
X109027468Y-58337543D01*
X109027468Y-58337543D02*
X108884611Y-58432781D01*
X108884611Y-58432781D02*
X108789373Y-58528019D01*
X108789373Y-58528019D02*
X108741754Y-58623257D01*
X107417524Y-64766115D02*
X106608001Y-64766115D01*
X106608001Y-64766115D02*
X106512763Y-64718496D01*
X106512763Y-64718496D02*
X106465144Y-64670877D01*
X106465144Y-64670877D02*
X106417524Y-64575639D01*
X106417524Y-64575639D02*
X106417524Y-64385163D01*
X106417524Y-64385163D02*
X106465144Y-64289925D01*
X106465144Y-64289925D02*
X106512763Y-64242306D01*
X106512763Y-64242306D02*
X106608001Y-64194687D01*
X106608001Y-64194687D02*
X107417524Y-64194687D01*
X107084191Y-63718496D02*
X106417524Y-63718496D01*
X106988953Y-63718496D02*
X107036572Y-63670877D01*
X107036572Y-63670877D02*
X107084191Y-63575639D01*
X107084191Y-63575639D02*
X107084191Y-63432782D01*
X107084191Y-63432782D02*
X107036572Y-63337544D01*
X107036572Y-63337544D02*
X106941334Y-63289925D01*
X106941334Y-63289925D02*
X106417524Y-63289925D01*
X106417524Y-62813734D02*
X107084191Y-62813734D01*
X107417524Y-62813734D02*
X107369905Y-62861353D01*
X107369905Y-62861353D02*
X107322286Y-62813734D01*
X107322286Y-62813734D02*
X107369905Y-62766115D01*
X107369905Y-62766115D02*
X107417524Y-62813734D01*
X107417524Y-62813734D02*
X107322286Y-62813734D01*
X107084191Y-62432782D02*
X106417524Y-62194687D01*
X106417524Y-62194687D02*
X107084191Y-61956592D01*
X106465144Y-61194687D02*
X106417524Y-61289925D01*
X106417524Y-61289925D02*
X106417524Y-61480401D01*
X106417524Y-61480401D02*
X106465144Y-61575639D01*
X106465144Y-61575639D02*
X106560382Y-61623258D01*
X106560382Y-61623258D02*
X106941334Y-61623258D01*
X106941334Y-61623258D02*
X107036572Y-61575639D01*
X107036572Y-61575639D02*
X107084191Y-61480401D01*
X107084191Y-61480401D02*
X107084191Y-61289925D01*
X107084191Y-61289925D02*
X107036572Y-61194687D01*
X107036572Y-61194687D02*
X106941334Y-61147068D01*
X106941334Y-61147068D02*
X106846096Y-61147068D01*
X106846096Y-61147068D02*
X106750858Y-61623258D01*
X106417524Y-60718496D02*
X107084191Y-60718496D01*
X106893715Y-60718496D02*
X106988953Y-60670877D01*
X106988953Y-60670877D02*
X107036572Y-60623258D01*
X107036572Y-60623258D02*
X107084191Y-60528020D01*
X107084191Y-60528020D02*
X107084191Y-60432782D01*
X106465144Y-60147067D02*
X106417524Y-60051829D01*
X106417524Y-60051829D02*
X106417524Y-59861353D01*
X106417524Y-59861353D02*
X106465144Y-59766115D01*
X106465144Y-59766115D02*
X106560382Y-59718496D01*
X106560382Y-59718496D02*
X106608001Y-59718496D01*
X106608001Y-59718496D02*
X106703239Y-59766115D01*
X106703239Y-59766115D02*
X106750858Y-59861353D01*
X106750858Y-59861353D02*
X106750858Y-60004210D01*
X106750858Y-60004210D02*
X106798477Y-60099448D01*
X106798477Y-60099448D02*
X106893715Y-60147067D01*
X106893715Y-60147067D02*
X106941334Y-60147067D01*
X106941334Y-60147067D02*
X107036572Y-60099448D01*
X107036572Y-60099448D02*
X107084191Y-60004210D01*
X107084191Y-60004210D02*
X107084191Y-59861353D01*
X107084191Y-59861353D02*
X107036572Y-59766115D01*
X106417524Y-59289924D02*
X107084191Y-59289924D01*
X107417524Y-59289924D02*
X107369905Y-59337543D01*
X107369905Y-59337543D02*
X107322286Y-59289924D01*
X107322286Y-59289924D02*
X107369905Y-59242305D01*
X107369905Y-59242305D02*
X107417524Y-59289924D01*
X107417524Y-59289924D02*
X107322286Y-59289924D01*
X107084191Y-58956591D02*
X107084191Y-58575639D01*
X107417524Y-58813734D02*
X106560382Y-58813734D01*
X106560382Y-58813734D02*
X106465144Y-58766115D01*
X106465144Y-58766115D02*
X106417524Y-58670877D01*
X106417524Y-58670877D02*
X106417524Y-58575639D01*
X107084191Y-58337543D02*
X106417524Y-58099448D01*
X107084191Y-57861353D02*
X106417524Y-58099448D01*
X106417524Y-58099448D02*
X106179429Y-58194686D01*
X106179429Y-58194686D02*
X106131810Y-58242305D01*
X106131810Y-58242305D02*
X106084191Y-58337543D01*
X106417524Y-56575638D02*
X106465144Y-56670876D01*
X106465144Y-56670876D02*
X106512763Y-56718495D01*
X106512763Y-56718495D02*
X106608001Y-56766114D01*
X106608001Y-56766114D02*
X106893715Y-56766114D01*
X106893715Y-56766114D02*
X106988953Y-56718495D01*
X106988953Y-56718495D02*
X107036572Y-56670876D01*
X107036572Y-56670876D02*
X107084191Y-56575638D01*
X107084191Y-56575638D02*
X107084191Y-56432781D01*
X107084191Y-56432781D02*
X107036572Y-56337543D01*
X107036572Y-56337543D02*
X106988953Y-56289924D01*
X106988953Y-56289924D02*
X106893715Y-56242305D01*
X106893715Y-56242305D02*
X106608001Y-56242305D01*
X106608001Y-56242305D02*
X106512763Y-56289924D01*
X106512763Y-56289924D02*
X106465144Y-56337543D01*
X106465144Y-56337543D02*
X106417524Y-56432781D01*
X106417524Y-56432781D02*
X106417524Y-56575638D01*
X107084191Y-55956590D02*
X107084191Y-55575638D01*
X106417524Y-55813733D02*
X107274667Y-55813733D01*
X107274667Y-55813733D02*
X107369905Y-55766114D01*
X107369905Y-55766114D02*
X107417524Y-55670876D01*
X107417524Y-55670876D02*
X107417524Y-55575638D01*
X106417524Y-54480399D02*
X107417524Y-54480399D01*
X107417524Y-54480399D02*
X107417524Y-54242304D01*
X107417524Y-54242304D02*
X107369905Y-54099447D01*
X107369905Y-54099447D02*
X107274667Y-54004209D01*
X107274667Y-54004209D02*
X107179429Y-53956590D01*
X107179429Y-53956590D02*
X106988953Y-53908971D01*
X106988953Y-53908971D02*
X106846096Y-53908971D01*
X106846096Y-53908971D02*
X106655620Y-53956590D01*
X106655620Y-53956590D02*
X106560382Y-54004209D01*
X106560382Y-54004209D02*
X106465144Y-54099447D01*
X106465144Y-54099447D02*
X106417524Y-54242304D01*
X106417524Y-54242304D02*
X106417524Y-54480399D01*
X106465144Y-53099447D02*
X106417524Y-53194685D01*
X106417524Y-53194685D02*
X106417524Y-53385161D01*
X106417524Y-53385161D02*
X106465144Y-53480399D01*
X106465144Y-53480399D02*
X106560382Y-53528018D01*
X106560382Y-53528018D02*
X106941334Y-53528018D01*
X106941334Y-53528018D02*
X107036572Y-53480399D01*
X107036572Y-53480399D02*
X107084191Y-53385161D01*
X107084191Y-53385161D02*
X107084191Y-53194685D01*
X107084191Y-53194685D02*
X107036572Y-53099447D01*
X107036572Y-53099447D02*
X106941334Y-53051828D01*
X106941334Y-53051828D02*
X106846096Y-53051828D01*
X106846096Y-53051828D02*
X106750858Y-53528018D01*
X107084191Y-52623256D02*
X106417524Y-52623256D01*
X106988953Y-52623256D02*
X107036572Y-52575637D01*
X107036572Y-52575637D02*
X107084191Y-52480399D01*
X107084191Y-52480399D02*
X107084191Y-52337542D01*
X107084191Y-52337542D02*
X107036572Y-52242304D01*
X107036572Y-52242304D02*
X106941334Y-52194685D01*
X106941334Y-52194685D02*
X106417524Y-52194685D01*
X107084191Y-51813732D02*
X106417524Y-51575637D01*
X106417524Y-51575637D02*
X107084191Y-51337542D01*
X106465144Y-50575637D02*
X106417524Y-50670875D01*
X106417524Y-50670875D02*
X106417524Y-50861351D01*
X106417524Y-50861351D02*
X106465144Y-50956589D01*
X106465144Y-50956589D02*
X106560382Y-51004208D01*
X106560382Y-51004208D02*
X106941334Y-51004208D01*
X106941334Y-51004208D02*
X107036572Y-50956589D01*
X107036572Y-50956589D02*
X107084191Y-50861351D01*
X107084191Y-50861351D02*
X107084191Y-50670875D01*
X107084191Y-50670875D02*
X107036572Y-50575637D01*
X107036572Y-50575637D02*
X106941334Y-50528018D01*
X106941334Y-50528018D02*
X106846096Y-50528018D01*
X106846096Y-50528018D02*
X106750858Y-51004208D01*
X106417524Y-50099446D02*
X107084191Y-50099446D01*
X106893715Y-50099446D02*
X106988953Y-50051827D01*
X106988953Y-50051827D02*
X107036572Y-50004208D01*
X107036572Y-50004208D02*
X107084191Y-49908970D01*
X107084191Y-49908970D02*
X107084191Y-49813732D01*
X104807580Y-64766115D02*
X105807580Y-64766115D01*
X105807580Y-64766115D02*
X105093295Y-64432782D01*
X105093295Y-64432782D02*
X105807580Y-64099449D01*
X105807580Y-64099449D02*
X104807580Y-64099449D01*
X104807580Y-63194687D02*
X105331390Y-63194687D01*
X105331390Y-63194687D02*
X105426628Y-63242306D01*
X105426628Y-63242306D02*
X105474247Y-63337544D01*
X105474247Y-63337544D02*
X105474247Y-63528020D01*
X105474247Y-63528020D02*
X105426628Y-63623258D01*
X104855200Y-63194687D02*
X104807580Y-63289925D01*
X104807580Y-63289925D02*
X104807580Y-63528020D01*
X104807580Y-63528020D02*
X104855200Y-63623258D01*
X104855200Y-63623258D02*
X104950438Y-63670877D01*
X104950438Y-63670877D02*
X105045676Y-63670877D01*
X105045676Y-63670877D02*
X105140914Y-63623258D01*
X105140914Y-63623258D02*
X105188533Y-63528020D01*
X105188533Y-63528020D02*
X105188533Y-63289925D01*
X105188533Y-63289925D02*
X105236152Y-63194687D01*
X104807580Y-62718496D02*
X105474247Y-62718496D01*
X105283771Y-62718496D02*
X105379009Y-62670877D01*
X105379009Y-62670877D02*
X105426628Y-62623258D01*
X105426628Y-62623258D02*
X105474247Y-62528020D01*
X105474247Y-62528020D02*
X105474247Y-62432782D01*
X104855200Y-61670877D02*
X104807580Y-61766115D01*
X104807580Y-61766115D02*
X104807580Y-61956591D01*
X104807580Y-61956591D02*
X104855200Y-62051829D01*
X104855200Y-62051829D02*
X104902819Y-62099448D01*
X104902819Y-62099448D02*
X104998057Y-62147067D01*
X104998057Y-62147067D02*
X105283771Y-62147067D01*
X105283771Y-62147067D02*
X105379009Y-62099448D01*
X105379009Y-62099448D02*
X105426628Y-62051829D01*
X105426628Y-62051829D02*
X105474247Y-61956591D01*
X105474247Y-61956591D02*
X105474247Y-61766115D01*
X105474247Y-61766115D02*
X105426628Y-61670877D01*
X104807580Y-61242305D02*
X105807580Y-61242305D01*
X104807580Y-60813734D02*
X105331390Y-60813734D01*
X105331390Y-60813734D02*
X105426628Y-60861353D01*
X105426628Y-60861353D02*
X105474247Y-60956591D01*
X105474247Y-60956591D02*
X105474247Y-61099448D01*
X105474247Y-61099448D02*
X105426628Y-61194686D01*
X105426628Y-61194686D02*
X105379009Y-61242305D01*
X104807580Y-59051829D02*
X104807580Y-59623257D01*
X104807580Y-59337543D02*
X105807580Y-59337543D01*
X105807580Y-59337543D02*
X105664723Y-59432781D01*
X105664723Y-59432781D02*
X105569485Y-59528019D01*
X105569485Y-59528019D02*
X105521866Y-59623257D01*
X105474247Y-58194686D02*
X104807580Y-58194686D01*
X105855200Y-58432781D02*
X105140914Y-58670876D01*
X105140914Y-58670876D02*
X105140914Y-58051829D01*
X104855200Y-57623257D02*
X104807580Y-57623257D01*
X104807580Y-57623257D02*
X104712342Y-57670876D01*
X104712342Y-57670876D02*
X104664723Y-57718495D01*
X105712342Y-56480400D02*
X105759961Y-56432781D01*
X105759961Y-56432781D02*
X105807580Y-56337543D01*
X105807580Y-56337543D02*
X105807580Y-56099448D01*
X105807580Y-56099448D02*
X105759961Y-56004210D01*
X105759961Y-56004210D02*
X105712342Y-55956591D01*
X105712342Y-55956591D02*
X105617104Y-55908972D01*
X105617104Y-55908972D02*
X105521866Y-55908972D01*
X105521866Y-55908972D02*
X105379009Y-55956591D01*
X105379009Y-55956591D02*
X104807580Y-56528019D01*
X104807580Y-56528019D02*
X104807580Y-55908972D01*
X105807580Y-55289924D02*
X105807580Y-55194686D01*
X105807580Y-55194686D02*
X105759961Y-55099448D01*
X105759961Y-55099448D02*
X105712342Y-55051829D01*
X105712342Y-55051829D02*
X105617104Y-55004210D01*
X105617104Y-55004210D02*
X105426628Y-54956591D01*
X105426628Y-54956591D02*
X105188533Y-54956591D01*
X105188533Y-54956591D02*
X104998057Y-55004210D01*
X104998057Y-55004210D02*
X104902819Y-55051829D01*
X104902819Y-55051829D02*
X104855200Y-55099448D01*
X104855200Y-55099448D02*
X104807580Y-55194686D01*
X104807580Y-55194686D02*
X104807580Y-55289924D01*
X104807580Y-55289924D02*
X104855200Y-55385162D01*
X104855200Y-55385162D02*
X104902819Y-55432781D01*
X104902819Y-55432781D02*
X104998057Y-55480400D01*
X104998057Y-55480400D02*
X105188533Y-55528019D01*
X105188533Y-55528019D02*
X105426628Y-55528019D01*
X105426628Y-55528019D02*
X105617104Y-55480400D01*
X105617104Y-55480400D02*
X105712342Y-55432781D01*
X105712342Y-55432781D02*
X105759961Y-55385162D01*
X105759961Y-55385162D02*
X105807580Y-55289924D01*
X105712342Y-54575638D02*
X105759961Y-54528019D01*
X105759961Y-54528019D02*
X105807580Y-54432781D01*
X105807580Y-54432781D02*
X105807580Y-54194686D01*
X105807580Y-54194686D02*
X105759961Y-54099448D01*
X105759961Y-54099448D02*
X105712342Y-54051829D01*
X105712342Y-54051829D02*
X105617104Y-54004210D01*
X105617104Y-54004210D02*
X105521866Y-54004210D01*
X105521866Y-54004210D02*
X105379009Y-54051829D01*
X105379009Y-54051829D02*
X104807580Y-54623257D01*
X104807580Y-54623257D02*
X104807580Y-54004210D01*
X105807580Y-53099448D02*
X105807580Y-53575638D01*
X105807580Y-53575638D02*
X105331390Y-53623257D01*
X105331390Y-53623257D02*
X105379009Y-53575638D01*
X105379009Y-53575638D02*
X105426628Y-53480400D01*
X105426628Y-53480400D02*
X105426628Y-53242305D01*
X105426628Y-53242305D02*
X105379009Y-53147067D01*
X105379009Y-53147067D02*
X105331390Y-53099448D01*
X105331390Y-53099448D02*
X105236152Y-53051829D01*
X105236152Y-53051829D02*
X104998057Y-53051829D01*
X104998057Y-53051829D02*
X104902819Y-53099448D01*
X104902819Y-53099448D02*
X104855200Y-53147067D01*
X104855200Y-53147067D02*
X104807580Y-53242305D01*
X104807580Y-53242305D02*
X104807580Y-53480400D01*
X104807580Y-53480400D02*
X104855200Y-53575638D01*
X104855200Y-53575638D02*
X104902819Y-53623257D01*
M02*
