M48
; DRILL file {KiCad 8.0.8} date 2025-03-14T01:28:18-0600
; FORMAT={-:-/ absolute / inch / decimal}
; #@! TF.CreationDate,2025-03-14T01:28:18-06:00
; #@! TF.GenerationSoftware,Kicad,Pcbnew,8.0.8
; #@! TF.FileFunction,Plated,1,2,PTH
FMAT,2
INCH
; #@! TA.AperFunction,Plated,PTH,ViaDrill
T1C0.0118
; #@! TA.AperFunction,Plated,PTH,ComponentDrill
T2C0.0315
; #@! TA.AperFunction,Plated,PTH,ComponentDrill
T3C0.0320
; #@! TA.AperFunction,Plated,PTH,ComponentDrill
T4C0.0354
; #@! TA.AperFunction,Plated,PTH,ComponentDrill
T5C0.0394
%
G90
G05
T1
X5.6409Y-2.8138
X5.7012Y-2.8138
T2
X4.9976Y-2.0957
X5.0028Y-2.2433
X5.0028Y-2.5205
X5.0028Y-2.8008
X5.0059Y-2.374
X5.0059Y-2.6575
X5.3976Y-2.0957
X5.4028Y-2.2433
X5.4028Y-2.5205
X5.4028Y-2.8008
X5.4059Y-2.374
X5.4059Y-2.6575
X5.8354Y-3.572
X5.8354Y-3.622
X5.8354Y-3.672
X6.052Y-3.5799
X6.052Y-3.6299
X6.052Y-3.6799
X6.4122Y-2.1614
X6.4122Y-2.2402
X6.4122Y-2.3189
X6.4122Y-2.3976
X6.4122Y-2.4764
X6.4122Y-2.5551
T3
X5.2103Y-3.0461
X5.2103Y-3.1461
X5.2103Y-3.2461
X5.2103Y-3.3461
X5.7252Y-3.0461
X5.7252Y-3.1461
X5.7252Y-3.2461
X5.7252Y-3.3461
T4
X4.5364Y-2.4547
X4.5415Y-2.1768
X4.5415Y-2.7906
X4.547Y-3.1106
X4.549Y-3.4323
X4.5522Y-3.7319
X4.6364Y-2.4547
X4.6415Y-2.1768
X4.6415Y-2.7906
X4.647Y-3.1106
X4.649Y-3.4323
X4.6522Y-3.7319
T5
X4.677Y-1.937
X4.777Y-1.937
X4.877Y-1.937
X4.977Y-1.937
X5.037Y-3.837
X5.077Y-1.937
X5.137Y-3.837
X5.177Y-1.937
X5.237Y-3.837
X5.277Y-1.937
X5.337Y-3.837
X5.377Y-1.937
X5.437Y-3.837
X5.477Y-1.937
X5.537Y-3.837
X5.577Y-1.937
X5.637Y-3.837
X5.737Y-1.937
X5.737Y-3.837
X5.837Y-1.937
X5.937Y-1.937
X5.937Y-3.837
X5.9583Y-2.8094
X6.037Y-1.937
X6.037Y-3.837
X6.0583Y-2.8094
X6.137Y-1.937
X6.137Y-3.837
X6.1583Y-2.8094
X6.237Y-1.937
X6.237Y-3.837
X6.2583Y-2.8094
X6.2598Y-3.6614
X6.337Y-1.937
X6.337Y-3.837
X6.3583Y-2.8094
X6.3598Y-3.6614
X6.437Y-1.937
X6.437Y-3.837
X6.4583Y-2.8094
X6.4598Y-3.6614
M30
