%TF.GenerationSoftware,KiCad,Pcbnew,8.0.8*%
%TF.CreationDate,2025-03-14T01:28:21-06:00*%
%TF.ProjectId,WeatherBalloon,57656174-6865-4724-9261-6c6c6f6f6e2e,rev?*%
%TF.SameCoordinates,Original*%
%TF.FileFunction,Soldermask,Bot*%
%TF.FilePolarity,Negative*%
%FSLAX46Y46*%
G04 Gerber Fmt 4.6, Leading zero omitted, Abs format (unit mm)*
G04 Created by KiCad (PCBNEW 8.0.8) date 2025-03-14 01:28:21*
%MOMM*%
%LPD*%
G01*
G04 APERTURE LIST*
%ADD10C,1.321000*%
%ADD11R,1.700000X1.700000*%
%ADD12O,1.700000X1.700000*%
%ADD13R,1.350000X1.350000*%
%ADD14O,1.350000X1.350000*%
%ADD15R,1.800000X1.800000*%
%ADD16C,1.800000*%
%ADD17C,1.600000*%
%ADD18O,1.600000X1.600000*%
%ADD19O,2.404000X1.204000*%
G04 APERTURE END LIST*
D10*
%TO.C,J8*%
X145420500Y-84990000D03*
X145420500Y-82450000D03*
X145420500Y-79910000D03*
X145420500Y-77370000D03*
X132340500Y-77370000D03*
X132340500Y-79910000D03*
X132340500Y-82450000D03*
X132340500Y-84990000D03*
%TD*%
D11*
%TO.C,J1*%
X127940000Y-97460000D03*
D12*
X130480000Y-97460000D03*
X133020000Y-97460000D03*
X135560000Y-97460000D03*
X138100000Y-97460000D03*
X140640000Y-97460000D03*
X143180000Y-97460000D03*
X145720000Y-97460000D03*
%TD*%
D11*
%TO.C,J3*%
X150800000Y-97460000D03*
D12*
X153340000Y-97460000D03*
X155880000Y-97460000D03*
X158420000Y-97460000D03*
X160960000Y-97460000D03*
X163500000Y-97460000D03*
%TD*%
D11*
%TO.C,J2*%
X118796000Y-49200000D03*
D12*
X121336000Y-49200000D03*
X123876000Y-49200000D03*
X126416000Y-49200000D03*
X128956000Y-49200000D03*
X131496000Y-49200000D03*
X134036000Y-49200000D03*
X136576000Y-49200000D03*
X139116000Y-49200000D03*
X141656000Y-49200000D03*
%TD*%
D11*
%TO.C,J4*%
X145720000Y-49200000D03*
D12*
X148260000Y-49200000D03*
X150800000Y-49200000D03*
X153340000Y-49200000D03*
X155880000Y-49200000D03*
X158420000Y-49200000D03*
X160960000Y-49200000D03*
X163500000Y-49200000D03*
%TD*%
D11*
%TO.C,J9*%
X164040000Y-71360000D03*
D12*
X161500000Y-71360000D03*
X158960000Y-71360000D03*
X156420000Y-71360000D03*
X153880000Y-71360000D03*
X151340000Y-71360000D03*
%TD*%
D13*
%TO.C,J10*%
X162870000Y-64900000D03*
D14*
X162870000Y-62900000D03*
X162870000Y-60900000D03*
X162870000Y-58900000D03*
X162870000Y-56900000D03*
X162870000Y-54900000D03*
%TD*%
D15*
%TO.C,D6*%
X115355000Y-55290000D03*
D16*
X117895000Y-55290000D03*
%TD*%
D17*
%TO.C,R1*%
X137230000Y-71140000D03*
D18*
X127070000Y-71140000D03*
%TD*%
D15*
%TO.C,D1*%
X115625000Y-94790000D03*
D16*
X118165000Y-94790000D03*
%TD*%
D17*
%TO.C,R6*%
X137100000Y-53230000D03*
D18*
X126940000Y-53230000D03*
%TD*%
%TO.C,R4*%
X127150000Y-60300000D03*
D17*
X137310000Y-60300000D03*
%TD*%
D15*
%TO.C,D2*%
X115545000Y-87180000D03*
D16*
X118085000Y-87180000D03*
%TD*%
D17*
%TO.C,R3*%
X137230000Y-64020000D03*
D18*
X127070000Y-64020000D03*
%TD*%
D19*
%TO.C,J6*%
X153720000Y-90930000D03*
X153720000Y-92200000D03*
X153720000Y-93470000D03*
%TD*%
%TO.C,J5*%
X148220000Y-90730000D03*
X148220000Y-92000000D03*
X148220000Y-93270000D03*
%TD*%
D16*
%TO.C,D4*%
X117895000Y-70880000D03*
D15*
X115355000Y-70880000D03*
%TD*%
D18*
%TO.C,R2*%
X127150000Y-67500000D03*
D17*
X137310000Y-67500000D03*
%TD*%
D11*
%TO.C,J7*%
X159000000Y-93000000D03*
D12*
X161540000Y-93000000D03*
X164080000Y-93000000D03*
%TD*%
D17*
%TO.C,R5*%
X137230000Y-56980000D03*
D18*
X127070000Y-56980000D03*
%TD*%
D15*
%TO.C,D5*%
X115225000Y-62350000D03*
D16*
X117765000Y-62350000D03*
%TD*%
%TO.C,D3*%
X118035000Y-79010000D03*
D15*
X115495000Y-79010000D03*
%TD*%
M02*
