M48
; DRILL file {KiCad 8.0.8} date 2025-02-03T17:06:35-0700
; FORMAT={-:-/ absolute / inch / decimal}
; #@! TF.CreationDate,2025-02-03T17:06:35-07:00
; #@! TF.GenerationSoftware,Kicad,Pcbnew,8.0.8
; #@! TF.FileFunction,Plated,1,2,PTH
FMAT,2
INCH
; #@! TA.AperFunction,Plated,PTH,ComponentDrill
T1C0.0315
; #@! TA.AperFunction,Plated,PTH,ComponentDrill
T2C0.0354
; #@! TA.AperFunction,Plated,PTH,ComponentDrill
T3C0.0374
; #@! TA.AperFunction,Plated,PTH,ComponentDrill
T4C0.0394
; #@! TA.AperFunction,Plated,PTH,ComponentDrill
T5C0.0433
%
G90
G05
T1
X5.1748Y-3.3476
X5.1778Y-3.2143
X5.1835Y-3.6591
X5.1874Y-3.5075
X5.2346Y-2.0587
X5.2346Y-2.4587
X5.2512Y-2.7417
X5.5748Y-3.3476
X5.5778Y-3.2143
X5.5835Y-3.6591
X5.5874Y-3.5075
X5.6512Y-2.7417
X5.9874Y-3.5559
X6.0874Y-3.6559
X6.1874Y-3.5559
T2
X4.9701Y-2.1732
X5.0701Y-2.1732
T3
X5.4917Y-2.189
X5.5902Y-2.189
X5.6886Y-2.189
T4
X4.1055Y-2.5205
X4.2055Y-2.5205
X4.3055Y-2.5205
X4.3992Y-2.7197
X4.4055Y-2.5205
X4.4992Y-2.7197
X4.5055Y-2.5205
X4.5992Y-2.7197
X4.6055Y-2.5205
X4.677Y-1.937
X4.6992Y-2.7197
X4.7055Y-2.5205
X4.777Y-1.937
X4.8055Y-2.5205
X4.877Y-1.937
X4.977Y-1.937
X5.037Y-3.837
X5.077Y-1.937
X5.137Y-3.837
X5.177Y-1.937
X5.237Y-3.837
X5.277Y-1.937
X5.337Y-3.837
X5.377Y-1.937
X5.437Y-3.837
X5.477Y-1.937
X5.537Y-3.837
X5.577Y-1.937
X5.637Y-3.837
X5.737Y-1.937
X5.737Y-3.837
X5.837Y-1.937
X5.937Y-1.937
X5.937Y-3.837
X6.037Y-1.937
X6.037Y-3.837
X6.137Y-1.937
X6.137Y-3.837
X6.237Y-1.937
X6.237Y-3.837
X6.337Y-1.937
X6.337Y-3.837
X6.437Y-1.937
X6.437Y-3.837
T5
X5.289Y-2.8925
X5.289Y-3.0697
X5.3835Y-2.4228
X5.3835Y-2.6
X5.5449Y-2.8925
X5.5449Y-3.0697
X5.6394Y-2.4228
X5.6394Y-2.6
X6.1886Y-2.9437
X6.1886Y-3.1996
X6.1921Y-2.1591
X6.1921Y-2.415
X6.1921Y-2.5445
X6.1921Y-2.8004
X6.3657Y-2.9437
X6.3657Y-3.1996
X6.3693Y-2.1591
X6.3693Y-2.415
X6.3693Y-2.5445
X6.3693Y-2.8004
M30
