%TF.GenerationSoftware,KiCad,Pcbnew,8.0.8*%
%TF.CreationDate,2025-02-03T17:06:43-07:00*%
%TF.ProjectId,ArduinoShieldThermoPro,41726475-696e-46f5-9368-69656c645468,rev?*%
%TF.SameCoordinates,Original*%
%TF.FileFunction,Copper,L2,Bot*%
%TF.FilePolarity,Positive*%
%FSLAX46Y46*%
G04 Gerber Fmt 4.6, Leading zero omitted, Abs format (unit mm)*
G04 Created by KiCad (PCBNEW 8.0.8) date 2025-02-03 17:06:43*
%MOMM*%
%LPD*%
G01*
G04 APERTURE LIST*
G04 Aperture macros list*
%AMRoundRect*
0 Rectangle with rounded corners*
0 $1 Rounding radius*
0 $2 $3 $4 $5 $6 $7 $8 $9 X,Y pos of 4 corners*
0 Add a 4 corners polygon primitive as box body*
4,1,4,$2,$3,$4,$5,$6,$7,$8,$9,$2,$3,0*
0 Add four circle primitives for the rounded corners*
1,1,$1+$1,$2,$3*
1,1,$1+$1,$4,$5*
1,1,$1+$1,$6,$7*
1,1,$1+$1,$8,$9*
0 Add four rect primitives between the rounded corners*
20,1,$1+$1,$2,$3,$4,$5,0*
20,1,$1+$1,$4,$5,$6,$7,0*
20,1,$1+$1,$6,$7,$8,$9,0*
20,1,$1+$1,$8,$9,$2,$3,0*%
G04 Aperture macros list end*
%TA.AperFunction,ComponentPad*%
%ADD10O,1.600000X1.600000*%
%TD*%
%TA.AperFunction,ComponentPad*%
%ADD11C,1.600000*%
%TD*%
%TA.AperFunction,ComponentPad*%
%ADD12O,1.700000X1.950000*%
%TD*%
%TA.AperFunction,ComponentPad*%
%ADD13RoundRect,0.250000X-0.600000X-0.725000X0.600000X-0.725000X0.600000X0.725000X-0.600000X0.725000X0*%
%TD*%
%TA.AperFunction,ComponentPad*%
%ADD14R,1.700000X1.700000*%
%TD*%
%TA.AperFunction,ComponentPad*%
%ADD15O,1.700000X1.700000*%
%TD*%
%TA.AperFunction,ComponentPad*%
%ADD16C,2.000000*%
%TD*%
%TA.AperFunction,ComponentPad*%
%ADD17C,1.440000*%
%TD*%
%TA.AperFunction,ComponentPad*%
%ADD18R,1.800000X1.800000*%
%TD*%
%TA.AperFunction,ComponentPad*%
%ADD19C,1.800000*%
%TD*%
G04 APERTURE END LIST*
D10*
%TO.P,R6,2*%
%TO.N,Net-(D1-A)*%
X132960000Y-62450000D03*
D11*
%TO.P,R6,1*%
%TO.N,/LED_Light*%
X132960000Y-52290000D03*
%TD*%
%TO.P,R5,1*%
%TO.N,/Button_cal*%
X141676000Y-81644000D03*
D10*
%TO.P,R5,2*%
%TO.N,GND*%
X131516000Y-81644000D03*
%TD*%
D11*
%TO.P,R4,1*%
%TO.N,/Button_lock*%
X143540000Y-69640000D03*
D10*
%TO.P,R4,2*%
%TO.N,GND*%
X133380000Y-69640000D03*
%TD*%
%TO.P,R3,2*%
%TO.N,GND*%
X131760000Y-89090000D03*
D11*
%TO.P,R3,1*%
%TO.N,/Button_light*%
X141920000Y-89090000D03*
%TD*%
%TO.P,R2,1*%
%TO.N,/Button_units*%
X141600000Y-85030000D03*
D10*
%TO.P,R2,2*%
%TO.N,GND*%
X131440000Y-85030000D03*
%TD*%
D11*
%TO.P,R1,1*%
%TO.N,/Button_onoff*%
X141820000Y-92940000D03*
D10*
%TO.P,R1,2*%
%TO.N,GND*%
X131660000Y-92940000D03*
%TD*%
D12*
%TO.P,J7,3,Pin_3*%
%TO.N,+5V*%
X144490000Y-55600000D03*
%TO.P,J7,2,Pin_2*%
%TO.N,/Temp_Digital*%
X141990000Y-55600000D03*
D13*
%TO.P,J7,1,Pin_1*%
%TO.N,GND*%
X139490000Y-55600000D03*
%TD*%
D14*
%TO.P,J1,1,Pin_1*%
%TO.N,unconnected-(J1-Pin_1-Pad1)*%
X127940000Y-97460000D03*
D15*
%TO.P,J1,2,Pin_2*%
%TO.N,/IOREF*%
X130480000Y-97460000D03*
%TO.P,J1,3,Pin_3*%
%TO.N,/~{RESET}*%
X133020000Y-97460000D03*
%TO.P,J1,4,Pin_4*%
%TO.N,+3V3*%
X135560000Y-97460000D03*
%TO.P,J1,5,Pin_5*%
%TO.N,+5V*%
X138100000Y-97460000D03*
%TO.P,J1,6,Pin_6*%
%TO.N,GND*%
X140640000Y-97460000D03*
%TO.P,J1,7,Pin_7*%
X143180000Y-97460000D03*
%TO.P,J1,8,Pin_8*%
%TO.N,VCC*%
X145720000Y-97460000D03*
%TD*%
D14*
%TO.P,J3,1,Pin_1*%
%TO.N,/Temp_Sensor*%
X150800000Y-97460000D03*
D15*
%TO.P,J3,2,Pin_2*%
%TO.N,/A1*%
X153340000Y-97460000D03*
%TO.P,J3,3,Pin_3*%
%TO.N,/A2*%
X155880000Y-97460000D03*
%TO.P,J3,4,Pin_4*%
%TO.N,/A3*%
X158420000Y-97460000D03*
%TO.P,J3,5,Pin_5*%
%TO.N,/SDA{slash}A4*%
X160960000Y-97460000D03*
%TO.P,J3,6,Pin_6*%
%TO.N,/SCL{slash}A5*%
X163500000Y-97460000D03*
%TD*%
D14*
%TO.P,J2,1,Pin_1*%
%TO.N,/I2C_SCL*%
X118796000Y-49200000D03*
D15*
%TO.P,J2,2,Pin_2*%
%TO.N,/I2C_SDA*%
X121336000Y-49200000D03*
%TO.P,J2,3,Pin_3*%
%TO.N,/AREF*%
X123876000Y-49200000D03*
%TO.P,J2,4,Pin_4*%
%TO.N,GND*%
X126416000Y-49200000D03*
%TO.P,J2,5,Pin_5*%
%TO.N,/13*%
X128956000Y-49200000D03*
%TO.P,J2,6,Pin_6*%
%TO.N,/12*%
X131496000Y-49200000D03*
%TO.P,J2,7,Pin_7*%
%TO.N,/\u002A11*%
X134036000Y-49200000D03*
%TO.P,J2,8,Pin_8*%
%TO.N,/\u002A10*%
X136576000Y-49200000D03*
%TO.P,J2,9,Pin_9*%
%TO.N,/LED_Light*%
X139116000Y-49200000D03*
%TO.P,J2,10,Pin_10*%
%TO.N,/Temp_Digital*%
X141656000Y-49200000D03*
%TD*%
D16*
%TO.P,SW2,1,A*%
%TO.N,/Button_units*%
X157280000Y-61340000D03*
X157280000Y-54840000D03*
%TO.P,SW2,2,B*%
%TO.N,+5V*%
X161780000Y-61340000D03*
X161780000Y-54840000D03*
%TD*%
D17*
%TO.P,RV1,1,1*%
%TO.N,+5V*%
X152080000Y-90320000D03*
%TO.P,RV1,2,2*%
%TO.N,/Temp_Sensor*%
X154620000Y-92860000D03*
%TO.P,RV1,3,3*%
%TO.N,GND*%
X157160000Y-90320000D03*
%TD*%
D15*
%TO.P,J5,8,Pin_8*%
%TO.N,unconnected-(J5-Pin_8-Pad8)*%
X122060000Y-64020000D03*
%TO.P,J5,7,Pin_7*%
%TO.N,unconnected-(J5-Pin_7-Pad7)*%
X119520000Y-64020000D03*
%TO.P,J5,6,Pin_6*%
%TO.N,unconnected-(J5-Pin_6-Pad6)*%
X116980000Y-64020000D03*
%TO.P,J5,5,Pin_5*%
%TO.N,unconnected-(J5-Pin_5-Pad5)*%
X114440000Y-64020000D03*
%TO.P,J5,4,Pin_4*%
%TO.N,/I2C_SDA*%
X111900000Y-64020000D03*
%TO.P,J5,3,Pin_3*%
%TO.N,/I2C_SCL*%
X109360000Y-64020000D03*
%TO.P,J5,2,Pin_2*%
%TO.N,GND*%
X106820000Y-64020000D03*
D14*
%TO.P,J5,1,Pin_1*%
%TO.N,+5V*%
X104280000Y-64020000D03*
%TD*%
D16*
%TO.P,SW5,2,B*%
%TO.N,+5V*%
X140840000Y-77970000D03*
X134340000Y-77970000D03*
%TO.P,SW5,1,A*%
%TO.N,/Button_cal*%
X140840000Y-73470000D03*
X134340000Y-73470000D03*
%TD*%
%TO.P,SW4,2,B*%
%TO.N,+5V*%
X143240000Y-66040000D03*
X136740000Y-66040000D03*
%TO.P,SW4,1,A*%
%TO.N,/Button_lock*%
X143240000Y-61540000D03*
X136740000Y-61540000D03*
%TD*%
D18*
%TO.P,D1,1,K*%
%TO.N,GND*%
X128780000Y-55200000D03*
D19*
%TO.P,D1,2,A*%
%TO.N,Net-(D1-A)*%
X126240000Y-55200000D03*
%TD*%
D16*
%TO.P,SW3,2,B*%
%TO.N,+5V*%
X161780000Y-64630000D03*
X161780000Y-71130000D03*
%TO.P,SW3,1,A*%
%TO.N,/Button_light*%
X157280000Y-64630000D03*
X157280000Y-71130000D03*
%TD*%
D14*
%TO.P,J4,1,Pin_1*%
%TO.N,/7*%
X145720000Y-49200000D03*
D15*
%TO.P,J4,2,Pin_2*%
%TO.N,/Button_lock*%
X148260000Y-49200000D03*
%TO.P,J4,3,Pin_3*%
%TO.N,/Button_cal*%
X150800000Y-49200000D03*
%TO.P,J4,4,Pin_4*%
%TO.N,/Button_units*%
X153340000Y-49200000D03*
%TO.P,J4,5,Pin_5*%
%TO.N,/Button_light*%
X155880000Y-49200000D03*
%TO.P,J4,6,Pin_6*%
%TO.N,/Button_onoff*%
X158420000Y-49200000D03*
%TO.P,J4,7,Pin_7*%
%TO.N,/TX{slash}1*%
X160960000Y-49200000D03*
%TO.P,J4,8,Pin_8*%
%TO.N,/RX{slash}0*%
X163500000Y-49200000D03*
%TD*%
D16*
%TO.P,SW1,1,A*%
%TO.N,/Button_onoff*%
X157190000Y-81270000D03*
X157190000Y-74770000D03*
%TO.P,SW1,2,B*%
%TO.N,+5V*%
X161690000Y-81270000D03*
X161690000Y-74770000D03*
%TD*%
D14*
%TO.P,J6,1,Pin_1*%
%TO.N,GND*%
X111740000Y-69080000D03*
D15*
%TO.P,J6,2,Pin_2*%
%TO.N,+5V*%
X114280000Y-69080000D03*
%TO.P,J6,3,Pin_3*%
%TO.N,/I2C_SCL*%
X116820000Y-69080000D03*
%TO.P,J6,4,Pin_4*%
%TO.N,/I2C_SDA*%
X119360000Y-69080000D03*
%TD*%
%TA.AperFunction,Conductor*%
%TO.N,GND*%
G36*
X142714075Y-97267007D02*
G01*
X142680000Y-97394174D01*
X142680000Y-97525826D01*
X142714075Y-97652993D01*
X142746988Y-97710000D01*
X141073012Y-97710000D01*
X141105925Y-97652993D01*
X141140000Y-97525826D01*
X141140000Y-97394174D01*
X141105925Y-97267007D01*
X141073012Y-97210000D01*
X142746988Y-97210000D01*
X142714075Y-97267007D01*
G37*
%TD.AperFunction*%
%TA.AperFunction,Conductor*%
G36*
X163484404Y-46755185D02*
G01*
X163505046Y-46771819D01*
X165928181Y-49194954D01*
X165961666Y-49256277D01*
X165964500Y-49282635D01*
X165964500Y-59344982D01*
X165964500Y-59375018D01*
X165975994Y-59402767D01*
X165975995Y-59402768D01*
X168468181Y-61894954D01*
X168501666Y-61956277D01*
X168504500Y-61982635D01*
X168504500Y-96107364D01*
X168484815Y-96174403D01*
X168468181Y-96195045D01*
X165997233Y-98665994D01*
X165975995Y-98687231D01*
X165964500Y-98714982D01*
X165964500Y-99231907D01*
X165963903Y-99244062D01*
X165952505Y-99359778D01*
X165947763Y-99383618D01*
X165917832Y-99482290D01*
X165915789Y-99489024D01*
X165906486Y-99511482D01*
X165854561Y-99608627D01*
X165841056Y-99628839D01*
X165771176Y-99713988D01*
X165753988Y-99731176D01*
X165668839Y-99801056D01*
X165648627Y-99814561D01*
X165551482Y-99866486D01*
X165529028Y-99875787D01*
X165487028Y-99888528D01*
X165423618Y-99907763D01*
X165399778Y-99912505D01*
X165291162Y-99923203D01*
X165284060Y-99923903D01*
X165271907Y-99924500D01*
X100768093Y-99924500D01*
X100755939Y-99923903D01*
X100747995Y-99923120D01*
X100640221Y-99912505D01*
X100616381Y-99907763D01*
X100599445Y-99902625D01*
X100510968Y-99875786D01*
X100488517Y-99866486D01*
X100391372Y-99814561D01*
X100371160Y-99801056D01*
X100286011Y-99731176D01*
X100268823Y-99713988D01*
X100198943Y-99628839D01*
X100185438Y-99608627D01*
X100133510Y-99511476D01*
X100124215Y-99489037D01*
X100092234Y-99383612D01*
X100087494Y-99359777D01*
X100076097Y-99244061D01*
X100075500Y-99231907D01*
X100075500Y-96561345D01*
X126581500Y-96561345D01*
X126581500Y-98358654D01*
X126588011Y-98419202D01*
X126588011Y-98419204D01*
X126639111Y-98556204D01*
X126726739Y-98673261D01*
X126843796Y-98760889D01*
X126980799Y-98811989D01*
X127008050Y-98814918D01*
X127041345Y-98818499D01*
X127041362Y-98818500D01*
X128838638Y-98818500D01*
X128838654Y-98818499D01*
X128865692Y-98815591D01*
X128899201Y-98811989D01*
X129036204Y-98760889D01*
X129153261Y-98673261D01*
X129240889Y-98556204D01*
X129286138Y-98434887D01*
X129328009Y-98378956D01*
X129393474Y-98354539D01*
X129461746Y-98369391D01*
X129493545Y-98394236D01*
X129556760Y-98462906D01*
X129734424Y-98601189D01*
X129734425Y-98601189D01*
X129734427Y-98601191D01*
X129861135Y-98669761D01*
X129932426Y-98708342D01*
X130145365Y-98781444D01*
X130367431Y-98818500D01*
X130592569Y-98818500D01*
X130814635Y-98781444D01*
X131027574Y-98708342D01*
X131225576Y-98601189D01*
X131403240Y-98462906D01*
X131524594Y-98331082D01*
X131555715Y-98297276D01*
X131555715Y-98297275D01*
X131555722Y-98297268D01*
X131646193Y-98158790D01*
X131699338Y-98113437D01*
X131768569Y-98104013D01*
X131831905Y-98133515D01*
X131853804Y-98158787D01*
X131944278Y-98297268D01*
X131944283Y-98297273D01*
X131944284Y-98297276D01*
X132070968Y-98434889D01*
X132096760Y-98462906D01*
X132274424Y-98601189D01*
X132274425Y-98601189D01*
X132274427Y-98601191D01*
X132401135Y-98669761D01*
X132472426Y-98708342D01*
X132685365Y-98781444D01*
X132907431Y-98818500D01*
X133132569Y-98818500D01*
X133354635Y-98781444D01*
X133567574Y-98708342D01*
X133765576Y-98601189D01*
X133943240Y-98462906D01*
X134064594Y-98331082D01*
X134095715Y-98297276D01*
X134095715Y-98297275D01*
X134095722Y-98297268D01*
X134186193Y-98158790D01*
X134239338Y-98113437D01*
X134308569Y-98104013D01*
X134371905Y-98133515D01*
X134393804Y-98158787D01*
X134484278Y-98297268D01*
X134484283Y-98297273D01*
X134484284Y-98297276D01*
X134610968Y-98434889D01*
X134636760Y-98462906D01*
X134814424Y-98601189D01*
X134814425Y-98601189D01*
X134814427Y-98601191D01*
X134941135Y-98669761D01*
X135012426Y-98708342D01*
X135225365Y-98781444D01*
X135447431Y-98818500D01*
X135672569Y-98818500D01*
X135894635Y-98781444D01*
X136107574Y-98708342D01*
X136305576Y-98601189D01*
X136483240Y-98462906D01*
X136604594Y-98331082D01*
X136635715Y-98297276D01*
X136635715Y-98297275D01*
X136635722Y-98297268D01*
X136726193Y-98158790D01*
X136779338Y-98113437D01*
X136848569Y-98104013D01*
X136911905Y-98133515D01*
X136933804Y-98158787D01*
X137024278Y-98297268D01*
X137024283Y-98297273D01*
X137024284Y-98297276D01*
X137150968Y-98434889D01*
X137176760Y-98462906D01*
X137354424Y-98601189D01*
X137354425Y-98601189D01*
X137354427Y-98601191D01*
X137481135Y-98669761D01*
X137552426Y-98708342D01*
X137765365Y-98781444D01*
X137987431Y-98818500D01*
X138212569Y-98818500D01*
X138434635Y-98781444D01*
X138647574Y-98708342D01*
X138845576Y-98601189D01*
X139023240Y-98462906D01*
X139144594Y-98331082D01*
X139175715Y-98297276D01*
X139175715Y-98297275D01*
X139175722Y-98297268D01*
X139269749Y-98153347D01*
X139322894Y-98107994D01*
X139392125Y-98098570D01*
X139455461Y-98128072D01*
X139475130Y-98150048D01*
X139601890Y-98331078D01*
X139768917Y-98498105D01*
X139962421Y-98633600D01*
X140176507Y-98733429D01*
X140176516Y-98733433D01*
X140390000Y-98790634D01*
X140390000Y-97893012D01*
X140447007Y-97925925D01*
X140574174Y-97960000D01*
X140705826Y-97960000D01*
X140832993Y-97925925D01*
X140890000Y-97893012D01*
X140890000Y-98790633D01*
X141103483Y-98733433D01*
X141103492Y-98733429D01*
X141317578Y-98633600D01*
X141511082Y-98498105D01*
X141678105Y-98331082D01*
X141808425Y-98144968D01*
X141863002Y-98101344D01*
X141932501Y-98094151D01*
X141994855Y-98125673D01*
X142011575Y-98144968D01*
X142141894Y-98331082D01*
X142308917Y-98498105D01*
X142502421Y-98633600D01*
X142716507Y-98733429D01*
X142716516Y-98733433D01*
X142930000Y-98790634D01*
X142930000Y-97893012D01*
X142987007Y-97925925D01*
X143114174Y-97960000D01*
X143245826Y-97960000D01*
X143372993Y-97925925D01*
X143430000Y-97893012D01*
X143430000Y-98790633D01*
X143643483Y-98733433D01*
X143643492Y-98733429D01*
X143857578Y-98633600D01*
X144051082Y-98498105D01*
X144218105Y-98331082D01*
X144344868Y-98150048D01*
X144399445Y-98106423D01*
X144468944Y-98099231D01*
X144531298Y-98130753D01*
X144550251Y-98153350D01*
X144644276Y-98297265D01*
X144644284Y-98297276D01*
X144770968Y-98434889D01*
X144796760Y-98462906D01*
X144974424Y-98601189D01*
X144974425Y-98601189D01*
X144974427Y-98601191D01*
X145101135Y-98669761D01*
X145172426Y-98708342D01*
X145385365Y-98781444D01*
X145607431Y-98818500D01*
X145832569Y-98818500D01*
X146054635Y-98781444D01*
X146267574Y-98708342D01*
X146465576Y-98601189D01*
X146643240Y-98462906D01*
X146764594Y-98331082D01*
X146795715Y-98297276D01*
X146795717Y-98297273D01*
X146795722Y-98297268D01*
X146918860Y-98108791D01*
X147009296Y-97902616D01*
X147064564Y-97684368D01*
X147067164Y-97652993D01*
X147083156Y-97460005D01*
X147083156Y-97459994D01*
X147064565Y-97235640D01*
X147064563Y-97235628D01*
X147009296Y-97017385D01*
X146999071Y-96994075D01*
X146918860Y-96811209D01*
X146902706Y-96786484D01*
X146795723Y-96622734D01*
X146795715Y-96622723D01*
X146739212Y-96561345D01*
X149441500Y-96561345D01*
X149441500Y-98358654D01*
X149448011Y-98419202D01*
X149448011Y-98419204D01*
X149499111Y-98556204D01*
X149586739Y-98673261D01*
X149703796Y-98760889D01*
X149840799Y-98811989D01*
X149868050Y-98814918D01*
X149901345Y-98818499D01*
X149901362Y-98818500D01*
X151698638Y-98818500D01*
X151698654Y-98818499D01*
X151725692Y-98815591D01*
X151759201Y-98811989D01*
X151896204Y-98760889D01*
X152013261Y-98673261D01*
X152100889Y-98556204D01*
X152146138Y-98434887D01*
X152188009Y-98378956D01*
X152253474Y-98354539D01*
X152321746Y-98369391D01*
X152353545Y-98394236D01*
X152416760Y-98462906D01*
X152594424Y-98601189D01*
X152594425Y-98601189D01*
X152594427Y-98601191D01*
X152721135Y-98669761D01*
X152792426Y-98708342D01*
X153005365Y-98781444D01*
X153227431Y-98818500D01*
X153452569Y-98818500D01*
X153674635Y-98781444D01*
X153887574Y-98708342D01*
X154085576Y-98601189D01*
X154263240Y-98462906D01*
X154384594Y-98331082D01*
X154415715Y-98297276D01*
X154415715Y-98297275D01*
X154415722Y-98297268D01*
X154506193Y-98158790D01*
X154559338Y-98113437D01*
X154628569Y-98104013D01*
X154691905Y-98133515D01*
X154713804Y-98158787D01*
X154804278Y-98297268D01*
X154804283Y-98297273D01*
X154804284Y-98297276D01*
X154930968Y-98434889D01*
X154956760Y-98462906D01*
X155134424Y-98601189D01*
X155134425Y-98601189D01*
X155134427Y-98601191D01*
X155261135Y-98669761D01*
X155332426Y-98708342D01*
X155545365Y-98781444D01*
X155767431Y-98818500D01*
X155992569Y-98818500D01*
X156214635Y-98781444D01*
X156427574Y-98708342D01*
X156625576Y-98601189D01*
X156803240Y-98462906D01*
X156924594Y-98331082D01*
X156955715Y-98297276D01*
X156955715Y-98297275D01*
X156955722Y-98297268D01*
X157046193Y-98158790D01*
X157099338Y-98113437D01*
X157168569Y-98104013D01*
X157231905Y-98133515D01*
X157253804Y-98158787D01*
X157344278Y-98297268D01*
X157344283Y-98297273D01*
X157344284Y-98297276D01*
X157470968Y-98434889D01*
X157496760Y-98462906D01*
X157674424Y-98601189D01*
X157674425Y-98601189D01*
X157674427Y-98601191D01*
X157801135Y-98669761D01*
X157872426Y-98708342D01*
X158085365Y-98781444D01*
X158307431Y-98818500D01*
X158532569Y-98818500D01*
X158754635Y-98781444D01*
X158967574Y-98708342D01*
X159165576Y-98601189D01*
X159343240Y-98462906D01*
X159464594Y-98331082D01*
X159495715Y-98297276D01*
X159495715Y-98297275D01*
X159495722Y-98297268D01*
X159586193Y-98158790D01*
X159639338Y-98113437D01*
X159708569Y-98104013D01*
X159771905Y-98133515D01*
X159793804Y-98158787D01*
X159884278Y-98297268D01*
X159884283Y-98297273D01*
X159884284Y-98297276D01*
X160010968Y-98434889D01*
X160036760Y-98462906D01*
X160214424Y-98601189D01*
X160214425Y-98601189D01*
X160214427Y-98601191D01*
X160341135Y-98669761D01*
X160412426Y-98708342D01*
X160625365Y-98781444D01*
X160847431Y-98818500D01*
X161072569Y-98818500D01*
X161294635Y-98781444D01*
X161507574Y-98708342D01*
X161705576Y-98601189D01*
X161883240Y-98462906D01*
X162004594Y-98331082D01*
X162035715Y-98297276D01*
X162035715Y-98297275D01*
X162035722Y-98297268D01*
X162126193Y-98158790D01*
X162179338Y-98113437D01*
X162248569Y-98104013D01*
X162311905Y-98133515D01*
X162333804Y-98158787D01*
X162424278Y-98297268D01*
X162424283Y-98297273D01*
X162424284Y-98297276D01*
X162550968Y-98434889D01*
X162576760Y-98462906D01*
X162754424Y-98601189D01*
X162754425Y-98601189D01*
X162754427Y-98601191D01*
X162881135Y-98669761D01*
X162952426Y-98708342D01*
X163165365Y-98781444D01*
X163387431Y-98818500D01*
X163612569Y-98818500D01*
X163834635Y-98781444D01*
X164047574Y-98708342D01*
X164245576Y-98601189D01*
X164423240Y-98462906D01*
X164544594Y-98331082D01*
X164575715Y-98297276D01*
X164575717Y-98297273D01*
X164575722Y-98297268D01*
X164698860Y-98108791D01*
X164789296Y-97902616D01*
X164844564Y-97684368D01*
X164847164Y-97652993D01*
X164863156Y-97460005D01*
X164863156Y-97459994D01*
X164844565Y-97235640D01*
X164844563Y-97235628D01*
X164789296Y-97017385D01*
X164779071Y-96994075D01*
X164698860Y-96811209D01*
X164682706Y-96786484D01*
X164575723Y-96622734D01*
X164575715Y-96622723D01*
X164423243Y-96457097D01*
X164423238Y-96457092D01*
X164245577Y-96318812D01*
X164245572Y-96318808D01*
X164047580Y-96211661D01*
X164047577Y-96211659D01*
X164047574Y-96211658D01*
X164047571Y-96211657D01*
X164047569Y-96211656D01*
X163834637Y-96138556D01*
X163612569Y-96101500D01*
X163387431Y-96101500D01*
X163165362Y-96138556D01*
X162952430Y-96211656D01*
X162952419Y-96211661D01*
X162754427Y-96318808D01*
X162754422Y-96318812D01*
X162576761Y-96457092D01*
X162576756Y-96457097D01*
X162424284Y-96622723D01*
X162424276Y-96622734D01*
X162333808Y-96761206D01*
X162280662Y-96806562D01*
X162211431Y-96815986D01*
X162148095Y-96786484D01*
X162126192Y-96761206D01*
X162035723Y-96622734D01*
X162035715Y-96622723D01*
X161883243Y-96457097D01*
X161883238Y-96457092D01*
X161705577Y-96318812D01*
X161705572Y-96318808D01*
X161507580Y-96211661D01*
X161507577Y-96211659D01*
X161507574Y-96211658D01*
X161507571Y-96211657D01*
X161507569Y-96211656D01*
X161294637Y-96138556D01*
X161072569Y-96101500D01*
X160847431Y-96101500D01*
X160625362Y-96138556D01*
X160412430Y-96211656D01*
X160412419Y-96211661D01*
X160214427Y-96318808D01*
X160214422Y-96318812D01*
X160036761Y-96457092D01*
X160036756Y-96457097D01*
X159884284Y-96622723D01*
X159884276Y-96622734D01*
X159793808Y-96761206D01*
X159740662Y-96806562D01*
X159671431Y-96815986D01*
X159608095Y-96786484D01*
X159586192Y-96761206D01*
X159495723Y-96622734D01*
X159495715Y-96622723D01*
X159343243Y-96457097D01*
X159343238Y-96457092D01*
X159165577Y-96318812D01*
X159165572Y-96318808D01*
X158967580Y-96211661D01*
X158967577Y-96211659D01*
X158967574Y-96211658D01*
X158967571Y-96211657D01*
X158967569Y-96211656D01*
X158754637Y-96138556D01*
X158532569Y-96101500D01*
X158307431Y-96101500D01*
X158085362Y-96138556D01*
X157872430Y-96211656D01*
X157872419Y-96211661D01*
X157674427Y-96318808D01*
X157674422Y-96318812D01*
X157496761Y-96457092D01*
X157496756Y-96457097D01*
X157344284Y-96622723D01*
X157344276Y-96622734D01*
X157253808Y-96761206D01*
X157200662Y-96806562D01*
X157131431Y-96815986D01*
X157068095Y-96786484D01*
X157046192Y-96761206D01*
X156955723Y-96622734D01*
X156955715Y-96622723D01*
X156803243Y-96457097D01*
X156803238Y-96457092D01*
X156625577Y-96318812D01*
X156625572Y-96318808D01*
X156427580Y-96211661D01*
X156427577Y-96211659D01*
X156427574Y-96211658D01*
X156427571Y-96211657D01*
X156427569Y-96211656D01*
X156214637Y-96138556D01*
X155992569Y-96101500D01*
X155767431Y-96101500D01*
X155545362Y-96138556D01*
X155332430Y-96211656D01*
X155332419Y-96211661D01*
X155134427Y-96318808D01*
X155134422Y-96318812D01*
X154956761Y-96457092D01*
X154956756Y-96457097D01*
X154804284Y-96622723D01*
X154804276Y-96622734D01*
X154713808Y-96761206D01*
X154660662Y-96806562D01*
X154591431Y-96815986D01*
X154528095Y-96786484D01*
X154506192Y-96761206D01*
X154415723Y-96622734D01*
X154415715Y-96622723D01*
X154263243Y-96457097D01*
X154263238Y-96457092D01*
X154085577Y-96318812D01*
X154085572Y-96318808D01*
X153887580Y-96211661D01*
X153887577Y-96211659D01*
X153887574Y-96211658D01*
X153887571Y-96211657D01*
X153887569Y-96211656D01*
X153674637Y-96138556D01*
X153452569Y-96101500D01*
X153227431Y-96101500D01*
X153005362Y-96138556D01*
X152792430Y-96211656D01*
X152792419Y-96211661D01*
X152594427Y-96318808D01*
X152594422Y-96318812D01*
X152416761Y-96457092D01*
X152353548Y-96525760D01*
X152293661Y-96561750D01*
X152223823Y-96559649D01*
X152166207Y-96520124D01*
X152146138Y-96485110D01*
X152100889Y-96363796D01*
X152067214Y-96318812D01*
X152013261Y-96246739D01*
X151896204Y-96159111D01*
X151895172Y-96158726D01*
X151759203Y-96108011D01*
X151698654Y-96101500D01*
X151698638Y-96101500D01*
X149901362Y-96101500D01*
X149901345Y-96101500D01*
X149840797Y-96108011D01*
X149840795Y-96108011D01*
X149703795Y-96159111D01*
X149586739Y-96246739D01*
X149499111Y-96363795D01*
X149448011Y-96500795D01*
X149448011Y-96500797D01*
X149441500Y-96561345D01*
X146739212Y-96561345D01*
X146643243Y-96457097D01*
X146643238Y-96457092D01*
X146465577Y-96318812D01*
X146465572Y-96318808D01*
X146267580Y-96211661D01*
X146267577Y-96211659D01*
X146267574Y-96211658D01*
X146267571Y-96211657D01*
X146267569Y-96211656D01*
X146054637Y-96138556D01*
X145832569Y-96101500D01*
X145607431Y-96101500D01*
X145385362Y-96138556D01*
X145172430Y-96211656D01*
X145172419Y-96211661D01*
X144974427Y-96318808D01*
X144974422Y-96318812D01*
X144796761Y-96457092D01*
X144796756Y-96457097D01*
X144644284Y-96622723D01*
X144644276Y-96622734D01*
X144550251Y-96766650D01*
X144497105Y-96812007D01*
X144427873Y-96821430D01*
X144364538Y-96791928D01*
X144344868Y-96769951D01*
X144218113Y-96588926D01*
X144218108Y-96588920D01*
X144051082Y-96421894D01*
X143857578Y-96286399D01*
X143643492Y-96186570D01*
X143643486Y-96186567D01*
X143430000Y-96129364D01*
X143430000Y-97026988D01*
X143372993Y-96994075D01*
X143245826Y-96960000D01*
X143114174Y-96960000D01*
X142987007Y-96994075D01*
X142930000Y-97026988D01*
X142930000Y-96129364D01*
X142929999Y-96129364D01*
X142716513Y-96186567D01*
X142716507Y-96186570D01*
X142502422Y-96286399D01*
X142502420Y-96286400D01*
X142308926Y-96421886D01*
X142308920Y-96421891D01*
X142141891Y-96588920D01*
X142141890Y-96588922D01*
X142011575Y-96775031D01*
X141956998Y-96818655D01*
X141887499Y-96825848D01*
X141825145Y-96794326D01*
X141808425Y-96775031D01*
X141678109Y-96588922D01*
X141678108Y-96588920D01*
X141511082Y-96421894D01*
X141317578Y-96286399D01*
X141103492Y-96186570D01*
X141103486Y-96186567D01*
X140890000Y-96129364D01*
X140890000Y-97026988D01*
X140832993Y-96994075D01*
X140705826Y-96960000D01*
X140574174Y-96960000D01*
X140447007Y-96994075D01*
X140390000Y-97026988D01*
X140390000Y-96129364D01*
X140389999Y-96129364D01*
X140176513Y-96186567D01*
X140176507Y-96186570D01*
X139962422Y-96286399D01*
X139962420Y-96286400D01*
X139768926Y-96421886D01*
X139768920Y-96421891D01*
X139601891Y-96588920D01*
X139601890Y-96588922D01*
X139475131Y-96769952D01*
X139420554Y-96813577D01*
X139351055Y-96820769D01*
X139288701Y-96789247D01*
X139269752Y-96766656D01*
X139175722Y-96622732D01*
X139175715Y-96622725D01*
X139175715Y-96622723D01*
X139023243Y-96457097D01*
X139023238Y-96457092D01*
X138845577Y-96318812D01*
X138845572Y-96318808D01*
X138647580Y-96211661D01*
X138647577Y-96211659D01*
X138647574Y-96211658D01*
X138647571Y-96211657D01*
X138647569Y-96211656D01*
X138434637Y-96138556D01*
X138212569Y-96101500D01*
X137987431Y-96101500D01*
X137765362Y-96138556D01*
X137552430Y-96211656D01*
X137552419Y-96211661D01*
X137354427Y-96318808D01*
X137354422Y-96318812D01*
X137176761Y-96457092D01*
X137176756Y-96457097D01*
X137024284Y-96622723D01*
X137024276Y-96622734D01*
X136933808Y-96761206D01*
X136880662Y-96806562D01*
X136811431Y-96815986D01*
X136748095Y-96786484D01*
X136726192Y-96761206D01*
X136635723Y-96622734D01*
X136635715Y-96622723D01*
X136483243Y-96457097D01*
X136483238Y-96457092D01*
X136305577Y-96318812D01*
X136305572Y-96318808D01*
X136107580Y-96211661D01*
X136107577Y-96211659D01*
X136107574Y-96211658D01*
X136107571Y-96211657D01*
X136107569Y-96211656D01*
X135894637Y-96138556D01*
X135672569Y-96101500D01*
X135447431Y-96101500D01*
X135225362Y-96138556D01*
X135012430Y-96211656D01*
X135012419Y-96211661D01*
X134814427Y-96318808D01*
X134814422Y-96318812D01*
X134636761Y-96457092D01*
X134636756Y-96457097D01*
X134484284Y-96622723D01*
X134484276Y-96622734D01*
X134393808Y-96761206D01*
X134340662Y-96806562D01*
X134271431Y-96815986D01*
X134208095Y-96786484D01*
X134186192Y-96761206D01*
X134095723Y-96622734D01*
X134095715Y-96622723D01*
X133943243Y-96457097D01*
X133943238Y-96457092D01*
X133765577Y-96318812D01*
X133765572Y-96318808D01*
X133567580Y-96211661D01*
X133567577Y-96211659D01*
X133567574Y-96211658D01*
X133567571Y-96211657D01*
X133567569Y-96211656D01*
X133354637Y-96138556D01*
X133132569Y-96101500D01*
X132907431Y-96101500D01*
X132685362Y-96138556D01*
X132472430Y-96211656D01*
X132472419Y-96211661D01*
X132274427Y-96318808D01*
X132274422Y-96318812D01*
X132096761Y-96457092D01*
X132096756Y-96457097D01*
X131944284Y-96622723D01*
X131944276Y-96622734D01*
X131853808Y-96761206D01*
X131800662Y-96806562D01*
X131731431Y-96815986D01*
X131668095Y-96786484D01*
X131646192Y-96761206D01*
X131555723Y-96622734D01*
X131555715Y-96622723D01*
X131403243Y-96457097D01*
X131403238Y-96457092D01*
X131225577Y-96318812D01*
X131225572Y-96318808D01*
X131027580Y-96211661D01*
X131027577Y-96211659D01*
X131027574Y-96211658D01*
X131027571Y-96211657D01*
X131027569Y-96211656D01*
X130814637Y-96138556D01*
X130592569Y-96101500D01*
X130367431Y-96101500D01*
X130145362Y-96138556D01*
X129932430Y-96211656D01*
X129932419Y-96211661D01*
X129734427Y-96318808D01*
X129734422Y-96318812D01*
X129556761Y-96457092D01*
X129493548Y-96525760D01*
X129433661Y-96561750D01*
X129363823Y-96559649D01*
X129306207Y-96520124D01*
X129286138Y-96485110D01*
X129240889Y-96363796D01*
X129207214Y-96318812D01*
X129153261Y-96246739D01*
X129036204Y-96159111D01*
X129035172Y-96158726D01*
X128899203Y-96108011D01*
X128838654Y-96101500D01*
X128838638Y-96101500D01*
X127041362Y-96101500D01*
X127041345Y-96101500D01*
X126980797Y-96108011D01*
X126980795Y-96108011D01*
X126843795Y-96159111D01*
X126726739Y-96246739D01*
X126639111Y-96363795D01*
X126588011Y-96500795D01*
X126588011Y-96500797D01*
X126581500Y-96561345D01*
X100075500Y-96561345D01*
X100075500Y-92689999D01*
X130381127Y-92689999D01*
X130381128Y-92690000D01*
X131344314Y-92690000D01*
X131339920Y-92694394D01*
X131287259Y-92785606D01*
X131260000Y-92887339D01*
X131260000Y-92992661D01*
X131287259Y-93094394D01*
X131339920Y-93185606D01*
X131344314Y-93190000D01*
X130381128Y-93190000D01*
X130433730Y-93386317D01*
X130433734Y-93386326D01*
X130529865Y-93592482D01*
X130660342Y-93778820D01*
X130821179Y-93939657D01*
X131007517Y-94070134D01*
X131213673Y-94166265D01*
X131213682Y-94166269D01*
X131409999Y-94218872D01*
X131410000Y-94218871D01*
X131410000Y-93255686D01*
X131414394Y-93260080D01*
X131505606Y-93312741D01*
X131607339Y-93340000D01*
X131712661Y-93340000D01*
X131814394Y-93312741D01*
X131905606Y-93260080D01*
X131910000Y-93255686D01*
X131910000Y-94218872D01*
X132106317Y-94166269D01*
X132106326Y-94166265D01*
X132312482Y-94070134D01*
X132498820Y-93939657D01*
X132659657Y-93778820D01*
X132790134Y-93592482D01*
X132886265Y-93386326D01*
X132886269Y-93386317D01*
X132938872Y-93190000D01*
X131975686Y-93190000D01*
X131980080Y-93185606D01*
X132032741Y-93094394D01*
X132060000Y-92992661D01*
X132060000Y-92939998D01*
X140506502Y-92939998D01*
X140506502Y-92940001D01*
X140526456Y-93168081D01*
X140526457Y-93168089D01*
X140585714Y-93389238D01*
X140585718Y-93389249D01*
X140626451Y-93476601D01*
X140682477Y-93596749D01*
X140813802Y-93784300D01*
X140975700Y-93946198D01*
X141163251Y-94077523D01*
X141196856Y-94093193D01*
X141370750Y-94174281D01*
X141370752Y-94174281D01*
X141370757Y-94174284D01*
X141591913Y-94233543D01*
X141754832Y-94247796D01*
X141819998Y-94253498D01*
X141820000Y-94253498D01*
X141820002Y-94253498D01*
X141877021Y-94248509D01*
X142048087Y-94233543D01*
X142269243Y-94174284D01*
X142476749Y-94077523D01*
X142664300Y-93946198D01*
X142826198Y-93784300D01*
X142957523Y-93596749D01*
X143054284Y-93389243D01*
X143113543Y-93168087D01*
X143133498Y-92940000D01*
X143126499Y-92859998D01*
X153386807Y-92859998D01*
X153386807Y-92860001D01*
X153405541Y-93074136D01*
X153405542Y-93074144D01*
X153461176Y-93281772D01*
X153461177Y-93281774D01*
X153461178Y-93281777D01*
X153475617Y-93312741D01*
X153552024Y-93476597D01*
X153552026Y-93476601D01*
X153675319Y-93652682D01*
X153827317Y-93804680D01*
X154003398Y-93927973D01*
X154003400Y-93927974D01*
X154003403Y-93927976D01*
X154198223Y-94018822D01*
X154405858Y-94074458D01*
X154558816Y-94087840D01*
X154619998Y-94093193D01*
X154620000Y-94093193D01*
X154620002Y-94093193D01*
X154673535Y-94088509D01*
X154834142Y-94074458D01*
X155041777Y-94018822D01*
X155236597Y-93927976D01*
X155412681Y-93804681D01*
X155564681Y-93652681D01*
X155687976Y-93476597D01*
X155778822Y-93281777D01*
X155834458Y-93074142D01*
X155853193Y-92860000D01*
X155834458Y-92645858D01*
X155778822Y-92438223D01*
X155687976Y-92243404D01*
X155564681Y-92067319D01*
X155564679Y-92067316D01*
X155412682Y-91915319D01*
X155236601Y-91792026D01*
X155236597Y-91792024D01*
X155236595Y-91792023D01*
X155041777Y-91701178D01*
X155041774Y-91701177D01*
X155041772Y-91701176D01*
X154834144Y-91645542D01*
X154834136Y-91645541D01*
X154620002Y-91626807D01*
X154619998Y-91626807D01*
X154405863Y-91645541D01*
X154405855Y-91645542D01*
X154198227Y-91701176D01*
X154198221Y-91701179D01*
X154003405Y-91792023D01*
X154003403Y-91792024D01*
X153827316Y-91915320D01*
X153675320Y-92067316D01*
X153552024Y-92243403D01*
X153552023Y-92243405D01*
X153461179Y-92438221D01*
X153461176Y-92438227D01*
X153405542Y-92645855D01*
X153405541Y-92645863D01*
X153386807Y-92859998D01*
X143126499Y-92859998D01*
X143113543Y-92711913D01*
X143054284Y-92490757D01*
X142957523Y-92283251D01*
X142826198Y-92095700D01*
X142664300Y-91933802D01*
X142476749Y-91802477D01*
X142454337Y-91792026D01*
X142269249Y-91705718D01*
X142269238Y-91705714D01*
X142048089Y-91646457D01*
X142048081Y-91646456D01*
X141820002Y-91626502D01*
X141819998Y-91626502D01*
X141591918Y-91646456D01*
X141591910Y-91646457D01*
X141370761Y-91705714D01*
X141370750Y-91705718D01*
X141163254Y-91802475D01*
X141163252Y-91802476D01*
X141163251Y-91802477D01*
X140975700Y-91933802D01*
X140975698Y-91933803D01*
X140975695Y-91933806D01*
X140813806Y-92095695D01*
X140682476Y-92283252D01*
X140682475Y-92283254D01*
X140585718Y-92490750D01*
X140585714Y-92490761D01*
X140526457Y-92711910D01*
X140526456Y-92711918D01*
X140506502Y-92939998D01*
X132060000Y-92939998D01*
X132060000Y-92887339D01*
X132032741Y-92785606D01*
X131980080Y-92694394D01*
X131975686Y-92690000D01*
X132938872Y-92690000D01*
X132938872Y-92689999D01*
X132886269Y-92493682D01*
X132886265Y-92493673D01*
X132790134Y-92287517D01*
X132659657Y-92101179D01*
X132498820Y-91940342D01*
X132312482Y-91809865D01*
X132106328Y-91713734D01*
X131910000Y-91661127D01*
X131910000Y-92624314D01*
X131905606Y-92619920D01*
X131814394Y-92567259D01*
X131712661Y-92540000D01*
X131607339Y-92540000D01*
X131505606Y-92567259D01*
X131414394Y-92619920D01*
X131410000Y-92624314D01*
X131410000Y-91661127D01*
X131213671Y-91713734D01*
X131007517Y-91809865D01*
X130821179Y-91940342D01*
X130660342Y-92101179D01*
X130529865Y-92287517D01*
X130433734Y-92493673D01*
X130433730Y-92493682D01*
X130381127Y-92689999D01*
X100075500Y-92689999D01*
X100075500Y-88839999D01*
X130481127Y-88839999D01*
X130481128Y-88840000D01*
X131444314Y-88840000D01*
X131439920Y-88844394D01*
X131387259Y-88935606D01*
X131360000Y-89037339D01*
X131360000Y-89142661D01*
X131387259Y-89244394D01*
X131439920Y-89335606D01*
X131444314Y-89340000D01*
X130481128Y-89340000D01*
X130533730Y-89536317D01*
X130533734Y-89536326D01*
X130629865Y-89742482D01*
X130760342Y-89928820D01*
X130921179Y-90089657D01*
X131107517Y-90220134D01*
X131313673Y-90316265D01*
X131313682Y-90316269D01*
X131509999Y-90368872D01*
X131510000Y-90368871D01*
X131510000Y-89405686D01*
X131514394Y-89410080D01*
X131605606Y-89462741D01*
X131707339Y-89490000D01*
X131812661Y-89490000D01*
X131914394Y-89462741D01*
X132005606Y-89410080D01*
X132010000Y-89405686D01*
X132010000Y-90368872D01*
X132206317Y-90316269D01*
X132206326Y-90316265D01*
X132412482Y-90220134D01*
X132598820Y-90089657D01*
X132759657Y-89928820D01*
X132890134Y-89742482D01*
X132986265Y-89536326D01*
X132986269Y-89536317D01*
X133038872Y-89340000D01*
X132075686Y-89340000D01*
X132080080Y-89335606D01*
X132132741Y-89244394D01*
X132160000Y-89142661D01*
X132160000Y-89089998D01*
X140606502Y-89089998D01*
X140606502Y-89090001D01*
X140626456Y-89318081D01*
X140626457Y-89318089D01*
X140685714Y-89539238D01*
X140685718Y-89539249D01*
X140780487Y-89742482D01*
X140782477Y-89746749D01*
X140913802Y-89934300D01*
X141075700Y-90096198D01*
X141263251Y-90227523D01*
X141388091Y-90285736D01*
X141470750Y-90324281D01*
X141470752Y-90324281D01*
X141470757Y-90324284D01*
X141691913Y-90383543D01*
X141854832Y-90397796D01*
X141919998Y-90403498D01*
X141920000Y-90403498D01*
X141920002Y-90403498D01*
X141977021Y-90398509D01*
X142148087Y-90383543D01*
X142369243Y-90324284D01*
X142378434Y-90319998D01*
X150846807Y-90319998D01*
X150846807Y-90320001D01*
X150865541Y-90534136D01*
X150865542Y-90534144D01*
X150921176Y-90741772D01*
X150921177Y-90741774D01*
X150921178Y-90741777D01*
X151010032Y-90932325D01*
X151012024Y-90936597D01*
X151012026Y-90936601D01*
X151135319Y-91112682D01*
X151287317Y-91264680D01*
X151463398Y-91387973D01*
X151463400Y-91387974D01*
X151463403Y-91387976D01*
X151658223Y-91478822D01*
X151865858Y-91534458D01*
X152018816Y-91547840D01*
X152079998Y-91553193D01*
X152080000Y-91553193D01*
X152080002Y-91553193D01*
X152133535Y-91548509D01*
X152294142Y-91534458D01*
X152501777Y-91478822D01*
X152696597Y-91387976D01*
X152872681Y-91264681D01*
X153024681Y-91112681D01*
X153147976Y-90936597D01*
X153238822Y-90741777D01*
X153294458Y-90534142D01*
X153312818Y-90324284D01*
X153313193Y-90320001D01*
X153313193Y-90319998D01*
X153313193Y-90319997D01*
X155935340Y-90319997D01*
X155935340Y-90320002D01*
X155953944Y-90532654D01*
X155953945Y-90532662D01*
X156009194Y-90738853D01*
X156009197Y-90738859D01*
X156099413Y-90932329D01*
X156138415Y-90988030D01*
X156760000Y-90366445D01*
X156760000Y-90372661D01*
X156787259Y-90474394D01*
X156839920Y-90565606D01*
X156914394Y-90640080D01*
X157005606Y-90692741D01*
X157107339Y-90720000D01*
X157113554Y-90720000D01*
X156491968Y-91341584D01*
X156547663Y-91380582D01*
X156547669Y-91380586D01*
X156741140Y-91470802D01*
X156741146Y-91470805D01*
X156947337Y-91526054D01*
X156947345Y-91526055D01*
X157159998Y-91544660D01*
X157160002Y-91544660D01*
X157372654Y-91526055D01*
X157372662Y-91526054D01*
X157578853Y-91470805D01*
X157578864Y-91470801D01*
X157772325Y-91380589D01*
X157828030Y-91341583D01*
X157206447Y-90720000D01*
X157212661Y-90720000D01*
X157314394Y-90692741D01*
X157405606Y-90640080D01*
X157480080Y-90565606D01*
X157532741Y-90474394D01*
X157560000Y-90372661D01*
X157560000Y-90366446D01*
X158181583Y-90988029D01*
X158220589Y-90932325D01*
X158310801Y-90738864D01*
X158310805Y-90738853D01*
X158366054Y-90532662D01*
X158366055Y-90532654D01*
X158384660Y-90320002D01*
X158384660Y-90319997D01*
X158366055Y-90107345D01*
X158366054Y-90107337D01*
X158310805Y-89901146D01*
X158310802Y-89901140D01*
X158220586Y-89707669D01*
X158220582Y-89707663D01*
X158181584Y-89651968D01*
X157560000Y-90273552D01*
X157560000Y-90267339D01*
X157532741Y-90165606D01*
X157480080Y-90074394D01*
X157405606Y-89999920D01*
X157314394Y-89947259D01*
X157212661Y-89920000D01*
X157206447Y-89920000D01*
X157828030Y-89298415D01*
X157772329Y-89259413D01*
X157578859Y-89169197D01*
X157578853Y-89169194D01*
X157372662Y-89113945D01*
X157372654Y-89113944D01*
X157160002Y-89095340D01*
X157159998Y-89095340D01*
X156947345Y-89113944D01*
X156947337Y-89113945D01*
X156741146Y-89169194D01*
X156741140Y-89169197D01*
X156547671Y-89259412D01*
X156547669Y-89259413D01*
X156491969Y-89298415D01*
X156491968Y-89298415D01*
X157113554Y-89920000D01*
X157107339Y-89920000D01*
X157005606Y-89947259D01*
X156914394Y-89999920D01*
X156839920Y-90074394D01*
X156787259Y-90165606D01*
X156760000Y-90267339D01*
X156760000Y-90273553D01*
X156138415Y-89651968D01*
X156138415Y-89651969D01*
X156099413Y-89707669D01*
X156099412Y-89707671D01*
X156009197Y-89901140D01*
X156009194Y-89901146D01*
X155953945Y-90107337D01*
X155953944Y-90107345D01*
X155935340Y-90319997D01*
X153313193Y-90319997D01*
X153294458Y-90105863D01*
X153294458Y-90105858D01*
X153238822Y-89898223D01*
X153147976Y-89703404D01*
X153024681Y-89527319D01*
X153024679Y-89527316D01*
X152872682Y-89375319D01*
X152696601Y-89252026D01*
X152696597Y-89252024D01*
X152680234Y-89244394D01*
X152501777Y-89161178D01*
X152501774Y-89161177D01*
X152501772Y-89161176D01*
X152294144Y-89105542D01*
X152294136Y-89105541D01*
X152080002Y-89086807D01*
X152079998Y-89086807D01*
X151865863Y-89105541D01*
X151865855Y-89105542D01*
X151658227Y-89161176D01*
X151658221Y-89161179D01*
X151463405Y-89252023D01*
X151463403Y-89252024D01*
X151287316Y-89375320D01*
X151135320Y-89527316D01*
X151012024Y-89703403D01*
X151012023Y-89703405D01*
X150921179Y-89898221D01*
X150921176Y-89898227D01*
X150865542Y-90105855D01*
X150865541Y-90105863D01*
X150846807Y-90319998D01*
X142378434Y-90319998D01*
X142576749Y-90227523D01*
X142764300Y-90096198D01*
X142926198Y-89934300D01*
X143057523Y-89746749D01*
X143154284Y-89539243D01*
X143213543Y-89318087D01*
X143233498Y-89090000D01*
X143213543Y-88861913D01*
X143154284Y-88640757D01*
X143057523Y-88433251D01*
X142926198Y-88245700D01*
X142764300Y-88083802D01*
X142576749Y-87952477D01*
X142576745Y-87952475D01*
X142369249Y-87855718D01*
X142369238Y-87855714D01*
X142148089Y-87796457D01*
X142148081Y-87796456D01*
X141920002Y-87776502D01*
X141919998Y-87776502D01*
X141691918Y-87796456D01*
X141691910Y-87796457D01*
X141470761Y-87855714D01*
X141470750Y-87855718D01*
X141263254Y-87952475D01*
X141263252Y-87952476D01*
X141263251Y-87952477D01*
X141075700Y-88083802D01*
X141075698Y-88083803D01*
X141075695Y-88083806D01*
X140913806Y-88245695D01*
X140782476Y-88433252D01*
X140782475Y-88433254D01*
X140685718Y-88640750D01*
X140685714Y-88640761D01*
X140626457Y-88861910D01*
X140626456Y-88861918D01*
X140606502Y-89089998D01*
X132160000Y-89089998D01*
X132160000Y-89037339D01*
X132132741Y-88935606D01*
X132080080Y-88844394D01*
X132075686Y-88840000D01*
X133038872Y-88840000D01*
X133038872Y-88839999D01*
X132986269Y-88643682D01*
X132986265Y-88643673D01*
X132890134Y-88437517D01*
X132759657Y-88251179D01*
X132598820Y-88090342D01*
X132412482Y-87959865D01*
X132206328Y-87863734D01*
X132010000Y-87811127D01*
X132010000Y-88774314D01*
X132005606Y-88769920D01*
X131914394Y-88717259D01*
X131812661Y-88690000D01*
X131707339Y-88690000D01*
X131605606Y-88717259D01*
X131514394Y-88769920D01*
X131510000Y-88774314D01*
X131510000Y-87811127D01*
X131313671Y-87863734D01*
X131107517Y-87959865D01*
X130921179Y-88090342D01*
X130760342Y-88251179D01*
X130629865Y-88437517D01*
X130533734Y-88643673D01*
X130533730Y-88643682D01*
X130481127Y-88839999D01*
X100075500Y-88839999D01*
X100075500Y-84779999D01*
X130161127Y-84779999D01*
X130161128Y-84780000D01*
X131124314Y-84780000D01*
X131119920Y-84784394D01*
X131067259Y-84875606D01*
X131040000Y-84977339D01*
X131040000Y-85082661D01*
X131067259Y-85184394D01*
X131119920Y-85275606D01*
X131124314Y-85280000D01*
X130161128Y-85280000D01*
X130213730Y-85476317D01*
X130213734Y-85476326D01*
X130309865Y-85682482D01*
X130440342Y-85868820D01*
X130601179Y-86029657D01*
X130787517Y-86160134D01*
X130993673Y-86256265D01*
X130993682Y-86256269D01*
X131189999Y-86308872D01*
X131190000Y-86308871D01*
X131190000Y-85345686D01*
X131194394Y-85350080D01*
X131285606Y-85402741D01*
X131387339Y-85430000D01*
X131492661Y-85430000D01*
X131594394Y-85402741D01*
X131685606Y-85350080D01*
X131690000Y-85345686D01*
X131690000Y-86308872D01*
X131886317Y-86256269D01*
X131886326Y-86256265D01*
X132092482Y-86160134D01*
X132278820Y-86029657D01*
X132439657Y-85868820D01*
X132570134Y-85682482D01*
X132666265Y-85476326D01*
X132666269Y-85476317D01*
X132718872Y-85280000D01*
X131755686Y-85280000D01*
X131760080Y-85275606D01*
X131812741Y-85184394D01*
X131840000Y-85082661D01*
X131840000Y-85029998D01*
X140286502Y-85029998D01*
X140286502Y-85030001D01*
X140306456Y-85258081D01*
X140306457Y-85258089D01*
X140365714Y-85479238D01*
X140365718Y-85479249D01*
X140460487Y-85682482D01*
X140462477Y-85686749D01*
X140593802Y-85874300D01*
X140755700Y-86036198D01*
X140943251Y-86167523D01*
X141068091Y-86225736D01*
X141150750Y-86264281D01*
X141150752Y-86264281D01*
X141150757Y-86264284D01*
X141371913Y-86323543D01*
X141534832Y-86337796D01*
X141599998Y-86343498D01*
X141600000Y-86343498D01*
X141600002Y-86343498D01*
X141657021Y-86338509D01*
X141828087Y-86323543D01*
X142049243Y-86264284D01*
X142256749Y-86167523D01*
X142444300Y-86036198D01*
X142606198Y-85874300D01*
X142737523Y-85686749D01*
X142834284Y-85479243D01*
X142893543Y-85258087D01*
X142913498Y-85030000D01*
X142893543Y-84801913D01*
X142834284Y-84580757D01*
X142737523Y-84373251D01*
X142606198Y-84185700D01*
X142444300Y-84023802D01*
X142256749Y-83892477D01*
X142256745Y-83892475D01*
X142049249Y-83795718D01*
X142049238Y-83795714D01*
X141828089Y-83736457D01*
X141828081Y-83736456D01*
X141600002Y-83716502D01*
X141599998Y-83716502D01*
X141371918Y-83736456D01*
X141371910Y-83736457D01*
X141150761Y-83795714D01*
X141150750Y-83795718D01*
X140943254Y-83892475D01*
X140943252Y-83892476D01*
X140943251Y-83892477D01*
X140755700Y-84023802D01*
X140755698Y-84023803D01*
X140755695Y-84023806D01*
X140593806Y-84185695D01*
X140462476Y-84373252D01*
X140462475Y-84373254D01*
X140365718Y-84580750D01*
X140365714Y-84580761D01*
X140306457Y-84801910D01*
X140306456Y-84801918D01*
X140286502Y-85029998D01*
X131840000Y-85029998D01*
X131840000Y-84977339D01*
X131812741Y-84875606D01*
X131760080Y-84784394D01*
X131755686Y-84780000D01*
X132718872Y-84780000D01*
X132718872Y-84779999D01*
X132666269Y-84583682D01*
X132666265Y-84583673D01*
X132570134Y-84377517D01*
X132439657Y-84191179D01*
X132278820Y-84030342D01*
X132092482Y-83899865D01*
X131886328Y-83803734D01*
X131690000Y-83751127D01*
X131690000Y-84714314D01*
X131685606Y-84709920D01*
X131594394Y-84657259D01*
X131492661Y-84630000D01*
X131387339Y-84630000D01*
X131285606Y-84657259D01*
X131194394Y-84709920D01*
X131190000Y-84714314D01*
X131190000Y-83751127D01*
X130993671Y-83803734D01*
X130787517Y-83899865D01*
X130601179Y-84030342D01*
X130440342Y-84191179D01*
X130309865Y-84377517D01*
X130213734Y-84583673D01*
X130213730Y-84583682D01*
X130161127Y-84779999D01*
X100075500Y-84779999D01*
X100075500Y-81393999D01*
X130237127Y-81393999D01*
X130237128Y-81394000D01*
X131200314Y-81394000D01*
X131195920Y-81398394D01*
X131143259Y-81489606D01*
X131116000Y-81591339D01*
X131116000Y-81696661D01*
X131143259Y-81798394D01*
X131195920Y-81889606D01*
X131200314Y-81894000D01*
X130237128Y-81894000D01*
X130289730Y-82090317D01*
X130289734Y-82090326D01*
X130385865Y-82296482D01*
X130516342Y-82482820D01*
X130677179Y-82643657D01*
X130863517Y-82774134D01*
X131069673Y-82870265D01*
X131069682Y-82870269D01*
X131265999Y-82922872D01*
X131266000Y-82922871D01*
X131266000Y-81959686D01*
X131270394Y-81964080D01*
X131361606Y-82016741D01*
X131463339Y-82044000D01*
X131568661Y-82044000D01*
X131670394Y-82016741D01*
X131761606Y-81964080D01*
X131766000Y-81959686D01*
X131766000Y-82922872D01*
X131962317Y-82870269D01*
X131962326Y-82870265D01*
X132168482Y-82774134D01*
X132354820Y-82643657D01*
X132515657Y-82482820D01*
X132646134Y-82296482D01*
X132742265Y-82090326D01*
X132742269Y-82090317D01*
X132794872Y-81894000D01*
X131831686Y-81894000D01*
X131836080Y-81889606D01*
X131888741Y-81798394D01*
X131916000Y-81696661D01*
X131916000Y-81643998D01*
X140362502Y-81643998D01*
X140362502Y-81644001D01*
X140382456Y-81872081D01*
X140382457Y-81872089D01*
X140441714Y-82093238D01*
X140441718Y-82093249D01*
X140536487Y-82296482D01*
X140538477Y-82300749D01*
X140669802Y-82488300D01*
X140831700Y-82650198D01*
X141019251Y-82781523D01*
X141144091Y-82839736D01*
X141226750Y-82878281D01*
X141226752Y-82878281D01*
X141226757Y-82878284D01*
X141447913Y-82937543D01*
X141610832Y-82951796D01*
X141675998Y-82957498D01*
X141676000Y-82957498D01*
X141676002Y-82957498D01*
X141733021Y-82952509D01*
X141904087Y-82937543D01*
X142125243Y-82878284D01*
X142332749Y-82781523D01*
X142520300Y-82650198D01*
X142682198Y-82488300D01*
X142813523Y-82300749D01*
X142910284Y-82093243D01*
X142969543Y-81872087D01*
X142989498Y-81644000D01*
X142969543Y-81415913D01*
X142930445Y-81270000D01*
X155676835Y-81270000D01*
X155695465Y-81506714D01*
X155750895Y-81737595D01*
X155750895Y-81737597D01*
X155841757Y-81956959D01*
X155841759Y-81956962D01*
X155965820Y-82159410D01*
X155965821Y-82159413D01*
X155965824Y-82159416D01*
X156120031Y-82339969D01*
X156259797Y-82459340D01*
X156300586Y-82494178D01*
X156300589Y-82494179D01*
X156503037Y-82618240D01*
X156503040Y-82618242D01*
X156722403Y-82709104D01*
X156722404Y-82709104D01*
X156722406Y-82709105D01*
X156953289Y-82764535D01*
X157190000Y-82783165D01*
X157426711Y-82764535D01*
X157657594Y-82709105D01*
X157657596Y-82709104D01*
X157657597Y-82709104D01*
X157876959Y-82618242D01*
X157876960Y-82618241D01*
X157876963Y-82618240D01*
X158079416Y-82494176D01*
X158259969Y-82339969D01*
X158414176Y-82159416D01*
X158538240Y-81956963D01*
X158629105Y-81737594D01*
X158684535Y-81506711D01*
X158703165Y-81270000D01*
X160176835Y-81270000D01*
X160195465Y-81506714D01*
X160250895Y-81737595D01*
X160250895Y-81737597D01*
X160341757Y-81956959D01*
X160341759Y-81956962D01*
X160465820Y-82159410D01*
X160465821Y-82159413D01*
X160465824Y-82159416D01*
X160620031Y-82339969D01*
X160759797Y-82459340D01*
X160800586Y-82494178D01*
X160800589Y-82494179D01*
X161003037Y-82618240D01*
X161003040Y-82618242D01*
X161222403Y-82709104D01*
X161222404Y-82709104D01*
X161222406Y-82709105D01*
X161453289Y-82764535D01*
X161690000Y-82783165D01*
X161926711Y-82764535D01*
X162157594Y-82709105D01*
X162157596Y-82709104D01*
X162157597Y-82709104D01*
X162376959Y-82618242D01*
X162376960Y-82618241D01*
X162376963Y-82618240D01*
X162579416Y-82494176D01*
X162759969Y-82339969D01*
X162914176Y-82159416D01*
X163038240Y-81956963D01*
X163129105Y-81737594D01*
X163184535Y-81506711D01*
X163203165Y-81270000D01*
X163184535Y-81033289D01*
X163129105Y-80802406D01*
X163129104Y-80802403D01*
X163129104Y-80802402D01*
X163038242Y-80583040D01*
X163038240Y-80583037D01*
X162991323Y-80506476D01*
X162914178Y-80380588D01*
X162914178Y-80380586D01*
X162871402Y-80330502D01*
X162759969Y-80200031D01*
X162640596Y-80098076D01*
X162579413Y-80045821D01*
X162579410Y-80045820D01*
X162376962Y-79921759D01*
X162376959Y-79921757D01*
X162157596Y-79830895D01*
X161926714Y-79775465D01*
X161690000Y-79756835D01*
X161453285Y-79775465D01*
X161222404Y-79830895D01*
X161222402Y-79830895D01*
X161003040Y-79921757D01*
X161003037Y-79921759D01*
X160800589Y-80045820D01*
X160800586Y-80045821D01*
X160620031Y-80200031D01*
X160465821Y-80380586D01*
X160465820Y-80380589D01*
X160341759Y-80583037D01*
X160341757Y-80583040D01*
X160250895Y-80802402D01*
X160250895Y-80802404D01*
X160195465Y-81033285D01*
X160176835Y-81270000D01*
X158703165Y-81270000D01*
X158684535Y-81033289D01*
X158629105Y-80802406D01*
X158629104Y-80802403D01*
X158629104Y-80802402D01*
X158538242Y-80583040D01*
X158538240Y-80583037D01*
X158491323Y-80506476D01*
X158414178Y-80380588D01*
X158414178Y-80380586D01*
X158371402Y-80330502D01*
X158259969Y-80200031D01*
X158140596Y-80098076D01*
X158079413Y-80045821D01*
X158079410Y-80045820D01*
X157876962Y-79921759D01*
X157876959Y-79921757D01*
X157657596Y-79830895D01*
X157426714Y-79775465D01*
X157190000Y-79756835D01*
X156953285Y-79775465D01*
X156722404Y-79830895D01*
X156722402Y-79830895D01*
X156503040Y-79921757D01*
X156503037Y-79921759D01*
X156300589Y-80045820D01*
X156300586Y-80045821D01*
X156120031Y-80200031D01*
X155965821Y-80380586D01*
X155965820Y-80380589D01*
X155841759Y-80583037D01*
X155841757Y-80583040D01*
X155750895Y-80802402D01*
X155750895Y-80802404D01*
X155695465Y-81033285D01*
X155676835Y-81270000D01*
X142930445Y-81270000D01*
X142910284Y-81194757D01*
X142813523Y-80987251D01*
X142682198Y-80799700D01*
X142520300Y-80637802D01*
X142332749Y-80506477D01*
X142332745Y-80506475D01*
X142125249Y-80409718D01*
X142125238Y-80409714D01*
X141904089Y-80350457D01*
X141904081Y-80350456D01*
X141676002Y-80330502D01*
X141675998Y-80330502D01*
X141447918Y-80350456D01*
X141447910Y-80350457D01*
X141226761Y-80409714D01*
X141226750Y-80409718D01*
X141019254Y-80506475D01*
X141019252Y-80506476D01*
X141019251Y-80506477D01*
X140831700Y-80637802D01*
X140831698Y-80637803D01*
X140831695Y-80637806D01*
X140669806Y-80799695D01*
X140669803Y-80799698D01*
X140669802Y-80799700D01*
X140665966Y-80805179D01*
X140538476Y-80987252D01*
X140538475Y-80987254D01*
X140441718Y-81194750D01*
X140441714Y-81194761D01*
X140382457Y-81415910D01*
X140382456Y-81415918D01*
X140362502Y-81643998D01*
X131916000Y-81643998D01*
X131916000Y-81591339D01*
X131888741Y-81489606D01*
X131836080Y-81398394D01*
X131831686Y-81394000D01*
X132794872Y-81394000D01*
X132794872Y-81393999D01*
X132742269Y-81197682D01*
X132742265Y-81197673D01*
X132646134Y-80991517D01*
X132515657Y-80805179D01*
X132354820Y-80644342D01*
X132168482Y-80513865D01*
X131962328Y-80417734D01*
X131766000Y-80365127D01*
X131766000Y-81328314D01*
X131761606Y-81323920D01*
X131670394Y-81271259D01*
X131568661Y-81244000D01*
X131463339Y-81244000D01*
X131361606Y-81271259D01*
X131270394Y-81323920D01*
X131266000Y-81328314D01*
X131266000Y-80365127D01*
X131069671Y-80417734D01*
X130863517Y-80513865D01*
X130677179Y-80644342D01*
X130516342Y-80805179D01*
X130385865Y-80991517D01*
X130289734Y-81197673D01*
X130289730Y-81197682D01*
X130237127Y-81393999D01*
X100075500Y-81393999D01*
X100075500Y-77970000D01*
X132826835Y-77970000D01*
X132845465Y-78206714D01*
X132900895Y-78437595D01*
X132900895Y-78437597D01*
X132991757Y-78656959D01*
X132991759Y-78656962D01*
X133115820Y-78859410D01*
X133115821Y-78859413D01*
X133115824Y-78859416D01*
X133270031Y-79039969D01*
X133409797Y-79159340D01*
X133450586Y-79194178D01*
X133450589Y-79194179D01*
X133653037Y-79318240D01*
X133653040Y-79318242D01*
X133872403Y-79409104D01*
X133872404Y-79409104D01*
X133872406Y-79409105D01*
X134103289Y-79464535D01*
X134340000Y-79483165D01*
X134576711Y-79464535D01*
X134807594Y-79409105D01*
X134807596Y-79409104D01*
X134807597Y-79409104D01*
X135026959Y-79318242D01*
X135026960Y-79318241D01*
X135026963Y-79318240D01*
X135229416Y-79194176D01*
X135409969Y-79039969D01*
X135564176Y-78859416D01*
X135688240Y-78656963D01*
X135779105Y-78437594D01*
X135834535Y-78206711D01*
X135853165Y-77970000D01*
X139326835Y-77970000D01*
X139345465Y-78206714D01*
X139400895Y-78437595D01*
X139400895Y-78437597D01*
X139491757Y-78656959D01*
X139491759Y-78656962D01*
X139615820Y-78859410D01*
X139615821Y-78859413D01*
X139615824Y-78859416D01*
X139770031Y-79039969D01*
X139909797Y-79159340D01*
X139950586Y-79194178D01*
X139950589Y-79194179D01*
X140153037Y-79318240D01*
X140153040Y-79318242D01*
X140372403Y-79409104D01*
X140372404Y-79409104D01*
X140372406Y-79409105D01*
X140603289Y-79464535D01*
X140840000Y-79483165D01*
X141076711Y-79464535D01*
X141307594Y-79409105D01*
X141307596Y-79409104D01*
X141307597Y-79409104D01*
X141526959Y-79318242D01*
X141526960Y-79318241D01*
X141526963Y-79318240D01*
X141729416Y-79194176D01*
X141909969Y-79039969D01*
X142064176Y-78859416D01*
X142188240Y-78656963D01*
X142279105Y-78437594D01*
X142334535Y-78206711D01*
X142353165Y-77970000D01*
X142334535Y-77733289D01*
X142279105Y-77502406D01*
X142279104Y-77502403D01*
X142279104Y-77502402D01*
X142188242Y-77283040D01*
X142188240Y-77283037D01*
X142064179Y-77080589D01*
X142064178Y-77080586D01*
X142029340Y-77039797D01*
X141909969Y-76900031D01*
X141790596Y-76798076D01*
X141729413Y-76745821D01*
X141729410Y-76745820D01*
X141526962Y-76621759D01*
X141526959Y-76621757D01*
X141307596Y-76530895D01*
X141076714Y-76475465D01*
X140840000Y-76456835D01*
X140603285Y-76475465D01*
X140372404Y-76530895D01*
X140372402Y-76530895D01*
X140153040Y-76621757D01*
X140153037Y-76621759D01*
X139950589Y-76745820D01*
X139950586Y-76745821D01*
X139770031Y-76900031D01*
X139615821Y-77080586D01*
X139615820Y-77080589D01*
X139491759Y-77283037D01*
X139491757Y-77283040D01*
X139400895Y-77502402D01*
X139400895Y-77502404D01*
X139345465Y-77733285D01*
X139326835Y-77970000D01*
X135853165Y-77970000D01*
X135834535Y-77733289D01*
X135779105Y-77502406D01*
X135779104Y-77502403D01*
X135779104Y-77502402D01*
X135688242Y-77283040D01*
X135688240Y-77283037D01*
X135564179Y-77080589D01*
X135564178Y-77080586D01*
X135529340Y-77039797D01*
X135409969Y-76900031D01*
X135290596Y-76798076D01*
X135229413Y-76745821D01*
X135229410Y-76745820D01*
X135026962Y-76621759D01*
X135026959Y-76621757D01*
X134807596Y-76530895D01*
X134576714Y-76475465D01*
X134340000Y-76456835D01*
X134103285Y-76475465D01*
X133872404Y-76530895D01*
X133872402Y-76530895D01*
X133653040Y-76621757D01*
X133653037Y-76621759D01*
X133450589Y-76745820D01*
X133450586Y-76745821D01*
X133270031Y-76900031D01*
X133115821Y-77080586D01*
X133115820Y-77080589D01*
X132991759Y-77283037D01*
X132991757Y-77283040D01*
X132900895Y-77502402D01*
X132900895Y-77502404D01*
X132845465Y-77733285D01*
X132826835Y-77970000D01*
X100075500Y-77970000D01*
X100075500Y-73470000D01*
X132826835Y-73470000D01*
X132845465Y-73706714D01*
X132900895Y-73937595D01*
X132900895Y-73937597D01*
X132991757Y-74156959D01*
X132991759Y-74156962D01*
X133115820Y-74359410D01*
X133115821Y-74359413D01*
X133115824Y-74359416D01*
X133270031Y-74539969D01*
X133409797Y-74659340D01*
X133450586Y-74694178D01*
X133450589Y-74694179D01*
X133653037Y-74818240D01*
X133653040Y-74818242D01*
X133872403Y-74909104D01*
X133872404Y-74909104D01*
X133872406Y-74909105D01*
X134103289Y-74964535D01*
X134340000Y-74983165D01*
X134576711Y-74964535D01*
X134807594Y-74909105D01*
X134807596Y-74909104D01*
X134807597Y-74909104D01*
X135026959Y-74818242D01*
X135026960Y-74818241D01*
X135026963Y-74818240D01*
X135229416Y-74694176D01*
X135409969Y-74539969D01*
X135564176Y-74359416D01*
X135688240Y-74156963D01*
X135779105Y-73937594D01*
X135834535Y-73706711D01*
X135853165Y-73470000D01*
X139326835Y-73470000D01*
X139345465Y-73706714D01*
X139400895Y-73937595D01*
X139400895Y-73937597D01*
X139491757Y-74156959D01*
X139491759Y-74156962D01*
X139615820Y-74359410D01*
X139615821Y-74359413D01*
X139615824Y-74359416D01*
X139770031Y-74539969D01*
X139909797Y-74659340D01*
X139950586Y-74694178D01*
X139950589Y-74694179D01*
X140153037Y-74818240D01*
X140153040Y-74818242D01*
X140372403Y-74909104D01*
X140372404Y-74909104D01*
X140372406Y-74909105D01*
X140603289Y-74964535D01*
X140840000Y-74983165D01*
X141076711Y-74964535D01*
X141307594Y-74909105D01*
X141307596Y-74909104D01*
X141307597Y-74909104D01*
X141526959Y-74818242D01*
X141526960Y-74818241D01*
X141526963Y-74818240D01*
X141605683Y-74770000D01*
X155676835Y-74770000D01*
X155695465Y-75006714D01*
X155750895Y-75237595D01*
X155750895Y-75237597D01*
X155841757Y-75456959D01*
X155841759Y-75456962D01*
X155965820Y-75659410D01*
X155965821Y-75659413D01*
X155965824Y-75659416D01*
X156120031Y-75839969D01*
X156259797Y-75959340D01*
X156300586Y-75994178D01*
X156300589Y-75994179D01*
X156503037Y-76118240D01*
X156503040Y-76118242D01*
X156722403Y-76209104D01*
X156722404Y-76209104D01*
X156722406Y-76209105D01*
X156953289Y-76264535D01*
X157190000Y-76283165D01*
X157426711Y-76264535D01*
X157657594Y-76209105D01*
X157657596Y-76209104D01*
X157657597Y-76209104D01*
X157876959Y-76118242D01*
X157876960Y-76118241D01*
X157876963Y-76118240D01*
X158079416Y-75994176D01*
X158259969Y-75839969D01*
X158414176Y-75659416D01*
X158538240Y-75456963D01*
X158629105Y-75237594D01*
X158684535Y-75006711D01*
X158703165Y-74770000D01*
X160176835Y-74770000D01*
X160195465Y-75006714D01*
X160250895Y-75237595D01*
X160250895Y-75237597D01*
X160341757Y-75456959D01*
X160341759Y-75456962D01*
X160465820Y-75659410D01*
X160465821Y-75659413D01*
X160465824Y-75659416D01*
X160620031Y-75839969D01*
X160759797Y-75959340D01*
X160800586Y-75994178D01*
X160800589Y-75994179D01*
X161003037Y-76118240D01*
X161003040Y-76118242D01*
X161222403Y-76209104D01*
X161222404Y-76209104D01*
X161222406Y-76209105D01*
X161453289Y-76264535D01*
X161690000Y-76283165D01*
X161926711Y-76264535D01*
X162157594Y-76209105D01*
X162157596Y-76209104D01*
X162157597Y-76209104D01*
X162376959Y-76118242D01*
X162376960Y-76118241D01*
X162376963Y-76118240D01*
X162579416Y-75994176D01*
X162759969Y-75839969D01*
X162914176Y-75659416D01*
X163038240Y-75456963D01*
X163129105Y-75237594D01*
X163184535Y-75006711D01*
X163203165Y-74770000D01*
X163184535Y-74533289D01*
X163129105Y-74302406D01*
X163129104Y-74302403D01*
X163129104Y-74302402D01*
X163038242Y-74083040D01*
X163038240Y-74083037D01*
X162914179Y-73880589D01*
X162914178Y-73880586D01*
X162879340Y-73839797D01*
X162759969Y-73700031D01*
X162640596Y-73598076D01*
X162579413Y-73545821D01*
X162579410Y-73545820D01*
X162376962Y-73421759D01*
X162376959Y-73421757D01*
X162157596Y-73330895D01*
X161926714Y-73275465D01*
X161690000Y-73256835D01*
X161453285Y-73275465D01*
X161222404Y-73330895D01*
X161222402Y-73330895D01*
X161003040Y-73421757D01*
X161003037Y-73421759D01*
X160800589Y-73545820D01*
X160800586Y-73545821D01*
X160620031Y-73700031D01*
X160465821Y-73880586D01*
X160465820Y-73880589D01*
X160341759Y-74083037D01*
X160341757Y-74083040D01*
X160250895Y-74302402D01*
X160250895Y-74302404D01*
X160195465Y-74533285D01*
X160176835Y-74770000D01*
X158703165Y-74770000D01*
X158684535Y-74533289D01*
X158629105Y-74302406D01*
X158629104Y-74302403D01*
X158629104Y-74302402D01*
X158538242Y-74083040D01*
X158538240Y-74083037D01*
X158414179Y-73880589D01*
X158414178Y-73880586D01*
X158379340Y-73839797D01*
X158259969Y-73700031D01*
X158140596Y-73598076D01*
X158079413Y-73545821D01*
X158079410Y-73545820D01*
X157876962Y-73421759D01*
X157876959Y-73421757D01*
X157657596Y-73330895D01*
X157426714Y-73275465D01*
X157190000Y-73256835D01*
X156953285Y-73275465D01*
X156722404Y-73330895D01*
X156722402Y-73330895D01*
X156503040Y-73421757D01*
X156503037Y-73421759D01*
X156300589Y-73545820D01*
X156300586Y-73545821D01*
X156120031Y-73700031D01*
X155965821Y-73880586D01*
X155965820Y-73880589D01*
X155841759Y-74083037D01*
X155841757Y-74083040D01*
X155750895Y-74302402D01*
X155750895Y-74302404D01*
X155695465Y-74533285D01*
X155676835Y-74770000D01*
X141605683Y-74770000D01*
X141729416Y-74694176D01*
X141909969Y-74539969D01*
X142064176Y-74359416D01*
X142188240Y-74156963D01*
X142279105Y-73937594D01*
X142334535Y-73706711D01*
X142353165Y-73470000D01*
X142334535Y-73233289D01*
X142279105Y-73002406D01*
X142279104Y-73002403D01*
X142279104Y-73002402D01*
X142188242Y-72783040D01*
X142188240Y-72783037D01*
X142064179Y-72580589D01*
X142064178Y-72580586D01*
X142029340Y-72539797D01*
X141909969Y-72400031D01*
X141790596Y-72298076D01*
X141729413Y-72245821D01*
X141729410Y-72245820D01*
X141526962Y-72121759D01*
X141526959Y-72121757D01*
X141307596Y-72030895D01*
X141076714Y-71975465D01*
X140840000Y-71956835D01*
X140603285Y-71975465D01*
X140372404Y-72030895D01*
X140372402Y-72030895D01*
X140153040Y-72121757D01*
X140153037Y-72121759D01*
X139950589Y-72245820D01*
X139950586Y-72245821D01*
X139770031Y-72400031D01*
X139615821Y-72580586D01*
X139615820Y-72580589D01*
X139491759Y-72783037D01*
X139491757Y-72783040D01*
X139400895Y-73002402D01*
X139400895Y-73002404D01*
X139345465Y-73233285D01*
X139326835Y-73470000D01*
X135853165Y-73470000D01*
X135834535Y-73233289D01*
X135779105Y-73002406D01*
X135779104Y-73002403D01*
X135779104Y-73002402D01*
X135688242Y-72783040D01*
X135688240Y-72783037D01*
X135564179Y-72580589D01*
X135564178Y-72580586D01*
X135529340Y-72539797D01*
X135409969Y-72400031D01*
X135290596Y-72298076D01*
X135229413Y-72245821D01*
X135229410Y-72245820D01*
X135026962Y-72121759D01*
X135026959Y-72121757D01*
X134807596Y-72030895D01*
X134576714Y-71975465D01*
X134340000Y-71956835D01*
X134103285Y-71975465D01*
X133872404Y-72030895D01*
X133872402Y-72030895D01*
X133653040Y-72121757D01*
X133653037Y-72121759D01*
X133450589Y-72245820D01*
X133450586Y-72245821D01*
X133270031Y-72400031D01*
X133115821Y-72580586D01*
X133115820Y-72580589D01*
X132991759Y-72783037D01*
X132991757Y-72783040D01*
X132900895Y-73002402D01*
X132900895Y-73002404D01*
X132845465Y-73233285D01*
X132826835Y-73470000D01*
X100075500Y-73470000D01*
X100075500Y-71130000D01*
X155766835Y-71130000D01*
X155785465Y-71366714D01*
X155840895Y-71597595D01*
X155840895Y-71597597D01*
X155931757Y-71816959D01*
X155931759Y-71816962D01*
X156055820Y-72019410D01*
X156055821Y-72019413D01*
X156055824Y-72019416D01*
X156210031Y-72199969D01*
X156349797Y-72319340D01*
X156390586Y-72354178D01*
X156390589Y-72354179D01*
X156593037Y-72478240D01*
X156593040Y-72478242D01*
X156812403Y-72569104D01*
X156812404Y-72569104D01*
X156812406Y-72569105D01*
X157043289Y-72624535D01*
X157280000Y-72643165D01*
X157516711Y-72624535D01*
X157747594Y-72569105D01*
X157747596Y-72569104D01*
X157747597Y-72569104D01*
X157966959Y-72478242D01*
X157966960Y-72478241D01*
X157966963Y-72478240D01*
X158169416Y-72354176D01*
X158349969Y-72199969D01*
X158504176Y-72019416D01*
X158628240Y-71816963D01*
X158719105Y-71597594D01*
X158774535Y-71366711D01*
X158793165Y-71130000D01*
X160266835Y-71130000D01*
X160285465Y-71366714D01*
X160340895Y-71597595D01*
X160340895Y-71597597D01*
X160431757Y-71816959D01*
X160431759Y-71816962D01*
X160555820Y-72019410D01*
X160555821Y-72019413D01*
X160555824Y-72019416D01*
X160710031Y-72199969D01*
X160849797Y-72319340D01*
X160890586Y-72354178D01*
X160890589Y-72354179D01*
X161093037Y-72478240D01*
X161093040Y-72478242D01*
X161312403Y-72569104D01*
X161312404Y-72569104D01*
X161312406Y-72569105D01*
X161543289Y-72624535D01*
X161780000Y-72643165D01*
X162016711Y-72624535D01*
X162247594Y-72569105D01*
X162247596Y-72569104D01*
X162247597Y-72569104D01*
X162466959Y-72478242D01*
X162466960Y-72478241D01*
X162466963Y-72478240D01*
X162669416Y-72354176D01*
X162849969Y-72199969D01*
X163004176Y-72019416D01*
X163128240Y-71816963D01*
X163219105Y-71597594D01*
X163274535Y-71366711D01*
X163293165Y-71130000D01*
X163274535Y-70893289D01*
X163219105Y-70662406D01*
X163219104Y-70662403D01*
X163219104Y-70662402D01*
X163128242Y-70443040D01*
X163128240Y-70443037D01*
X163032736Y-70287190D01*
X163004178Y-70240588D01*
X163004178Y-70240586D01*
X162945673Y-70172086D01*
X162849969Y-70060031D01*
X162682821Y-69917273D01*
X162669413Y-69905821D01*
X162669410Y-69905820D01*
X162466962Y-69781759D01*
X162466959Y-69781757D01*
X162247596Y-69690895D01*
X162016714Y-69635465D01*
X161780000Y-69616835D01*
X161543285Y-69635465D01*
X161312404Y-69690895D01*
X161312402Y-69690895D01*
X161093040Y-69781757D01*
X161093037Y-69781759D01*
X160890589Y-69905820D01*
X160890586Y-69905821D01*
X160710031Y-70060031D01*
X160555821Y-70240586D01*
X160555820Y-70240589D01*
X160431759Y-70443037D01*
X160431757Y-70443040D01*
X160340895Y-70662402D01*
X160340895Y-70662404D01*
X160285465Y-70893285D01*
X160266835Y-71130000D01*
X158793165Y-71130000D01*
X158774535Y-70893289D01*
X158719105Y-70662406D01*
X158719104Y-70662403D01*
X158719104Y-70662402D01*
X158628242Y-70443040D01*
X158628240Y-70443037D01*
X158532736Y-70287190D01*
X158504178Y-70240588D01*
X158504178Y-70240586D01*
X158445673Y-70172086D01*
X158349969Y-70060031D01*
X158182821Y-69917273D01*
X158169413Y-69905821D01*
X158169410Y-69905820D01*
X157966962Y-69781759D01*
X157966959Y-69781757D01*
X157747596Y-69690895D01*
X157516714Y-69635465D01*
X157280000Y-69616835D01*
X157043285Y-69635465D01*
X156812404Y-69690895D01*
X156812402Y-69690895D01*
X156593040Y-69781757D01*
X156593037Y-69781759D01*
X156390589Y-69905820D01*
X156390586Y-69905821D01*
X156210031Y-70060031D01*
X156055821Y-70240586D01*
X156055820Y-70240589D01*
X155931759Y-70443037D01*
X155931757Y-70443040D01*
X155840895Y-70662402D01*
X155840895Y-70662404D01*
X155785465Y-70893285D01*
X155766835Y-71130000D01*
X100075500Y-71130000D01*
X100075500Y-68182155D01*
X110390000Y-68182155D01*
X110390000Y-68830000D01*
X111306988Y-68830000D01*
X111274075Y-68887007D01*
X111240000Y-69014174D01*
X111240000Y-69145826D01*
X111274075Y-69272993D01*
X111306988Y-69330000D01*
X110390000Y-69330000D01*
X110390000Y-69977844D01*
X110396401Y-70037372D01*
X110396403Y-70037379D01*
X110446645Y-70172086D01*
X110446649Y-70172093D01*
X110532809Y-70287187D01*
X110532812Y-70287190D01*
X110647906Y-70373350D01*
X110647913Y-70373354D01*
X110782620Y-70423596D01*
X110782627Y-70423598D01*
X110842155Y-70429999D01*
X110842172Y-70430000D01*
X111490000Y-70430000D01*
X111490000Y-69513012D01*
X111547007Y-69545925D01*
X111674174Y-69580000D01*
X111805826Y-69580000D01*
X111932993Y-69545925D01*
X111990000Y-69513012D01*
X111990000Y-70430000D01*
X112637828Y-70430000D01*
X112637844Y-70429999D01*
X112697372Y-70423598D01*
X112697379Y-70423596D01*
X112832086Y-70373354D01*
X112832093Y-70373350D01*
X112947187Y-70287190D01*
X112947190Y-70287187D01*
X113033350Y-70172093D01*
X113033354Y-70172086D01*
X113079681Y-70047877D01*
X113121552Y-69991943D01*
X113187016Y-69967526D01*
X113255289Y-69982377D01*
X113287089Y-70007223D01*
X113356760Y-70082906D01*
X113534424Y-70221189D01*
X113534425Y-70221189D01*
X113534427Y-70221191D01*
X113570272Y-70240589D01*
X113732426Y-70328342D01*
X113945365Y-70401444D01*
X114167431Y-70438500D01*
X114392569Y-70438500D01*
X114614635Y-70401444D01*
X114827574Y-70328342D01*
X115025576Y-70221189D01*
X115203240Y-70082906D01*
X115355722Y-69917268D01*
X115446193Y-69778790D01*
X115499338Y-69733437D01*
X115568569Y-69724013D01*
X115631905Y-69753515D01*
X115653804Y-69778787D01*
X115744278Y-69917268D01*
X115744283Y-69917273D01*
X115744284Y-69917276D01*
X115896756Y-70082902D01*
X115896761Y-70082907D01*
X115904909Y-70089249D01*
X116074424Y-70221189D01*
X116074425Y-70221189D01*
X116074427Y-70221191D01*
X116110272Y-70240589D01*
X116272426Y-70328342D01*
X116485365Y-70401444D01*
X116707431Y-70438500D01*
X116932569Y-70438500D01*
X117154635Y-70401444D01*
X117367574Y-70328342D01*
X117565576Y-70221189D01*
X117743240Y-70082906D01*
X117895722Y-69917268D01*
X117986193Y-69778790D01*
X118039338Y-69733437D01*
X118108569Y-69724013D01*
X118171905Y-69753515D01*
X118193804Y-69778787D01*
X118284278Y-69917268D01*
X118284283Y-69917273D01*
X118284284Y-69917276D01*
X118436756Y-70082902D01*
X118436761Y-70082907D01*
X118444909Y-70089249D01*
X118614424Y-70221189D01*
X118614425Y-70221189D01*
X118614427Y-70221191D01*
X118650272Y-70240589D01*
X118812426Y-70328342D01*
X119025365Y-70401444D01*
X119247431Y-70438500D01*
X119472569Y-70438500D01*
X119694635Y-70401444D01*
X119907574Y-70328342D01*
X120105576Y-70221189D01*
X120283240Y-70082906D01*
X120435722Y-69917268D01*
X120558860Y-69728791D01*
X120649296Y-69522616D01*
X120682879Y-69389999D01*
X132101127Y-69389999D01*
X132101128Y-69390000D01*
X133064314Y-69390000D01*
X133059920Y-69394394D01*
X133007259Y-69485606D01*
X132980000Y-69587339D01*
X132980000Y-69692661D01*
X133007259Y-69794394D01*
X133059920Y-69885606D01*
X133064314Y-69890000D01*
X132101128Y-69890000D01*
X132153730Y-70086317D01*
X132153734Y-70086326D01*
X132249865Y-70292482D01*
X132380342Y-70478820D01*
X132541179Y-70639657D01*
X132727517Y-70770134D01*
X132933673Y-70866265D01*
X132933682Y-70866269D01*
X133129999Y-70918872D01*
X133130000Y-70918871D01*
X133130000Y-69955686D01*
X133134394Y-69960080D01*
X133225606Y-70012741D01*
X133327339Y-70040000D01*
X133432661Y-70040000D01*
X133534394Y-70012741D01*
X133625606Y-69960080D01*
X133630000Y-69955686D01*
X133630000Y-70918872D01*
X133826317Y-70866269D01*
X133826326Y-70866265D01*
X134032482Y-70770134D01*
X134218820Y-70639657D01*
X134379657Y-70478820D01*
X134510134Y-70292482D01*
X134606265Y-70086326D01*
X134606269Y-70086317D01*
X134658872Y-69890000D01*
X133695686Y-69890000D01*
X133700080Y-69885606D01*
X133752741Y-69794394D01*
X133780000Y-69692661D01*
X133780000Y-69639998D01*
X142226502Y-69639998D01*
X142226502Y-69640001D01*
X142246456Y-69868081D01*
X142246457Y-69868089D01*
X142305714Y-70089238D01*
X142305718Y-70089249D01*
X142400487Y-70292482D01*
X142402477Y-70296749D01*
X142533802Y-70484300D01*
X142695700Y-70646198D01*
X142883251Y-70777523D01*
X143008091Y-70835736D01*
X143090750Y-70874281D01*
X143090752Y-70874281D01*
X143090757Y-70874284D01*
X143311913Y-70933543D01*
X143474832Y-70947796D01*
X143539998Y-70953498D01*
X143540000Y-70953498D01*
X143540002Y-70953498D01*
X143597021Y-70948509D01*
X143768087Y-70933543D01*
X143989243Y-70874284D01*
X144196749Y-70777523D01*
X144384300Y-70646198D01*
X144546198Y-70484300D01*
X144677523Y-70296749D01*
X144774284Y-70089243D01*
X144833543Y-69868087D01*
X144853498Y-69640000D01*
X144833543Y-69411913D01*
X144774284Y-69190757D01*
X144753332Y-69145826D01*
X144722640Y-69080005D01*
X144677523Y-68983251D01*
X144546198Y-68795700D01*
X144384300Y-68633802D01*
X144196749Y-68502477D01*
X144196745Y-68502475D01*
X143989249Y-68405718D01*
X143989238Y-68405714D01*
X143768089Y-68346457D01*
X143768081Y-68346456D01*
X143540002Y-68326502D01*
X143539998Y-68326502D01*
X143311918Y-68346456D01*
X143311910Y-68346457D01*
X143090761Y-68405714D01*
X143090750Y-68405718D01*
X142883254Y-68502475D01*
X142883252Y-68502476D01*
X142883251Y-68502477D01*
X142695700Y-68633802D01*
X142695698Y-68633803D01*
X142695695Y-68633806D01*
X142533806Y-68795695D01*
X142533803Y-68795698D01*
X142533802Y-68795700D01*
X142469868Y-68887007D01*
X142402476Y-68983252D01*
X142402475Y-68983254D01*
X142305718Y-69190750D01*
X142305714Y-69190761D01*
X142246457Y-69411910D01*
X142246456Y-69411918D01*
X142226502Y-69639998D01*
X133780000Y-69639998D01*
X133780000Y-69587339D01*
X133752741Y-69485606D01*
X133700080Y-69394394D01*
X133695686Y-69390000D01*
X134658872Y-69390000D01*
X134658872Y-69389999D01*
X134606269Y-69193682D01*
X134606265Y-69193673D01*
X134510134Y-68987517D01*
X134379657Y-68801179D01*
X134218820Y-68640342D01*
X134032482Y-68509865D01*
X133826328Y-68413734D01*
X133630000Y-68361127D01*
X133630000Y-69324314D01*
X133625606Y-69319920D01*
X133534394Y-69267259D01*
X133432661Y-69240000D01*
X133327339Y-69240000D01*
X133225606Y-69267259D01*
X133134394Y-69319920D01*
X133130000Y-69324314D01*
X133130000Y-68361127D01*
X132933671Y-68413734D01*
X132727517Y-68509865D01*
X132541179Y-68640342D01*
X132380342Y-68801179D01*
X132249865Y-68987517D01*
X132153734Y-69193673D01*
X132153730Y-69193682D01*
X132101127Y-69389999D01*
X120682879Y-69389999D01*
X120704564Y-69304368D01*
X120713978Y-69190761D01*
X120723156Y-69080005D01*
X120723156Y-69079994D01*
X120704565Y-68855640D01*
X120704563Y-68855628D01*
X120649296Y-68637385D01*
X120647726Y-68633806D01*
X120558860Y-68431209D01*
X120542706Y-68406484D01*
X120435723Y-68242734D01*
X120435715Y-68242723D01*
X120283243Y-68077097D01*
X120283238Y-68077092D01*
X120105577Y-67938812D01*
X120105572Y-67938808D01*
X119907580Y-67831661D01*
X119907577Y-67831659D01*
X119907574Y-67831658D01*
X119907571Y-67831657D01*
X119907569Y-67831656D01*
X119694637Y-67758556D01*
X119472569Y-67721500D01*
X119247431Y-67721500D01*
X119025362Y-67758556D01*
X118812430Y-67831656D01*
X118812419Y-67831661D01*
X118614427Y-67938808D01*
X118614422Y-67938812D01*
X118436761Y-68077092D01*
X118436756Y-68077097D01*
X118284284Y-68242723D01*
X118284276Y-68242734D01*
X118193808Y-68381206D01*
X118140662Y-68426562D01*
X118071431Y-68435986D01*
X118008095Y-68406484D01*
X117986192Y-68381206D01*
X117895723Y-68242734D01*
X117895715Y-68242723D01*
X117743243Y-68077097D01*
X117743238Y-68077092D01*
X117565577Y-67938812D01*
X117565572Y-67938808D01*
X117367580Y-67831661D01*
X117367577Y-67831659D01*
X117367574Y-67831658D01*
X117367571Y-67831657D01*
X117367569Y-67831656D01*
X117154637Y-67758556D01*
X116932569Y-67721500D01*
X116707431Y-67721500D01*
X116485362Y-67758556D01*
X116272430Y-67831656D01*
X116272419Y-67831661D01*
X116074427Y-67938808D01*
X116074422Y-67938812D01*
X115896761Y-68077092D01*
X115896756Y-68077097D01*
X115744284Y-68242723D01*
X115744276Y-68242734D01*
X115653808Y-68381206D01*
X115600662Y-68426562D01*
X115531431Y-68435986D01*
X115468095Y-68406484D01*
X115446192Y-68381206D01*
X115355723Y-68242734D01*
X115355715Y-68242723D01*
X115203243Y-68077097D01*
X115203238Y-68077092D01*
X115025577Y-67938812D01*
X115025572Y-67938808D01*
X114827580Y-67831661D01*
X114827577Y-67831659D01*
X114827574Y-67831658D01*
X114827571Y-67831657D01*
X114827569Y-67831656D01*
X114614637Y-67758556D01*
X114392569Y-67721500D01*
X114167431Y-67721500D01*
X113945362Y-67758556D01*
X113732430Y-67831656D01*
X113732419Y-67831661D01*
X113534427Y-67938808D01*
X113534422Y-67938812D01*
X113356761Y-68077092D01*
X113287092Y-68152773D01*
X113227205Y-68188763D01*
X113157367Y-68186662D01*
X113099751Y-68147137D01*
X113079681Y-68112122D01*
X113033354Y-67987913D01*
X113033350Y-67987906D01*
X112947190Y-67872812D01*
X112947187Y-67872809D01*
X112832093Y-67786649D01*
X112832086Y-67786645D01*
X112697379Y-67736403D01*
X112697372Y-67736401D01*
X112637844Y-67730000D01*
X111990000Y-67730000D01*
X111990000Y-68646988D01*
X111932993Y-68614075D01*
X111805826Y-68580000D01*
X111674174Y-68580000D01*
X111547007Y-68614075D01*
X111490000Y-68646988D01*
X111490000Y-67730000D01*
X110842155Y-67730000D01*
X110782627Y-67736401D01*
X110782620Y-67736403D01*
X110647913Y-67786645D01*
X110647906Y-67786649D01*
X110532812Y-67872809D01*
X110532809Y-67872812D01*
X110446649Y-67987906D01*
X110446645Y-67987913D01*
X110396403Y-68122620D01*
X110396401Y-68122627D01*
X110390000Y-68182155D01*
X100075500Y-68182155D01*
X100075500Y-66040000D01*
X135226835Y-66040000D01*
X135245465Y-66276714D01*
X135300895Y-66507595D01*
X135300895Y-66507597D01*
X135391757Y-66726959D01*
X135391759Y-66726962D01*
X135515820Y-66929410D01*
X135515821Y-66929413D01*
X135515824Y-66929416D01*
X135670031Y-67109969D01*
X135809797Y-67229340D01*
X135850586Y-67264178D01*
X135850589Y-67264179D01*
X136053037Y-67388240D01*
X136053040Y-67388242D01*
X136272403Y-67479104D01*
X136272404Y-67479104D01*
X136272406Y-67479105D01*
X136503289Y-67534535D01*
X136740000Y-67553165D01*
X136976711Y-67534535D01*
X137207594Y-67479105D01*
X137207596Y-67479104D01*
X137207597Y-67479104D01*
X137426959Y-67388242D01*
X137426960Y-67388241D01*
X137426963Y-67388240D01*
X137629416Y-67264176D01*
X137809969Y-67109969D01*
X137964176Y-66929416D01*
X138088240Y-66726963D01*
X138179105Y-66507594D01*
X138234535Y-66276711D01*
X138253165Y-66040000D01*
X141726835Y-66040000D01*
X141745465Y-66276714D01*
X141800895Y-66507595D01*
X141800895Y-66507597D01*
X141891757Y-66726959D01*
X141891759Y-66726962D01*
X142015820Y-66929410D01*
X142015821Y-66929413D01*
X142015824Y-66929416D01*
X142170031Y-67109969D01*
X142309797Y-67229340D01*
X142350586Y-67264178D01*
X142350589Y-67264179D01*
X142553037Y-67388240D01*
X142553040Y-67388242D01*
X142772403Y-67479104D01*
X142772404Y-67479104D01*
X142772406Y-67479105D01*
X143003289Y-67534535D01*
X143240000Y-67553165D01*
X143476711Y-67534535D01*
X143707594Y-67479105D01*
X143707596Y-67479104D01*
X143707597Y-67479104D01*
X143926959Y-67388242D01*
X143926960Y-67388241D01*
X143926963Y-67388240D01*
X144129416Y-67264176D01*
X144309969Y-67109969D01*
X144464176Y-66929416D01*
X144588240Y-66726963D01*
X144679105Y-66507594D01*
X144734535Y-66276711D01*
X144753165Y-66040000D01*
X144734535Y-65803289D01*
X144679105Y-65572406D01*
X144679104Y-65572403D01*
X144679104Y-65572402D01*
X144588242Y-65353040D01*
X144588240Y-65353037D01*
X144470675Y-65161189D01*
X144464178Y-65150588D01*
X144464178Y-65150586D01*
X144355129Y-65022907D01*
X144309969Y-64970031D01*
X144177950Y-64857276D01*
X144129413Y-64815821D01*
X144129410Y-64815820D01*
X143926962Y-64691759D01*
X143926959Y-64691757D01*
X143777863Y-64630000D01*
X155766835Y-64630000D01*
X155785465Y-64866714D01*
X155840895Y-65097595D01*
X155840895Y-65097597D01*
X155931757Y-65316959D01*
X155931759Y-65316962D01*
X156055820Y-65519410D01*
X156055821Y-65519413D01*
X156055824Y-65519416D01*
X156210031Y-65699969D01*
X156331003Y-65803289D01*
X156390586Y-65854178D01*
X156390589Y-65854179D01*
X156593037Y-65978240D01*
X156593040Y-65978242D01*
X156812403Y-66069104D01*
X156812404Y-66069104D01*
X156812406Y-66069105D01*
X157043289Y-66124535D01*
X157280000Y-66143165D01*
X157516711Y-66124535D01*
X157747594Y-66069105D01*
X157747596Y-66069104D01*
X157747597Y-66069104D01*
X157966959Y-65978242D01*
X157966960Y-65978241D01*
X157966963Y-65978240D01*
X158169416Y-65854176D01*
X158349969Y-65699969D01*
X158504176Y-65519416D01*
X158628240Y-65316963D01*
X158637987Y-65293433D01*
X158719104Y-65097597D01*
X158719104Y-65097596D01*
X158719105Y-65097594D01*
X158774535Y-64866711D01*
X158793165Y-64630000D01*
X160266835Y-64630000D01*
X160285465Y-64866714D01*
X160340895Y-65097595D01*
X160340895Y-65097597D01*
X160431757Y-65316959D01*
X160431759Y-65316962D01*
X160555820Y-65519410D01*
X160555821Y-65519413D01*
X160555824Y-65519416D01*
X160710031Y-65699969D01*
X160831003Y-65803289D01*
X160890586Y-65854178D01*
X160890589Y-65854179D01*
X161093037Y-65978240D01*
X161093040Y-65978242D01*
X161312403Y-66069104D01*
X161312404Y-66069104D01*
X161312406Y-66069105D01*
X161543289Y-66124535D01*
X161780000Y-66143165D01*
X162016711Y-66124535D01*
X162247594Y-66069105D01*
X162247596Y-66069104D01*
X162247597Y-66069104D01*
X162466959Y-65978242D01*
X162466960Y-65978241D01*
X162466963Y-65978240D01*
X162669416Y-65854176D01*
X162849969Y-65699969D01*
X163004176Y-65519416D01*
X163128240Y-65316963D01*
X163137987Y-65293433D01*
X163219104Y-65097597D01*
X163219104Y-65097596D01*
X163219105Y-65097594D01*
X163274535Y-64866711D01*
X163293165Y-64630000D01*
X163274535Y-64393289D01*
X163219105Y-64162406D01*
X163219104Y-64162403D01*
X163219104Y-64162402D01*
X163128242Y-63943040D01*
X163128240Y-63943037D01*
X163057136Y-63827007D01*
X163004178Y-63740588D01*
X163004178Y-63740586D01*
X162956089Y-63684281D01*
X162849969Y-63560031D01*
X162728390Y-63456193D01*
X162669413Y-63405821D01*
X162669410Y-63405820D01*
X162466962Y-63281759D01*
X162466959Y-63281757D01*
X162247596Y-63190895D01*
X162016714Y-63135465D01*
X161780000Y-63116835D01*
X161543285Y-63135465D01*
X161312404Y-63190895D01*
X161312402Y-63190895D01*
X161093040Y-63281757D01*
X161093037Y-63281759D01*
X160890589Y-63405820D01*
X160890586Y-63405821D01*
X160710031Y-63560031D01*
X160555821Y-63740586D01*
X160555820Y-63740589D01*
X160431759Y-63943037D01*
X160431757Y-63943040D01*
X160340895Y-64162402D01*
X160340895Y-64162404D01*
X160285465Y-64393285D01*
X160266835Y-64630000D01*
X158793165Y-64630000D01*
X158774535Y-64393289D01*
X158719105Y-64162406D01*
X158719104Y-64162403D01*
X158719104Y-64162402D01*
X158628242Y-63943040D01*
X158628240Y-63943037D01*
X158557136Y-63827007D01*
X158504178Y-63740588D01*
X158504178Y-63740586D01*
X158456089Y-63684281D01*
X158349969Y-63560031D01*
X158228390Y-63456193D01*
X158169413Y-63405821D01*
X158169410Y-63405820D01*
X157966962Y-63281759D01*
X157966959Y-63281757D01*
X157747596Y-63190895D01*
X157516714Y-63135465D01*
X157280000Y-63116835D01*
X157043285Y-63135465D01*
X156812404Y-63190895D01*
X156812402Y-63190895D01*
X156593040Y-63281757D01*
X156593037Y-63281759D01*
X156390589Y-63405820D01*
X156390586Y-63405821D01*
X156210031Y-63560031D01*
X156055821Y-63740586D01*
X156055820Y-63740589D01*
X155931759Y-63943037D01*
X155931757Y-63943040D01*
X155840895Y-64162402D01*
X155840895Y-64162404D01*
X155785465Y-64393285D01*
X155766835Y-64630000D01*
X143777863Y-64630000D01*
X143707596Y-64600895D01*
X143476714Y-64545465D01*
X143240000Y-64526835D01*
X143003285Y-64545465D01*
X142772404Y-64600895D01*
X142772402Y-64600895D01*
X142553040Y-64691757D01*
X142553037Y-64691759D01*
X142350589Y-64815820D01*
X142350586Y-64815821D01*
X142170031Y-64970031D01*
X142015821Y-65150586D01*
X142015820Y-65150589D01*
X141891759Y-65353037D01*
X141891757Y-65353040D01*
X141800895Y-65572402D01*
X141800895Y-65572404D01*
X141745465Y-65803285D01*
X141726835Y-66040000D01*
X138253165Y-66040000D01*
X138234535Y-65803289D01*
X138179105Y-65572406D01*
X138179104Y-65572403D01*
X138179104Y-65572402D01*
X138088242Y-65353040D01*
X138088240Y-65353037D01*
X137970675Y-65161189D01*
X137964178Y-65150588D01*
X137964178Y-65150586D01*
X137855129Y-65022907D01*
X137809969Y-64970031D01*
X137677950Y-64857276D01*
X137629413Y-64815821D01*
X137629410Y-64815820D01*
X137426962Y-64691759D01*
X137426959Y-64691757D01*
X137207596Y-64600895D01*
X136976714Y-64545465D01*
X136740000Y-64526835D01*
X136503285Y-64545465D01*
X136272404Y-64600895D01*
X136272402Y-64600895D01*
X136053040Y-64691757D01*
X136053037Y-64691759D01*
X135850589Y-64815820D01*
X135850586Y-64815821D01*
X135670031Y-64970031D01*
X135515821Y-65150586D01*
X135515820Y-65150589D01*
X135391759Y-65353037D01*
X135391757Y-65353040D01*
X135300895Y-65572402D01*
X135300895Y-65572404D01*
X135245465Y-65803285D01*
X135226835Y-66040000D01*
X100075500Y-66040000D01*
X100075500Y-63121345D01*
X102921500Y-63121345D01*
X102921500Y-64918654D01*
X102928011Y-64979202D01*
X102928011Y-64979204D01*
X102972170Y-65097594D01*
X102979111Y-65116204D01*
X103066739Y-65233261D01*
X103183796Y-65320889D01*
X103320799Y-65371989D01*
X103348050Y-65374918D01*
X103381345Y-65378499D01*
X103381362Y-65378500D01*
X105178638Y-65378500D01*
X105178654Y-65378499D01*
X105205692Y-65375591D01*
X105239201Y-65371989D01*
X105376204Y-65320889D01*
X105493261Y-65233261D01*
X105580889Y-65116204D01*
X105629223Y-64986615D01*
X105671093Y-64930686D01*
X105736557Y-64906269D01*
X105804830Y-64921121D01*
X105833084Y-64942272D01*
X105948917Y-65058105D01*
X106142421Y-65193600D01*
X106356507Y-65293429D01*
X106356516Y-65293433D01*
X106570000Y-65350634D01*
X106570000Y-64453012D01*
X106627007Y-64485925D01*
X106754174Y-64520000D01*
X106885826Y-64520000D01*
X107012993Y-64485925D01*
X107070000Y-64453012D01*
X107070000Y-65350633D01*
X107283483Y-65293433D01*
X107283492Y-65293429D01*
X107497578Y-65193600D01*
X107691082Y-65058105D01*
X107858105Y-64891082D01*
X107984868Y-64710048D01*
X108039445Y-64666423D01*
X108108944Y-64659231D01*
X108171298Y-64690753D01*
X108190251Y-64713350D01*
X108284276Y-64857265D01*
X108284284Y-64857276D01*
X108403355Y-64986619D01*
X108436760Y-65022906D01*
X108614424Y-65161189D01*
X108614425Y-65161189D01*
X108614427Y-65161191D01*
X108674314Y-65193600D01*
X108812426Y-65268342D01*
X109025365Y-65341444D01*
X109247431Y-65378500D01*
X109472569Y-65378500D01*
X109694635Y-65341444D01*
X109907574Y-65268342D01*
X110105576Y-65161189D01*
X110283240Y-65022906D01*
X110404594Y-64891082D01*
X110435715Y-64857276D01*
X110435715Y-64857275D01*
X110435722Y-64857268D01*
X110526193Y-64718790D01*
X110579338Y-64673437D01*
X110648569Y-64664013D01*
X110711905Y-64693515D01*
X110733804Y-64718787D01*
X110824278Y-64857268D01*
X110824283Y-64857273D01*
X110824284Y-64857276D01*
X110943355Y-64986619D01*
X110976760Y-65022906D01*
X111154424Y-65161189D01*
X111154425Y-65161189D01*
X111154427Y-65161191D01*
X111214314Y-65193600D01*
X111352426Y-65268342D01*
X111565365Y-65341444D01*
X111787431Y-65378500D01*
X112012569Y-65378500D01*
X112234635Y-65341444D01*
X112447574Y-65268342D01*
X112645576Y-65161189D01*
X112823240Y-65022906D01*
X112944594Y-64891082D01*
X112975715Y-64857276D01*
X112975715Y-64857275D01*
X112975722Y-64857268D01*
X113066193Y-64718790D01*
X113119338Y-64673437D01*
X113188569Y-64664013D01*
X113251905Y-64693515D01*
X113273804Y-64718787D01*
X113364278Y-64857268D01*
X113364283Y-64857273D01*
X113364284Y-64857276D01*
X113483355Y-64986619D01*
X113516760Y-65022906D01*
X113694424Y-65161189D01*
X113694425Y-65161189D01*
X113694427Y-65161191D01*
X113754314Y-65193600D01*
X113892426Y-65268342D01*
X114105365Y-65341444D01*
X114327431Y-65378500D01*
X114552569Y-65378500D01*
X114774635Y-65341444D01*
X114987574Y-65268342D01*
X115185576Y-65161189D01*
X115363240Y-65022906D01*
X115484594Y-64891082D01*
X115515715Y-64857276D01*
X115515715Y-64857275D01*
X115515722Y-64857268D01*
X115606193Y-64718790D01*
X115659338Y-64673437D01*
X115728569Y-64664013D01*
X115791905Y-64693515D01*
X115813804Y-64718787D01*
X115904278Y-64857268D01*
X115904283Y-64857273D01*
X115904284Y-64857276D01*
X116023355Y-64986619D01*
X116056760Y-65022906D01*
X116234424Y-65161189D01*
X116234425Y-65161189D01*
X116234427Y-65161191D01*
X116294314Y-65193600D01*
X116432426Y-65268342D01*
X116645365Y-65341444D01*
X116867431Y-65378500D01*
X117092569Y-65378500D01*
X117314635Y-65341444D01*
X117527574Y-65268342D01*
X117725576Y-65161189D01*
X117903240Y-65022906D01*
X118024594Y-64891082D01*
X118055715Y-64857276D01*
X118055715Y-64857275D01*
X118055722Y-64857268D01*
X118146193Y-64718790D01*
X118199338Y-64673437D01*
X118268569Y-64664013D01*
X118331905Y-64693515D01*
X118353804Y-64718787D01*
X118444278Y-64857268D01*
X118444283Y-64857273D01*
X118444284Y-64857276D01*
X118563355Y-64986619D01*
X118596760Y-65022906D01*
X118774424Y-65161189D01*
X118774425Y-65161189D01*
X118774427Y-65161191D01*
X118834314Y-65193600D01*
X118972426Y-65268342D01*
X119185365Y-65341444D01*
X119407431Y-65378500D01*
X119632569Y-65378500D01*
X119854635Y-65341444D01*
X120067574Y-65268342D01*
X120265576Y-65161189D01*
X120443240Y-65022906D01*
X120564594Y-64891082D01*
X120595715Y-64857276D01*
X120595715Y-64857275D01*
X120595722Y-64857268D01*
X120686193Y-64718790D01*
X120739338Y-64673437D01*
X120808569Y-64664013D01*
X120871905Y-64693515D01*
X120893804Y-64718787D01*
X120984278Y-64857268D01*
X120984283Y-64857273D01*
X120984284Y-64857276D01*
X121103355Y-64986619D01*
X121136760Y-65022906D01*
X121314424Y-65161189D01*
X121314425Y-65161189D01*
X121314427Y-65161191D01*
X121374314Y-65193600D01*
X121512426Y-65268342D01*
X121725365Y-65341444D01*
X121947431Y-65378500D01*
X122172569Y-65378500D01*
X122394635Y-65341444D01*
X122607574Y-65268342D01*
X122805576Y-65161189D01*
X122983240Y-65022906D01*
X123104594Y-64891082D01*
X123135715Y-64857276D01*
X123135717Y-64857273D01*
X123135722Y-64857268D01*
X123258860Y-64668791D01*
X123349296Y-64462616D01*
X123404564Y-64244368D01*
X123411356Y-64162402D01*
X123423156Y-64020005D01*
X123423156Y-64019994D01*
X123404565Y-63795640D01*
X123404563Y-63795628D01*
X123351864Y-63587524D01*
X123349296Y-63577384D01*
X123258860Y-63371209D01*
X123242706Y-63346484D01*
X123135723Y-63182734D01*
X123135715Y-63182723D01*
X122983243Y-63017097D01*
X122983238Y-63017092D01*
X122805577Y-62878812D01*
X122805572Y-62878808D01*
X122607580Y-62771661D01*
X122607577Y-62771659D01*
X122607574Y-62771658D01*
X122607571Y-62771657D01*
X122607569Y-62771656D01*
X122394637Y-62698556D01*
X122172569Y-62661500D01*
X121947431Y-62661500D01*
X121725362Y-62698556D01*
X121512430Y-62771656D01*
X121512419Y-62771661D01*
X121314427Y-62878808D01*
X121314422Y-62878812D01*
X121136761Y-63017092D01*
X121136756Y-63017097D01*
X120984284Y-63182723D01*
X120984276Y-63182734D01*
X120893808Y-63321206D01*
X120840662Y-63366562D01*
X120771431Y-63375986D01*
X120708095Y-63346484D01*
X120686192Y-63321206D01*
X120595723Y-63182734D01*
X120595715Y-63182723D01*
X120443243Y-63017097D01*
X120443238Y-63017092D01*
X120265577Y-62878812D01*
X120265572Y-62878808D01*
X120067580Y-62771661D01*
X120067577Y-62771659D01*
X120067574Y-62771658D01*
X120067571Y-62771657D01*
X120067569Y-62771656D01*
X119854637Y-62698556D01*
X119632569Y-62661500D01*
X119407431Y-62661500D01*
X119185362Y-62698556D01*
X118972430Y-62771656D01*
X118972419Y-62771661D01*
X118774427Y-62878808D01*
X118774422Y-62878812D01*
X118596761Y-63017092D01*
X118596756Y-63017097D01*
X118444284Y-63182723D01*
X118444276Y-63182734D01*
X118353808Y-63321206D01*
X118300662Y-63366562D01*
X118231431Y-63375986D01*
X118168095Y-63346484D01*
X118146192Y-63321206D01*
X118055723Y-63182734D01*
X118055715Y-63182723D01*
X117903243Y-63017097D01*
X117903238Y-63017092D01*
X117725577Y-62878812D01*
X117725572Y-62878808D01*
X117527580Y-62771661D01*
X117527577Y-62771659D01*
X117527574Y-62771658D01*
X117527571Y-62771657D01*
X117527569Y-62771656D01*
X117314637Y-62698556D01*
X117092569Y-62661500D01*
X116867431Y-62661500D01*
X116645362Y-62698556D01*
X116432430Y-62771656D01*
X116432419Y-62771661D01*
X116234427Y-62878808D01*
X116234422Y-62878812D01*
X116056761Y-63017092D01*
X116056756Y-63017097D01*
X115904284Y-63182723D01*
X115904276Y-63182734D01*
X115813808Y-63321206D01*
X115760662Y-63366562D01*
X115691431Y-63375986D01*
X115628095Y-63346484D01*
X115606192Y-63321206D01*
X115515723Y-63182734D01*
X115515715Y-63182723D01*
X115363243Y-63017097D01*
X115363238Y-63017092D01*
X115185577Y-62878812D01*
X115185572Y-62878808D01*
X114987580Y-62771661D01*
X114987577Y-62771659D01*
X114987574Y-62771658D01*
X114987571Y-62771657D01*
X114987569Y-62771656D01*
X114774637Y-62698556D01*
X114552569Y-62661500D01*
X114327431Y-62661500D01*
X114105362Y-62698556D01*
X113892430Y-62771656D01*
X113892419Y-62771661D01*
X113694427Y-62878808D01*
X113694422Y-62878812D01*
X113516761Y-63017092D01*
X113516756Y-63017097D01*
X113364284Y-63182723D01*
X113364276Y-63182734D01*
X113273808Y-63321206D01*
X113220662Y-63366562D01*
X113151431Y-63375986D01*
X113088095Y-63346484D01*
X113066192Y-63321206D01*
X112975723Y-63182734D01*
X112975715Y-63182723D01*
X112823243Y-63017097D01*
X112823238Y-63017092D01*
X112645577Y-62878812D01*
X112645572Y-62878808D01*
X112447580Y-62771661D01*
X112447577Y-62771659D01*
X112447574Y-62771658D01*
X112447571Y-62771657D01*
X112447569Y-62771656D01*
X112234637Y-62698556D01*
X112012569Y-62661500D01*
X111787431Y-62661500D01*
X111565362Y-62698556D01*
X111352430Y-62771656D01*
X111352419Y-62771661D01*
X111154427Y-62878808D01*
X111154422Y-62878812D01*
X110976761Y-63017092D01*
X110976756Y-63017097D01*
X110824284Y-63182723D01*
X110824276Y-63182734D01*
X110733808Y-63321206D01*
X110680662Y-63366562D01*
X110611431Y-63375986D01*
X110548095Y-63346484D01*
X110526192Y-63321206D01*
X110435723Y-63182734D01*
X110435715Y-63182723D01*
X110283243Y-63017097D01*
X110283238Y-63017092D01*
X110105577Y-62878812D01*
X110105572Y-62878808D01*
X109907580Y-62771661D01*
X109907577Y-62771659D01*
X109907574Y-62771658D01*
X109907571Y-62771657D01*
X109907569Y-62771656D01*
X109694637Y-62698556D01*
X109472569Y-62661500D01*
X109247431Y-62661500D01*
X109025362Y-62698556D01*
X108812430Y-62771656D01*
X108812419Y-62771661D01*
X108614427Y-62878808D01*
X108614422Y-62878812D01*
X108436761Y-63017092D01*
X108436756Y-63017097D01*
X108284284Y-63182723D01*
X108284276Y-63182734D01*
X108190251Y-63326650D01*
X108137105Y-63372007D01*
X108067873Y-63381430D01*
X108004538Y-63351928D01*
X107984868Y-63329951D01*
X107858113Y-63148926D01*
X107858108Y-63148920D01*
X107691082Y-62981894D01*
X107497578Y-62846399D01*
X107283492Y-62746570D01*
X107283486Y-62746567D01*
X107070000Y-62689364D01*
X107070000Y-63586988D01*
X107012993Y-63554075D01*
X106885826Y-63520000D01*
X106754174Y-63520000D01*
X106627007Y-63554075D01*
X106570000Y-63586988D01*
X106570000Y-62689364D01*
X106569999Y-62689364D01*
X106356513Y-62746567D01*
X106356507Y-62746570D01*
X106142422Y-62846399D01*
X106142420Y-62846400D01*
X105948926Y-62981886D01*
X105833084Y-63097728D01*
X105771761Y-63131212D01*
X105702069Y-63126228D01*
X105646136Y-63084356D01*
X105629223Y-63053384D01*
X105580889Y-62923796D01*
X105493261Y-62806739D01*
X105376204Y-62719111D01*
X105239203Y-62668011D01*
X105178654Y-62661500D01*
X105178638Y-62661500D01*
X103381362Y-62661500D01*
X103381345Y-62661500D01*
X103320797Y-62668011D01*
X103320795Y-62668011D01*
X103183795Y-62719111D01*
X103066739Y-62806739D01*
X102979111Y-62923795D01*
X102928011Y-63060795D01*
X102928011Y-63060797D01*
X102921500Y-63121345D01*
X100075500Y-63121345D01*
X100075500Y-62449998D01*
X131646502Y-62449998D01*
X131646502Y-62450001D01*
X131666456Y-62678081D01*
X131666457Y-62678089D01*
X131725714Y-62899238D01*
X131725718Y-62899249D01*
X131801048Y-63060795D01*
X131822477Y-63106749D01*
X131953802Y-63294300D01*
X132115700Y-63456198D01*
X132303251Y-63587523D01*
X132428091Y-63645736D01*
X132510750Y-63684281D01*
X132510752Y-63684281D01*
X132510757Y-63684284D01*
X132731913Y-63743543D01*
X132894832Y-63757796D01*
X132959998Y-63763498D01*
X132960000Y-63763498D01*
X132960002Y-63763498D01*
X133017021Y-63758509D01*
X133188087Y-63743543D01*
X133409243Y-63684284D01*
X133616749Y-63587523D01*
X133804300Y-63456198D01*
X133966198Y-63294300D01*
X134097523Y-63106749D01*
X134194284Y-62899243D01*
X134253543Y-62678087D01*
X134273498Y-62450000D01*
X134253543Y-62221913D01*
X134194284Y-62000757D01*
X134097523Y-61793251D01*
X133966198Y-61605700D01*
X133900498Y-61540000D01*
X135226835Y-61540000D01*
X135245465Y-61776714D01*
X135300895Y-62007595D01*
X135300895Y-62007597D01*
X135391757Y-62226959D01*
X135391759Y-62226962D01*
X135515820Y-62429410D01*
X135515821Y-62429413D01*
X135533404Y-62450000D01*
X135670031Y-62609969D01*
X135773753Y-62698556D01*
X135850586Y-62764178D01*
X135850588Y-62764178D01*
X135862798Y-62771661D01*
X136053037Y-62888240D01*
X136053040Y-62888242D01*
X136272403Y-62979104D01*
X136272404Y-62979104D01*
X136272406Y-62979105D01*
X136503289Y-63034535D01*
X136740000Y-63053165D01*
X136976711Y-63034535D01*
X137207594Y-62979105D01*
X137207596Y-62979104D01*
X137207597Y-62979104D01*
X137426959Y-62888242D01*
X137426960Y-62888241D01*
X137426963Y-62888240D01*
X137629416Y-62764176D01*
X137809969Y-62609969D01*
X137964176Y-62429416D01*
X138088240Y-62226963D01*
X138179105Y-62007594D01*
X138234535Y-61776711D01*
X138253165Y-61540000D01*
X141726835Y-61540000D01*
X141745465Y-61776714D01*
X141800895Y-62007595D01*
X141800895Y-62007597D01*
X141891757Y-62226959D01*
X141891759Y-62226962D01*
X142015820Y-62429410D01*
X142015821Y-62429413D01*
X142033404Y-62450000D01*
X142170031Y-62609969D01*
X142273753Y-62698556D01*
X142350586Y-62764178D01*
X142350588Y-62764178D01*
X142362798Y-62771661D01*
X142553037Y-62888240D01*
X142553040Y-62888242D01*
X142772403Y-62979104D01*
X142772404Y-62979104D01*
X142772406Y-62979105D01*
X143003289Y-63034535D01*
X143240000Y-63053165D01*
X143476711Y-63034535D01*
X143707594Y-62979105D01*
X143707596Y-62979104D01*
X143707597Y-62979104D01*
X143926959Y-62888242D01*
X143926960Y-62888241D01*
X143926963Y-62888240D01*
X144129416Y-62764176D01*
X144309969Y-62609969D01*
X144464176Y-62429416D01*
X144588240Y-62226963D01*
X144679105Y-62007594D01*
X144734535Y-61776711D01*
X144753165Y-61540000D01*
X144737424Y-61340000D01*
X155766835Y-61340000D01*
X155785465Y-61576714D01*
X155840895Y-61807595D01*
X155840895Y-61807597D01*
X155931757Y-62026959D01*
X155931759Y-62026962D01*
X156055820Y-62229410D01*
X156055821Y-62229413D01*
X156055824Y-62229416D01*
X156210031Y-62409969D01*
X156349797Y-62529340D01*
X156390586Y-62564178D01*
X156390589Y-62564179D01*
X156593037Y-62688240D01*
X156593040Y-62688242D01*
X156812403Y-62779104D01*
X156812404Y-62779104D01*
X156812406Y-62779105D01*
X157043289Y-62834535D01*
X157280000Y-62853165D01*
X157516711Y-62834535D01*
X157747594Y-62779105D01*
X157747596Y-62779104D01*
X157747597Y-62779104D01*
X157966959Y-62688242D01*
X157966960Y-62688241D01*
X157966963Y-62688240D01*
X158169416Y-62564176D01*
X158349969Y-62409969D01*
X158504176Y-62229416D01*
X158628240Y-62026963D01*
X158636263Y-62007595D01*
X158719104Y-61807597D01*
X158719104Y-61807596D01*
X158719105Y-61807594D01*
X158774535Y-61576711D01*
X158793165Y-61340000D01*
X160266835Y-61340000D01*
X160285465Y-61576714D01*
X160340895Y-61807595D01*
X160340895Y-61807597D01*
X160431757Y-62026959D01*
X160431759Y-62026962D01*
X160555820Y-62229410D01*
X160555821Y-62229413D01*
X160555824Y-62229416D01*
X160710031Y-62409969D01*
X160849797Y-62529340D01*
X160890586Y-62564178D01*
X160890589Y-62564179D01*
X161093037Y-62688240D01*
X161093040Y-62688242D01*
X161312403Y-62779104D01*
X161312404Y-62779104D01*
X161312406Y-62779105D01*
X161543289Y-62834535D01*
X161780000Y-62853165D01*
X162016711Y-62834535D01*
X162247594Y-62779105D01*
X162247596Y-62779104D01*
X162247597Y-62779104D01*
X162466959Y-62688242D01*
X162466960Y-62688241D01*
X162466963Y-62688240D01*
X162669416Y-62564176D01*
X162849969Y-62409969D01*
X163004176Y-62229416D01*
X163128240Y-62026963D01*
X163136263Y-62007595D01*
X163219104Y-61807597D01*
X163219104Y-61807596D01*
X163219105Y-61807594D01*
X163274535Y-61576711D01*
X163293165Y-61340000D01*
X163274535Y-61103289D01*
X163219105Y-60872406D01*
X163219104Y-60872403D01*
X163219104Y-60872402D01*
X163128242Y-60653040D01*
X163128240Y-60653037D01*
X163004179Y-60450589D01*
X163004178Y-60450586D01*
X162969340Y-60409797D01*
X162849969Y-60270031D01*
X162730596Y-60168076D01*
X162669413Y-60115821D01*
X162669410Y-60115820D01*
X162466962Y-59991759D01*
X162466959Y-59991757D01*
X162247596Y-59900895D01*
X162016714Y-59845465D01*
X161780000Y-59826835D01*
X161543285Y-59845465D01*
X161312404Y-59900895D01*
X161312402Y-59900895D01*
X161093040Y-59991757D01*
X161093037Y-59991759D01*
X160890589Y-60115820D01*
X160890586Y-60115821D01*
X160710031Y-60270031D01*
X160555821Y-60450586D01*
X160555820Y-60450589D01*
X160431759Y-60653037D01*
X160431757Y-60653040D01*
X160340895Y-60872402D01*
X160340895Y-60872404D01*
X160285465Y-61103285D01*
X160266835Y-61340000D01*
X158793165Y-61340000D01*
X158774535Y-61103289D01*
X158719105Y-60872406D01*
X158719104Y-60872403D01*
X158719104Y-60872402D01*
X158628242Y-60653040D01*
X158628240Y-60653037D01*
X158504179Y-60450589D01*
X158504178Y-60450586D01*
X158469340Y-60409797D01*
X158349969Y-60270031D01*
X158230596Y-60168076D01*
X158169413Y-60115821D01*
X158169410Y-60115820D01*
X157966962Y-59991759D01*
X157966959Y-59991757D01*
X157747596Y-59900895D01*
X157516714Y-59845465D01*
X157280000Y-59826835D01*
X157043285Y-59845465D01*
X156812404Y-59900895D01*
X156812402Y-59900895D01*
X156593040Y-59991757D01*
X156593037Y-59991759D01*
X156390589Y-60115820D01*
X156390586Y-60115821D01*
X156210031Y-60270031D01*
X156055821Y-60450586D01*
X156055820Y-60450589D01*
X155931759Y-60653037D01*
X155931757Y-60653040D01*
X155840895Y-60872402D01*
X155840895Y-60872404D01*
X155785465Y-61103285D01*
X155766835Y-61340000D01*
X144737424Y-61340000D01*
X144734535Y-61303289D01*
X144679105Y-61072406D01*
X144679104Y-61072403D01*
X144679104Y-61072402D01*
X144588242Y-60853040D01*
X144588240Y-60853037D01*
X144464179Y-60650589D01*
X144464178Y-60650586D01*
X144429340Y-60609797D01*
X144309969Y-60470031D01*
X144190596Y-60368076D01*
X144129413Y-60315821D01*
X144129410Y-60315820D01*
X143926962Y-60191759D01*
X143926959Y-60191757D01*
X143707596Y-60100895D01*
X143476714Y-60045465D01*
X143240000Y-60026835D01*
X143003285Y-60045465D01*
X142772404Y-60100895D01*
X142772402Y-60100895D01*
X142553040Y-60191757D01*
X142553037Y-60191759D01*
X142350589Y-60315820D01*
X142350586Y-60315821D01*
X142170031Y-60470031D01*
X142015821Y-60650586D01*
X142015820Y-60650589D01*
X141891759Y-60853037D01*
X141891757Y-60853040D01*
X141800895Y-61072402D01*
X141800895Y-61072404D01*
X141745465Y-61303285D01*
X141726835Y-61540000D01*
X138253165Y-61540000D01*
X138234535Y-61303289D01*
X138179105Y-61072406D01*
X138179104Y-61072403D01*
X138179104Y-61072402D01*
X138088242Y-60853040D01*
X138088240Y-60853037D01*
X137964179Y-60650589D01*
X137964178Y-60650586D01*
X137929340Y-60609797D01*
X137809969Y-60470031D01*
X137690596Y-60368076D01*
X137629413Y-60315821D01*
X137629410Y-60315820D01*
X137426962Y-60191759D01*
X137426959Y-60191757D01*
X137207596Y-60100895D01*
X136976714Y-60045465D01*
X136740000Y-60026835D01*
X136503285Y-60045465D01*
X136272404Y-60100895D01*
X136272402Y-60100895D01*
X136053040Y-60191757D01*
X136053037Y-60191759D01*
X135850589Y-60315820D01*
X135850586Y-60315821D01*
X135670031Y-60470031D01*
X135515821Y-60650586D01*
X135515820Y-60650589D01*
X135391759Y-60853037D01*
X135391757Y-60853040D01*
X135300895Y-61072402D01*
X135300895Y-61072404D01*
X135245465Y-61303285D01*
X135226835Y-61540000D01*
X133900498Y-61540000D01*
X133804300Y-61443802D01*
X133616749Y-61312477D01*
X133616745Y-61312475D01*
X133409249Y-61215718D01*
X133409238Y-61215714D01*
X133188089Y-61156457D01*
X133188081Y-61156456D01*
X132960002Y-61136502D01*
X132959998Y-61136502D01*
X132731918Y-61156456D01*
X132731910Y-61156457D01*
X132510761Y-61215714D01*
X132510750Y-61215718D01*
X132303254Y-61312475D01*
X132303252Y-61312476D01*
X132303251Y-61312477D01*
X132115700Y-61443802D01*
X132115698Y-61443803D01*
X132115695Y-61443806D01*
X131953806Y-61605695D01*
X131822476Y-61793252D01*
X131822475Y-61793254D01*
X131725718Y-62000750D01*
X131725714Y-62000761D01*
X131666457Y-62221910D01*
X131666456Y-62221918D01*
X131646502Y-62449998D01*
X100075500Y-62449998D01*
X100075500Y-55199994D01*
X124826673Y-55199994D01*
X124826673Y-55200005D01*
X124845948Y-55432622D01*
X124903251Y-55658907D01*
X124997015Y-55872668D01*
X125124686Y-56068084D01*
X125276354Y-56232838D01*
X125282780Y-56239818D01*
X125466983Y-56383190D01*
X125466985Y-56383191D01*
X125466988Y-56383193D01*
X125507604Y-56405173D01*
X125672273Y-56494287D01*
X125786914Y-56533643D01*
X125893045Y-56570079D01*
X125893047Y-56570079D01*
X125893049Y-56570080D01*
X126123288Y-56608500D01*
X126123289Y-56608500D01*
X126356711Y-56608500D01*
X126356712Y-56608500D01*
X126586951Y-56570080D01*
X126807727Y-56494287D01*
X127013017Y-56383190D01*
X127197220Y-56239818D01*
X127203646Y-56232837D01*
X127263531Y-56196845D01*
X127333369Y-56198944D01*
X127390986Y-56238466D01*
X127411059Y-56273485D01*
X127436645Y-56342086D01*
X127436649Y-56342093D01*
X127522809Y-56457187D01*
X127522812Y-56457190D01*
X127637906Y-56543350D01*
X127637913Y-56543354D01*
X127772620Y-56593596D01*
X127772627Y-56593598D01*
X127832155Y-56599999D01*
X127832172Y-56600000D01*
X128530000Y-56600000D01*
X128530000Y-55575277D01*
X128606306Y-55619333D01*
X128720756Y-55650000D01*
X128839244Y-55650000D01*
X128953694Y-55619333D01*
X129030000Y-55575277D01*
X129030000Y-56600000D01*
X129727828Y-56600000D01*
X129727844Y-56599999D01*
X129787372Y-56593598D01*
X129787379Y-56593596D01*
X129922086Y-56543354D01*
X129922093Y-56543350D01*
X130037187Y-56457190D01*
X130037190Y-56457187D01*
X130123350Y-56342093D01*
X130123354Y-56342086D01*
X130173596Y-56207379D01*
X130173598Y-56207372D01*
X130179999Y-56147844D01*
X130180000Y-56147827D01*
X130180000Y-55450000D01*
X129155278Y-55450000D01*
X129199333Y-55373694D01*
X129230000Y-55259244D01*
X129230000Y-55140756D01*
X129199333Y-55026306D01*
X129155278Y-54950000D01*
X130180000Y-54950000D01*
X130180000Y-54825013D01*
X138140000Y-54825013D01*
X138140000Y-55350000D01*
X139085854Y-55350000D01*
X139047370Y-55416657D01*
X139015000Y-55537465D01*
X139015000Y-55662535D01*
X139047370Y-55783343D01*
X139085854Y-55850000D01*
X138140001Y-55850000D01*
X138140001Y-56374986D01*
X138150494Y-56477697D01*
X138205641Y-56644119D01*
X138205643Y-56644124D01*
X138297684Y-56793345D01*
X138421654Y-56917315D01*
X138570875Y-57009356D01*
X138570880Y-57009358D01*
X138737302Y-57064505D01*
X138737309Y-57064506D01*
X138840019Y-57074999D01*
X139239999Y-57074999D01*
X139240000Y-57074998D01*
X139240000Y-56004145D01*
X139306657Y-56042630D01*
X139427465Y-56075000D01*
X139552535Y-56075000D01*
X139673343Y-56042630D01*
X139740000Y-56004145D01*
X139740000Y-57074999D01*
X140139972Y-57074999D01*
X140139986Y-57074998D01*
X140242697Y-57064505D01*
X140409119Y-57009358D01*
X140409124Y-57009356D01*
X140558345Y-56917315D01*
X140682315Y-56793345D01*
X140773499Y-56645513D01*
X140825447Y-56598789D01*
X140894410Y-56587566D01*
X140958492Y-56615410D01*
X140966719Y-56622929D01*
X141104996Y-56761206D01*
X141277991Y-56886894D01*
X141371438Y-56934507D01*
X141468516Y-56983972D01*
X141468519Y-56983973D01*
X141546642Y-57009356D01*
X141671884Y-57050049D01*
X141883084Y-57083500D01*
X141883085Y-57083500D01*
X142096915Y-57083500D01*
X142096916Y-57083500D01*
X142308116Y-57050049D01*
X142511483Y-56983972D01*
X142702009Y-56886894D01*
X142875004Y-56761206D01*
X143026206Y-56610004D01*
X143110282Y-56494283D01*
X143139682Y-56453818D01*
X143195012Y-56411152D01*
X143264625Y-56405173D01*
X143326420Y-56437779D01*
X143340318Y-56453818D01*
X143437492Y-56587566D01*
X143453794Y-56610004D01*
X143604996Y-56761206D01*
X143777991Y-56886894D01*
X143871438Y-56934507D01*
X143968516Y-56983972D01*
X143968519Y-56983973D01*
X144046642Y-57009356D01*
X144171884Y-57050049D01*
X144383084Y-57083500D01*
X144383085Y-57083500D01*
X144596915Y-57083500D01*
X144596916Y-57083500D01*
X144808116Y-57050049D01*
X145011483Y-56983972D01*
X145202009Y-56886894D01*
X145375004Y-56761206D01*
X145526206Y-56610004D01*
X145651894Y-56437009D01*
X145748972Y-56246483D01*
X145815049Y-56043116D01*
X145848500Y-55831916D01*
X145848500Y-55368084D01*
X145815049Y-55156884D01*
X145772622Y-55026306D01*
X145748973Y-54953519D01*
X145748972Y-54953516D01*
X145691132Y-54840000D01*
X155766835Y-54840000D01*
X155785465Y-55076714D01*
X155840895Y-55307595D01*
X155840895Y-55307597D01*
X155931757Y-55526959D01*
X155931759Y-55526962D01*
X156055820Y-55729410D01*
X156055821Y-55729413D01*
X156055824Y-55729416D01*
X156210031Y-55909969D01*
X156292138Y-55980095D01*
X156390586Y-56064178D01*
X156390589Y-56064179D01*
X156593037Y-56188240D01*
X156593040Y-56188242D01*
X156812403Y-56279104D01*
X156812404Y-56279104D01*
X156812406Y-56279105D01*
X157043289Y-56334535D01*
X157280000Y-56353165D01*
X157516711Y-56334535D01*
X157747594Y-56279105D01*
X157747596Y-56279104D01*
X157747597Y-56279104D01*
X157966959Y-56188242D01*
X157966960Y-56188241D01*
X157966963Y-56188240D01*
X158169416Y-56064176D01*
X158349969Y-55909969D01*
X158504176Y-55729416D01*
X158628240Y-55526963D01*
X158667316Y-55432626D01*
X158719104Y-55307597D01*
X158719104Y-55307596D01*
X158719105Y-55307594D01*
X158774535Y-55076711D01*
X158793165Y-54840000D01*
X160266835Y-54840000D01*
X160285465Y-55076714D01*
X160340895Y-55307595D01*
X160340895Y-55307597D01*
X160431757Y-55526959D01*
X160431759Y-55526962D01*
X160555820Y-55729410D01*
X160555821Y-55729413D01*
X160555824Y-55729416D01*
X160710031Y-55909969D01*
X160792138Y-55980095D01*
X160890586Y-56064178D01*
X160890589Y-56064179D01*
X161093037Y-56188240D01*
X161093040Y-56188242D01*
X161312403Y-56279104D01*
X161312404Y-56279104D01*
X161312406Y-56279105D01*
X161543289Y-56334535D01*
X161780000Y-56353165D01*
X162016711Y-56334535D01*
X162247594Y-56279105D01*
X162247596Y-56279104D01*
X162247597Y-56279104D01*
X162466959Y-56188242D01*
X162466960Y-56188241D01*
X162466963Y-56188240D01*
X162669416Y-56064176D01*
X162849969Y-55909969D01*
X163004176Y-55729416D01*
X163128240Y-55526963D01*
X163167316Y-55432626D01*
X163219104Y-55307597D01*
X163219104Y-55307596D01*
X163219105Y-55307594D01*
X163274535Y-55076711D01*
X163293165Y-54840000D01*
X163274535Y-54603289D01*
X163219105Y-54372406D01*
X163219104Y-54372403D01*
X163219104Y-54372402D01*
X163128242Y-54153040D01*
X163128240Y-54153037D01*
X163004179Y-53950589D01*
X163004178Y-53950586D01*
X162965855Y-53905716D01*
X162849969Y-53770031D01*
X162730596Y-53668076D01*
X162669413Y-53615821D01*
X162669410Y-53615820D01*
X162466962Y-53491759D01*
X162466959Y-53491757D01*
X162247596Y-53400895D01*
X162016714Y-53345465D01*
X161780000Y-53326835D01*
X161543285Y-53345465D01*
X161312404Y-53400895D01*
X161312402Y-53400895D01*
X161093040Y-53491757D01*
X161093037Y-53491759D01*
X160890589Y-53615820D01*
X160890586Y-53615821D01*
X160710031Y-53770031D01*
X160555821Y-53950586D01*
X160555820Y-53950589D01*
X160431759Y-54153037D01*
X160431757Y-54153040D01*
X160340895Y-54372402D01*
X160340895Y-54372404D01*
X160285465Y-54603285D01*
X160266835Y-54840000D01*
X158793165Y-54840000D01*
X158774535Y-54603289D01*
X158719105Y-54372406D01*
X158719104Y-54372403D01*
X158719104Y-54372402D01*
X158628242Y-54153040D01*
X158628240Y-54153037D01*
X158504179Y-53950589D01*
X158504178Y-53950586D01*
X158465855Y-53905716D01*
X158349969Y-53770031D01*
X158230596Y-53668076D01*
X158169413Y-53615821D01*
X158169410Y-53615820D01*
X157966962Y-53491759D01*
X157966959Y-53491757D01*
X157747596Y-53400895D01*
X157516714Y-53345465D01*
X157280000Y-53326835D01*
X157043285Y-53345465D01*
X156812404Y-53400895D01*
X156812402Y-53400895D01*
X156593040Y-53491757D01*
X156593037Y-53491759D01*
X156390589Y-53615820D01*
X156390586Y-53615821D01*
X156210031Y-53770031D01*
X156055821Y-53950586D01*
X156055820Y-53950589D01*
X155931759Y-54153037D01*
X155931757Y-54153040D01*
X155840895Y-54372402D01*
X155840895Y-54372404D01*
X155785465Y-54603285D01*
X155766835Y-54840000D01*
X145691132Y-54840000D01*
X145683496Y-54825013D01*
X145651894Y-54762991D01*
X145526206Y-54589996D01*
X145375004Y-54438794D01*
X145202009Y-54313106D01*
X145142303Y-54282684D01*
X145011483Y-54216027D01*
X145011480Y-54216026D01*
X144808117Y-54149951D01*
X144702516Y-54133225D01*
X144596916Y-54116500D01*
X144383084Y-54116500D01*
X144312684Y-54127650D01*
X144171882Y-54149951D01*
X143968519Y-54216026D01*
X143968516Y-54216027D01*
X143777990Y-54313106D01*
X143604993Y-54438796D01*
X143453796Y-54589993D01*
X143453796Y-54589994D01*
X143453794Y-54589996D01*
X143438857Y-54610555D01*
X143340318Y-54746182D01*
X143284988Y-54788847D01*
X143215374Y-54794826D01*
X143153579Y-54762220D01*
X143139682Y-54746182D01*
X143114930Y-54712115D01*
X143026206Y-54589996D01*
X142875004Y-54438794D01*
X142702009Y-54313106D01*
X142642303Y-54282684D01*
X142511483Y-54216027D01*
X142511480Y-54216026D01*
X142308117Y-54149951D01*
X142202516Y-54133225D01*
X142096916Y-54116500D01*
X141883084Y-54116500D01*
X141812684Y-54127650D01*
X141671882Y-54149951D01*
X141468519Y-54216026D01*
X141468516Y-54216027D01*
X141277990Y-54313106D01*
X141104997Y-54438793D01*
X140966719Y-54577071D01*
X140905396Y-54610555D01*
X140835704Y-54605571D01*
X140779771Y-54563699D01*
X140773499Y-54554486D01*
X140682315Y-54406654D01*
X140558345Y-54282684D01*
X140409124Y-54190643D01*
X140409119Y-54190641D01*
X140242697Y-54135494D01*
X140242690Y-54135493D01*
X140139986Y-54125000D01*
X139740000Y-54125000D01*
X139740000Y-55195854D01*
X139673343Y-55157370D01*
X139552535Y-55125000D01*
X139427465Y-55125000D01*
X139306657Y-55157370D01*
X139240000Y-55195854D01*
X139240000Y-54125000D01*
X138840028Y-54125000D01*
X138840012Y-54125001D01*
X138737302Y-54135494D01*
X138570880Y-54190641D01*
X138570875Y-54190643D01*
X138421654Y-54282684D01*
X138297684Y-54406654D01*
X138205643Y-54555875D01*
X138205641Y-54555880D01*
X138150494Y-54722302D01*
X138150493Y-54722309D01*
X138140000Y-54825013D01*
X130180000Y-54825013D01*
X130180000Y-54252172D01*
X130179999Y-54252155D01*
X130173598Y-54192627D01*
X130173596Y-54192620D01*
X130123354Y-54057913D01*
X130123350Y-54057906D01*
X130037190Y-53942812D01*
X130037187Y-53942809D01*
X129922093Y-53856649D01*
X129922086Y-53856645D01*
X129787379Y-53806403D01*
X129787372Y-53806401D01*
X129727844Y-53800000D01*
X129030000Y-53800000D01*
X129030000Y-54824722D01*
X128953694Y-54780667D01*
X128839244Y-54750000D01*
X128720756Y-54750000D01*
X128606306Y-54780667D01*
X128530000Y-54824722D01*
X128530000Y-53800000D01*
X127832155Y-53800000D01*
X127772627Y-53806401D01*
X127772620Y-53806403D01*
X127637913Y-53856645D01*
X127637906Y-53856649D01*
X127522812Y-53942809D01*
X127522809Y-53942812D01*
X127436649Y-54057906D01*
X127436645Y-54057913D01*
X127411059Y-54126514D01*
X127369188Y-54182448D01*
X127303723Y-54206865D01*
X127235450Y-54192013D01*
X127203649Y-54167165D01*
X127197224Y-54160186D01*
X127197222Y-54160184D01*
X127197220Y-54160182D01*
X127013017Y-54016810D01*
X127013015Y-54016809D01*
X127013014Y-54016808D01*
X127013011Y-54016806D01*
X126807733Y-53905716D01*
X126807730Y-53905715D01*
X126807727Y-53905713D01*
X126807721Y-53905711D01*
X126807719Y-53905710D01*
X126586954Y-53829920D01*
X126407650Y-53800000D01*
X126356712Y-53791500D01*
X126123288Y-53791500D01*
X126077240Y-53799184D01*
X125893045Y-53829920D01*
X125672280Y-53905710D01*
X125672266Y-53905716D01*
X125466988Y-54016806D01*
X125466985Y-54016808D01*
X125282781Y-54160181D01*
X125282776Y-54160185D01*
X125124686Y-54331915D01*
X124997015Y-54527331D01*
X124903251Y-54741092D01*
X124845948Y-54967377D01*
X124826673Y-55199994D01*
X100075500Y-55199994D01*
X100075500Y-52289998D01*
X131646502Y-52289998D01*
X131646502Y-52290001D01*
X131666456Y-52518081D01*
X131666457Y-52518089D01*
X131725714Y-52739238D01*
X131725718Y-52739249D01*
X131822475Y-52946745D01*
X131822477Y-52946749D01*
X131953802Y-53134300D01*
X132115700Y-53296198D01*
X132303251Y-53427523D01*
X132428091Y-53485736D01*
X132510750Y-53524281D01*
X132510752Y-53524281D01*
X132510757Y-53524284D01*
X132731913Y-53583543D01*
X132894832Y-53597796D01*
X132959998Y-53603498D01*
X132960000Y-53603498D01*
X132960002Y-53603498D01*
X133017021Y-53598509D01*
X133188087Y-53583543D01*
X133409243Y-53524284D01*
X133616749Y-53427523D01*
X133804300Y-53296198D01*
X133966198Y-53134300D01*
X134097523Y-52946749D01*
X134194284Y-52739243D01*
X134253543Y-52518087D01*
X134273498Y-52290000D01*
X134253543Y-52061913D01*
X134194284Y-51840757D01*
X134097523Y-51633251D01*
X133966198Y-51445700D01*
X133804300Y-51283802D01*
X133616749Y-51152477D01*
X133616745Y-51152475D01*
X133409249Y-51055718D01*
X133409238Y-51055714D01*
X133188089Y-50996457D01*
X133188081Y-50996456D01*
X132960002Y-50976502D01*
X132959998Y-50976502D01*
X132731918Y-50996456D01*
X132731910Y-50996457D01*
X132510761Y-51055714D01*
X132510750Y-51055718D01*
X132303254Y-51152475D01*
X132303252Y-51152476D01*
X132303251Y-51152477D01*
X132115700Y-51283802D01*
X132115698Y-51283803D01*
X132115695Y-51283806D01*
X131953806Y-51445695D01*
X131822476Y-51633252D01*
X131822475Y-51633254D01*
X131725718Y-51840750D01*
X131725714Y-51840761D01*
X131666457Y-52061910D01*
X131666456Y-52061918D01*
X131646502Y-52289998D01*
X100075500Y-52289998D01*
X100075500Y-48301345D01*
X117437500Y-48301345D01*
X117437500Y-50098654D01*
X117444011Y-50159202D01*
X117444011Y-50159204D01*
X117495111Y-50296204D01*
X117582739Y-50413261D01*
X117699796Y-50500889D01*
X117836799Y-50551989D01*
X117864050Y-50554918D01*
X117897345Y-50558499D01*
X117897362Y-50558500D01*
X119694638Y-50558500D01*
X119694654Y-50558499D01*
X119721692Y-50555591D01*
X119755201Y-50551989D01*
X119892204Y-50500889D01*
X120009261Y-50413261D01*
X120096889Y-50296204D01*
X120142138Y-50174887D01*
X120184009Y-50118956D01*
X120249474Y-50094539D01*
X120317746Y-50109391D01*
X120349545Y-50134236D01*
X120412760Y-50202906D01*
X120590424Y-50341189D01*
X120590425Y-50341189D01*
X120590427Y-50341191D01*
X120650314Y-50373600D01*
X120788426Y-50448342D01*
X121001365Y-50521444D01*
X121223431Y-50558500D01*
X121448569Y-50558500D01*
X121670635Y-50521444D01*
X121883574Y-50448342D01*
X122081576Y-50341189D01*
X122259240Y-50202906D01*
X122380594Y-50071082D01*
X122411715Y-50037276D01*
X122411715Y-50037275D01*
X122411722Y-50037268D01*
X122502193Y-49898790D01*
X122555338Y-49853437D01*
X122624569Y-49844013D01*
X122687905Y-49873515D01*
X122709804Y-49898787D01*
X122800278Y-50037268D01*
X122800283Y-50037273D01*
X122800284Y-50037276D01*
X122926968Y-50174889D01*
X122952760Y-50202906D01*
X123130424Y-50341189D01*
X123130425Y-50341189D01*
X123130427Y-50341191D01*
X123190314Y-50373600D01*
X123328426Y-50448342D01*
X123541365Y-50521444D01*
X123763431Y-50558500D01*
X123988569Y-50558500D01*
X124210635Y-50521444D01*
X124423574Y-50448342D01*
X124621576Y-50341189D01*
X124799240Y-50202906D01*
X124920594Y-50071082D01*
X124951715Y-50037276D01*
X124951715Y-50037275D01*
X124951722Y-50037268D01*
X125045749Y-49893347D01*
X125098894Y-49847994D01*
X125168125Y-49838570D01*
X125231461Y-49868072D01*
X125251130Y-49890048D01*
X125377890Y-50071078D01*
X125544917Y-50238105D01*
X125738421Y-50373600D01*
X125952507Y-50473429D01*
X125952516Y-50473433D01*
X126166000Y-50530634D01*
X126166000Y-49633012D01*
X126223007Y-49665925D01*
X126350174Y-49700000D01*
X126481826Y-49700000D01*
X126608993Y-49665925D01*
X126666000Y-49633012D01*
X126666000Y-50530633D01*
X126879483Y-50473433D01*
X126879492Y-50473429D01*
X127093578Y-50373600D01*
X127287082Y-50238105D01*
X127454105Y-50071082D01*
X127580868Y-49890048D01*
X127635445Y-49846423D01*
X127704944Y-49839231D01*
X127767298Y-49870753D01*
X127786251Y-49893350D01*
X127880276Y-50037265D01*
X127880284Y-50037276D01*
X128006968Y-50174889D01*
X128032760Y-50202906D01*
X128210424Y-50341189D01*
X128210425Y-50341189D01*
X128210427Y-50341191D01*
X128270314Y-50373600D01*
X128408426Y-50448342D01*
X128621365Y-50521444D01*
X128843431Y-50558500D01*
X129068569Y-50558500D01*
X129290635Y-50521444D01*
X129503574Y-50448342D01*
X129701576Y-50341189D01*
X129879240Y-50202906D01*
X130000594Y-50071082D01*
X130031715Y-50037276D01*
X130031715Y-50037275D01*
X130031722Y-50037268D01*
X130122193Y-49898790D01*
X130175338Y-49853437D01*
X130244569Y-49844013D01*
X130307905Y-49873515D01*
X130329804Y-49898787D01*
X130420278Y-50037268D01*
X130420283Y-50037273D01*
X130420284Y-50037276D01*
X130546968Y-50174889D01*
X130572760Y-50202906D01*
X130750424Y-50341189D01*
X130750425Y-50341189D01*
X130750427Y-50341191D01*
X130810314Y-50373600D01*
X130948426Y-50448342D01*
X131161365Y-50521444D01*
X131383431Y-50558500D01*
X131608569Y-50558500D01*
X131830635Y-50521444D01*
X132043574Y-50448342D01*
X132241576Y-50341189D01*
X132419240Y-50202906D01*
X132540594Y-50071082D01*
X132571715Y-50037276D01*
X132571715Y-50037275D01*
X132571722Y-50037268D01*
X132662193Y-49898790D01*
X132715338Y-49853437D01*
X132784569Y-49844013D01*
X132847905Y-49873515D01*
X132869804Y-49898787D01*
X132960278Y-50037268D01*
X132960283Y-50037273D01*
X132960284Y-50037276D01*
X133086968Y-50174889D01*
X133112760Y-50202906D01*
X133290424Y-50341189D01*
X133290425Y-50341189D01*
X133290427Y-50341191D01*
X133350314Y-50373600D01*
X133488426Y-50448342D01*
X133701365Y-50521444D01*
X133923431Y-50558500D01*
X134148569Y-50558500D01*
X134370635Y-50521444D01*
X134583574Y-50448342D01*
X134781576Y-50341189D01*
X134959240Y-50202906D01*
X135080594Y-50071082D01*
X135111715Y-50037276D01*
X135111715Y-50037275D01*
X135111722Y-50037268D01*
X135202193Y-49898790D01*
X135255338Y-49853437D01*
X135324569Y-49844013D01*
X135387905Y-49873515D01*
X135409804Y-49898787D01*
X135500278Y-50037268D01*
X135500283Y-50037273D01*
X135500284Y-50037276D01*
X135626968Y-50174889D01*
X135652760Y-50202906D01*
X135830424Y-50341189D01*
X135830425Y-50341189D01*
X135830427Y-50341191D01*
X135890314Y-50373600D01*
X136028426Y-50448342D01*
X136241365Y-50521444D01*
X136463431Y-50558500D01*
X136688569Y-50558500D01*
X136910635Y-50521444D01*
X137123574Y-50448342D01*
X137321576Y-50341189D01*
X137499240Y-50202906D01*
X137620594Y-50071082D01*
X137651715Y-50037276D01*
X137651715Y-50037275D01*
X137651722Y-50037268D01*
X137742193Y-49898790D01*
X137795338Y-49853437D01*
X137864569Y-49844013D01*
X137927905Y-49873515D01*
X137949804Y-49898787D01*
X138040278Y-50037268D01*
X138040283Y-50037273D01*
X138040284Y-50037276D01*
X138166968Y-50174889D01*
X138192760Y-50202906D01*
X138370424Y-50341189D01*
X138370425Y-50341189D01*
X138370427Y-50341191D01*
X138430314Y-50373600D01*
X138568426Y-50448342D01*
X138781365Y-50521444D01*
X139003431Y-50558500D01*
X139228569Y-50558500D01*
X139450635Y-50521444D01*
X139663574Y-50448342D01*
X139861576Y-50341189D01*
X140039240Y-50202906D01*
X140160594Y-50071082D01*
X140191715Y-50037276D01*
X140191715Y-50037275D01*
X140191722Y-50037268D01*
X140282193Y-49898790D01*
X140335338Y-49853437D01*
X140404569Y-49844013D01*
X140467905Y-49873515D01*
X140489804Y-49898787D01*
X140580278Y-50037268D01*
X140580283Y-50037273D01*
X140580284Y-50037276D01*
X140706968Y-50174889D01*
X140732760Y-50202906D01*
X140910424Y-50341189D01*
X140910425Y-50341189D01*
X140910427Y-50341191D01*
X140970314Y-50373600D01*
X141108426Y-50448342D01*
X141321365Y-50521444D01*
X141543431Y-50558500D01*
X141768569Y-50558500D01*
X141990635Y-50521444D01*
X142203574Y-50448342D01*
X142401576Y-50341189D01*
X142579240Y-50202906D01*
X142700594Y-50071082D01*
X142731715Y-50037276D01*
X142731717Y-50037273D01*
X142731722Y-50037268D01*
X142854860Y-49848791D01*
X142945296Y-49642616D01*
X143000564Y-49424368D01*
X143012309Y-49282635D01*
X143019156Y-49200005D01*
X143019156Y-49199994D01*
X143000565Y-48975640D01*
X143000563Y-48975628D01*
X142945296Y-48757385D01*
X142935071Y-48734075D01*
X142854860Y-48551209D01*
X142838706Y-48526484D01*
X142731723Y-48362734D01*
X142731715Y-48362723D01*
X142675212Y-48301345D01*
X144361500Y-48301345D01*
X144361500Y-50098654D01*
X144368011Y-50159202D01*
X144368011Y-50159204D01*
X144419111Y-50296204D01*
X144506739Y-50413261D01*
X144623796Y-50500889D01*
X144760799Y-50551989D01*
X144788050Y-50554918D01*
X144821345Y-50558499D01*
X144821362Y-50558500D01*
X146618638Y-50558500D01*
X146618654Y-50558499D01*
X146645692Y-50555591D01*
X146679201Y-50551989D01*
X146816204Y-50500889D01*
X146933261Y-50413261D01*
X147020889Y-50296204D01*
X147066138Y-50174887D01*
X147108009Y-50118956D01*
X147173474Y-50094539D01*
X147241746Y-50109391D01*
X147273545Y-50134236D01*
X147336760Y-50202906D01*
X147514424Y-50341189D01*
X147514425Y-50341189D01*
X147514427Y-50341191D01*
X147574314Y-50373600D01*
X147712426Y-50448342D01*
X147925365Y-50521444D01*
X148147431Y-50558500D01*
X148372569Y-50558500D01*
X148594635Y-50521444D01*
X148807574Y-50448342D01*
X149005576Y-50341189D01*
X149183240Y-50202906D01*
X149304594Y-50071082D01*
X149335715Y-50037276D01*
X149335715Y-50037275D01*
X149335722Y-50037268D01*
X149426193Y-49898790D01*
X149479338Y-49853437D01*
X149548569Y-49844013D01*
X149611905Y-49873515D01*
X149633804Y-49898787D01*
X149724278Y-50037268D01*
X149724283Y-50037273D01*
X149724284Y-50037276D01*
X149850968Y-50174889D01*
X149876760Y-50202906D01*
X150054424Y-50341189D01*
X150054425Y-50341189D01*
X150054427Y-50341191D01*
X150114314Y-50373600D01*
X150252426Y-50448342D01*
X150465365Y-50521444D01*
X150687431Y-50558500D01*
X150912569Y-50558500D01*
X151134635Y-50521444D01*
X151347574Y-50448342D01*
X151545576Y-50341189D01*
X151723240Y-50202906D01*
X151844594Y-50071082D01*
X151875715Y-50037276D01*
X151875715Y-50037275D01*
X151875722Y-50037268D01*
X151966193Y-49898790D01*
X152019338Y-49853437D01*
X152088569Y-49844013D01*
X152151905Y-49873515D01*
X152173804Y-49898787D01*
X152264278Y-50037268D01*
X152264283Y-50037273D01*
X152264284Y-50037276D01*
X152390968Y-50174889D01*
X152416760Y-50202906D01*
X152594424Y-50341189D01*
X152594425Y-50341189D01*
X152594427Y-50341191D01*
X152654314Y-50373600D01*
X152792426Y-50448342D01*
X153005365Y-50521444D01*
X153227431Y-50558500D01*
X153452569Y-50558500D01*
X153674635Y-50521444D01*
X153887574Y-50448342D01*
X154085576Y-50341189D01*
X154263240Y-50202906D01*
X154384594Y-50071082D01*
X154415715Y-50037276D01*
X154415715Y-50037275D01*
X154415722Y-50037268D01*
X154506193Y-49898790D01*
X154559338Y-49853437D01*
X154628569Y-49844013D01*
X154691905Y-49873515D01*
X154713804Y-49898787D01*
X154804278Y-50037268D01*
X154804283Y-50037273D01*
X154804284Y-50037276D01*
X154930968Y-50174889D01*
X154956760Y-50202906D01*
X155134424Y-50341189D01*
X155134425Y-50341189D01*
X155134427Y-50341191D01*
X155194314Y-50373600D01*
X155332426Y-50448342D01*
X155545365Y-50521444D01*
X155767431Y-50558500D01*
X155992569Y-50558500D01*
X156214635Y-50521444D01*
X156427574Y-50448342D01*
X156625576Y-50341189D01*
X156803240Y-50202906D01*
X156924594Y-50071082D01*
X156955715Y-50037276D01*
X156955715Y-50037275D01*
X156955722Y-50037268D01*
X157046193Y-49898790D01*
X157099338Y-49853437D01*
X157168569Y-49844013D01*
X157231905Y-49873515D01*
X157253804Y-49898787D01*
X157344278Y-50037268D01*
X157344283Y-50037273D01*
X157344284Y-50037276D01*
X157470968Y-50174889D01*
X157496760Y-50202906D01*
X157674424Y-50341189D01*
X157674425Y-50341189D01*
X157674427Y-50341191D01*
X157734314Y-50373600D01*
X157872426Y-50448342D01*
X158085365Y-50521444D01*
X158307431Y-50558500D01*
X158532569Y-50558500D01*
X158754635Y-50521444D01*
X158967574Y-50448342D01*
X159165576Y-50341189D01*
X159343240Y-50202906D01*
X159464594Y-50071082D01*
X159495715Y-50037276D01*
X159495715Y-50037275D01*
X159495722Y-50037268D01*
X159586193Y-49898790D01*
X159639338Y-49853437D01*
X159708569Y-49844013D01*
X159771905Y-49873515D01*
X159793804Y-49898787D01*
X159884278Y-50037268D01*
X159884283Y-50037273D01*
X159884284Y-50037276D01*
X160010968Y-50174889D01*
X160036760Y-50202906D01*
X160214424Y-50341189D01*
X160214425Y-50341189D01*
X160214427Y-50341191D01*
X160274314Y-50373600D01*
X160412426Y-50448342D01*
X160625365Y-50521444D01*
X160847431Y-50558500D01*
X161072569Y-50558500D01*
X161294635Y-50521444D01*
X161507574Y-50448342D01*
X161705576Y-50341189D01*
X161883240Y-50202906D01*
X162004594Y-50071082D01*
X162035715Y-50037276D01*
X162035715Y-50037275D01*
X162035722Y-50037268D01*
X162126193Y-49898790D01*
X162179338Y-49853437D01*
X162248569Y-49844013D01*
X162311905Y-49873515D01*
X162333804Y-49898787D01*
X162424278Y-50037268D01*
X162424283Y-50037273D01*
X162424284Y-50037276D01*
X162550968Y-50174889D01*
X162576760Y-50202906D01*
X162754424Y-50341189D01*
X162754425Y-50341189D01*
X162754427Y-50341191D01*
X162814314Y-50373600D01*
X162952426Y-50448342D01*
X163165365Y-50521444D01*
X163387431Y-50558500D01*
X163612569Y-50558500D01*
X163834635Y-50521444D01*
X164047574Y-50448342D01*
X164245576Y-50341189D01*
X164423240Y-50202906D01*
X164544594Y-50071082D01*
X164575715Y-50037276D01*
X164575717Y-50037273D01*
X164575722Y-50037268D01*
X164698860Y-49848791D01*
X164789296Y-49642616D01*
X164844564Y-49424368D01*
X164856309Y-49282635D01*
X164863156Y-49200005D01*
X164863156Y-49199994D01*
X164844565Y-48975640D01*
X164844563Y-48975628D01*
X164789296Y-48757385D01*
X164779071Y-48734075D01*
X164698860Y-48551209D01*
X164682706Y-48526484D01*
X164575723Y-48362734D01*
X164575715Y-48362723D01*
X164423243Y-48197097D01*
X164423238Y-48197092D01*
X164245577Y-48058812D01*
X164245572Y-48058808D01*
X164047580Y-47951661D01*
X164047577Y-47951659D01*
X164047574Y-47951658D01*
X164047571Y-47951657D01*
X164047569Y-47951656D01*
X163834637Y-47878556D01*
X163612569Y-47841500D01*
X163387431Y-47841500D01*
X163165362Y-47878556D01*
X162952430Y-47951656D01*
X162952419Y-47951661D01*
X162754427Y-48058808D01*
X162754422Y-48058812D01*
X162576761Y-48197092D01*
X162576756Y-48197097D01*
X162424284Y-48362723D01*
X162424276Y-48362734D01*
X162333808Y-48501206D01*
X162280662Y-48546562D01*
X162211431Y-48555986D01*
X162148095Y-48526484D01*
X162126192Y-48501206D01*
X162035723Y-48362734D01*
X162035715Y-48362723D01*
X161883243Y-48197097D01*
X161883238Y-48197092D01*
X161705577Y-48058812D01*
X161705572Y-48058808D01*
X161507580Y-47951661D01*
X161507577Y-47951659D01*
X161507574Y-47951658D01*
X161507571Y-47951657D01*
X161507569Y-47951656D01*
X161294637Y-47878556D01*
X161072569Y-47841500D01*
X160847431Y-47841500D01*
X160625362Y-47878556D01*
X160412430Y-47951656D01*
X160412419Y-47951661D01*
X160214427Y-48058808D01*
X160214422Y-48058812D01*
X160036761Y-48197092D01*
X160036756Y-48197097D01*
X159884284Y-48362723D01*
X159884276Y-48362734D01*
X159793808Y-48501206D01*
X159740662Y-48546562D01*
X159671431Y-48555986D01*
X159608095Y-48526484D01*
X159586192Y-48501206D01*
X159495723Y-48362734D01*
X159495715Y-48362723D01*
X159343243Y-48197097D01*
X159343238Y-48197092D01*
X159165577Y-48058812D01*
X159165572Y-48058808D01*
X158967580Y-47951661D01*
X158967577Y-47951659D01*
X158967574Y-47951658D01*
X158967571Y-47951657D01*
X158967569Y-47951656D01*
X158754637Y-47878556D01*
X158532569Y-47841500D01*
X158307431Y-47841500D01*
X158085362Y-47878556D01*
X157872430Y-47951656D01*
X157872419Y-47951661D01*
X157674427Y-48058808D01*
X157674422Y-48058812D01*
X157496761Y-48197092D01*
X157496756Y-48197097D01*
X157344284Y-48362723D01*
X157344276Y-48362734D01*
X157253808Y-48501206D01*
X157200662Y-48546562D01*
X157131431Y-48555986D01*
X157068095Y-48526484D01*
X157046192Y-48501206D01*
X156955723Y-48362734D01*
X156955715Y-48362723D01*
X156803243Y-48197097D01*
X156803238Y-48197092D01*
X156625577Y-48058812D01*
X156625572Y-48058808D01*
X156427580Y-47951661D01*
X156427577Y-47951659D01*
X156427574Y-47951658D01*
X156427571Y-47951657D01*
X156427569Y-47951656D01*
X156214637Y-47878556D01*
X155992569Y-47841500D01*
X155767431Y-47841500D01*
X155545362Y-47878556D01*
X155332430Y-47951656D01*
X155332419Y-47951661D01*
X155134427Y-48058808D01*
X155134422Y-48058812D01*
X154956761Y-48197092D01*
X154956756Y-48197097D01*
X154804284Y-48362723D01*
X154804276Y-48362734D01*
X154713808Y-48501206D01*
X154660662Y-48546562D01*
X154591431Y-48555986D01*
X154528095Y-48526484D01*
X154506192Y-48501206D01*
X154415723Y-48362734D01*
X154415715Y-48362723D01*
X154263243Y-48197097D01*
X154263238Y-48197092D01*
X154085577Y-48058812D01*
X154085572Y-48058808D01*
X153887580Y-47951661D01*
X153887577Y-47951659D01*
X153887574Y-47951658D01*
X153887571Y-47951657D01*
X153887569Y-47951656D01*
X153674637Y-47878556D01*
X153452569Y-47841500D01*
X153227431Y-47841500D01*
X153005362Y-47878556D01*
X152792430Y-47951656D01*
X152792419Y-47951661D01*
X152594427Y-48058808D01*
X152594422Y-48058812D01*
X152416761Y-48197092D01*
X152416756Y-48197097D01*
X152264284Y-48362723D01*
X152264276Y-48362734D01*
X152173808Y-48501206D01*
X152120662Y-48546562D01*
X152051431Y-48555986D01*
X151988095Y-48526484D01*
X151966192Y-48501206D01*
X151875723Y-48362734D01*
X151875715Y-48362723D01*
X151723243Y-48197097D01*
X151723238Y-48197092D01*
X151545577Y-48058812D01*
X151545572Y-48058808D01*
X151347580Y-47951661D01*
X151347577Y-47951659D01*
X151347574Y-47951658D01*
X151347571Y-47951657D01*
X151347569Y-47951656D01*
X151134637Y-47878556D01*
X150912569Y-47841500D01*
X150687431Y-47841500D01*
X150465362Y-47878556D01*
X150252430Y-47951656D01*
X150252419Y-47951661D01*
X150054427Y-48058808D01*
X150054422Y-48058812D01*
X149876761Y-48197092D01*
X149876756Y-48197097D01*
X149724284Y-48362723D01*
X149724276Y-48362734D01*
X149633808Y-48501206D01*
X149580662Y-48546562D01*
X149511431Y-48555986D01*
X149448095Y-48526484D01*
X149426192Y-48501206D01*
X149335723Y-48362734D01*
X149335715Y-48362723D01*
X149183243Y-48197097D01*
X149183238Y-48197092D01*
X149005577Y-48058812D01*
X149005572Y-48058808D01*
X148807580Y-47951661D01*
X148807577Y-47951659D01*
X148807574Y-47951658D01*
X148807571Y-47951657D01*
X148807569Y-47951656D01*
X148594637Y-47878556D01*
X148372569Y-47841500D01*
X148147431Y-47841500D01*
X147925362Y-47878556D01*
X147712430Y-47951656D01*
X147712419Y-47951661D01*
X147514427Y-48058808D01*
X147514422Y-48058812D01*
X147336761Y-48197092D01*
X147273548Y-48265760D01*
X147213661Y-48301750D01*
X147143823Y-48299649D01*
X147086207Y-48260124D01*
X147066138Y-48225110D01*
X147020889Y-48103796D01*
X146987214Y-48058812D01*
X146933261Y-47986739D01*
X146816204Y-47899111D01*
X146679203Y-47848011D01*
X146618654Y-47841500D01*
X146618638Y-47841500D01*
X144821362Y-47841500D01*
X144821345Y-47841500D01*
X144760797Y-47848011D01*
X144760795Y-47848011D01*
X144623795Y-47899111D01*
X144506739Y-47986739D01*
X144419111Y-48103795D01*
X144368011Y-48240795D01*
X144368011Y-48240797D01*
X144361500Y-48301345D01*
X142675212Y-48301345D01*
X142579243Y-48197097D01*
X142579238Y-48197092D01*
X142401577Y-48058812D01*
X142401572Y-48058808D01*
X142203580Y-47951661D01*
X142203577Y-47951659D01*
X142203574Y-47951658D01*
X142203571Y-47951657D01*
X142203569Y-47951656D01*
X141990637Y-47878556D01*
X141768569Y-47841500D01*
X141543431Y-47841500D01*
X141321362Y-47878556D01*
X141108430Y-47951656D01*
X141108419Y-47951661D01*
X140910427Y-48058808D01*
X140910422Y-48058812D01*
X140732761Y-48197092D01*
X140732756Y-48197097D01*
X140580284Y-48362723D01*
X140580276Y-48362734D01*
X140489808Y-48501206D01*
X140436662Y-48546562D01*
X140367431Y-48555986D01*
X140304095Y-48526484D01*
X140282192Y-48501206D01*
X140191723Y-48362734D01*
X140191715Y-48362723D01*
X140039243Y-48197097D01*
X140039238Y-48197092D01*
X139861577Y-48058812D01*
X139861572Y-48058808D01*
X139663580Y-47951661D01*
X139663577Y-47951659D01*
X139663574Y-47951658D01*
X139663571Y-47951657D01*
X139663569Y-47951656D01*
X139450637Y-47878556D01*
X139228569Y-47841500D01*
X139003431Y-47841500D01*
X138781362Y-47878556D01*
X138568430Y-47951656D01*
X138568419Y-47951661D01*
X138370427Y-48058808D01*
X138370422Y-48058812D01*
X138192761Y-48197092D01*
X138192756Y-48197097D01*
X138040284Y-48362723D01*
X138040276Y-48362734D01*
X137949808Y-48501206D01*
X137896662Y-48546562D01*
X137827431Y-48555986D01*
X137764095Y-48526484D01*
X137742192Y-48501206D01*
X137651723Y-48362734D01*
X137651715Y-48362723D01*
X137499243Y-48197097D01*
X137499238Y-48197092D01*
X137321577Y-48058812D01*
X137321572Y-48058808D01*
X137123580Y-47951661D01*
X137123577Y-47951659D01*
X137123574Y-47951658D01*
X137123571Y-47951657D01*
X137123569Y-47951656D01*
X136910637Y-47878556D01*
X136688569Y-47841500D01*
X136463431Y-47841500D01*
X136241362Y-47878556D01*
X136028430Y-47951656D01*
X136028419Y-47951661D01*
X135830427Y-48058808D01*
X135830422Y-48058812D01*
X135652761Y-48197092D01*
X135652756Y-48197097D01*
X135500284Y-48362723D01*
X135500276Y-48362734D01*
X135409808Y-48501206D01*
X135356662Y-48546562D01*
X135287431Y-48555986D01*
X135224095Y-48526484D01*
X135202192Y-48501206D01*
X135111723Y-48362734D01*
X135111715Y-48362723D01*
X134959243Y-48197097D01*
X134959238Y-48197092D01*
X134781577Y-48058812D01*
X134781572Y-48058808D01*
X134583580Y-47951661D01*
X134583577Y-47951659D01*
X134583574Y-47951658D01*
X134583571Y-47951657D01*
X134583569Y-47951656D01*
X134370637Y-47878556D01*
X134148569Y-47841500D01*
X133923431Y-47841500D01*
X133701362Y-47878556D01*
X133488430Y-47951656D01*
X133488419Y-47951661D01*
X133290427Y-48058808D01*
X133290422Y-48058812D01*
X133112761Y-48197092D01*
X133112756Y-48197097D01*
X132960284Y-48362723D01*
X132960276Y-48362734D01*
X132869808Y-48501206D01*
X132816662Y-48546562D01*
X132747431Y-48555986D01*
X132684095Y-48526484D01*
X132662192Y-48501206D01*
X132571723Y-48362734D01*
X132571715Y-48362723D01*
X132419243Y-48197097D01*
X132419238Y-48197092D01*
X132241577Y-48058812D01*
X132241572Y-48058808D01*
X132043580Y-47951661D01*
X132043577Y-47951659D01*
X132043574Y-47951658D01*
X132043571Y-47951657D01*
X132043569Y-47951656D01*
X131830637Y-47878556D01*
X131608569Y-47841500D01*
X131383431Y-47841500D01*
X131161362Y-47878556D01*
X130948430Y-47951656D01*
X130948419Y-47951661D01*
X130750427Y-48058808D01*
X130750422Y-48058812D01*
X130572761Y-48197092D01*
X130572756Y-48197097D01*
X130420284Y-48362723D01*
X130420276Y-48362734D01*
X130329808Y-48501206D01*
X130276662Y-48546562D01*
X130207431Y-48555986D01*
X130144095Y-48526484D01*
X130122192Y-48501206D01*
X130031723Y-48362734D01*
X130031715Y-48362723D01*
X129879243Y-48197097D01*
X129879238Y-48197092D01*
X129701577Y-48058812D01*
X129701572Y-48058808D01*
X129503580Y-47951661D01*
X129503577Y-47951659D01*
X129503574Y-47951658D01*
X129503571Y-47951657D01*
X129503569Y-47951656D01*
X129290637Y-47878556D01*
X129068569Y-47841500D01*
X128843431Y-47841500D01*
X128621362Y-47878556D01*
X128408430Y-47951656D01*
X128408419Y-47951661D01*
X128210427Y-48058808D01*
X128210422Y-48058812D01*
X128032761Y-48197092D01*
X128032756Y-48197097D01*
X127880284Y-48362723D01*
X127880276Y-48362734D01*
X127786251Y-48506650D01*
X127733105Y-48552007D01*
X127663873Y-48561430D01*
X127600538Y-48531928D01*
X127580868Y-48509951D01*
X127454113Y-48328926D01*
X127454108Y-48328920D01*
X127287082Y-48161894D01*
X127093578Y-48026399D01*
X126879492Y-47926570D01*
X126879486Y-47926567D01*
X126666000Y-47869364D01*
X126666000Y-48766988D01*
X126608993Y-48734075D01*
X126481826Y-48700000D01*
X126350174Y-48700000D01*
X126223007Y-48734075D01*
X126166000Y-48766988D01*
X126166000Y-47869364D01*
X126165999Y-47869364D01*
X125952513Y-47926567D01*
X125952507Y-47926570D01*
X125738422Y-48026399D01*
X125738420Y-48026400D01*
X125544926Y-48161886D01*
X125544920Y-48161891D01*
X125377891Y-48328920D01*
X125377890Y-48328922D01*
X125251131Y-48509952D01*
X125196554Y-48553577D01*
X125127055Y-48560769D01*
X125064701Y-48529247D01*
X125045752Y-48506656D01*
X124951722Y-48362732D01*
X124951715Y-48362725D01*
X124951715Y-48362723D01*
X124799243Y-48197097D01*
X124799238Y-48197092D01*
X124621577Y-48058812D01*
X124621572Y-48058808D01*
X124423580Y-47951661D01*
X124423577Y-47951659D01*
X124423574Y-47951658D01*
X124423571Y-47951657D01*
X124423569Y-47951656D01*
X124210637Y-47878556D01*
X123988569Y-47841500D01*
X123763431Y-47841500D01*
X123541362Y-47878556D01*
X123328430Y-47951656D01*
X123328419Y-47951661D01*
X123130427Y-48058808D01*
X123130422Y-48058812D01*
X122952761Y-48197092D01*
X122952756Y-48197097D01*
X122800284Y-48362723D01*
X122800276Y-48362734D01*
X122709808Y-48501206D01*
X122656662Y-48546562D01*
X122587431Y-48555986D01*
X122524095Y-48526484D01*
X122502192Y-48501206D01*
X122411723Y-48362734D01*
X122411715Y-48362723D01*
X122259243Y-48197097D01*
X122259238Y-48197092D01*
X122081577Y-48058812D01*
X122081572Y-48058808D01*
X121883580Y-47951661D01*
X121883577Y-47951659D01*
X121883574Y-47951658D01*
X121883571Y-47951657D01*
X121883569Y-47951656D01*
X121670637Y-47878556D01*
X121448569Y-47841500D01*
X121223431Y-47841500D01*
X121001362Y-47878556D01*
X120788430Y-47951656D01*
X120788419Y-47951661D01*
X120590427Y-48058808D01*
X120590422Y-48058812D01*
X120412761Y-48197092D01*
X120349548Y-48265760D01*
X120289661Y-48301750D01*
X120219823Y-48299649D01*
X120162207Y-48260124D01*
X120142138Y-48225110D01*
X120096889Y-48103796D01*
X120063214Y-48058812D01*
X120009261Y-47986739D01*
X119892204Y-47899111D01*
X119755203Y-47848011D01*
X119694654Y-47841500D01*
X119694638Y-47841500D01*
X117897362Y-47841500D01*
X117897345Y-47841500D01*
X117836797Y-47848011D01*
X117836795Y-47848011D01*
X117699795Y-47899111D01*
X117582739Y-47986739D01*
X117495111Y-48103795D01*
X117444011Y-48240795D01*
X117444011Y-48240797D01*
X117437500Y-48301345D01*
X100075500Y-48301345D01*
X100075500Y-47428092D01*
X100076097Y-47415938D01*
X100087494Y-47300222D01*
X100092234Y-47276389D01*
X100124216Y-47170959D01*
X100133508Y-47148526D01*
X100185442Y-47051365D01*
X100198938Y-47031166D01*
X100268827Y-46946006D01*
X100286006Y-46928827D01*
X100371166Y-46858938D01*
X100391365Y-46845442D01*
X100488526Y-46793508D01*
X100510959Y-46784216D01*
X100616389Y-46752234D01*
X100640220Y-46747494D01*
X100755939Y-46736097D01*
X100768093Y-46735500D01*
X100786531Y-46735500D01*
X163417365Y-46735500D01*
X163484404Y-46755185D01*
G37*
%TD.AperFunction*%
%TD*%
M02*
