%TF.GenerationSoftware,KiCad,Pcbnew,8.0.8*%
%TF.CreationDate,2025-02-03T17:06:43-07:00*%
%TF.ProjectId,ArduinoShieldThermoPro,41726475-696e-46f5-9368-69656c645468,rev?*%
%TF.SameCoordinates,Original*%
%TF.FileFunction,Soldermask,Top*%
%TF.FilePolarity,Negative*%
%FSLAX46Y46*%
G04 Gerber Fmt 4.6, Leading zero omitted, Abs format (unit mm)*
G04 Created by KiCad (PCBNEW 8.0.8) date 2025-02-03 17:06:43*
%MOMM*%
%LPD*%
G01*
G04 APERTURE LIST*
G04 Aperture macros list*
%AMRoundRect*
0 Rectangle with rounded corners*
0 $1 Rounding radius*
0 $2 $3 $4 $5 $6 $7 $8 $9 X,Y pos of 4 corners*
0 Add a 4 corners polygon primitive as box body*
4,1,4,$2,$3,$4,$5,$6,$7,$8,$9,$2,$3,0*
0 Add four circle primitives for the rounded corners*
1,1,$1+$1,$2,$3*
1,1,$1+$1,$4,$5*
1,1,$1+$1,$6,$7*
1,1,$1+$1,$8,$9*
0 Add four rect primitives between the rounded corners*
20,1,$1+$1,$2,$3,$4,$5,0*
20,1,$1+$1,$4,$5,$6,$7,0*
20,1,$1+$1,$6,$7,$8,$9,0*
20,1,$1+$1,$8,$9,$2,$3,0*%
G04 Aperture macros list end*
%ADD10O,1.600000X1.600000*%
%ADD11C,1.600000*%
%ADD12O,1.700000X1.950000*%
%ADD13RoundRect,0.250000X-0.600000X-0.725000X0.600000X-0.725000X0.600000X0.725000X-0.600000X0.725000X0*%
%ADD14R,1.700000X1.700000*%
%ADD15O,1.700000X1.700000*%
%ADD16C,2.000000*%
%ADD17C,1.440000*%
%ADD18R,1.800000X1.800000*%
%ADD19C,1.800000*%
G04 APERTURE END LIST*
D10*
%TO.C,R6*%
X132960000Y-62450000D03*
D11*
X132960000Y-52290000D03*
%TD*%
%TO.C,R5*%
X141676000Y-81644000D03*
D10*
X131516000Y-81644000D03*
%TD*%
D11*
%TO.C,R4*%
X143540000Y-69640000D03*
D10*
X133380000Y-69640000D03*
%TD*%
%TO.C,R3*%
X131760000Y-89090000D03*
D11*
X141920000Y-89090000D03*
%TD*%
%TO.C,R2*%
X141600000Y-85030000D03*
D10*
X131440000Y-85030000D03*
%TD*%
D11*
%TO.C,R1*%
X141820000Y-92940000D03*
D10*
X131660000Y-92940000D03*
%TD*%
D12*
%TO.C,J7*%
X144490000Y-55600000D03*
X141990000Y-55600000D03*
D13*
X139490000Y-55600000D03*
%TD*%
D14*
%TO.C,J1*%
X127940000Y-97460000D03*
D15*
X130480000Y-97460000D03*
X133020000Y-97460000D03*
X135560000Y-97460000D03*
X138100000Y-97460000D03*
X140640000Y-97460000D03*
X143180000Y-97460000D03*
X145720000Y-97460000D03*
%TD*%
D14*
%TO.C,J3*%
X150800000Y-97460000D03*
D15*
X153340000Y-97460000D03*
X155880000Y-97460000D03*
X158420000Y-97460000D03*
X160960000Y-97460000D03*
X163500000Y-97460000D03*
%TD*%
D14*
%TO.C,J2*%
X118796000Y-49200000D03*
D15*
X121336000Y-49200000D03*
X123876000Y-49200000D03*
X126416000Y-49200000D03*
X128956000Y-49200000D03*
X131496000Y-49200000D03*
X134036000Y-49200000D03*
X136576000Y-49200000D03*
X139116000Y-49200000D03*
X141656000Y-49200000D03*
%TD*%
D16*
%TO.C,SW2*%
X157280000Y-61340000D03*
X157280000Y-54840000D03*
X161780000Y-61340000D03*
X161780000Y-54840000D03*
%TD*%
D17*
%TO.C,RV1*%
X152080000Y-90320000D03*
X154620000Y-92860000D03*
X157160000Y-90320000D03*
%TD*%
D15*
%TO.C,J5*%
X122060000Y-64020000D03*
X119520000Y-64020000D03*
X116980000Y-64020000D03*
X114440000Y-64020000D03*
X111900000Y-64020000D03*
X109360000Y-64020000D03*
X106820000Y-64020000D03*
D14*
X104280000Y-64020000D03*
%TD*%
D16*
%TO.C,SW5*%
X140840000Y-77970000D03*
X134340000Y-77970000D03*
X140840000Y-73470000D03*
X134340000Y-73470000D03*
%TD*%
%TO.C,SW4*%
X143240000Y-66040000D03*
X136740000Y-66040000D03*
X143240000Y-61540000D03*
X136740000Y-61540000D03*
%TD*%
D18*
%TO.C,D1*%
X128780000Y-55200000D03*
D19*
X126240000Y-55200000D03*
%TD*%
D16*
%TO.C,SW3*%
X161780000Y-64630000D03*
X161780000Y-71130000D03*
X157280000Y-64630000D03*
X157280000Y-71130000D03*
%TD*%
D14*
%TO.C,J4*%
X145720000Y-49200000D03*
D15*
X148260000Y-49200000D03*
X150800000Y-49200000D03*
X153340000Y-49200000D03*
X155880000Y-49200000D03*
X158420000Y-49200000D03*
X160960000Y-49200000D03*
X163500000Y-49200000D03*
%TD*%
D16*
%TO.C,SW1*%
X157190000Y-81270000D03*
X157190000Y-74770000D03*
X161690000Y-81270000D03*
X161690000Y-74770000D03*
%TD*%
D14*
%TO.C,J6*%
X111740000Y-69080000D03*
D15*
X114280000Y-69080000D03*
X116820000Y-69080000D03*
X119360000Y-69080000D03*
%TD*%
M02*
